<svg fill="none" height="52" viewBox="0 0 100 52" width="100" xmlns="http://www.w3.org/2000/svg"><g clip-rule="evenodd" fill="#fff" fill-rule="evenodd"><path d="m30.1713 13.4271c0 1.2179-.986 2.2063-2.2016 2.2063-1.2166 0-2.2031-.9884-2.2031-2.2063 0-1.219.9865-2.2069 2.2031-2.2069 1.2156 0 2.2016.9879 2.2016 2.2069z"/><path d="m54.5244 2.62892h2.5917v-2.5966934h-2.5917z"/><path d="m58.415 2.62892h2.5907v-2.5966934h-2.5907z"/><path d="m41.5869 20.2363h2.5907v-2.5967h-2.5907z"/><path d="m45.4736 20.2363h2.5917v-2.5967h-2.5917z"/><path d="m67.9072 2.5967h2.5922v-2.5967h-2.5922z"/><path d="m71.7935 10.446c0 1.4338-1.1602 2.5957-2.5912 2.5957-1.4309 0-2.5922-1.1619-2.5922-2.5957 0-1.4342 1.1613-2.59767 2.5922-2.59767h2.5912zm-11.4242.0061c-.0046 1.4307-1.1628 2.6145-2.5922 2.5911h-2.5999v-2.5972h.0087c0-1.43526 1.1597-2.59721 2.5912-2.59721h.002c1.431.00204 2.5902 1.16399 2.5902 2.59721zm-20.5707-.0061c0 1.4338-1.1613 2.5972-2.5932 2.5972-1.431 0-2.5902-1.1634-2.5902-2.5972 0-1.43522 1.1592-2.59767 2.5902-2.59767h2.5932zm29.4037-5.19356c-2.8624 0-5.1834 2.32492-5.1834 5.19336 0 .9589.2606 1.8552.7127 2.5972h-2.4723c.4419-.7649.7005-1.6505.7005-2.5972v-.0025c-.0031-2.86696-2.3225-5.19086-5.1845-5.19086-.608 0-1.1901.10586-1.7322.29723-2.0105.71458-3.4507 2.63691-3.4507 4.89613h.0046v2.5972h-3.1296c.4409-.7649.6984-1.6505.6984-2.5972v-5.19336h-2.5912v5.19336c0 1.4338-1.1597 2.5972-2.5917 2.5972h-3.2901c.4414-.7649.6984-1.6505.6984-2.5972v-5.19336h-5.1844c-2.8614 0-5.1824 2.32492-5.1824 5.19336 0 2.8675 2.321 5.1929 5.1824 5.1929 1.8546 0 3.4761-.9782 4.393-2.443v2.443h3.3831c1.8552 0 3.4782-.9797 4.3935-2.4481v2.4481h8.4045c1.8496-.002 3.4685-.9782 4.3839-2.4399v2.4399h7.0375c2.863 0 5.1824-2.3254 5.1824-5.1929v-5.19336z"/><path d="m.699994 49.5988c0 .1959-.154426.3506-.349997.3506-.195572 0-.349997-.1547-.349997-.3506v-6.3233c0-.196.154425-.3507.349997-.3507h3.304903c.17525 0 .31901.144.31901.3196 0 .1751-.14376.3197-.31901.3197h-2.954906v2.5687h2.265076c.17525 0 .31901.1445.31901.3196 0 .1756-.14376.3196-.31901.3196h-2.265076z"/><path d="m7.85664 48.0826v-.4337h-1.45181c-.669 0-1.13228.279-1.13228.877 0 .5364.37032.8769 1.17343.8769.72082 0 1.41066-.4433 1.41066-1.3202zm-2.41082-1.8979c-.10312.1135-.17474.144-.2677.144-.16459 0-.29819-.1338-.29819-.2992 0-.0718.02032-.1232.05131-.1751.28802-.454.84375-.8148 1.70884-.8148 1.19426 0 1.8531.7013 1.8531 1.7533v2.8369c0 .1756-.14375.3197-.31901.3197-.17474 0-.31901-.1441-.31901-.3197v-.371c-.25754.4845-.85442.7426-1.47212.7426-1.09164 0-1.78148-.5263-1.78148-1.4755 0-.9075.68984-1.4541 1.8018-1.4541h1.4518v-.2789c0-.7013-.46378-1.1345-1.21508-1.1345-.54557 0-.87474.1649-1.19426.5263z"/><path d="m12.581 49.7945-1.8221-2.3418-.6284.506v1.6602c0 .1862-.14424.3303-.32914.3303-.18541 0-.32968-.1441-.32968-.3303v-6.7666c0-.1858.14427-.3303.32968-.3303.1849 0 .32914.1445.32914.3303v4.322l2.4297-1.991c.0828-.0718.1651-.0824.2265-.0824.1855 0 .3297.1445.3297.3303 0 .0824-.031.1857-.1341.2682l-1.6885 1.3513 1.8328 2.362c.0614.0723.0721.1446.0721.2062 0 .1862-.1443.3303-.3297.3303-.1132 0-.2057-.0514-.288-.1547z"/><path d="m15.6936 45.6383c-.8956 0-1.3899.5777-1.4513 1.4953h2.769c0-.7425-.2571-1.4953-1.3177-1.4953zm-.0015-.5987c1.6474 0 1.9664 1.31 1.9664 2.0113 0 .2993 0 .6602-.4115.6602h-3.0062c0 1.0214.5867 1.6816 1.5544 1.6816.5969 0 .9474-.2265 1.2354-.4433.062-.0413.1031-.0621.1854-.0621.1646 0 .2982.1343.2982.2992 0 .1135-.0513.1751-.1128.2372-.1544.1547-.6898.5777-1.6062.5777-1.3695 0-2.2239-.7533-2.2239-2.4863 0-1.5884.7828-2.4755 2.1208-2.4755z"/><path d="m20.2331 45.6377c-.8961 0-1.3899.5777-1.4519 1.4953h2.7695c0-.7426-.2575-1.4953-1.3176-1.4953zm.001-.5986c1.6474 0 1.9664 1.31 1.9664 2.0114 0 .2992 0 .6601-.4115.6601h-3.0067c0 1.0215.5867 1.6816 1.5544 1.6816.5974 0 .9474-.2265 1.2359-.4433.0615-.0413.1026-.0621.1854-.0621.1646 0 .2982.1343.2982.2992 0 .1135-.0513.1751-.1128.2372-.1544.1547-.6903.5777-1.6067.5777-1.369 0-2.2234-.7533-2.2234-2.4863 0-1.5884.7823-2.4755 2.1208-2.4755z"/><path d="m26.8835 46.8649v2.754c0 .1857-.1442.3303-.3291.3303-.1859 0-.3297-.1446-.3297-.3303v-2.6201c0-.8149-.2372-1.3717-1.2354-1.3717-1.0195 0-1.3695.6189-1.3695 1.4439v2.5479c0 .1857-.1438.3303-.3297.3303-.1849 0-.3292-.1446-.3292-.3303v-6.7666c0-.1858.1443-.3303.3292-.3303.1859 0 .3297.1445.3297.3303v2.9087c.1956-.3919.7-.7217 1.3695-.7217 1.5854 0 1.8942.9487 1.8942 1.8256z"/><path d="m30.2109 47.7527v-4.5593c0-.1964.1545-.3506.35-.3506.1956 0 .35.1542.35.3506v4.5593c0 .8148.2987 1.5986 1.7195 1.5986 1.4107 0 1.7089-.7838 1.7089-1.5986v-4.5593c0-.1964.1544-.3506.35-.3506.1961 0 .35.1542.35.3506v4.5593c0 1.1344-.4633 2.2587-2.4089 2.2587-1.9455 0-2.4195-1.1243-2.4195-2.2587z"/><path d="m40.1453 46.8652v2.7539c0 .1858-.1443.3304-.3292.3304-.1859 0-.3297-.1446-.3297-.3304v-2.6201c0-.8148-.2372-1.3716-1.2354-1.3716-1.0195 0-1.3695.6189-1.3695 1.4439v2.5478c0 .1858-.1438.3304-.3297.3304-.1849 0-.3291-.1446-.3291-.3304v-4.1877c0-.1857.1442-.3303.3291-.3303.1859 0 .3297.1446.3297.3303v.3299c.1956-.3919.7-.7217 1.3695-.7217 1.5854 0 1.8943.9486 1.8943 1.8256z"/><path d="m41.7743 49.6195c0 .1858-.1446.3304-.3298.3304-.1863 0-.3303-.1446-.3303-.3304v-4.1882c0-.1852.144-.3298.3303-.3298.1852 0 .3298.1446.3298.3298zm-.7235-5.8796c0-.2993.1445-.4128.3924-.4128.2468 0 .3914.1135.3914.4128 0 .2474-.1446.3919-.3914.3919-.2479 0-.3924-.1445-.3924-.3919z"/><path d="m44.1325 49.7433-1.75-4.1674c-.0106-.031-.0309-.0727-.0309-.1445 0-.1858.1437-.3303.3291-.3303s.2677.1135.3089.2168l1.4518 3.5586 1.4518-3.5586c.0411-.1033.1234-.2168.3088-.2168s.3297.1445.3297.3303c0 .0718-.0208.1135-.031.1445l-1.7505 4.1674c-.0619.1343-.1747.2061-.3088.2061s-.2469-.0718-.3089-.2061z"/><path d="m48.9177 45.6379c-.896 0-1.3898.5777-1.4518 1.4953h2.7695c0-.7425-.2575-1.4953-1.3177-1.4953zm.001-.5988c1.6468 0 1.9663 1.31 1.9663 2.0114 0 .2992 0 .6601-.4114.6601h-3.0067c0 1.0215.5867 1.6816 1.5544 1.6816.5974 0 .9474-.2265 1.2359-.4433.0614-.0413.1026-.0621.1854-.0621.1646 0 .2982.1343.2982.2992 0 .1135-.0513.1751-.1133.2372-.1539.1547-.6898.5777-1.6062.5777-1.369 0-2.2234-.7533-2.2234-2.4863 0-1.5884.7822-2.4755 2.1208-2.4755z"/><path d="m52.3063 45.8851c.2057-.4744.7208-.825 1.4315-.825.1747 0 .319.1445.319.3196 0 .1756-.1443.3201-.319.3201-.9474 0-1.4315.6601-1.4315 1.6088v2.3107c0 .1858-.1443.3303-.3292.3303-.1854 0-.3296-.1445-.3296-.3303v-4.1882c0-.1853.1442-.3298.3296-.3298.1849 0 .3292.1445.3292.3298z"/><path d="m55.1174 46.2978c0 1.083 2.7081.6804 2.7081 2.3315 0 .9385-.7727 1.3615-1.7505 1.3615-.8443 0-1.493-.4026-1.7607-.7431-.0518-.0723-.0721-.1237-.0721-.1955 0-.1654.1341-.2992.2987-.2992.0614 0 .1442.0203.2265.1028.319.3196.731.5059 1.3076.5059.5867 0 1.0911-.196 1.0911-.7324 0-1.0627-2.7075-.6398-2.7075-2.3315 0-.8566.7-1.248 1.5752-1.248.7 0 1.2456.2372 1.5646.6601.031.0412.0721.1028.0721.196 0 .1649-.1336.2987-.2987.2987-.0513 0-.1336-.0102-.2159-.0926-.2778-.2682-.5872-.4331-1.1221-.4331-.4638 0-.9164.144-.9164.6189z"/><path d="m59.3319 49.6195c0 .1858-.1446.3304-.3303.3304-.1858 0-.3298-.1446-.3298-.3304v-4.1882c0-.1852.144-.3298.3298-.3298.1857 0 .3303.1446.3303.3298zm-.7235-5.8796c0-.2993.1445-.4128.3919-.4128.2473 0 .3924.1135.3924.4128 0 .2474-.1451.3919-.3924.3919-.2474 0-.3919-.1445-.3919-.3919z"/><path d="m60.6662 44.1008c0-.1756.1544-.3303.3297-.3303.1854 0 .3292.1547.3292.3303v1.0831h.6695c.1747 0 .3088.1343.3088.3094 0 .1756-.1341.3095-.3088.3095h-.6695v2.8471c0 .4438.2473.6805.5973.6805.1748 0 .3196.1343.3196.3099s-.1448.3095-.3196.3095c-.8132 0-1.2562-.5472-1.2562-1.2999v-2.8471h-.4013c-.1752 0-.3088-.1339-.3088-.3095 0-.1751.1336-.3094.3088-.3094h.4013z"/><path d="m64.2724 49.671-1.7195-4.0951c-.0101-.031-.0309-.0727-.0309-.145 0-.1853.1442-.3298.3296-.3298s.2677.1135.3089.2168l1.4513 3.5586 1.4523-3.5586c.0406-.1033.1234-.2168.3083-.2168.1859 0 .3297.1445.3297.3298 0 .0723-.0208.114-.031.145l-2.0283 4.8377c-.4222 1.0108-.9469 1.5268-1.9253 1.5268-.1747 0-.3083-.1343-.3083-.3094 0-.1756.1336-.3095.3083-.3095.8961 0 1.1328-.6092 1.5549-1.6505z"/><path d="m70.325 46.6279v2.9708c0 .1858-.1544.3507-.35.3507s-.35-.1649-.35-.3507v-6.4057c0-.1858.1544-.3507.35-.3507s.35.1649.35.3507v2.7957h3.5828v-2.7957c0-.1858.1544-.3507.35-.3507.1955 0 .3505.1649.3505.3507v6.4057c0 .1858-.155.3507-.3505.3507-.1956 0-.35-.1649-.35-.3507v-2.9708z"/><path d="m79.1953 47.5147c0-1.2998-.5455-1.877-1.4924-1.877-.9479 0-1.4929.5772-1.4929 1.877 0 1.3203.545 1.8877 1.4929 1.8877.9469 0 1.4924-.5674 1.4924-1.8877zm.6667-.0001c0 1.6918-.8234 2.4858-2.1615 2.4858-1.3283 0-2.1624-.794-2.1624-2.4858 0-1.6917.8341-2.4755 2.1624-2.4755 1.3381 0 2.1615.7838 2.1615 2.4755z"/><path d="m81.176 46.2978c0 1.083 2.7076.6804 2.7076 2.3315 0 .9385-.7717 1.3615-1.75 1.3615-.8443 0-1.493-.4026-1.7607-.7431-.0513-.0723-.0721-.1237-.0721-.1955 0-.1654.1341-.2992.2987-.2992.0614 0 .1437.0203.2265.1028.319.3196.731.5059 1.3076.5059.5867 0 1.0911-.196 1.0911-.7324 0-1.0627-2.7075-.6398-2.7075-2.3315 0-.8566.7-1.248 1.5752-1.248.7 0 1.2456.2372 1.5651.6601.0305.0412.0721.1028.0721.196 0 .1649-.1341.2987-.2987.2987-.0518 0-.1341-.0102-.2164-.0926-.2778-.2682-.5867-.4331-1.1221-.4331-.4633 0-.9164.144-.9164.6189z"/><path d="m86.8003 49.4027c.9469 0 1.4823-.5986 1.4823-1.8878s-.5557-1.877-1.5031-1.877c-.762 0-1.4.5359-1.4 1.877 0 1.331.6177 1.8878 1.4208 1.8878zm-1.3993-3.9717v.3298c.1956-.3507.7107-.7217 1.4005-.7217 1.338 0 2.1513.7838 2.1513 2.4755 0 1.6918-.8133 2.4858-2.1513 2.4858-.6898 0-1.1841-.3711-1.4005-.7217v2.331c0 .1756-.1544.3303-.3296.3303-.1748 0-.3292-.1547-.3292-.3303v-6.1787c0-.1858.1544-.3304.3292-.3304.1752 0 .3296.1446.3296.3304z"/><path d="m90.3758 49.6195c0 .1858-.1445.3304-.3298.3304-.1857 0-.3303-.1446-.3303-.3304v-4.1882c0-.1852.1446-.3298.3303-.3298.1853 0 .3298.1446.3298.3298zm-.7235-5.8796c0-.2993.1441-.4128.3919-.4128.2474 0 .3919.1135.3919.4128 0 .2474-.1445.3919-.3919.3919-.2478 0-.3919-.1445-.3919-.3919z"/><path d="m91.7111 44.1008c0-.1756.1545-.3303.3292-.3303.1854 0 .3297.1547.3297.3303v1.0831h.669c.1752 0 .3093.1343.3093.3094 0 .1756-.1341.3095-.3093.3095h-.669v2.8471c0 .4438.2474.6805.5974.6805.1747 0 .319.1343.319.3099s-.1443.3095-.319.3095c-.8138 0-1.2563-.5472-1.2563-1.2999v-2.8471h-.4018c-.1747 0-.3083-.1339-.3083-.3095 0-.1751.1336-.3094.3083-.3094h.4018z"/><path d="m97.009 48.0826v-.4337h-1.4513c-.6695 0-1.1328.279-1.1328.877 0 .5364.3708.8769 1.1734.8769.7208 0 1.4107-.4433 1.4107-1.3202zm-2.4103-1.8979c-.1031.1135-.1753.144-.2682.144-.1646 0-.2982-.1338-.2982-.2992 0-.0718.0203-.1232.0513-.1751.2885-.454.8442-.8148 1.7088-.8148 1.1943 0 1.8536.7013 1.8536 1.7533v2.8369c0 .1756-.1442.3197-.3195.3197-.1747 0-.319-.1441-.319-.3197v-.371c-.2575.4845-.8549.7426-1.4721.7426-1.0912 0-1.7815-.5263-1.7815-1.4755 0-.9075.6903-1.4541 1.8023-1.4541h1.4513v-.2789c0-.7013-.4633-1.1345-1.2151-1.1345-.5455 0-.8747.1649-1.1937.5263z"/><path d="m99.279 42.8523v5.8901c0 .4128.1341.5879.4119.5879.1646 0 .3089.1343.3089.3094 0 .1756-.1443.3095-.3089.3095-.6898 0-1.0708-.4123-1.0708-1.2068v-5.8901c0-.1756.1544-.3298.3292-.3298.1854 0 .3297.1542.3297.3298z"/><path d="m4.14955 38.8188v.5354c0 .0814-.03607.1176-.11735.1176h-.44346c-.08179 0-.127-.0362-.127-.1176v-.5354c0-.0815.04521-.1273.127-.1273h.44346c.08128 0 .11735.0458.11735.1273zm-1.20296-.0002v.5355c0 .0814-.03607.1175-.11785.1175h-.45261c-.08127 0-.11734-.0361-.11734-.1175v-.5355c0-.0814.03607-.1272.11734-.1272h.45261c.08178 0 .11785.0458.11785.1272zm-.87712-1.6505h2.83299v-3.4009c0-.4173.13614-.771.43432-1.0611.29006-.2998.65174-.4449 1.06828-.4449s.76044.1451 1.05913.4449c.29869.2901.44347.6438.44347 1.0611v2.3397h1.14041v.6622h-1.46653c-.18084 0-.33476-.1548-.33476-.336v-2.6659c0-.4626-.37997-.8438-.84172-.8438s-.84172.3812-.84172.8438v3.7368c0 .1812-.15392.3262-.33476.3262h-3.1774c-.52474 0-.97786-.1903-1.366971-.5715-.379967-.3807-.569951-.8434-.569951-1.3874 0-.8342.506962-1.4964 1.086052-1.7961l.18999-.0998c.01829-.0092.03657-.0092.05435-.0092.05436 0 .09042.0275.10871.0637l.18998.3812c.00915.0269.01829.0453.01829.0631 0 .0458-.01829.0728-.0635.1002l-.18998.0998c-.38911.199-.733013.6438-.733013 1.1971 0 .7069.588243 1.2968 1.294333 1.2968z"/><path d="m11.0683 33.2691c-.2444.2179-.4074.4718-.4704.7528l.9682 2.0857h.7696l.9682-2.0949c-.0452-.2992-.1991-.5532-.4704-.7619-.2626-.2173-.5613-.3262-.8869-.3262-.317 0-.6066.118-.8783.3445zm3.8665 3.5003h-6.20042v-.6621h2.10002l-.88697-1.8954c-.01829-.0448-.02743-.0998-.02743-.145v-.0453c.06349-.454.2809-.8525.6609-1.1971.4074-.3812.86-.5716 1.3669-.5716.507 0 .9683.1812 1.3665.5355.3983.3532.6157.7705.6609 1.251v.0361c0 .0458-.0092.0916-.0269.1364l-.8875 1.8954h1.874z"/><path d="m19.3095 34.8556v-.6805c0-.6804-.5705-1.2515-1.2491-1.2515-.6787 0-1.24.5711-1.24 1.2515v1.9315h1.24c.6786 0 1.2491-.571 1.2491-1.251zm.1082-2.031c.3713.3716.5608.825.5608 1.3508v.6805c0 .5257-.1895.9792-.5608 1.3513-.3713.3715-.8331.5618-1.3578.5618h-3.3949v-.6621h1.4849v-1.9315c0-.5258.1899-.9792.5613-1.3508.3708-.3725.8234-.5629 1.3487-.5629.5247 0 .9865.1904 1.3578.5629z"/><path d="m22.557 36.1073h.4435v.6621h-.4252c-.7061 0-1.1495-.4448-1.1495-1.1513v-5.2697c0-.0819.036-.1267.1173-.1267h.4257c.0813 0 .1179.0448.1179.1267v5.2697c0 .3349.1447.4892.4703.4892z"/><path d="m25.888 37.6939v.5355c0 .0809-.0361.1175-.1179.1175h-.4526c-.0813 0-.1173-.0366-.1173-.1175v-.5355c0-.0814.036-.1272.1173-.1272h.4526c.0818 0 .1179.0458.1179.1272zm1.5832-2.467v-.8708c0-.399-.1356-.7253-.416-1.0067-.2809-.281-.6157-.426-1.0139-.426-.6426 0-1.1222.227-1.4483.6799l-.127.1726c-.0269.0366-.0538.0544-.0904.0544-.0269 0-.0452-.0091-.0721-.0269l-.3444-.2448c-.027-.0184-.0453-.0453-.0539-.082v-.0183c0-.027.0086-.0453.0269-.0728l.1179-.172c.4521-.6347 1.1226-.9523 1.9913-.9523.5796 0 1.0769.2001 1.4848.6077.4069.4082.6151.907.6151 1.4872v1.3788c0 .1089.0178.1811.0727.2356.0899.0906.2712.1359.5339.1359h.4251v.6622h-.3073c-.5161 0-.8691-.1451-1.0957-.453-.2713.3079-.6695.453-1.1765.453h-3.82v-.6622h3.82c.6066-.0087.8778-.2718.8778-.8795z"/><path d="m30.4879 35.6177v-5.2698c0-.0814.0361-.1267.1178-.1267h.4252c.0818 0 .1179.0453.1179.1267v5.2698c0 .7069-.4532 1.1512-1.1496 1.1512h-1.05v-.6621h1.05.0086c.3353-.0087.4801-.1629.4801-.4891z"/><path d="m33.1625 36.7689h-.4343c-.0818 0-.1178-.0361-.1178-.1181v-6.312c0-.0815.036-.1176.1178-.1176h.4343c.0727 0 .1087.0361.1087.1176v6.312c0 .082-.036.1181-.1087.1181z"/><path d="m38.5668 36.1074h1.2496v-1.9315c0-.6891-.5618-1.2515-1.2496-1.2515-.6787 0-1.24.5624-1.24 1.2515v.6805c0 .6891.5613 1.251 1.24 1.251zm3.341.662h-3.3405c-.5247 0-.9778-.1908-1.3486-.5624-.3709-.3715-.5517-.8255-.5517-1.3508v-.6804c0-.5263.1808-.9884.5517-1.3605.3708-.372.8239-.5624 1.3486-.5624.5344 0 .9865.1904 1.3584.5624.3708.3721.5603.8342.5603 1.3605v1.9315h1.4218z"/><path d="m44.2135 37.7576v.5258c0 .0814-.0452.1272-.1269.1272h-.4435c-.0813 0-.1265-.0458-.1265-.1272v-.5258c0-.0819.0452-.1272.1265-.1272h.4435c.0817 0 .1269.0453.1269.1272zm-1.2115 0v.5257c0 .0814-.036.1272-.1178.1272h-.4521c-.0818 0-.1179-.0458-.1179-.1272v-.5257c0-.082.0361-.1273.1179-.1273h.4521c.0818 0 .1178.0453.1178.1273zm.3421-2.1497v-3.0471c0-.0819.0447-.1267.1265-.1267h.416c.0818 0 .127.0448.127.1267v3.1744c0 .0997.0183.1725.0721.2265.091.0911.2718.145.5339.145h.4257v.6622h-.3073c-.444 0-.7788-.1181-.9962-.3359-.0086-.0087-.0178-.0087-.0178-.0173 0 .0086-.0182.0361-.0269.0452-.2088.2087-.4897.308-.8422.308h-1.3578v-.6622h1.3761c.3256 0 .4709-.1629.4709-.4988z"/><path d="m48.46 31.2456v-.5349c0-.0819.0452-.1267.127-.1267h.4434c.0813 0 .1174.0448.1174.1267v.5349c0 .082-.0361.1181-.1174.1181h-.4434c-.0818 0-.127-.0361-.127-.1181zm-1.2026 0v-.5349c0-.0819.0361-.1267.1174-.1267h.4429c.0823 0 .1275.0448.1275.1267v.5349c0 .082-.0452.1181-.1275.1181h-.4429c-.0813 0-.1174-.0361-.1174-.1181zm-.274 2.9298v.6804c0 .68.5705 1.251 1.2496 1.251h1.24v-1.9314c0-.6805-.5613-1.2516-1.24-1.2516-.6791 0-1.2496.5711-1.2496 1.2516zm4.5289 2.5934h-6.6891v-.6622h1.9644c-.317-.3629-.4709-.7792-.4709-1.251v-.6805c0-.5257.19-.9792.5608-1.3507.3713-.3726.8331-.5629 1.3583-.5629.5248 0 .9774.1903 1.3487.5629.3708.3715.5608.825.5608 1.3507v1.9315h1.367z"/><path d="m54.1641 31.2456v-.5349c0-.0819.036-.1267.1178-.1267h.4435c.0818 0 .1265.0448.1265.1267v.5349c0 .082-.0447.1181-.1265.1181h-.4435c-.0818 0-.1178-.0361-.1178-.1181zm.4488 4.8612h1.2486v-1.9314c0-.6892-.5608-1.2516-1.2486-1.2516s-1.2496.5711-1.2496 1.2516v.6804c0 .68.5704 1.251 1.2496 1.251zm1.5776.6622h-4.9874v-.6621h1.9649c-.3084-.3629-.4623-.7792-.4623-1.251v-.6805c0-.5258.19-.9884.5613-1.3604.3714-.3721.8235-.5619 1.3492-.5619.5243 0 .9774.1898 1.3482.5619.3708.372.5613.8346.5613 1.3604v2.2577c0 .1817-.1539.3359-.3352.3359z"/><path d="m61.8771 37.1684h2.8335v-3.4008c0-.4174.1356-.7711.4343-1.0704.2896-.2992.6517-.4443 1.0683-.4443.416 0 .7604.1451 1.0586.4443.2992.2993.444.653.444 1.0704v2.3397h1.1404v.6621h-1.466c-.1814 0-.3353-.1542-.3353-.3359v-2.6659c0-.4627-.38-.8434-.8417-.8434-.4618 0-.8417.3807-.8417.8434v3.7276c0 .1812-.154.3354-.3353.3354h-3.1769c-.5252 0-.9773-.1904-1.367-.5716-.3799-.3807-.5704-.8525-.5704-1.3965 0-.8342.5069-1.4872 1.0865-1.787l.19-.0992c.0183-.0097.0361-.0184.0544-.0184.0543 0 .0904.0362.1087.0723l.1895.3721c.0096.0274.0188.0544.0188.0727 0 .0453-.0188.0637-.0635.0906l-.19.0998c-.3896.1995-.7335.6352-.7335 1.1971 0 .7161.5887 1.3059 1.2943 1.3059z"/><path d="m71.4924 31.2456v-.5349c0-.0819.0452-.1267.127-.1267h.4434c.0813 0 .1265.0448.1265.1267v.5349c0 .082-.0452.1181-.1265.1181h-.4434c-.0818 0-.127-.0361-.127-.1181zm-.7922 2.9298v.6804c0 .68.5699 1.251 1.2491 1.251h1.24v-1.9314c0-.6892-.5608-1.2516-1.24-1.2516s-1.2491.5711-1.2491 1.2516zm4.5289 2.5934h-6.6891v-.6622h1.9644c-.317-.3629-.4704-.7792-.4704-1.251v-.6805c0-.5257.1895-.9792.5608-1.3507.3713-.3726.8326-.5629 1.3578-.5629.5248 0 .9779.1903 1.3487.5629.3708.3715.5613.825.5613 1.3507v1.9315h1.3665z"/><path d="m79.6064 30.5843h.4521c.0817 0 .1269.0448.1269.1273v.5344c0 .0819-.0452.1181-.1269.1181h-.4521c-.0818 0-.1179-.0362-.1179-.1181v-.5344c0-.0825.0361-.1273.1179-.1273zm-.7158-.4719v-.5354c0-.0809.0361-.117.1174-.117h.4439c.0813 0 .1179.0361.1179.117v.5354c0 .0815-.0366.1181-.1179.1181h-.4439c-.0813 0-.1174-.0366-.1174-.1181zm-.6062 1.1336v-.5344c0-.0825.0366-.1273.1179-.1273h.444c.0812 0 .1265.0448.1265.1273v.5344c0 .0819-.0453.1181-.1265.1181h-.444c-.0813 0-.1179-.0362-.1179-.1181zm4.2179 4.8614h.4252v.6616h-.3079c-.3982 0-.7061-.1267-.9504-.3624-.0092-.0097-.0092-.0097-.0183-.027-.1808.254-.5242.3894-.9138.3894h-.4527c-.4526 0-.7782-.1267-1.0047-.3532-.0092.0091-.027.0361-.0361.0453-.2083.2086-.48.3079-.8326.3079h-.4531c-.4435 0-.7874-.1181-1.0048-.3354-.0091-.0087-.0091-.0178-.0091-.0178-.1986.2265-.4882.3532-.8687.3532h-1.1495v-.6616h1.1678c.3261 0 .4709-.1634.4709-.4988v-3.0477c0-.0814.0361-.1267.1174-.1267h.4256c.0813 0 .1265.0453.1265.1267v3.1744c0 .0998.0183.1725.0722.2265.0909.0911.2717.1456.5344.1456h.5791c.3261 0 .4795-.1634.4795-.4988v-2.8115c0-.0814.0366-.1176.1178-.1176h.4252c.0818 0 .1184.0362.1184.1176v2.9382c0 .0998.0178.1725.0721.2265.0996.0911.2804.1456.543.1456h.57c.3353 0 .4897-.1634.4897-.4988v-3.0477c0-.0814.036-.1267.1168-.1267h.4257c.0818 0 .1178.0453.1178.1267v3.0477c0 .3354.2713.4988.6066.4988z"/><path d="m85.3359 31.2456v-.5349c0-.0819.0361-.1267.1179-.1267h.4435c.0812 0 .1264.0448.1264.1267v.5349c0 .082-.0452.1181-.1264.1181h-.4435c-.0818 0-.1179-.0361-.1179-.1181zm-1.2148 0v-.5349c0-.0819.0452-.1267.126-.1267h.4531c.0813 0 .1173.0448.1173.1267v.5349c0 .082-.036.1181-.1173.1181h-.4531c-.0808 0-.126-.0361-.126-.1181zm.6238 4.3622v-3.0471c0-.082.0452-.1273.1173-.1273h.4257c.0813 0 .1179.0453.1179.1273v3.1743c0 .0998.0269.1726.0813.2265.0904.0911.2717.1451.5338.1451h.4257v.6621h-.3078c-.444 0-.7874-.1181-1.0048-.3359 0-.0087-.0091-.0087-.0091-.0173l-.0361.0453c-.2078.2087-.48.3079-.8326.3079h-1.5569v-.6621h1.5752c.3256 0 .4704-.1721.4704-.4988z"/><path d="m93.7982 36.1072h.4257v.6622h-.3079c-.3982 0-.7061-.1268-.9509-.3629-.0086-.0092-.0264-.0178-.0264-.027-.0097.0178-.0275.0453-.0635.0814-.2083.2087-.4801.3085-.8326.3085h-.4618c-.4434 0-.769-.1181-.9961-.3359v-.0087l-.0091-.0091c-.027.0274-.0361.0452-.0361.0452-.2078.2087-.4882.3085-.8417.3085h-.4526c-.4526 0-.7783-.1181-1.0043-.3446v-.0091c-.0092.0178-.0274.0366-.0366.0452-.2083.2087-.48.3085-.8326.3085h-1.15v-.6622h1.1678c.3256 0 .4709-.1628.4709-.4988v-3.0471c0-.0819.0361-.1272.1174-.1272h.4256c.0818 0 .1179.0453.1179.1272v3.1744c0 .0997.0178.172.0721.2265.0996.0911.2804.145.5431.145h.5796c.3256 0 .48-.1628.48-.4988v-2.8114c0-.0815.0361-.1176.1173-.1176h.4257c.0813 0 .1174.0361.1174.1176v2.9387c0 .0997.0183.172.0726.2265.0904.0911.2804.145.543.145h.5705c.3348 0 .4882-.1628.4882-.4988v-3.0471c0-.0819.0365-.1272.1178-.1272h.4252c.0818 0 .1184.0453.1184.1272v3.0471c0 .336.2712.4988.606.4988z"/><path d="m98.6459 34.8553v-.6804c0-.6805-.5705-1.2516-1.2497-1.2516-.6786 0-1.24.5711-1.24 1.2516v1.9315h1.24c.6792 0 1.2497-.5711 1.2497-1.2511zm.1067-2.0312c.3709.3716.5609.8251.5609 1.3508v.6805c0 .5257-.19.9792-.5609 1.3513-.3713.3715-.833.5619-1.3583.5619h-3.3943v-.6622h1.4848v-1.9315c0-.5257.19-.9792.5608-1.3508.3714-.3725.824-.5629 1.3487-.5629.5253 0 .987.1904 1.3583.5629z"/></g></svg>