<svg width="100" height="52" viewBox="0 0 100 52" fill="none" xmlns="http://www.w3.org/2000/svg">
<path fill-rule="evenodd" clip-rule="evenodd" d="M30.1713 13.4271C30.1713 14.645 29.1853 15.6334 27.9697 15.6334C26.7531 15.6334 25.7666 14.645 25.7666 13.4271C25.7666 12.2081 26.7531 11.2202 27.9697 11.2202C29.1853 11.2202 30.1713 12.2081 30.1713 13.4271Z" fill="white"/>
<path fill-rule="evenodd" clip-rule="evenodd" d="M54.5244 2.62892H57.1161V0.0322266H54.5244V2.62892Z" fill="white"/>
<path fill-rule="evenodd" clip-rule="evenodd" d="M58.415 2.62892H61.0057V0.0322266H58.415V2.62892Z" fill="white"/>
<path fill-rule="evenodd" clip-rule="evenodd" d="M41.5869 20.2363H44.1776V17.6396H41.5869V20.2363Z" fill="white"/>
<path fill-rule="evenodd" clip-rule="evenodd" d="M45.4736 20.2363H48.0653V17.6396H45.4736V20.2363Z" fill="white"/>
<path fill-rule="evenodd" clip-rule="evenodd" d="M67.9072 2.5967H70.4994V0H67.9072V2.5967Z" fill="white"/>
<path fill-rule="evenodd" clip-rule="evenodd" d="M71.7935 10.446C71.7935 11.8798 70.6333 13.0417 69.2023 13.0417C67.7714 13.0417 66.6101 11.8798 66.6101 10.446C66.6101 9.0118 67.7714 7.84833 69.2023 7.84833H71.7935V10.446ZM60.3693 10.4521C60.3647 11.8828 59.2065 13.0666 57.7771 13.0432H55.1772V10.446H55.1859C55.1859 9.01074 56.3456 7.84879 57.7771 7.84879H57.7791C59.2101 7.85083 60.3693 9.01278 60.3693 10.446V10.4521ZM39.7986 10.446C39.7986 11.8798 38.6373 13.0432 37.2054 13.0432C35.7744 13.0432 34.6152 11.8798 34.6152 10.446C34.6152 9.01078 35.7744 7.84833 37.2054 7.84833H39.7986V10.446ZM69.2023 5.25244C66.3399 5.25244 64.0189 7.57736 64.0189 10.4458C64.0189 11.4047 64.2795 12.301 64.7316 13.043H62.2593C62.7012 12.2781 62.9598 11.3925 62.9598 10.4458V10.4433C62.9567 7.57634 60.6373 5.25244 57.7753 5.25244C57.1673 5.25244 56.5852 5.3583 56.0431 5.54967C54.0326 6.26425 52.5924 8.18658 52.5924 10.4458H52.597V13.043H49.4674C49.9083 12.2781 50.1658 11.3925 50.1658 10.4458V5.25244H47.5746V10.4458C47.5746 11.8796 46.4149 13.043 44.9829 13.043H41.6928C42.1342 12.2781 42.3912 11.3925 42.3912 10.4458V5.25244H37.2068C34.3454 5.25244 32.0244 7.57736 32.0244 10.4458C32.0244 13.3133 34.3454 15.6387 37.2068 15.6387C39.0614 15.6387 40.6829 14.6605 41.5998 13.1957V15.6387H44.9829C46.8381 15.6387 48.4611 14.659 49.3764 13.1906V15.6387H57.7809C59.6305 15.6367 61.2494 14.6605 62.1648 13.1988V15.6387H69.2023C72.0653 15.6387 74.3847 13.3133 74.3847 10.4458V5.25244H69.2023Z" fill="white"/>
<path fill-rule="evenodd" clip-rule="evenodd" d="M0.699994 49.5988C0.699994 49.7947 0.545568 49.9494 0.349997 49.9494C0.154425 49.9494 0 49.7947 0 49.5988V43.2755C0 43.0795 0.154425 42.9248 0.349997 42.9248H3.6549C3.83015 42.9248 3.97391 43.0688 3.97391 43.2444C3.97391 43.4195 3.83015 43.5641 3.6549 43.5641H0.699994V46.1328H2.96507C3.14032 46.1328 3.28408 46.2773 3.28408 46.4524C3.28408 46.628 3.14032 46.772 2.96507 46.772H0.699994V49.5988Z" fill="white"/>
<path fill-rule="evenodd" clip-rule="evenodd" d="M7.85664 48.0826V47.6489H6.40483C5.73583 47.6489 5.27255 47.9279 5.27255 48.5259C5.27255 49.0623 5.64287 49.4028 6.44598 49.4028C7.1668 49.4028 7.85664 48.9595 7.85664 48.0826ZM5.44582 46.1847C5.3427 46.2982 5.27108 46.3287 5.17812 46.3287C5.01353 46.3287 4.87993 46.1949 4.87993 46.0295C4.87993 45.9577 4.90025 45.9063 4.93124 45.8544C5.21926 45.4004 5.77499 45.0396 6.64008 45.0396C7.83434 45.0396 8.49318 45.7409 8.49318 46.7929V49.6298C8.49318 49.8054 8.34943 49.9495 8.17417 49.9495C7.99943 49.9495 7.85516 49.8054 7.85516 49.6298V49.2588C7.59762 49.7433 7.00074 50.0014 6.38304 50.0014C5.2914 50.0014 4.60156 49.4751 4.60156 48.5259C4.60156 47.6184 5.2914 47.0718 6.40336 47.0718H7.85516V46.7929C7.85516 46.0916 7.39138 45.6584 6.64008 45.6584C6.09451 45.6584 5.76534 45.8233 5.44582 46.1847Z" fill="white"/>
<path fill-rule="evenodd" clip-rule="evenodd" d="M12.581 49.7945L10.7589 47.4527L10.1305 47.9587V49.6189C10.1305 49.8051 9.98626 49.9492 9.80136 49.9492C9.61595 49.9492 9.47168 49.8051 9.47168 49.6189V42.8523C9.47168 42.6665 9.61595 42.522 9.80136 42.522C9.98626 42.522 10.1305 42.6665 10.1305 42.8523V47.1743L12.5602 45.1833C12.643 45.1115 12.7253 45.1009 12.7867 45.1009C12.9722 45.1009 13.1164 45.2454 13.1164 45.4312C13.1164 45.5136 13.0854 45.6169 12.9823 45.6994L11.2938 47.0507L13.1266 49.4127C13.188 49.485 13.1987 49.5573 13.1987 49.6189C13.1987 49.8051 13.0544 49.9492 12.869 49.9492C12.7558 49.9492 12.6633 49.8978 12.581 49.7945Z" fill="white"/>
<path fill-rule="evenodd" clip-rule="evenodd" d="M15.6936 45.6383C14.798 45.6383 14.3037 46.216 14.2423 47.1336H17.0113C17.0113 46.3911 16.7542 45.6383 15.6936 45.6383ZM15.6921 45.0396C17.3395 45.0396 17.6585 46.3496 17.6585 47.0509C17.6585 47.3502 17.6585 47.7111 17.247 47.7111H14.2408C14.2408 48.7325 14.8275 49.3927 15.7952 49.3927C16.3921 49.3927 16.7426 49.1662 17.0306 48.9494C17.0926 48.9081 17.1337 48.8873 17.216 48.8873C17.3806 48.8873 17.5142 49.0216 17.5142 49.1865C17.5142 49.3 17.4629 49.3616 17.4014 49.4237C17.247 49.5784 16.7116 50.0014 15.7952 50.0014C14.4257 50.0014 13.5713 49.2481 13.5713 47.5151C13.5713 45.9267 14.3541 45.0396 15.6921 45.0396Z" fill="white"/>
<path fill-rule="evenodd" clip-rule="evenodd" d="M20.2331 45.6377C19.337 45.6377 18.8432 46.2154 18.7812 47.133H21.5507C21.5507 46.3904 21.2932 45.6377 20.2331 45.6377ZM20.2341 45.0391C21.8815 45.0391 22.2005 46.3491 22.2005 47.0505C22.2005 47.3497 22.2005 47.7106 21.789 47.7106H18.7823C18.7823 48.7321 19.369 49.3922 20.3367 49.3922C20.9341 49.3922 21.2841 49.1657 21.5726 48.9489C21.6341 48.9076 21.6752 48.8868 21.758 48.8868C21.9226 48.8868 22.0562 49.0211 22.0562 49.186C22.0562 49.2995 22.0049 49.3611 21.9434 49.4232C21.789 49.5779 21.2531 50.0009 20.3367 50.0009C18.9677 50.0009 18.1133 49.2476 18.1133 47.5146C18.1133 45.9262 18.8956 45.0391 20.2341 45.0391Z" fill="white"/>
<path fill-rule="evenodd" clip-rule="evenodd" d="M26.8835 46.8649V49.6189C26.8835 49.8046 26.7393 49.9492 26.5544 49.9492C26.3685 49.9492 26.2247 49.8046 26.2247 49.6189V46.9988C26.2247 46.1839 25.9875 45.6271 24.9893 45.6271C23.9698 45.6271 23.6198 46.246 23.6198 47.071V49.6189C23.6198 49.8046 23.476 49.9492 23.2901 49.9492C23.1052 49.9492 22.9609 49.8046 22.9609 49.6189V42.8523C22.9609 42.6665 23.1052 42.522 23.2901 42.522C23.476 42.522 23.6198 42.6665 23.6198 42.8523V45.761C23.8154 45.3691 24.3198 45.0393 24.9893 45.0393C26.5747 45.0393 26.8835 45.988 26.8835 46.8649Z" fill="white"/>
<path fill-rule="evenodd" clip-rule="evenodd" d="M30.2109 47.7527V43.1934C30.2109 42.997 30.3654 42.8428 30.5609 42.8428C30.7565 42.8428 30.9109 42.997 30.9109 43.1934V47.7527C30.9109 48.5675 31.2096 49.3513 32.6304 49.3513C34.0411 49.3513 34.3393 48.5675 34.3393 47.7527V43.1934C34.3393 42.997 34.4937 42.8428 34.6893 42.8428C34.8854 42.8428 35.0393 42.997 35.0393 43.1934V47.7527C35.0393 48.8871 34.576 50.0114 32.6304 50.0114C30.6849 50.0114 30.2109 48.8871 30.2109 47.7527Z" fill="white"/>
<path fill-rule="evenodd" clip-rule="evenodd" d="M40.1453 46.8652V49.6191C40.1453 49.8049 40.001 49.9495 39.8161 49.9495C39.6302 49.9495 39.4864 49.8049 39.4864 49.6191V46.999C39.4864 46.1842 39.2492 45.6274 38.251 45.6274C37.2315 45.6274 36.8815 46.2463 36.8815 47.0713V49.6191C36.8815 49.8049 36.7377 49.9495 36.5518 49.9495C36.3669 49.9495 36.2227 49.8049 36.2227 49.6191V45.4314C36.2227 45.2457 36.3669 45.1011 36.5518 45.1011C36.7377 45.1011 36.8815 45.2457 36.8815 45.4314V45.7613C37.0771 45.3694 37.5815 45.0396 38.251 45.0396C39.8364 45.0396 40.1453 45.9882 40.1453 46.8652Z" fill="white"/>
<path fill-rule="evenodd" clip-rule="evenodd" d="M41.7743 49.6195C41.7743 49.8053 41.6297 49.9499 41.4445 49.9499C41.2582 49.9499 41.1142 49.8053 41.1142 49.6195V45.4313C41.1142 45.2461 41.2582 45.1015 41.4445 45.1015C41.6297 45.1015 41.7743 45.2461 41.7743 45.4313V49.6195ZM41.0508 43.7399C41.0508 43.4406 41.1953 43.3271 41.4432 43.3271C41.69 43.3271 41.8346 43.4406 41.8346 43.7399C41.8346 43.9873 41.69 44.1318 41.4432 44.1318C41.1953 44.1318 41.0508 43.9873 41.0508 43.7399Z" fill="white"/>
<path fill-rule="evenodd" clip-rule="evenodd" d="M44.1325 49.7433L42.3825 45.5759C42.3719 45.5449 42.3516 45.5032 42.3516 45.4314C42.3516 45.2456 42.4953 45.1011 42.6807 45.1011C42.8661 45.1011 42.9484 45.2146 42.9896 45.3179L44.4414 48.8765L45.8932 45.3179C45.9343 45.2146 46.0166 45.1011 46.202 45.1011C46.3874 45.1011 46.5317 45.2456 46.5317 45.4314C46.5317 45.5032 46.5109 45.5449 46.5007 45.5759L44.7502 49.7433C44.6883 49.8776 44.5755 49.9494 44.4414 49.9494C44.3073 49.9494 44.1945 49.8776 44.1325 49.7433Z" fill="white"/>
<path fill-rule="evenodd" clip-rule="evenodd" d="M48.9177 45.6379C48.0217 45.6379 47.5279 46.2156 47.4659 47.1332H50.2354C50.2354 46.3907 49.9779 45.6379 48.9177 45.6379ZM48.9187 45.0391C50.5655 45.0391 50.885 46.3491 50.885 47.0505C50.885 47.3497 50.885 47.7106 50.4736 47.7106H47.4669C47.4669 48.7321 48.0536 49.3922 49.0213 49.3922C49.6187 49.3922 49.9687 49.1657 50.2572 48.9489C50.3186 48.9076 50.3598 48.8868 50.4426 48.8868C50.6072 48.8868 50.7408 49.0211 50.7408 49.186C50.7408 49.2995 50.6895 49.3611 50.6275 49.4232C50.4736 49.5779 49.9377 50.0009 49.0213 50.0009C47.6523 50.0009 46.7979 49.2476 46.7979 47.5146C46.7979 45.9262 47.5801 45.0391 48.9187 45.0391Z" fill="white"/>
<path fill-rule="evenodd" clip-rule="evenodd" d="M52.3063 45.8851C52.512 45.4107 53.0271 45.0601 53.7378 45.0601C53.9125 45.0601 54.0568 45.2046 54.0568 45.3797C54.0568 45.5553 53.9125 45.6998 53.7378 45.6998C52.7904 45.6998 52.3063 46.3599 52.3063 47.3086V49.6193C52.3063 49.8051 52.162 49.9496 51.9771 49.9496C51.7917 49.9496 51.6475 49.8051 51.6475 49.6193V45.4311C51.6475 45.2458 51.7917 45.1013 51.9771 45.1013C52.162 45.1013 52.3063 45.2458 52.3063 45.4311V45.8851Z" fill="white"/>
<path fill-rule="evenodd" clip-rule="evenodd" d="M55.1174 46.2978C55.1174 47.3808 57.8255 46.9782 57.8255 48.6293C57.8255 49.5678 57.0528 49.9908 56.075 49.9908C55.2307 49.9908 54.582 49.5882 54.3143 49.2477C54.2625 49.1754 54.2422 49.124 54.2422 49.0522C54.2422 48.8868 54.3763 48.753 54.5409 48.753C54.6023 48.753 54.6851 48.7733 54.7674 48.8558C55.0864 49.1754 55.4984 49.3617 56.075 49.3617C56.6617 49.3617 57.1661 49.1657 57.1661 48.6293C57.1661 47.5666 54.4586 47.9895 54.4586 46.2978C54.4586 45.4412 55.1586 45.0498 56.0338 45.0498C56.7338 45.0498 57.2794 45.287 57.5984 45.7099C57.6294 45.7511 57.6705 45.8127 57.6705 45.9059C57.6705 46.0708 57.5369 46.2046 57.3718 46.2046C57.3205 46.2046 57.2382 46.1944 57.1559 46.112C56.8781 45.8438 56.5687 45.6789 56.0338 45.6789C55.57 45.6789 55.1174 45.8229 55.1174 46.2978Z" fill="white"/>
<path fill-rule="evenodd" clip-rule="evenodd" d="M59.3319 49.6195C59.3319 49.8053 59.1873 49.9499 59.0016 49.9499C58.8158 49.9499 58.6718 49.8053 58.6718 49.6195V45.4313C58.6718 45.2461 58.8158 45.1015 59.0016 45.1015C59.1873 45.1015 59.3319 45.2461 59.3319 45.4313V49.6195ZM58.6084 43.7399C58.6084 43.4406 58.7529 43.3271 59.0003 43.3271C59.2476 43.3271 59.3927 43.4406 59.3927 43.7399C59.3927 43.9873 59.2476 44.1318 59.0003 44.1318C58.7529 44.1318 58.6084 43.9873 58.6084 43.7399Z" fill="white"/>
<path fill-rule="evenodd" clip-rule="evenodd" d="M60.6662 44.1008C60.6662 43.9252 60.8206 43.7705 60.9959 43.7705C61.1813 43.7705 61.3251 43.9252 61.3251 44.1008V45.1839H61.9946C62.1693 45.1839 62.3034 45.3182 62.3034 45.4933C62.3034 45.6689 62.1693 45.8028 61.9946 45.8028H61.3251V48.6499C61.3251 49.0937 61.5724 49.3304 61.9224 49.3304C62.0972 49.3304 62.242 49.4647 62.242 49.6403C62.242 49.8159 62.0972 49.9498 61.9224 49.9498C61.1092 49.9498 60.6662 49.4026 60.6662 48.6499V45.8028H60.2649C60.0897 45.8028 59.9561 45.6689 59.9561 45.4933C59.9561 45.3182 60.0897 45.1839 60.2649 45.1839H60.6662V44.1008Z" fill="white"/>
<path fill-rule="evenodd" clip-rule="evenodd" d="M64.2724 49.671L62.5529 45.5759C62.5428 45.5449 62.522 45.5032 62.522 45.4309C62.522 45.2456 62.6662 45.1011 62.8516 45.1011C63.037 45.1011 63.1193 45.2146 63.1605 45.3179L64.6118 48.8765L66.0641 45.3179C66.1047 45.2146 66.1875 45.1011 66.3724 45.1011C66.5583 45.1011 66.7021 45.2456 66.7021 45.4309C66.7021 45.5032 66.6813 45.5449 66.6711 45.5759L64.6428 50.4136C64.2206 51.4244 63.6959 51.9404 62.7175 51.9404C62.5428 51.9404 62.4092 51.8061 62.4092 51.631C62.4092 51.4554 62.5428 51.3215 62.7175 51.3215C63.6136 51.3215 63.8503 50.7123 64.2724 49.671Z" fill="white"/>
<path fill-rule="evenodd" clip-rule="evenodd" d="M70.325 46.6279V49.5987C70.325 49.7845 70.1706 49.9494 69.975 49.9494C69.7794 49.9494 69.625 49.7845 69.625 49.5987V43.193C69.625 43.0072 69.7794 42.8423 69.975 42.8423C70.1706 42.8423 70.325 43.0072 70.325 43.193V45.9887H73.9078V43.193C73.9078 43.0072 74.0622 42.8423 74.2578 42.8423C74.4533 42.8423 74.6083 43.0072 74.6083 43.193V49.5987C74.6083 49.7845 74.4533 49.9494 74.2578 49.9494C74.0622 49.9494 73.9078 49.7845 73.9078 49.5987V46.6279H70.325Z" fill="white"/>
<path fill-rule="evenodd" clip-rule="evenodd" d="M79.1953 47.5147C79.1953 46.2149 78.6498 45.6377 77.7029 45.6377C76.755 45.6377 76.21 46.2149 76.21 47.5147C76.21 48.835 76.755 49.4024 77.7029 49.4024C78.6498 49.4024 79.1953 48.835 79.1953 47.5147ZM79.862 47.5146C79.862 49.2064 79.0386 50.0004 77.7005 50.0004C76.3722 50.0004 75.5381 49.2064 75.5381 47.5146C75.5381 45.8229 76.3722 45.0391 77.7005 45.0391C79.0386 45.0391 79.862 45.8229 79.862 47.5146Z" fill="white"/>
<path fill-rule="evenodd" clip-rule="evenodd" d="M81.176 46.2978C81.176 47.3808 83.8836 46.9782 83.8836 48.6293C83.8836 49.5678 83.1119 49.9908 82.1336 49.9908C81.2893 49.9908 80.6406 49.5882 80.3729 49.2477C80.3216 49.1754 80.3008 49.124 80.3008 49.0522C80.3008 48.8868 80.4349 48.753 80.5995 48.753C80.6609 48.753 80.7432 48.7733 80.826 48.8558C81.145 49.1754 81.557 49.3617 82.1336 49.3617C82.7203 49.3617 83.2247 49.1657 83.2247 48.6293C83.2247 47.5666 80.5172 47.9895 80.5172 46.2978C80.5172 45.4412 81.2172 45.0498 82.0924 45.0498C82.7924 45.0498 83.338 45.287 83.6575 45.7099C83.688 45.7511 83.7296 45.8127 83.7296 45.9059C83.7296 46.0708 83.5955 46.2046 83.4309 46.2046C83.3791 46.2046 83.2968 46.1944 83.2145 46.112C82.9367 45.8438 82.6278 45.6789 82.0924 45.6789C81.6291 45.6789 81.176 45.8229 81.176 46.2978Z" fill="white"/>
<path fill-rule="evenodd" clip-rule="evenodd" d="M86.8003 49.4027C87.7472 49.4027 88.2826 48.8041 88.2826 47.5149C88.2826 46.2257 87.7269 45.6379 86.7795 45.6379C86.0175 45.6379 85.3795 46.1738 85.3795 47.5149C85.3795 48.8459 85.9972 49.4027 86.8003 49.4027ZM85.401 45.431V45.7608C85.5966 45.4101 86.1117 45.0391 86.8015 45.0391C88.1395 45.0391 88.9528 45.8229 88.9528 47.5146C88.9528 49.2064 88.1395 50.0004 86.8015 50.0004C86.1117 50.0004 85.6174 49.6293 85.401 49.2787V51.6097C85.401 51.7853 85.2466 51.94 85.0714 51.94C84.8966 51.94 84.7422 51.7853 84.7422 51.6097V45.431C84.7422 45.2452 84.8966 45.1006 85.0714 45.1006C85.2466 45.1006 85.401 45.2452 85.401 45.431Z" fill="white"/>
<path fill-rule="evenodd" clip-rule="evenodd" d="M90.3758 49.6195C90.3758 49.8053 90.2313 49.9499 90.046 49.9499C89.8603 49.9499 89.7157 49.8053 89.7157 49.6195V45.4313C89.7157 45.2461 89.8603 45.1015 90.046 45.1015C90.2313 45.1015 90.3758 45.2461 90.3758 45.4313V49.6195ZM89.6523 43.7399C89.6523 43.4406 89.7964 43.3271 90.0442 43.3271C90.2916 43.3271 90.4361 43.4406 90.4361 43.7399C90.4361 43.9873 90.2916 44.1318 90.0442 44.1318C89.7964 44.1318 89.6523 43.9873 89.6523 43.7399Z" fill="white"/>
<path fill-rule="evenodd" clip-rule="evenodd" d="M91.7111 44.1008C91.7111 43.9252 91.8656 43.7705 92.0403 43.7705C92.2257 43.7705 92.37 43.9252 92.37 44.1008V45.1839H93.039C93.2142 45.1839 93.3483 45.3182 93.3483 45.4933C93.3483 45.6689 93.2142 45.8028 93.039 45.8028H92.37V48.6499C92.37 49.0937 92.6174 49.3304 92.9674 49.3304C93.1421 49.3304 93.2864 49.4647 93.2864 49.6403C93.2864 49.8159 93.1421 49.9498 92.9674 49.9498C92.1536 49.9498 91.7111 49.4026 91.7111 48.6499V45.8028H91.3093C91.1346 45.8028 91.001 45.6689 91.001 45.4933C91.001 45.3182 91.1346 45.1839 91.3093 45.1839H91.7111V44.1008Z" fill="white"/>
<path fill-rule="evenodd" clip-rule="evenodd" d="M97.009 48.0826V47.6489H95.5577C94.8882 47.6489 94.4249 47.9279 94.4249 48.5259C94.4249 49.0623 94.7957 49.4028 95.5983 49.4028C96.3191 49.4028 97.009 48.9595 97.009 48.0826ZM94.5987 46.1847C94.4956 46.2982 94.4234 46.3287 94.3305 46.3287C94.1659 46.3287 94.0323 46.1949 94.0323 46.0295C94.0323 45.9577 94.0526 45.9063 94.0836 45.8544C94.3721 45.4004 94.9278 45.0396 95.7924 45.0396C96.9867 45.0396 97.646 45.7409 97.646 46.7929V49.6298C97.646 49.8054 97.5018 49.9495 97.3265 49.9495C97.1518 49.9495 97.0075 49.8054 97.0075 49.6298V49.2588C96.75 49.7433 96.1526 50.0014 95.5354 50.0014C94.4442 50.0014 93.7539 49.4751 93.7539 48.5259C93.7539 47.6184 94.4442 47.0718 95.5562 47.0718H97.0075V46.7929C97.0075 46.0916 96.5442 45.6584 95.7924 45.6584C95.2469 45.6584 94.9177 45.8233 94.5987 46.1847Z" fill="white"/>
<path fill-rule="evenodd" clip-rule="evenodd" d="M99.279 42.8523V48.7424C99.279 49.1552 99.4131 49.3303 99.6909 49.3303C99.8555 49.3303 99.9998 49.4646 99.9998 49.6397C99.9998 49.8153 99.8555 49.9492 99.6909 49.9492C99.0011 49.9492 98.6201 49.5369 98.6201 48.7424V42.8523C98.6201 42.6767 98.7745 42.5225 98.9493 42.5225C99.1347 42.5225 99.279 42.6767 99.279 42.8523Z" fill="white"/>
<path fill-rule="evenodd" clip-rule="evenodd" d="M4.14955 38.8188V39.3542C4.14955 39.4356 4.11348 39.4718 4.0322 39.4718H3.58874C3.50695 39.4718 3.46174 39.4356 3.46174 39.3542V38.8188C3.46174 38.7373 3.50695 38.6915 3.58874 38.6915H4.0322C4.11348 38.6915 4.14955 38.7373 4.14955 38.8188ZM2.94659 38.8186V39.3541C2.94659 39.4355 2.91052 39.4716 2.82874 39.4716H2.37613C2.29486 39.4716 2.25879 39.4355 2.25879 39.3541V38.8186C2.25879 38.7372 2.29486 38.6914 2.37613 38.6914H2.82874C2.91052 38.6914 2.94659 38.7372 2.94659 38.8186ZM2.06947 37.1681H4.90246V33.7672C4.90246 33.3499 5.0386 32.9962 5.33678 32.7061C5.62684 32.4063 5.98852 32.2612 6.40506 32.2612C6.8216 32.2612 7.1655 32.4063 7.46419 32.7061C7.76288 32.9962 7.90766 33.3499 7.90766 33.7672V36.1069H9.04807V36.7691H7.58154C7.4007 36.7691 7.24678 36.6143 7.24678 36.4331V33.7672C7.24678 33.3046 6.86681 32.9234 6.40506 32.9234C5.94331 32.9234 5.56334 33.3046 5.56334 33.7672V37.504C5.56334 37.6852 5.40942 37.8302 5.22858 37.8302H2.05118C1.52644 37.8302 1.07332 37.6399 0.684209 37.2587C0.304242 36.878 0.114258 36.4153 0.114258 35.8713C0.114258 35.0371 0.62122 34.3749 1.20031 34.0752L1.3903 33.9754C1.40859 33.9662 1.42687 33.9662 1.44465 33.9662C1.49901 33.9662 1.53507 33.9937 1.55336 34.0299L1.74334 34.4111C1.75249 34.438 1.76163 34.4564 1.76163 34.4742C1.76163 34.52 1.74334 34.547 1.69813 34.5744L1.50815 34.6742C1.11904 34.8732 0.775137 35.318 0.775137 35.8713C0.775137 36.5782 1.36338 37.1681 2.06947 37.1681Z" fill="white"/>
<path fill-rule="evenodd" clip-rule="evenodd" d="M11.0683 33.2691C10.8239 33.487 10.6609 33.7409 10.5979 34.0219L11.5661 36.1076H12.3357L13.3039 34.0127C13.2587 33.7135 13.1048 33.4595 12.8335 33.2508C12.5709 33.0335 12.2722 32.9246 11.9466 32.9246C11.6296 32.9246 11.34 33.0426 11.0683 33.2691ZM14.9348 36.7694H8.73438V36.1073H10.8344L9.94743 34.2119C9.92914 34.1671 9.92 34.1121 9.92 34.0669V34.0216C9.98349 33.5676 10.2009 33.1691 10.5809 32.8245C10.9883 32.4433 11.4409 32.2529 11.9478 32.2529C12.4548 32.2529 12.9161 32.4341 13.3143 32.7884C13.7126 33.1416 13.93 33.5589 13.9752 34.0394V34.0755C13.9752 34.1213 13.966 34.1671 13.9483 34.2119L13.0608 36.1073H14.9348V36.7694Z" fill="white"/>
<path fill-rule="evenodd" clip-rule="evenodd" d="M19.3095 34.8556V34.1751C19.3095 33.4947 18.739 32.9236 18.0604 32.9236C17.3817 32.9236 16.8204 33.4947 16.8204 34.1751V36.1066H18.0604C18.739 36.1066 19.3095 35.5356 19.3095 34.8556ZM19.4177 32.8246C19.789 33.1962 19.9785 33.6496 19.9785 34.1754V34.8559C19.9785 35.3816 19.789 35.8351 19.4177 36.2072C19.0464 36.5787 18.5846 36.769 18.0599 36.769H14.665V36.1069H16.1499V34.1754C16.1499 33.6496 16.3398 33.1962 16.7112 32.8246C17.082 32.4521 17.5346 32.2617 18.0599 32.2617C18.5846 32.2617 19.0464 32.4521 19.4177 32.8246Z" fill="white"/>
<path fill-rule="evenodd" clip-rule="evenodd" d="M22.557 36.1073H23.0005V36.7694H22.5753C21.8692 36.7694 21.4258 36.3246 21.4258 35.6181V30.3484C21.4258 30.2665 21.4618 30.2217 21.5431 30.2217H21.9688C22.0501 30.2217 22.0867 30.2665 22.0867 30.3484V35.6181C22.0867 35.953 22.2314 36.1073 22.557 36.1073Z" fill="white"/>
<path fill-rule="evenodd" clip-rule="evenodd" d="M25.888 37.6939V38.2294C25.888 38.3103 25.8519 38.3469 25.7701 38.3469H25.3175C25.2362 38.3469 25.2002 38.3103 25.2002 38.2294V37.6939C25.2002 37.6125 25.2362 37.5667 25.3175 37.5667H25.7701C25.8519 37.5667 25.888 37.6125 25.888 37.6939ZM27.4712 35.2269V34.3561C27.4712 33.9571 27.3356 33.6308 27.0552 33.3494C26.7743 33.0684 26.4395 32.9234 26.0413 32.9234C25.3987 32.9234 24.9191 33.1504 24.593 33.6033L24.466 33.7759C24.4391 33.8125 24.4122 33.8303 24.3756 33.8303C24.3487 33.8303 24.3304 33.8212 24.3035 33.8034L23.9591 33.5586C23.9321 33.5402 23.9138 33.5133 23.9052 33.4766V33.4583C23.9052 33.4313 23.9138 33.413 23.9321 33.3855L24.05 33.2135C24.5021 32.5788 25.1726 32.2612 26.0413 32.2612C26.6209 32.2612 27.1182 32.4613 27.5261 32.8689C27.933 33.2771 28.1412 33.7759 28.1412 34.3561V35.7349C28.1412 35.8438 28.159 35.916 28.2139 35.9705C28.3038 36.0611 28.4851 36.1064 28.7478 36.1064H29.1729V36.7686H28.8656C28.3495 36.7686 27.9965 36.6235 27.7699 36.3156C27.4986 36.6235 27.1004 36.7686 26.5934 36.7686H22.7734V36.1064H26.5934C27.2 36.0977 27.4712 35.8346 27.4712 35.2269Z" fill="white"/>
<path fill-rule="evenodd" clip-rule="evenodd" d="M30.4879 35.6177V30.3479C30.4879 30.2665 30.524 30.2212 30.6057 30.2212H31.0309C31.1127 30.2212 31.1488 30.2665 31.1488 30.3479V35.6177C31.1488 36.3246 30.6956 36.7689 29.9992 36.7689H28.9492V36.1068H29.9992H30.0078C30.3431 36.0981 30.4879 35.9439 30.4879 35.6177Z" fill="white"/>
<path fill-rule="evenodd" clip-rule="evenodd" d="M33.1625 36.7689H32.7282C32.6464 36.7689 32.6104 36.7328 32.6104 36.6508V30.3388C32.6104 30.2573 32.6464 30.2212 32.7282 30.2212H33.1625C33.2352 30.2212 33.2712 30.2573 33.2712 30.3388V36.6508C33.2712 36.7328 33.2352 36.7689 33.1625 36.7689Z" fill="white"/>
<path fill-rule="evenodd" clip-rule="evenodd" d="M38.5668 36.1074H39.8164V34.1759C39.8164 33.4868 39.2546 32.9244 38.5668 32.9244C37.8881 32.9244 37.3268 33.4868 37.3268 34.1759V34.8564C37.3268 35.5455 37.8881 36.1074 38.5668 36.1074ZM41.9078 36.7694H38.5673C38.0426 36.7694 37.5895 36.5786 37.2187 36.207C36.8478 35.8355 36.667 35.3815 36.667 34.8562V34.1758C36.667 33.6495 36.8478 33.1874 37.2187 32.8153C37.5895 32.4433 38.0426 32.2529 38.5673 32.2529C39.1017 32.2529 39.5538 32.4433 39.9257 32.8153C40.2965 33.1874 40.486 33.6495 40.486 34.1758V36.1073H41.9078V36.7694Z" fill="white"/>
<path fill-rule="evenodd" clip-rule="evenodd" d="M44.2135 37.7576V38.2834C44.2135 38.3648 44.1683 38.4106 44.0866 38.4106H43.6431C43.5618 38.4106 43.5166 38.3648 43.5166 38.2834V37.7576C43.5166 37.6757 43.5618 37.6304 43.6431 37.6304H44.0866C44.1683 37.6304 44.2135 37.6757 44.2135 37.7576ZM43.002 37.7576V38.2833C43.002 38.3647 42.966 38.4105 42.8842 38.4105H42.4321C42.3503 38.4105 42.3142 38.3647 42.3142 38.2833V37.7576C42.3142 37.6756 42.3503 37.6303 42.4321 37.6303H42.8842C42.966 37.6303 43.002 37.6756 43.002 37.7576ZM43.3441 35.6079V32.5608C43.3441 32.4789 43.3888 32.4341 43.4706 32.4341H43.8866C43.9684 32.4341 44.0136 32.4789 44.0136 32.5608V35.7352C44.0136 35.8349 44.0319 35.9077 44.0857 35.9617C44.1767 36.0528 44.3575 36.1067 44.6196 36.1067H45.0453V36.7689H44.738C44.294 36.7689 43.9592 36.6508 43.7418 36.433C43.7332 36.4243 43.724 36.4243 43.724 36.4157C43.724 36.4243 43.7058 36.4518 43.6971 36.4609C43.4883 36.6696 43.2074 36.7689 42.8549 36.7689H41.4971V36.1067H42.8732C43.1988 36.1067 43.3441 35.9438 43.3441 35.6079Z" fill="white"/>
<path fill-rule="evenodd" clip-rule="evenodd" d="M48.46 31.2456V30.7107C48.46 30.6288 48.5052 30.584 48.587 30.584H49.0304C49.1117 30.584 49.1478 30.6288 49.1478 30.7107V31.2456C49.1478 31.3276 49.1117 31.3637 49.0304 31.3637H48.587C48.5052 31.3637 48.46 31.3276 48.46 31.2456ZM47.2574 31.2456V30.7107C47.2574 30.6288 47.2935 30.584 47.3748 30.584H47.8177C47.9 30.584 47.9452 30.6288 47.9452 30.7107V31.2456C47.9452 31.3276 47.9 31.3637 47.8177 31.3637H47.3748C47.2935 31.3637 47.2574 31.3276 47.2574 31.2456ZM46.9834 34.1754V34.8558C46.9834 35.5358 47.5539 36.1068 48.233 36.1068H49.473V34.1754C49.473 33.4949 48.9117 32.9238 48.233 32.9238C47.5539 32.9238 46.9834 33.4949 46.9834 34.1754ZM51.5123 36.7688H44.8232V36.1066H46.7876C46.4706 35.7437 46.3167 35.3274 46.3167 34.8556V34.1751C46.3167 33.6494 46.5067 33.1959 46.8775 32.8244C47.2488 32.4518 47.7106 32.2615 48.2358 32.2615C48.7606 32.2615 49.2132 32.4518 49.5845 32.8244C49.9553 33.1959 50.1453 33.6494 50.1453 34.1751V36.1066H51.5123V36.7688Z" fill="white"/>
<path fill-rule="evenodd" clip-rule="evenodd" d="M54.1641 31.2456V30.7107C54.1641 30.6288 54.2001 30.584 54.2819 30.584H54.7254C54.8072 30.584 54.8519 30.6288 54.8519 30.7107V31.2456C54.8519 31.3276 54.8072 31.3637 54.7254 31.3637H54.2819C54.2001 31.3637 54.1641 31.3276 54.1641 31.2456ZM54.6129 36.1068H55.8615V34.1754C55.8615 33.4862 55.3007 32.9238 54.6129 32.9238C53.9251 32.9238 53.3633 33.4949 53.3633 34.1754V34.8558C53.3633 35.5358 53.9337 36.1068 54.6129 36.1068ZM56.1905 36.769H51.2031V36.1069H53.168C52.8596 35.744 52.7057 35.3277 52.7057 34.8559V34.1754C52.7057 33.6496 52.8957 33.187 53.267 32.815C53.6384 32.4429 54.0905 32.2531 54.6162 32.2531C55.1405 32.2531 55.5936 32.4429 55.9644 32.815C56.3352 33.187 56.5257 33.6496 56.5257 34.1754V36.4331C56.5257 36.6148 56.3718 36.769 56.1905 36.769Z" fill="white"/>
<path fill-rule="evenodd" clip-rule="evenodd" d="M61.8771 37.1684H64.7106V33.7676C64.7106 33.3502 64.8462 32.9965 65.1449 32.6972C65.4345 32.398 65.7966 32.2529 66.2132 32.2529C66.6292 32.2529 66.9736 32.398 67.2718 32.6972C67.571 32.9965 67.7158 33.3502 67.7158 33.7676V36.1073H68.8562V36.7694H67.3902C67.2088 36.7694 67.0549 36.6152 67.0549 36.4335V33.7676C67.0549 33.3049 66.6749 32.9242 66.2132 32.9242C65.7514 32.9242 65.3715 33.3049 65.3715 33.7676V37.4952C65.3715 37.6764 65.2175 37.8306 65.0362 37.8306H61.8593C61.3341 37.8306 60.882 37.6402 60.4923 37.259C60.1124 36.8783 59.9219 36.4065 59.9219 35.8625C59.9219 35.0283 60.4288 34.3753 61.0084 34.0755L61.1984 33.9763C61.2167 33.9666 61.2345 33.9579 61.2528 33.9579C61.3071 33.9579 61.3432 33.9941 61.3615 34.0302L61.551 34.4023C61.5606 34.4297 61.5698 34.4567 61.5698 34.475C61.5698 34.5203 61.551 34.5387 61.5063 34.5656L61.3163 34.6654C60.9267 34.8649 60.5828 35.3006 60.5828 35.8625C60.5828 36.5786 61.1715 37.1684 61.8771 37.1684Z" fill="white"/>
<path fill-rule="evenodd" clip-rule="evenodd" d="M71.4924 31.2456V30.7107C71.4924 30.6288 71.5376 30.584 71.6194 30.584H72.0628C72.1441 30.584 72.1893 30.6288 72.1893 30.7107V31.2456C72.1893 31.3276 72.1441 31.3637 72.0628 31.3637H71.6194C71.5376 31.3637 71.4924 31.3276 71.4924 31.2456ZM70.7002 34.1754V34.8558C70.7002 35.5358 71.2701 36.1068 71.9493 36.1068H73.1893V34.1754C73.1893 33.4862 72.6285 32.9238 71.9493 32.9238C71.2701 32.9238 70.7002 33.4949 70.7002 34.1754ZM75.2291 36.7688H68.54V36.1066H70.5044C70.1874 35.7437 70.034 35.3274 70.034 34.8556V34.1751C70.034 33.6494 70.2235 33.1959 70.5948 32.8244C70.9661 32.4518 71.4274 32.2615 71.9526 32.2615C72.4774 32.2615 72.9305 32.4518 73.3013 32.8244C73.6721 33.1959 73.8626 33.6494 73.8626 34.1751V36.1066H75.2291V36.7688Z" fill="white"/>
<path fill-rule="evenodd" clip-rule="evenodd" d="M79.6064 30.5843H80.0585C80.1402 30.5843 80.1854 30.6291 80.1854 30.7116V31.246C80.1854 31.3279 80.1402 31.3641 80.0585 31.3641H79.6064C79.5246 31.3641 79.4885 31.3279 79.4885 31.246V30.7116C79.4885 30.6291 79.5246 30.5843 79.6064 30.5843ZM78.8906 30.1124V29.577C78.8906 29.4961 78.9267 29.46 79.008 29.46H79.4519C79.5332 29.46 79.5698 29.4961 79.5698 29.577V30.1124C79.5698 30.1939 79.5332 30.2305 79.4519 30.2305H79.008C78.9267 30.2305 78.8906 30.1939 78.8906 30.1124ZM78.2844 31.246V30.7116C78.2844 30.6291 78.321 30.5843 78.4023 30.5843H78.8463C78.9275 30.5843 78.9728 30.6291 78.9728 30.7116V31.246C78.9728 31.3279 78.9275 31.3641 78.8463 31.3641H78.4023C78.321 31.3641 78.2844 31.3279 78.2844 31.246ZM82.5023 36.1074H82.9275V36.769H82.6196C82.2214 36.769 81.9135 36.6423 81.6692 36.4066C81.66 36.3969 81.66 36.3969 81.6509 36.3796C81.4701 36.6336 81.1267 36.769 80.7371 36.769H80.2844C79.8318 36.769 79.5062 36.6423 79.2797 36.4158C79.2705 36.4249 79.2527 36.4519 79.2436 36.4611C79.0353 36.6697 78.7636 36.769 78.411 36.769H77.9579C77.5144 36.769 77.1705 36.6509 76.9531 36.4336C76.944 36.4249 76.944 36.4158 76.944 36.4158C76.7454 36.6423 76.4558 36.769 76.0753 36.769H74.9258V36.1074H76.0936C76.4197 36.1074 76.5645 35.944 76.5645 35.6086V32.5609C76.5645 32.4795 76.6006 32.4342 76.6819 32.4342H77.1075C77.1888 32.4342 77.234 32.4795 77.234 32.5609V35.7353C77.234 35.8351 77.2523 35.9078 77.3062 35.9618C77.3971 36.0529 77.5779 36.1074 77.8406 36.1074H78.4197C78.7458 36.1074 78.8992 35.944 78.8992 35.6086V32.7971C78.8992 32.7157 78.9358 32.6795 79.017 32.6795H79.4422C79.524 32.6795 79.5606 32.7157 79.5606 32.7971V35.7353C79.5606 35.8351 79.5784 35.9078 79.6327 35.9618C79.7323 36.0529 79.9131 36.1074 80.1757 36.1074H80.7457C81.081 36.1074 81.2354 35.944 81.2354 35.6086V32.5609C81.2354 32.4795 81.2714 32.4342 81.3522 32.4342H81.7779C81.8597 32.4342 81.8957 32.4795 81.8957 32.5609V35.6086C81.8957 35.944 82.167 36.1074 82.5023 36.1074Z" fill="white"/>
<path fill-rule="evenodd" clip-rule="evenodd" d="M85.3359 31.2456V30.7107C85.3359 30.6288 85.372 30.584 85.4538 30.584H85.8973C85.9785 30.584 86.0237 30.6288 86.0237 30.7107V31.2456C86.0237 31.3276 85.9785 31.3637 85.8973 31.3637H85.4538C85.372 31.3637 85.3359 31.3276 85.3359 31.2456ZM84.1211 31.2456V30.7107C84.1211 30.6288 84.1663 30.584 84.2471 30.584H84.7002C84.7815 30.584 84.8175 30.6288 84.8175 30.7107V31.2456C84.8175 31.3276 84.7815 31.3637 84.7002 31.3637H84.2471C84.1663 31.3637 84.1211 31.3276 84.1211 31.2456ZM84.7449 35.6078V32.5607C84.7449 32.4787 84.7901 32.4334 84.8622 32.4334H85.2879C85.3692 32.4334 85.4058 32.4787 85.4058 32.5607V35.735C85.4058 35.8348 85.4327 35.9076 85.4871 35.9615C85.5775 36.0526 85.7588 36.1066 86.0209 36.1066H86.4466V36.7687H86.1388C85.6948 36.7687 85.3514 36.6506 85.134 36.4328C85.134 36.4241 85.1249 36.4241 85.1249 36.4155L85.0888 36.4608C84.881 36.6695 84.6088 36.7687 84.2562 36.7687H82.6993V36.1066H84.2745C84.6001 36.1066 84.7449 35.9345 84.7449 35.6078Z" fill="white"/>
<path fill-rule="evenodd" clip-rule="evenodd" d="M93.7982 36.1072H94.2239V36.7694H93.916C93.5178 36.7694 93.2099 36.6426 92.9651 36.4065C92.9565 36.3973 92.9387 36.3887 92.9387 36.3795C92.929 36.3973 92.9112 36.4248 92.8752 36.4609C92.6669 36.6696 92.3951 36.7694 92.0426 36.7694H91.5808C91.1374 36.7694 90.8118 36.6513 90.5847 36.4335V36.4248L90.5756 36.4157C90.5486 36.4431 90.5395 36.4609 90.5395 36.4609C90.3317 36.6696 90.0513 36.7694 89.6978 36.7694H89.2452C88.7926 36.7694 88.4669 36.6513 88.2409 36.4248V36.4157C88.2317 36.4335 88.2135 36.4523 88.2043 36.4609C87.996 36.6696 87.7243 36.7694 87.3717 36.7694H86.2217V36.1072H87.3895C87.7151 36.1072 87.8604 35.9444 87.8604 35.6084V32.5613C87.8604 32.4794 87.8965 32.4341 87.9778 32.4341H88.4034C88.4852 32.4341 88.5213 32.4794 88.5213 32.5613V35.7357C88.5213 35.8354 88.5391 35.9077 88.5934 35.9622C88.693 36.0533 88.8738 36.1072 89.1365 36.1072H89.7161C90.0417 36.1072 90.1961 35.9444 90.1961 35.6084V32.797C90.1961 32.7155 90.2322 32.6794 90.3134 32.6794H90.7391C90.8204 32.6794 90.8565 32.7155 90.8565 32.797V35.7357C90.8565 35.8354 90.8748 35.9077 90.9291 35.9622C91.0195 36.0533 91.2095 36.1072 91.4721 36.1072H92.0426C92.3774 36.1072 92.5308 35.9444 92.5308 35.6084V32.5613C92.5308 32.4794 92.5673 32.4341 92.6486 32.4341H93.0738C93.1556 32.4341 93.1922 32.4794 93.1922 32.5613V35.6084C93.1922 35.9444 93.4634 36.1072 93.7982 36.1072Z" fill="white"/>
<path fill-rule="evenodd" clip-rule="evenodd" d="M98.6459 34.8553V34.1749C98.6459 33.4944 98.0754 32.9233 97.3962 32.9233C96.7176 32.9233 96.1562 33.4944 96.1562 34.1749V36.1064H97.3962C98.0754 36.1064 98.6459 35.5353 98.6459 34.8553ZM98.7526 32.8241C99.1235 33.1957 99.3135 33.6492 99.3135 34.1749V34.8554C99.3135 35.3811 99.1235 35.8346 98.7526 36.2067C98.3813 36.5782 97.9196 36.7686 97.3943 36.7686H94V36.1064H95.4848V34.1749C95.4848 33.6492 95.6748 33.1957 96.0456 32.8241C96.417 32.4516 96.8696 32.2612 97.3943 32.2612C97.9196 32.2612 98.3813 32.4516 98.7526 32.8241Z" fill="white"/>
</svg>
