<svg fill="none" height="28" viewBox="0 0 101 28" width="101" xmlns="http://www.w3.org/2000/svg"><path clip-rule="evenodd" d="m99.9972 15.4417v11.7863h-.1972c-5.495-6.8839-12.2661-15.567-13.4122-17.2099h-.0519v8.0831c0 7.5098.1714 8.7356.3382 8.7356v.1045h-2.2101v-.1045c.1756 0 .5023-1.2258.5023-8.7356v-11.83795h.1979c5.4955 6.88395 12.2665 15.56705 13.4126 17.20985h.0519v-8.0314c0-7.50977-.1627-8.73515-.3393-8.73515v-.10408h2.2106v.10408c-.176 0-.5027 1.22538-.5027 8.73515zm-27.0013 11.4993v-.1042c.2658-.1254-.0627-1.1995-2.2498-6.7521 0 0-3.5936-9.4113-3.9061-10.40208h-.0244c-.3382.99078-4.1143 10.40208-4.1143 10.40208-2.2392 5.5526-2.6456 6.613-2.3696 6.7521v.1042h-2.2323v-.1042c.5525 0 8.6494-20.56941 8.6494-20.56941h.2644s7.7314 20.56941 8.2835 20.56941v.1042zm-26.2718 0v-.1042c.5396 0-1.0936-14.521-1.1714-16.1896h-.052c-.7811 2.0857-1.9014 4.4839-3.3074 7.43-.9894 2.0595-2.3433 5.2665-4.0618 8.8638h-.4687c-1.7184-3.5973-3.0723-6.8043-4.0617-8.8638-1.4061-2.9461-2.5263-5.3443-3.3074-7.43h-.0516c-.0784 1.6686-1.7115 16.1896-1.1714 16.1896v.1042h-2.207v-.1042c.7258 0 2.5821-20.56941 2.5821-20.56941h.1972c7.395 15.38181 7.5249 16.34631 8.2282 17.93621h.0519c.7032-1.5899.8331-2.5544 8.2282-17.93621h.1972s1.8562 20.56941 2.582 20.56941v.1042zm-31.3276 0v-.1042c.2651-.1254-.0631-1.1995-2.2503-6.7521 0 0-3.59311-9.4113-3.90603-10.40208h-.0244c-.33859.99078-4.11431 10.40208-4.11431 10.40208-2.23918 5.5526-2.64611 6.613-2.36959 6.7521v.1042h-2.23187v-.1042c.5521 0 8.64853-20.56941 8.64853-20.56941h.26439s7.73188 20.56941 8.28398 20.56941v.1042zm-9.23148-26.441h6.22308v1.36042h-6.22308z" fill="#fff" fill-rule="evenodd"/></svg>