<svg fill="none" height="24" viewBox="0 0 100 24" width="100" xmlns="http://www.w3.org/2000/svg"><path clip-rule="evenodd" d="m41.2628.0614904h-4.8087l.0569.8312406h1.7058v21.452969h-1.6386l-.0672-.4737s-1.1193.6513-2.3958.3553c-1.2787-.2984-1.3539-3.8443-1.3539-7.2706s-3.0426-4.0799-3.0426-4.0799 3.4537-.1184 3.4537-5.26647c0-5.149166-5.985-5.5488396-5.985-5.5488396h-7.6748v.8312406h2.0599v21.450669h-3.4559l-8.0289-22.3434h-.23572l-7.97086 22.3434h-1.88112v.7721h4.45457v-.7721h-1.68982l2.27966-6.3789h7.02799l2.5313 6.3789h-2.767v.7721h14.8987v-.8313h-2.1772v-10.8142h2.9845c1.4005 0 2.1314 1.3905 2.4957 2.0834.0596.1133.1093.208.1506.2749.1614.2582.2169 1.6413.2722 3.0191.0461 1.1496.092 2.2956.1992 2.7814.2357 1.0704.7937 2.1977 2.044 2.9538 1.3357.8096 3.4844.2448 3.867.1355v.3985h4.1608v-.772h-1.5885v-18.44116l6.8675 19.39076h.5135l6.6898-19.44997v18.50147h-1.9995v.7652h10.3234l-.0069-.7538h-1.6477l2.3446-6.3323h7.1032l2.3958 6.3209h-2.5131v.8312h10.0148v-.8449h-1.9437v-19.79272h.296l13.3091 20.75612h.3518v-22.414058h3.9831v21.462058h-1.4677v.7914h6.2423v-.7959h-1.4496v-21.457558h1.3278v-.7925293l-10.8712-.0273223v.8312406h1.6477v16.007769l-10.9553-16.8378716h-4.5149v.8312406h1.5884l-.0068 21.447231h-1.5304l-8.0198-22.220404h-.4134l-7.6747 22.225004h-2.7488v-21.451831h1.6898v-.772035h-4.4386l-6.223 17.491466zm-16.5872 10.6969096s5.7492-.1185 5.7492-5.26764c0-5.149169-5.7492-4.598044-5.7492-4.598044zm37.9082 4.4944h6.5566l-3.1599-9.22799h-.4714zm-57.36279 0h6.55769l-3.1621-9.22799h-.46915z" fill="#fff" fill-rule="evenodd"/></svg>