<svg fill="none" height="10" viewBox="0 0 100 10" width="100" xmlns="http://www.w3.org/2000/svg"><path clip-rule="evenodd" d="m50.8453.538319c-1.9142-.012383-3.4637.469571-4.7136 1.408641-1.2631.93959-1.8878 2.08157-1.8878 3.50287 0 1.1676.6247 2.23396 1.6402 3.07165 1.2242 1.01523 2.9166 1.47204 4.9999 1.47204.8722 0 1.7711-.1397 2.4482-.31725 1.0025-.25376 2.3305-.83772 2.7338-1.70074l-.0258-1.28159c-.0259-.88846.0393-.92669.9767-.93918v-.30493h-3.5286v.30493c.3647 0 .6119-.01267.8332.1268.2085.15237.1561.83757.1561 1.10422l-.0126.77414c-.2996.55849-.99.86295-1.4844 1.0534-.4558.17775-1.2894.36796-2.0703.38065-1.3022.0127-2.3178-.34274-3.1642-.86294-.8594-.54601-1.6926-1.67511-1.6926-3.08398 0-1.35804.8856-2.47517 1.9273-3.17329.677-.45663 1.8226-.85019 2.9553-.83728.9768.0129 1.8884.24094 2.5522.60934.7554.40608 1.5627 1.23112 1.8618 1.84012l.2994-.11422-.4817-1.99258c-.5987-.35551-1.3412-.609541-2.0442-.774138-.7681-.178011-1.5494-.25378-2.2783-.266683zm-45.77293.21058c-1.33119.004689-2.65724.023767-5.0594645.014088l-.0129055.292093c.325469 0 .44285-.01283.638047.13938.182376.15273.208294.31723.208294.87603v5.9775c0 .50766.039038 1.0281-.078207 1.16762-.169142.19045-.286436.22855-.7030903.21586v.30443h4.9479563c1.35418 0 3.58061-.03794 4.49189-.7359.35169-.19029.98941-.77409.97641-1.76414 0-1.20568-.53363-1.57392-1.01539-1.84037-.42972-.22832-1.10674-.40589-1.90098-.53287.63792-.21562.7811-.27941 1.18473-.58393.41665-.29205.69044-.87564.69044-1.45947 0-1.52315-1.69297-2.005095-2.99485-2.06856-.48504-.003219-.92915-.00332-1.37288-.001761zm93.93563.014088-3.2292.01258v.266683c.5336.02528.6904.03818.7942.40606.0519.13984.0392.45669.0392.90094v5.80013c0 1.05331.0916 1.29467-.7681 1.29467v.29185h3.1897l-.0126-.29185c-.8724 0-.8337-.33021-.8337-1.29467v-5.80013c0-1.04072-.0259-1.307.8205-1.307zm-84.5293.012831v.329832c.3126 0 .443.01283.6251.11447.2085.12693.4689.71054.7813 1.30701l3.9062 7.20877h1.3151c.8073-1.56098 2.1091-4.09921 3.1118-6.01574.6769-1.26894 1.172-2.28424 1.3672-2.52519.1172-.13983.4427-.08932.6509-.08932v-.329832l-2.7341.01258v.317252c.026 0 .7942-.10127.716.38066-.0651.38078-3.1118 5.93991-3.4894 6.82836l-3.0341-5.57143c-.2213-.40659-.4035-.71105-.4945-.95201-.2476-.57118.1303-.68558.6512-.68558v-.329832zm69.4973.008555c-.1946-.001497-.4017-.000799-.6216.000261-.2932.001402-.6094.003774-.948.003774h-4.1659v.279262c.5728 0 .8074.1651.8074.81213v.67275 4.84811 1.54828c0 .48212-.3649.46932-.8074.45663v.33034h3.255v-.33034c-.5341 0-.8465-.05029-.8597-.67225v-2.63991c.3514.02523.6642 0 1.211 0 .1953 0 1.2366.01273 1.5494 0 1.1847 0 1.7316 1.37063 2.37 2.33524.5336.81225.2992 1.30726 3.7108 1.30726 0-.07616-.0258-.24135-.0258-.31751-1.4583.01269-1.7321-.83779-2.3573-1.92918-.5854-.98979-.7423-1.63702-2.2525-1.80213 2.2915-.41861 2.8908-1.43393 2.8908-2.5891-.0132-1.16713-.8982-1.89112-2.3439-2.208444-.3588-.078363-.8287-.100669-1.4123-.105163zm-52.4144.003773v.279264c.4558 0 .586.0381.7163.21611.1301.1646.1301.44385.1301.93918v4.30192 2.22127c0 .58393-.2343.68522-.7942.69791v.2921h8.1898l.9504-1.85295-.2992-.11448c-.3127.49503-1.0288.97742-2.1617.97742h-2.3697-1.9399v-6.91692c0-.41897.0782-.54544.1822-.64709.1563-.12692.2344-.10157.6381-.11447v-.279264zm34.6998.000261-3.7891 7.031143c-.3382.6347-.4684.85038-.6246 1.14222-.1826.30452-.287.50784-.9122.52053v.2536h2.8258l.0132-.29159c-.5082.01269-.7288-.02571-.7421-.46996 0-.13968.1302-.36763.3255-.71024l.5335-.91402h5.4686l.6515 1.07856c.4298.69816.3119.95212-.4561.99025v.317h3.3853v-.34266c-.8072 0-.7681-.21532-1.4843-1.4972l-3.9969-7.107633zm16.0784.645573c1.0008-.00586 2.0152.04298 2.658.34418.5468.25385 1.0025.5458 1.0025 1.4343 0 1.25645-.7943 1.58651-1.3935 1.80213-1.0545.26645-2.7864.17751-3.971.1902v-3.74414c.5077 0 1.1035-.02315 1.704-.02667zm-77.14793.07347c.79776-.00103 1.57889.02988 2.00861.29612.55974.3555.68993.60946.68993 1.14246 0 .32971-.2732.90143-.55958 1.11705-.6772.53311-1.88809.55828-2.78655.55828h-2.14851v-3.10964h2.005c.25718 0 .52519-.00391.7911-.00427zm61.38183.62645 2.3049 4.21336h-4.4921zm-61.45152 3.28348c1.3237-.00351 2.26348.04623 2.92439.5238.35154.25376.69018.69797.69018 1.23128 0 1.47212-1.88778 1.57369-3.74981 1.57369h-2.59117v-3.32525c.70305 0 1.43236.01269 2.1356 0 .20507-.0016.40172-.00303.59081-.00352z" fill="#fff" fill-rule="evenodd"/></svg>