<svg fill="none" height="25" viewBox="0 0 100 25" width="100" xmlns="http://www.w3.org/2000/svg"><path clip-rule="evenodd" d="m92.1088 6.01799h-.7098l-.8201-2.52334-1.9012 5.84934h-.8532l-.574-.4147 2.9023-8.92929zm-70.7667 4.76541c0 1.0141.2038 1.757.6107 2.2286.407.467 1.0581.703 1.9534.703.8855 0 1.5108-.2452 1.872-.7388.3613-.4894.5446-1.3922.5446-2.7002 0-1.15678-.1935-1.98409-.575-2.48672-.3815-.49834-1.0073-.74738-1.8721-.74738-.9207 0-1.577.27124-1.9587.81431-.3815.54252-.5749 1.51667-.5749 2.92719zm4.2787 7.3618h-2.681c-1.1548 0-2.0453.2445-2.671.7385-.6257.4892-.9361 1.1878-.9361 2.0908 0 .9031.3764 1.6193 1.1345 2.1439.7529.5254 1.7806.788 3.0829.788 1.6484 0 3.037-.3918 4.1664-1.179 1.1244-.7875 1.6892-1.7261 1.6892-2.8207 0-.6445-.2698-1.0984-.814-1.3656-.5394-.2625-1.5314-.3959-2.9709-.3959zm-22.83309-4.2749c0 1.3216.22385 2.2688.67159 2.8471.44784.5782 1.17501.8672 2.19257.8672.88002 0 1.65857-.2221 2.32495-.6714.66123-.4452 1.20047-1.1031 1.60758-1.9708v-4.773c-.38675-.93868-.92097-1.66397-1.59223-2.1757-.67682-.51151-1.43981-.76958-2.28429-.76958-.97163 0-1.7041.29828-2.18748.89892-.48836.60025-.73269 1.49469-.73269 2.68676zm27.21759-9.1583c0-.32026.1557-.60042.4666-.83618.3055-.24027.6759-.36019 1.1125-.36019.4428 0 .8135.1153 1.1188.35106.3048.23597.4544.51606.4544.84531 0 .3424-.1496.6231-.4486.84965-.2932.22706-.6699.33777-1.1246.33777-.4486 0-.8196-.11533-1.1245-.34647-.305-.22706-.4546-.50765-.4546-.84095zm-15.5836 0c0-.32026.1557-.60042.4666-.83618.3053-.24027.6758-.36019 1.1126-.36019.4427 0 .8134.1153 1.1185.35106.3048.23597.4547.51606.4547.84531 0 .3424-.1499.6231-.4488.84965-.2931.22706-.67.33777-1.1244.33777-.4484 0-.8196-.11533-1.1247-.34647-.3051-.22706-.4545-.50765-.4545-.84095zm15.1451 12.5785h.751v-9.86693h-1.056c-.6702-.0261-1.1149.01043-1.4774.1236-.1238.04429-.246.09793-.3671.16074-.0698.03686-.1396.07718-.2094.12158l.2515.2023-.0022.00206c.3766.40069.6562.79647.8443 1.1924.1883.39578.2849.79615.2849 1.20565 0 .9963-.4629 1.8594-1.3939 2.5801-.9309.7206-2.0347 1.0808-3.3168 1.0808-.3256 0-.7937-.0667-1.399-.1999-.6052-.1382-1.0528-.2049-1.3431-.2049-.6155 0-1.1294.1291-1.5515.3916-.4172.262-.6256.5737-.6256.9388 0 .409.2033.6893.605.8404.402.1512 1.3024.2271 2.7068.2271h2.5637c2.1165 0 3.5206.2313 4.2075.6895.2066.1378.3822.3097.5273.5151zm-19.93697-1.3872c-.53903.7074-1.11387 1.2277-1.73931 1.5704-.6206.3423-1.3127.5159-2.07579.5159-1.71966 0-3.11823-.5248-4.19701-1.5701-1.078587-1.0454-1.61772-2.4112-1.61772-4.097 0-1.5215.549497-2.82931 1.65337-3.92839 1.10394-1.09847 2.39616-1.64999 3.87648-1.64999.88533 0 1.67883.21356 2.37573.63606.70206.427 1.2616 1.03606 1.67882 1.82365v-4.85516h-3.28734v-.3778h3.01741c.53943 0 1.03323-.05361 1.49083-.15584.4577-.10223.9056-.26269 1.3431-.48054v3.70741h-.0134v.37817h.0134v9.86683h.8657.9098.8197v-9.86683h-2.5952v-.37817h2.3308c.6358 0 1.1905-.02671 1.6688-.08025.473-.04891.8597-.13302 1.1598-.24446v10.56971h1.5929c-.3698-.4531-.5548-.9872-.5548-1.606 0-.7207.2494-1.2811.7478-1.6817.4934-.3957 1.2158-.6181 2.1569-.6625-.753-.445-1.3074-.903-1.6581-1.3745-.3513-.4718-.5295-.9919-.5295-1.5571 0-1.04081.4579-1.91746 1.3788-2.62463.9208-.7076 2.0856-1.06328 3.4951-1.06328.656 0 1.2563.08924 1.7957.26728.4274.13937.8081.33441 1.1441.58338.1561-.10786.3174-.20078.4843-.27781.3716-.17367.7681-.258 1.1855-.258h.0264l.0105-.00368h1.4652c.636 0 1.195-.00949 1.6732-.06303.4732-.0488.8598-.13363 1.1599-.24445v10.56962h1.6828v.3779h-4.7825c.1967.4335.295.9748.295 1.6247 0 1.4765-.6053 2.6867-1.811 3.6299s-2.7674 1.4151-4.6855 1.4151c-1.7395 0-3.1337-.2987-4.1864-.8947-1.0534-.5961-1.5822-1.3652-1.5822-2.3131 0-.5737.2543-1.1122.7579-1.6237.5088-.5071 1.221-.9342 2.1316-1.2811-.5527-.0438-1.0273-.2297-1.4266-.5608h-5.3509-.9098-3.38427zm24.64907-8.48324h-1.2822v-.37816h5.6776v.37816h-1.7447l3.6371 7.49564 2.8031-6.01005c.0915-.17345.1526-.32878.1932-.46252.0408-.13324.0613-.25345.0613-.36019 0-.24034-.112-.40929-.3359-.4983-.224-.09325-.7632-.15126-1.6178-.17775v-.36499h4.2324v.37816h-.178c-.407 0-.7528.13303-1.0277.39561-.2796.26727-.6257.83192-1.0425 1.70424l-3.9069 8.32739-.2547.1422zm20.6923 9.86684h.0946.0009l.0052-.0003.1299.0003h.9497v-12.93823h-3.283v-.3778h3.0132c.57 0 1.0788-.04902 1.5313-.15143.4479-.09805.8854-.25818 1.3026-.48495v13.95241h1.6836v.3778h-4.9697c-.3594.1573-.7482.2357-1.1673.2357-.6356 0-1.165-.1465-1.5921-.4356-.4324-.2939-.7071-.7073-.8392-1.2502-.3971.5918-.9564 1.0367-1.6739 1.3301-.7226.298-1.6075.4448-2.6604.4448-1.0126 0-1.8518-.2577-2.5184-.7696-.6666-.5117-.9972-1.1474-.9972-1.904 0-1.1431.6562-2.0326 1.9738-2.6642 1.3175-.6275 3.1795-.9433 5.596-.9433h.1478v-2.69582c0-.68078-.1832-1.16998-.5497-1.46787-.3711-.29766-.9666-.44953-1.7904-.44953-.697 0-1.3075.14724-1.8317.44491-.5289.29391-.7886.58295-.7886.85864 0 .0266.1375.15583.4224.3917.2848.23565.4273.49372.4273.78279 0 .3916-.117.69838-.3559.92528-.2391.2267-.5597.3382-.9567.3382-.4272 0-.7677-.1161-1.0172-.3473-.2542-.2267-.3818-.53357-.3818-.91618 0-.792.4328-1.46357 1.2974-2.02013.8649-.55552 1.9485-.8359 3.2457-.8359.646 0 1.2514.08003 1.8213.23587.5645.15573 1.0936.39159 1.5924.70269.4777.30265.8035.62306.9815.95191.1782.32929.2699.86774.2699 1.61514v5.3556c0 .5744.0731.9982.2287 1.2726.1477.2608.3681.4217.658.4359zm-3.2726-1.5792v-3.5943c-.107-.009-.2292-.018-.3563-.0225-.132-.0043-.3156-.0043-.5547-.0043-1.409 0-2.4568.24-3.1335.7162-.6817.476-1.0225 1.2145-1.0225 2.2156 0 .7558.1883 1.343.5648 1.7569.3813.4181.9052.6268 1.5817.6268.5955 0 1.16-.1508 1.6891-.4579.5345-.3025.9413-.7159 1.2314-1.2365zm10.8464-4.7956h4.7108v-1.25015c0-.87614-.1932-1.5257-.5799-1.93931-.3867-.41838-.9918-.62746-1.8058-.62746-.7734 0-1.3584.245-1.7452.72969-.3865.48502-.5799 1.21901-.5799 2.20193zm0 .3782v3.0915c0 1.1077.2441 1.9176.7327 2.4203.483.5023 1.2615.7558 2.3247.7558 1.0634 0 1.9789-.3021 2.7573-.9117.7733-.6094 1.3228-1.45 1.6379-2.5268h.4632c-.3665 1.2237-.9871 2.18-1.8619 2.8693-.8751.6852-1.9129 1.0275-3.1185 1.0275-1.5669 0-2.9151-.5425-4.0292-1.6237-1.1189-1.0807-1.6788-2.3974-1.6788-3.9544 0-1.6237.5038-2.98491 1.5111-4.0793 1.0123-1.09414 2.2435-1.64161 3.7088-1.64161 1.409 0 2.6092.43174 3.6066 1.28994.9917.8586 1.5464 1.9531 1.6534 3.28317zm11.2678 4.5107c0 .5915.1019 1.0096.3002 1.2589.1983.2445.5341.3694 1.0126.3694.5037 0 .9458-.1292 1.3226-.3829.3815-.2578.6613-.6224.8493-1.0896h.4478c-.2289.6493-.6103 1.1522-1.1395 1.5035-.529.3517-1.1803.5292-1.9434.5292-.4882 0-.9462-.0709-1.3784-.2089-.4326-.1381-.8041-.3381-1.1093-.6004-.2388-.2006-.412-.4274-.5137-.6806-.1069-.2583-.1579-.627-.1579-1.1032v-.5341-7.44224h-2.116v-.37816c1.2004 0 2.1264-.2802 2.7722-.84532.6463-.56476 1.0787-1.62976 1.2976-2.86209h.3559v3.70741h3.383v.37816h-3.383zm22.938-7.28521h-6.21l-.2521-.78073.2281-.70403h9.4828l-5.1389 3.73237-.2306-.7073zm-7.916 2.90941-5.0937-3.69955h2.7633l.2633-.70193-6.4746.00704 7.6999 5.59244.5895-.4314zm-2.9832 4.0553 5.0079-3.6373.6898.5038.2215.6643-7.6519 5.5541 1.9648-6.0445.5805.4593zm6.0194-5.3808 1.9037 5.8568-2.0704-1.4975-.6224.4075 5.1099 3.7114-2.9279-8.99689-.6686.0004z" fill="#fff" fill-rule="evenodd"/></svg>