<svg fill="#00f1ec" height="32" viewBox="0 0 32 32" width="32" xmlns="http://www.w3.org/2000/svg"><path d="m16 32c-8.817 0-16-7.183-16-16s7.183-16 16-16 16 7.183 16 16-7.183 16-16 16zm13.495-13.812c-.468-.147-4.229-1.271-8.516-.584 1.787 4.912 2.516 8.912 2.657 9.745 3.067-2.073 5.249-5.36 5.859-9.161zm-8.156 10.411c-.203-1.197-1-5.375-2.917-10.359l-.088.025c-7.719 2.688-10.479 8.037-10.719 8.537 2.303 1.807 5.224 2.885 8.385 2.885 1.891 0 3.693-.385 5.333-1.084zm-15.49-3.438c.307-.536 4.057-6.74 11.109-9.021.177-.061.359-.113.536-.161-.344-.781-.719-1.557-1.109-2.317-6.823 2.036-13.443 1.953-14.041 1.937l-.005.417c0 3.511 1.328 6.719 3.511 9.14zm-3.229-11.942c.615.011 6.244.036 12.635-1.661-2.265-4.027-4.708-7.412-5.067-7.907-3.824 1.803-6.677 5.323-7.568 9.563zm10.183-10.484c.375.511 2.859 3.885 5.093 8 4.859-1.817 6.921-4.584 7.167-4.932-2.417-2.152-5.589-3.448-9.063-3.448-1.099 0-2.172.129-3.197.38zm13.776 4.645c-.287.385-2.579 3.323-7.631 5.385.317.656.625 1.313.907 1.984.109.24.197.48.291.704 4.548-.573 9.068.349 9.521.443-.027-3.229-1.172-6.188-3.079-8.511z"/></svg>