<svg fill="none" height="19" viewBox="0 0 100 19" width="100" xmlns="http://www.w3.org/2000/svg"><path clip-rule="evenodd" d="m14.9164 12.4257c0 2.9825-2.2775 5.4331-5.18826 5.7074v.0256h-9.079314c0-2.149 1.742124-3.8912 3.891134-3.8912h2.25611l.01354.0001h2.59408c.89541 0 1.62131-.7259 1.62131-1.6213 0-.8737-.691-1.5859-1.55624-1.62l.00005-.0014h-1.68647c-1.07451 0-1.94557-.871-1.94557-1.94554 0-.86788.56825-1.60303 1.35298-1.85368.18-.05751.37138-.08953.56992-.09182h.00603l.01664-.00007h.97259v-.00006h.99388c.88579-.01118 1.60039-.73272 1.60039-1.62118 0-.88667-.7117-1.60709-1.59505-1.6211l.00001-.00031h-.02604-.00034c-1.07451 0-1.94557-.87106-1.94557-1.94557s.87106-1.94557 1.94556-1.94557h.00035.18142.00027 3.06059.0003 9.0791.0003c0 2.14902-1.7421 3.89114-3.8911 3.89114h-.0004-3.2422v3.24259h5.8362v.00002h.0005c0 2.14901-1.7421 3.89115-3.8912 3.89115h-1.9455zm-12.97083-1.4008c1.07451 0 1.94557-.8711 1.94557-1.9456 0-1.07451-.87106-1.94557-1.94557-1.94557s-1.94557.87106-1.94557 1.94557c0 1.0745.87106 1.9456 1.94557 1.9456zm44.59803-5.01137c.9588 0 1.6939-.67115 1.6939-1.58198 0-.92682-.7351-1.59796-1.6939-1.59796-.9747 0-1.7098.67114-1.7098 1.59796 0 .91083.7351 1.58198 1.7098 1.58198zm-16.8528 2.73242v6.24805h-3.148v-6.24805h-1.0227v-2.10931h1.0227v-.6232c0-2.15725 1.3902-3.13201 3.4356-3.13201.5433 0 .9428.06392 1.3263.1598v2.2691c-.2077-.06391-.3995-.09587-.7191-.09587-.6232 0-.8948.35155-.8948.81496v.60722h1.6139v2.10931zm5.026 6.24805v-11.98469h-3.132v11.98469zm17.3804.2077c1.2624 0 2.1413-.6871 2.5568-1.55v1.3423h3.148v-11.98469h-3.148v4.7779c-.4634-.84692-1.2464-1.37424-2.5568-1.37424-1.9015 0-3.4835 1.45414-3.4835 4.36243v.1278c0 2.9403 1.598 4.2985 3.4835 4.2985zm-11.1392-1.502c-.4634.8949-1.2464 1.5021-2.6526 1.5021-1.598 0-2.7964-1.0067-2.7964-3.0841v-5.48099h3.148v4.93769c0 .8469.3195 1.2784 1.0546 1.2784.783 0 1.2464-.4634 1.2464-1.4542v-4.76189h3.148v8.35729h-3.148zm7.1515-7.06299v8.35729h-3.132v-8.35729zm3.6998 4.21859c0 1.2943.5273 1.9495 1.4542 1.9495.9427 0 1.4701-.6712 1.4701-1.9655v-.1279c0-1.26235-.5114-1.96545-1.4542-1.96545-.9587 0-1.4701.63918-1.4701 1.98145zm16.6205 4.3466c2.6047 0 4.65-1.6139 4.65-4.3624v-.1278c0-2.68462-2.0294-4.29856-4.634-4.29856-2.6367 0-4.6661 1.66188-4.6661 4.37836v.1279c0 2.7485 2.0454 4.2825 4.6501 4.2825zm-1.4701-4.3784c0 1.3582.4794 2.0613 1.4861 2.0613.9588 0 1.4382-.7031 1.4382-2.0294v-.1118c0-1.31037-.4634-2.01347-1.4382-2.01347-.9587 0-1.4861.65516-1.4861 1.96547zm9.229 4.3783c1.4062 0 2.1892-.6072 2.6526-1.5021v1.2943h3.148v-8.35729h-3.148v4.76189c0 .9908-.4634 1.4542-1.2464 1.4542-.7351 0-1.0547-.4315-1.0547-1.2784v-4.93769h-3.1479v5.48099c0 2.0774 1.1984 3.0841 2.7964 3.0841zm14.9333-3.5474c-.0799 2.1573-1.5021 3.5475-4.3145 3.5475-2.5088 0-4.4423-1.4222-4.4423-4.2665v-.1279c0-2.84434 2.0134-4.39436 4.5222-4.39436 2.0933 0 4.0269.89486 4.1867 3.51551h-2.9563c-.0958-.67114-.3835-1.10259-1.1505-1.10259-.9268 0-1.4062.63918-1.4062 1.91754v.1278c0 1.3583.4474 2.0454 1.4541 2.0454.7191 0 1.1985-.4474 1.2784-1.2624zm-29.0614 3.5315c.6872 0 1.2784-.1278 1.6619-.2397v-2.365c-.2716.0959-.4954.1279-.783.1279-.5113 0-.815-.2397-.815-.815v-3.14797h1.598v-2.10931h-1.598v-1.70982h-3.1479v1.70982h-.9748v2.10931h.9748v3.45157c0 2.0933 1.1185 2.9882 3.084 2.9882zm32.49-4.81v4.6181h-3.148v-11.98469h3.148v4.96966c.4634-.87888 1.3582-1.566 2.7644-1.566 1.582 0 2.6846 1.00671 2.6846 3.08406v5.49697h-3.148v-4.7939c0-.84689-.3036-1.27834-1.0546-1.27834-.783 0-1.2464.46341-1.2464 1.45414z" fill="#fff" fill-rule="evenodd"/></svg>