<svg fill="none" height="54" viewBox="0 0 100 54" width="100" xmlns="http://www.w3.org/2000/svg"><path clip-rule="evenodd" d="m31.2203 12.6073c3.4294 0 6.3124-2.78877 6.3124-6.06746v-.92331h-6.3689v2.52497h2.8076c-.6407 1.31901-1.6582 1.54513-2.7511 1.54513-2.5249 0-3.2787-1.79009-3.2787-3.27869s.7349-3.3729 3.1845-3.3729c1.3379 0 2.2988.50876 2.7511 1.20595l.0942.15075h3.1468l-.1508-.45224c-.6595-1.82777-2.9018-3.768602-5.7848-3.768602-3.5048 0-6.3501 2.788772-6.3501 6.218202-.0188 3.42943 2.8642 6.2182 6.3878 6.2182zm50.5363 13.3033c3.4106 0 6.2936-2.6946 6.2936-5.8979v-.8856h-6.3313v2.4684h2.7888c-.6407 1.2813-1.6393 1.5074-2.7511 1.5074-2.5061 0-3.2787-1.7524-3.2787-3.1844 0-1.4509.7349-3.2787 3.1657-3.2787 1.319 0 2.28.5087 2.7322 1.1683l.0942.1507h3.1468l-.1507-.4334c-.6595-1.7712-2.9019-3.6555-5.766-3.6555-3.486 0-6.3124 2.7134-6.3124 6.0297 0 3.2976 2.8641 6.011 6.3689 6.011zm-31.2034-19.48385c0 3.41059-2.7887 6.18055-6.237 6.18055s-6.237-2.76996-6.237-6.18055c0-3.42943 2.7887-6.237038 6.237-6.237038 3.4294 0 6.237 2.788768 6.237 6.237038zm-3.0148 0c0-1.84661-1.4509-3.33521-3.2222-3.33521-1.7712 0-3.2221 1.4886-3.2221 3.33521 0 1.80893 1.4509 3.29753 3.2221 3.29753 1.7713 0 3.2222-1.46975 3.2222-3.29753zm9.9483 6.18055c3.4483 0 6.2371-2.76996 6.2371-6.18055 0-3.44827-2.8076-6.237038-6.2371-6.237038-3.4482 0-6.237 2.807608-6.237 6.237038 0 3.41059 2.7888 6.18055 6.237 6.18055zm0-9.51576c1.7713 0 3.2222 1.4886 3.2222 3.33521 0 1.82778-1.4509 3.29753-3.2222 3.29753-1.7712 0-3.2221-1.4886-3.2221-3.29753 0-1.84661 1.4509-3.33521 3.2221-3.33521zm17.5053 3.33533c0 2.20464-1.2248 4.22083-3.1091 5.18183-.9987.5088-2.4119.7726-4.2209.7726h-3.1656v-11.965353h3.128c3.1279 0 4.4846.791403 5.2383 1.394383 1.3002 1.03637 2.1293 2.8453 2.1293 4.61654zm-4.1643-2.52496c-.848-.71604-1.922-.86678-3.2976-.86678h-.0565v6.72696h.1131c1.1871 0 1.922-.07537 2.7887-.50876.9987-.50876 1.6394-1.6205 1.6394-2.82646 0-.96099-.4522-1.94083-1.1871-2.52496zm-48.9727 15.84679v6.1428h3.1279v-11.758h-4.1832l-2.4307 6.7835-2.4684-6.7835h-4.1832v11.758h3.1279v-6.1239l2.3743 6.1239h2.2611zm3.5804.2828c0-3.3729 2.8265-6.124 6.2936-6.124s6.2936 2.7511 6.2936 6.124c0 3.3352-2.8265 6.0674-6.2936 6.0674s-6.2936-2.7134-6.2936-6.0674zm3.128 0c0 1.7335 1.4132 3.1656 3.1656 3.1656s3.1656-1.4132 3.1656-3.1656c0-1.7713-1.4132-3.2033-3.1656-3.2033s-3.1656 1.432-3.1656 3.2033zm17.6746.7536c.8856-.8291 1.1871-2.0728 1.1871-2.883 0-1.5451-.9233-2.5061-1.4698-2.9395-.7348-.5842-1.6205-.8291-2.9772-.8291h-4.1643v11.758h3.1091v-3.5801l2.5438 3.5801h3.3918l-3.1845-4.2208c.4711-.1507 1.0175-.3769 1.564-.8856zm-4.2962-4.0701h1.0175c1.6205 0 1.6959 1.1306 1.6959 1.3567 0 .4145-.1696 1.3755-1.6959 1.3755h-1.0175zm18.6734-2.5815h2.7699v11.758h-2.7699zm-8.8378 5.2007 4.2397 6.5573h3.2222v-11.758h-3.1091v6.5574l-4.202-6.5574h-3.1845v11.758h3.0337zm20.1439 6.5573-4.2585-6.5573v6.5573h-3.0149v-11.758h3.1656l4.202 6.5574v-6.5574h3.1279v11.758zm18.0892 1.7902-6.595 15.7151h4.6354l1.0363-2.6003h5.2761l1.0364 2.6003h4.6353l-6.3124-15.7151zm3.3729 10.1376h-3.354l1.677-5.0311zm-93.197853 5.5775 6.595063-15.7151h3.69319l6.3125 15.7151h-4.6354l-1.0364-2.6003h-5.2572l-1.03637 2.6003zm6.613903-5.5775h3.35405l-1.67702-5.0311zm19.16315-.8668-3.3541-9.2708h-5.3702v15.7151h3.9759v-8.7997l3.2221 8.7997h2.9961l3.2221-8.8562v8.8562h3.9759v-15.7151h-5.3703zm20.3315 6.4443h-9.61v-15.7151h9.61v3.241h-5.5022v2.7511h5.2572v3.241h-5.2572v2.9018h5.5022zm12.5497-6.5574c1.2625-1.0929 1.6959-3.0902 1.6959-4.1643 0-2.0539-1.3002-3.5613-2.0728-4.1455-1.0363-.7725-2.3176-.8479-4.2585-.8479h-5.6152v15.7151h3.957v-5.1253l3.5237 5.1253h4.7484l-4.0889-5.408c.716-.1695 1.2625-.4145 2.1104-1.1494zm-6.2936-5.9167h1.6205c2.4873 0 2.6004 1.6393 2.6004 1.9597 0 .603-.245 1.9973-2.6004 1.9973h-1.6205zm10.3828-3.241h3.7686v15.7151h-3.7686zm22.3104 9.6665h-4.6542s-1.0175 2.5438-3.486 2.5438c-2.4684 0-4.7296-1.7524-4.7296-4.3716 0-2.9395 2.3366-4.2397 4.6166-4.2397s3.5425 2.3177 3.5425 2.3177h4.7107c.0566-.0565.0754-.4522.0377-.5653-.5464-1.5074-2.8264-5.6529-7.8764-5.6529-6.1428 0-9.2142 3.7121-9.2142 8.1025 0 4.5412 3.6932 8.2344 9.2142 8.2344 5.4457 0 7.7634-5.521 7.8199-5.766.0377-.2449.0188-.6029.0188-.6029zm14.9426 13.5103c-59.2429-10.6086-99.435101 1.0364-99.435101 1.0364 49.086101-7.5372 88.260701 1.3755 89.504401 2.0539.7914-.8103 6.6139-2.638 9.9307-3.0903z" fill="#fff" fill-rule="evenodd"/></svg>