<svg fill="none" height="81" viewBox="0 0 80 81" width="80" xmlns="http://www.w3.org/2000/svg"><path d="m34.4403 47.0289s.1269-.1015.0761-.2791c-9.4159-20.5831-22.2582-36.1385-22.2582-36.1385s-7.00227 6.647-6.49974 13.2966c.27156 5.0506 4.04809 8.02 4.04809 8.02 6.10645 5.9135 20.85215 13.4767 24.30375 15.1772 0 0 .2285 0 .33-.0762zm-2.2842 5.0253c-.1015-.1777-.33-.1777-.33-.1777l-24.57277.8122c2.66997 4.7714 7.16217 8.4515 11.83207 7.3855 3.2487-.8121 10.5327-5.9389 12.9438-7.6647.203-.1777.1269-.3553.1269-.3553zm.3553-2.1573c.1269-.1777-.1015-.3554-.1015-.3554-10.7865-7.284-31.704581-18.5273-31.704581-18.5273-1.906029 5.9389.654801 10.7103.654801 10.7103 2.6725 5.5836 7.76371 7.2841 7.76371 7.2841 2.34767.9898 4.68257 1.0659 4.68257 1.0659.3807.1015 14.6442 0 18.4512 0 .1523 0 .2538-.1776.2538-.1776zm9.822-4.8476c.1777.0762.3553-.1776.3553-.1776 2.335-3.4263 12.9438-19.1619 15.1011-28.7808 0 0 1.1675-4.6699 0-7.81959 0 0-1.5228-5.93382-8.0962-7.553059 0 0-1.8781-.449224-3.8578-.718251 0 0-7.284 9.35249-3.7816 44.7701h.0762c0 .2792.203.2792.203.2792zm5.7359 6.8272s-.1777 0-.2538.1777c0 0 0 .2791.0761.3553 2.335 1.7258 9.5429 6.6749 12.9438 7.6647 0 0 6.3957 2.1573 11.8778-7.284zm-2.5126-4.8476s.1776.0762.3553 0c3.5024-1.7004 18.172-9.1875 24.2885-15.101 0 0 3.7816-3.071 4.0354-8.0962.3807-6.8272-6.4718-13.2204-6.4718-13.2204s-12.8423 15.4538-22.2836 36.0623h.0762s-.1777.1777 0 .3553zm33.6283-16.0147c-1.5228.8376-3.0963 1.599-4.5684 2.538-1.9288 1.0152-3.8069 2.0812-5.7104 3.1471-3.2233 1.802-6.4211 3.6547-9.5936 5.5328-1.2183.6092-2.335 1.3959-3.5278 2.0812-.6345.4061-2.7918 1.7766-3.274 1.9542-.7868.6599-1.7513 1.0406-2.538 1.6751-.8629.3807-1.5482 1.0914-2.3604 1.5228-.4568.4315.1269.6599.533.533h19.0857c3.1979-.5076 6.2942-1.8781 8.553-4.2385.9137-.939 1.7005-2.0303 2.3603-3.1724.6599-1.1168 1.1168-2.3604 1.3959-3.604.1777-.7106.2792-1.4466.3807-2.1827 0-.7867.1777-1.5481 0-2.3349.0254-.5584-.0507-1.1167-.203-1.6497-.1269-.6091-.2284-1.3451-.5076-1.802zm-41.5722 14.0351c-.1777.0762-.3554-.1776-.3554-.1776-2.3349-3.4263-12.9183-19.1619-15.0756-28.7808 0 0-1.1675-4.6699 0-7.81959 0 0 1.5228-5.93382 8.0708-7.553059 0 0 1.8781-.449224 3.8577-.718251 0 0 7.2841 9.35249 3.7816 44.7701h-.0761c0 .2792-.203.2792-.203.2792zm42.3844 34.8974v-12.8676h-3.0456v12.8676zm-13.7559-7.6648h8.0962v2.2588h-8.0962c0 2.335.9898 3.1472 3.3247 3.1472h4.7715v2.2588h-4.9491c-1.6243 0-2.9695-.1016-4.3146-1.0914-1.4466-1.0659-2.1573-2.7918-2.1573-5.1267 0-4.4922 2.0558-6.6495 6.5734-6.6495h4.8476v2.2588h-4.7715c-2.1572 0-3.2232.9898-3.3247 2.944zm-22.4866-5.2028 3.2486 9.8981 2.6903-9.8981h3.5024l3.071 9.8981 3.0456-9.8981h2.9694l-4.3146 12.8676h-3.6039l-2.9695-9.619-2.5887 9.619h-3.5278l-4.6699-12.8676zm-7.2587 0 5.9136 12.8676h-3.2233l-1.269-3.071h-6.0658l-1.2436 3.071h-3.0963l5.8881-12.8676zm-3.7054 7.5632h4.1369l-2.1065-4.9491zm-15.0503.1776c0 2.2335.7106 3.2233 3.1217 3.2233 2.4365 0 3.1471-.9898 3.1471-3.2233v-7.7408h2.9187v7.817c0 1.6243-.203 2.7918-.8121 3.4262-1.1421 1.2437-2.8172 1.802-5.2537 1.802-2.4111 0-4.0861-.5583-5.2282-1.802-.6599-.7106-.8122-1.8019-.8122-3.4262v-7.817h2.9187zm-8.24846-2.538v-5.2028h2.91866v12.8676h-2.91866v-5.3044h-6.52771v5.3044h-2.933916v-12.8676h2.933916v5.2028z" fill="#fff"/></svg>