<svg fill="none" height="83" viewBox="0 0 100 83" width="100" xmlns="http://www.w3.org/2000/svg"><path clip-rule="evenodd" d="m60.5422 77.1851c.2998 2.6951 1.903 4.7925 3.8937 4.4405 1.9914-.3521 2.9904-2.2553 2.7492-5.3034-.2439-3.0978-1.7782-4.6466-3.8415-4.4591-2.1321.1938-3.1013 2.6253-2.8014 5.322zm-28.4218 4.2723h1.4878c5.5393 0 7.0257-.5133 8.9752-3.1031 1.9485-2.5898 2.1802-6.3078 2.1802-7.5643 0-1.2568-.3337-4.4111-2.2827-7.0776-1.9495-2.6677-5.2054-3.3595-8.0528-3.3595h-2.3194c-.5515 0-.5778.2439-.5778.6278v19.9891c0 .4364.1536.4876.5895.4876zm28.3165-45.6763c5.8864 0 9.6443 3.4991 9.6443 8.859s-3.9333 8.7745-9.3783 8.9173-9.7242-3.1269-9.7286-8.9173c-.0004-.5382.0396-1.0616.118-1.5673l-3.3131.0507-3.4819.1168v-1.5718c-1.6989 1.2914-4.0998 2.0694-6.2969 2.0694-2.1232 0-3.7886-.4021-5.3244-1.6163-1.0726-.848-1.9353-2.0233-2.473-3.3507-.4881-1.2046-.7012-2.5347-.7012-3.8595 0-4.8747 4.1959-8.8265 9.1477-8.8265 2.2821 0 4.1596.7307 5.6404 1.7893v-12.3436-11.81181c-.0435-.64198-.3173-1.28497-.8067-1.68147-.3861-.31296-.9423-.43724-1.3802-.53165-.993-.21412-1.5381-.2077-1.5381-.2077v-.571166l7.2302-.726804v2.93892h.001v30.66608l.0006 1.5224.0001.0818c.0003.1908.0004.3815.0003.5723v.0504.0314c.0008 1.3282.0019 2.4441.0034 3.053.0056.3012.0142.6023.0271.9035.0453.516.1419.8868.2293 1.1318.1368.352.4746.8299.7743 1.0425.5692.4034 1.5301.4584 2.1829.4901.0653.0032.1274.0064.1865.0096.8706-3.9663 4.2136-6.7127 9.2363-6.7127zm-7.1348 31.9806c.8173 0 1.4806-.6628 1.4806-1.4797 0-.8175-.6633-1.4802-1.4806-1.4802-.8169-.0001-1.4791.6627-1.4791 1.4802 0 .8168.6622 1.4797 1.4791 1.4797zm18.1604 5.7462c-.0179-.1088-.0172-.2024.5193-.3704.5373-.1668 1.8413-.6079 2.6348-1.0476.793-.4414.9245-.5026 1.1102-.3785.185.1219.1322.422.1322.6337v2.1493c.2906-.4759 1.2423-2.0618 1.9996-2.528.5942-.3689.8031-.3986 1.1718-.4055.442-.0077 1.4863.2636 1.5329 1.3657.0009.0215.0013.0429.0014.0637v.0224c-.0074.8-.6147 1.1211-1.006 1.0688-.3227-.045-.5578-.3447-.7483-.6442-.1939-.3031-.5024-.4843-.8106-.3789-.3084.1056-2.0359 1.2251-2.1326 2.8195-.0698 1.171 0 4.8285 0 4.8285.0001.5543.2118.7667.4591.9161.2461.1496 1.1534.1583 1.4083.1936.2563.035.2473.0965.2473.1756.0001.0791 0 .1153-.2288.1153h-6.0707c-.1939 0-.2727-.0362-.2727-.1504 0-.1601.2556-.1318.4488-.1581.1946-.0264 1.2198.0581 1.5151-.4588.2166-.3391.1885-.8826.1885-.8826l-.0287-6.4206c0-.5196-.1536-.5944-.2967-.6769-.144-.0818-.3818-.1253-.8848.0431-.472.1565-.7989.303-.8894.1052zm-21.2328.0016c-.0815-.1581.0688-.2605.5196-.3791.5023-.1319 1.6036-.4673 2.4756-.9609.8727-.4929 1.0223-.5456 1.2068-.4842.1854.0622.1682.3881.1682.6515v8.3091c0 .4662.0613.6605.2726.8539.2117.1934.7402.3091 1.4271.3091.3092 0 .4052.0346.4052.1669 0 .1326-.096.1326-.2206.1326h-6.0256c-.1849 0-.2289-.0799-.2289-.1589 0-.0968.081-.1588.3615-.1588.2372 0 1.3275.0822 1.5758-.4843.0961-.2169.142-.52.142-.802v-6.5898c0-.5021-.388-.7228-.8365-.6163-.5254.1223-1.1354.4186-1.2428.2112zm-27.1246 8.3838c.027-.1732.2719-.2045.5022-.2114 2.8201-.0795 3.3466-.1791 3.6676-.5129.1764-.1829.4359-.3338.4359-1.641v-17.976c0-1.616-1.9627-1.3588-3.3465-1.5004-.4857-.0497-.5267-.1155-.5267-.2561 0-.1405.0928-.2091.3445-.2182h11.3692c12.4827.0034 13.1227 9.1295 13.1227 11.565 0 5.2323-3.4618 10.9885-10.6935 10.9885h-14.5148c-.1665 0-.3381-.0217-.3606-.1704zm39.41-10.5056c2.5684-.4805 6.2207.0878 7.0492 4.105.8286 4.0183-1.9365 6.1575-4.3349 6.6796-2.3449.508-6.3271.1452-7.0484-4.1765-.6475-3.8807 2.1678-6.2026 4.3341-6.6081zm-55.45962-64.38561c1.28696 0 2.33027 1.10271 2.33027 2.46297 0 1.36034-1.04331 2.46304-2.33027 2.46304-1.28697 0-2.33028-1.1027-2.33028-2.46304 0-1.36026 1.04331-2.46297 2.33028-2.46297zm-7.170714 63.09341.552911.6853s3.964683-2.8218 5.597583-4.8208c1.63288-1.9989 2.7197-3.762 3.03124-5.8025.31154-2.0404.18685-6.3239.18685-8.4578s-.00023-31.5883-.00023-31.5883l-6.74454.4672v.6386c0-.0717 1.57524.0175 2.28163.7239.71079.7108.97371 2.1451.97371 3.9801v32.1959s-.28182 3.4733-.73218 5.0933c-.45036 1.6199-2.3209 4.2991-3.419 5.3349-1.098117 1.0359-1.727974 1.5502-1.727974 1.5502zm13.012234-48.6105s1.1552-.8827 1.7458-1.1228c.5905-.2402 1.337-.3504 1.7913-.1233s1.1747.8306 1.2266 1.6419-.1362 1.6744-.7269 2.4142c-1.1624 1.4562-2.292 2.1316-3.7708 3.1608l-.305-.3051s.9345-.8632 1.298-1.3694.8565-1.337.9344-2.0834c.0779-.7463.039-1.0708-.1686-1.5251-.2077-.4544-.5258-.7139-.5258-.7139s-.185-.2109-.5322-.0195c-.3472.1915-.5062.2207-.6588.2174-.1525-.0032-.308-.1718-.308-.1718zm6.6699 31.9917c-2.8561-.0065-3.826-1.5544-3.9558-1.6972-.1298-.1427-1.2918-1.4149-.8375-3.8551s3.0502-3.271 4.1665-3.6085 4.0108-.7142 4.9972-.7531c.9865-.0389 2.2035-.0519 2.2035-.0519v-3.5435s-.1203-1.6096-.9121-2.2327-1.311-.928-2.278-.967c-.9671-.039-1.7848.3374-2.2521 1.2719-.4673.9346-.6296 2.4793-.6296 2.4793l-3.6734-.649s.6491-1.9989 1.3889-2.648c.7398-.649 1.5833-1.2592 3.5953-1.4019 2.0119-.1428 4.1927.0649 5.1921.5581.9995.4933 1.7393 1.0644 2.0509 1.5966.3115.5322.7917 1.35.8047 2.8946s0 8.1904 0 8.1904.1234 1.3953.9152 1.7068c.7918.3116 1.59.2857 2.1417-.0843.5516-.3699 1.5901-1.2136 1.5901-1.2136l.5061.5062s-1.8171 1.8757-2.1676 2.1482c-.3504.2726-1.8691 1.4499-2.8167 1.3545-.9476-.0953-1.5446-.5691-2.2585-1.2895-.714-.7204-1.2462-1.2851-1.2462-1.2851-1.3222.801-3.7123 2.5801-6.5247 2.5738zm6.4484-8.2162v4.4153s-2.2325 1.7501-4.4002 1.5814c-2.1678-.1687-3.2321-1.2461-3.2321-2.7648 0-.734.2725-1.7176 1.0274-2.4208.8069-.7516 2.1411-1.1994 3.5091-1.2007 2.6478-.0025 3.0958.392 3.0958.3896zm44.3744-15.9711 6.406-.9865v2.5256s2.7131-2.0897 3.4097-2.5256c.6967-.4359 1.8606-.9919 2.9315-.8881 1.0708.1039 1.908.5776 2.4662 1.3564.5581.7788.5971 2.2456.5971 2.2456l-3.55 1.8886c.3691-1.2836.308-2.2529-.2181-2.7382-.6485-.5982-1.3557-.7684-2.7869-.0006-1.0642.571-2.8495 2.5701-2.8495 2.5701v7.5012.0663.0645.5617c.0014.8529.0143 1.1295.1129 1.6477.2268 1.1922.9559 1.8913 3.2968 2.0537v.5841s-3.1857-.1614-5.1531-.1817c-1.9674-.0204-3.3714-.0158-4.7897.2011v-.5638s.5452-.1112 1.0515-.228c.5062-.1168.5257-.0843 1.3304-.5776.6036-.37.7093-1.2254.7244-1.63v-.2197-10.65c-.4179-1.645-1.6021-1.4507-2.9792-1.5594zm21.2806 6.4964c2.6411 0 5.0146 1.1012 6.4448 2.9166 1.0261 1.3026 1.4251 3.0045 1.7471 4.7848.003.0162.008.0322.015.0479h-6.4191-.1661-.1652-.164-.1629-.1617-.1605-.1591-.1579-.1565-.1549-.1535-.152-.1504-.1488-.147-.1453-.1435-.1416-.1398-.1378-.1359-.1337-.1316-.1296-.1273-.1251-.1227-.1205-.118-.1156-.113-.1105-.1079-.1053-.1026-.0997-.0971-.0941-.0912-.0882-.0853-.0822-.0791-.0759-.0727-.0695-.0661-.0628-.0594-.0559-.0523-.0489-.0452-.0415-.0378-.0341-.0302-.0264-.0224-.0185-.0145-.0104-.0063-.0021c0 1.1157.2099 3.7893 1.5799 5.6232 1.0187 1.3637 2.952 2.1358 4.4683 2.1358 2.4864 0 4.8339-1.1205 6.0208-2.4597h.0416l.7537.7537c-2.37 2.6164-5.0565 3.9554-8.2106 3.9554-4.9967 0-8.2814-4.0277-8.2814-8.9239s3.2809-8.8338 8.2775-8.8338zm-.2175 1.3466c.9868 0 2.2918.2539 3.0877 1.2991.7882 1.0351 1.0724 2.8576 1.0724 3.7373h-8.5215c0-.934.3964-2.5593 1.317-3.6276.8222-.954 2.1178-1.4088 3.0444-1.4088zm-47.1629 2.3564c-.0134.0193-.0268.0386-.0405.0577-1.3015 1.829-3.6382 2.7761-5.5368 2.7761-1.2866 0-2.4393-.5005-3.3151-1.3479-1.4066-1.3608-2.1716-3.6164-2.1716-6.131 0-3.3849 1.5397-7.5989 5.6423-7.5347 2.6639.0417 4.5111 1.619 5.4217 3.2551zm15.3479-2.3068c1.1186 0 2.9501.4806 4.13 1.6579 1.5766 1.5735 2.3671 4.1775 2.3671 6.4826 0 2.3755-.8399 4.5448-2.0647 5.7549-.8529.8428-1.8927 1.1136-2.9656 1.1136-1.3596 0-3.1548-.6792-4.4022-2.2469-1.15-1.4454-1.8093-3.7009-1.8093-5.634 0-2.6161.8302-4.9079 2.1753-6.1459.727-.669 1.6526-.9822 2.5694-.9822z" fill="#fff" fill-rule="evenodd"/></svg>