<svg fill="none" height="30" viewBox="0 0 165 30" width="165" xmlns="http://www.w3.org/2000/svg"><g fill="#fff"><path d="m159.2 23.3301h5.74v5.74h-5.74z"/><path clip-rule="evenodd" d="m59.4151 5.70292h2.888v-4.408h-3.61c-4.257 0-7.0947 2.5769-7.1434 6.50891v9.19617h-.0006v11.7689h5.282v-14.744h5.472v-4.40798h-5.472v-1.406c0-1.52 1.026-2.508 2.584-2.508zm-9.4154 8.32198v-4.40798h-5.4806v-1.406c0-1.52 1.026-2.508 2.584-2.508h2.888v-4.408h-3.61c-4.294 0-7.144 2.622-7.144 6.612v1.71h-3.686v4.40798h3.686v14.744h5.282v-14.744zm-45.59202-4.40798v-6.11692h5.282v6.11692h5.13002v4.88308h-5.13002v6.0869c0 1.862.98802 2.736 2.69802 2.736h2.612v5.7471h-3.334c-4.40802 0-7.25802-2.8091-7.25802-7.2551v-7.3149h-3.686v-4.88308zm31.01842 9.57598c0 5.7-4.218 9.88-10.108 9.88s-10.108-4.18-10.108-9.88 4.218-9.87998 10.108-9.87998 10.108 4.17998 10.108 9.87998zm-14.896 0c0 3.154 1.938 5.32 4.788 5.32s4.788-2.166 4.788-5.32c0-3.192-1.938-5.358-4.788-5.358s-4.788 2.166-4.788 5.358zm60.2792 3.407h-5.2022c-.5155 1.4171-1.8705 2.141-3.8507 2.141-1.8198 0-3.195-.7826-4.0039-2.141h-5.2634c1.2112 3.531 4.3281 6.473 9.2673 6.473 4.5861 0 8.1642-2.5197 9.0529-6.473zm-13.8029-2.229c.0014.0097.0028.0194.0042.029h-5.0224c-.0491-.4147-.0738-.8308-.0738-1.245 0-4.864 2.964-9.84198 9.462-9.84198 6.764 0 9.462 4.97798 9.462 9.34798 0 .722-.0379 1.292-.0759 1.71zm15.1982 2.229c1.2111 3.531 4.3281 6.473 9.2673 6.473 4.5861 0 8.1642-2.5197 9.0531-6.473h-5.2024c-.5155 1.4171-1.8705 2.141-3.8507 2.141-1.8199 0-3.1951-.7826-4.0039-2.141zm4.5215-2.2h-5.0224c-.0492-.4147-.0738-.8308-.0738-1.245 0-4.864 2.964-9.84198 9.462-9.84198 6.764 0 9.4621 4.97798 9.4621 9.34798 0 .722-.038 1.292-.076 1.71h-13.7561c.0014.0097.0028.0194.0042.029zm-11.1697-3.373c-.152-2.128-1.634-3.838-4.18-3.838-2.3939 0-3.8379 1.178-4.2939 3.838zm15.5355-3.838c2.546 0 4.028 1.71 4.18 3.838h-8.474c.456-2.66 1.9-3.838 4.294-3.838zm16.5611 15.58h-5.32v-19.15198h5.32v2.65998c1.064-1.862 3.192-2.96398 5.814-2.96398 4.332 0 7.144 3.11598 7.144 7.52398v11.932h-5.32v-10.754c0-2.318-1.482-3.99-3.686-3.99-2.318 0-3.952 1.786-3.952 4.256zm33.787-19.15198h-5.32v10.48798c0 2.432-1.634 4.256-3.952 4.256-2.166 0-3.686-1.672-3.686-3.99v-10.75398h-5.282v11.93198c0 4.37 2.812 7.524 7.106 7.524 2.622 0 4.75-1.14 5.814-2.964v2.66h5.32zm5.206 0v-6.11692h5.282v6.11692h5.13v4.88308h-5.13v6.0869c0 1.862.988 2.736 2.698 2.736h2.432v5.7471h-3.154c-4.408 0-7.258-2.8091-7.258-7.2551v-7.3149h-3.686v-4.88308z" fill-rule="evenodd"/></g></svg>