<svg width="120" height="150" viewBox="0 0 120 150" fill="none" xmlns="http://www.w3.org/2000/svg">
<path fill-rule="evenodd" clip-rule="evenodd" d="M22.2818 34.2266V0H54.2113V34.2266H85.222V60.8729H54.2113V106.585C54.2113 117.841 60.1837 123.124 70.5206 123.124H85.222V150H66.1562C39.5099 150 22.2818 134.839 22.2818 107.963V60.8729H0V34.2266H22.2818ZM94.3363 124.767C92.579 126.524 92.579 129.352 92.579 135.009V138C92.579 143.657 92.579 146.485 94.3363 148.243C96.0937 150 98.9221 150 104.579 150H107.57C113.227 150 116.055 150 117.812 148.243C119.57 146.485 119.57 143.657 119.57 138V135.009C119.57 129.352 119.57 126.524 117.812 124.767C116.055 123.009 113.227 123.009 107.57 123.009H104.579C98.9221 123.009 96.0937 123.009 94.3363 124.767Z" fill="black"/>
</svg>
