<svg width="155" height="150" viewBox="0 0 155 150" fill="none" xmlns="http://www.w3.org/2000/svg">
<path fill-rule="evenodd" clip-rule="evenodd" d="M71.1 2.20001L70.5 0.400024L59.9653 26.2295C58.0592 30.9029 57.9906 36.1241 59.7731 40.846L92.9 128.6C99.7 147.4 79.1 150 78.9 150H149.5C145.7 150 141.7 149.8 134.3 144.2C130.7 141.2 127.9 137.4 125.9 132.4L71.1 2.20001ZM25.4 126C19.6 140.2 9.40002 149 0 149.6H44C29.6 148.6 23.8 136.8 29.4 124.6L41.4 94.3999H37.5L25.4 126ZM71 113C71 119.075 66.0751 124 60 124C53.9249 124 49 119.075 49 113C49 106.925 53.9249 102 60 102C66.0751 102 71 106.925 71 113ZM144 139C144 145.075 148.925 150 155 150V128C148.925 128 144 132.925 144 139Z" fill="black"/>
</svg>
