<svg width="100" height="37" viewBox="0 0 100 37" fill="none" xmlns="http://www.w3.org/2000/svg">
<path d="M88.3333 35.95V19.65H91.8833V32.7H100V35.8833H88.3333V35.95ZM85.2167 16.45H81.8167V9.93333H75.15V6.53333H81.8167V0.0833333H85.2167V6.53333H91.8833V9.93333H85.2167V16.45ZM85.2167 19.6333V22.8333H76.3833V26.1667H84.2833V29.35H76.3833V32.75H85.3V35.9333H72.8333V19.7H85.2167V19.6333ZM66.1667 25.3L61.75 32.25L57.4 25.3667V35.95H53.9167V19.65H57.6833L61.8167 26.5333L65.8833 19.65H69.7167V36.0333H66.1667V25.3ZM58.2667 6.08333V16.45H54.7167V0.149999H58.05L66.1 10.15V0.149999H69.65V16.45H66.6L58.2667 6.08333ZM40.2167 6.08333V16.45H36.6667V0.149999H40L48.05 10.15V0.149999H51.6V16.45H48.55L40.2167 6.08333ZM29.9333 12.8333H22.8333L21.3833 16.45H17.7667L24.7833 0H28.1167L35.15 16.45H31.45L29.9333 12.8333ZM26.3833 4.41667L24.0667 9.63333H28.6333L26.3833 4.41667ZM21.1667 29.35C21.1667 31.1667 22.3333 32.9 24.5 32.9H24.7833C27.0333 32.9 28.1167 31.1667 28.1167 29.35V19.7167H31.6667V29.2167C31.6667 31.5333 30.5833 36.25 25.0667 36.25H24.1167C19.4833 36.25 17.45 32.85 17.45 29.2167V19.7167H21.1V29.35H21.1667ZM12.7667 5.8L8.13333 12.75L3.5 5.86667V16.45H0.0166677V0.149999H3.85L8.2 7.03333L12.4 0.149999H16.2333V16.5333H12.6833V5.8H12.7667ZM3.55 26.1667H10.8V19.65H14.35V36.0333H10.8V29.4333H3.55V36.0333H0V19.65H3.55C3.55 19.6333 3.55 26.1667 3.55 26.1667ZM42.9 26.5167L46.8833 19.6333H50.7167V36.0167H47.1667V25.2833L42.75 32.2333L38.4 25.35V35.9333H34.8667V19.6333H38.7L42.9 26.5167Z" fill="white"/>
</svg>
