<svg fill="none" height="37" viewBox="0 0 100 37" width="100" xmlns="http://www.w3.org/2000/svg"><path d="m88.3333 35.95v-16.3h3.55v13.05h8.1167v3.1833h-11.6667zm-3.1166-19.5h-3.4v-6.51667h-6.6667v-3.4h6.6667v-6.4499967h3.4v6.4499967h6.6666v3.4h-6.6666zm0 3.1833v3.2h-8.8334v3.3334h7.9v3.1833h-7.9v3.4h8.9167v3.1833h-12.4667v-16.2333h12.3834zm-19.05 5.6667-4.4167 6.95-4.35-6.8833v10.5833h-3.4833v-16.3h3.7666l4.1334 6.8833 4.0666-6.8833h3.8334v16.3833h-3.55zm-7.9-19.21667v10.36667h-3.55v-16.300001h3.3333l8.05 10.000001v-10.000001h3.55v16.300001h-3.05zm-18.05 0v10.36667h-3.55v-16.300001h3.3333l8.05 10.000001v-10.000001h3.55v16.300001h-3.05zm-10.2834 6.74997h-7.1l-1.45 3.6167h-3.6166l7.0166-16.45h3.3334l7.0333 16.45h-3.7zm-3.55-8.41663-2.3166 5.21666h4.5666zm-5.2166 24.93333c0 1.8167 1.1666 3.55 3.3333 3.55h.2833c2.25 0 3.3334-1.7333 3.3334-3.55v-9.6333h3.55v9.5c0 2.3166-1.0834 7.0333-6.6 7.0333h-.95c-4.6334 0-6.6667-3.4-6.6667-7.0333v-9.5h3.65v9.6333zm-8.4-23.55-4.63337 6.95-4.63333-6.88333v10.58333h-3.4833323v-16.300001h3.8333323l4.35 6.883331 4.2-6.883331h3.8333v16.383301h-3.55v-10.7333zm-9.2167 20.3667h7.25v-6.5167h3.55v16.3833h-3.55v-6.6h-7.25v6.6h-3.55v-16.3833h3.55c0-.0167 0 6.5167 0 6.5167zm39.35.35 3.9833-6.8834h3.8334v16.3834h-3.55v-10.7334l-4.4167 6.95-4.35-6.8833v10.5833h-3.5333v-16.3h3.8333z" fill="#fff"/></svg>