<svg fill="none" height="28" viewBox="0 0 28 28" width="28" xmlns="http://www.w3.org/2000/svg"><path d="m3.72852 20.2368h19.85548c.2845 0 .5241-.1011.7187-.3032.2022-.2096.3033-.4567.3033-.7412s-.1011-.5278-.3033-.73c-.1946-.2021-.4342-.3032-.7187-.3032h-19.85548c-.28451 0-.52784.1048-.72998.3144-.19467.2022-.292.4418-.292.7188 0 .2845.09733.5316.292.7412.20214.2021.44547.3032.72998.3032zm0-4.8628h19.85548c.2845 0 .5241-.1011.7187-.3032.2022-.2021.3033-.4455.3033-.73 0-.292-.1011-.5353-.3033-.73-.1946-.2021-.4342-.3032-.7187-.3032h-19.85548c-.28451 0-.52784.1011-.72998.3032-.19467.2022-.292.4455-.292.73s.09733.5279.292.73c.20214.2021.44547.3032.72998.3032zm0-4.8403h19.85548c.2845 0 .5241-.1011.7187-.3032.2022-.2097.3033-.45674.3033-.74124 0-.28451-.1011-.52783-.3033-.72998-.1946-.20215-.4342-.30323-.7187-.30323h-19.85548c-.28451 0-.52784.10482-.72998.31446-.19467.20215-.292.44173-.292.71875s.09733.52034.292.72994c.20214.2097.44547.3145.72998.3145z" fill="#fff"/></svg>