<svg fill="none" height="11" viewBox="0 0 100 11" width="100" xmlns="http://www.w3.org/2000/svg"><path clip-rule="evenodd" d="m.00429956 9.67837c-.02817576.19723.08452794.32403.26767044.32403h1.26791c.12679 0 .23949-.11272.25358-.21133l.8171-5.3393h.04226l2.49355 5.53653c.04227.0845.1127.155.2395.155h.25358c.12679 0 .21132-.0705.23949-.155l2.46538-5.53653h.04226l.83119 5.3393c.02817.09861.14088.21133.26767.21133h1.28196c.1832 0 .2959-.1268.2536-.32403l-1.66236-9.467052c-.01408-.1127031-.09861-.211318-.25358-.211318h-.2254c-.12679 0-.19723.0563513-.23949.140879l-3.09934 6.649471h-.04226l-3.09933-6.649471c-.04227-.0845277-.12679-.140879-.2395-.140879h-.2254c-.15497 0-.2395.0986149-.25358.211318zm14.63730044.05635c0 .14088.1127.26768.2677.26768h5.7337c.155 0 .2677-.1268.2677-.26768v-1.15521c0-.14088-.1127-.26767-.2677-.26767h-4.17v-2.46537h3.4797c.1409 0 .2677-.11271.2677-.26767v-1.1693c0-.14088-.1268-.26767-.2677-.26767h-3.4797v-2.31041h4.17c.155 0 .2677-.12679.2677-.26767v-1.155202c0-.140879-.1127-.267669-.2677-.267669h-5.7337c-.155 0-.2677.12679-.2677.267669zm11.4675 0c0 .14088.1268.26768.2677.26768h1.3102c.1408 0 .2676-.1268.2676-.26768v-7.9033h2.1555c.1549 0 .2676-.12679.2676-.26767v-1.155202c0-.140879-.1127-.267669-.2676-.267669h-6.1564c-.155 0-.2677.12679-.2677.267669v1.155202c0 .14088.1127.26767.2677.26767h2.1554zm7.5934 0c0 .14088.1127.26768.2677.26768h1.296c.1409 0 .2677-.1268.2677-.26768v-3.59241h1.5638l1.8736 3.73329c.0282.05635.0987.1268.2255.1268h1.4792c.2395 0 .3381-.22542.2395-.40856l-1.9301-3.57832c1.2257-.49308 2.085-1.54967 2.085-2.84575 0-1.67646-1.3806-3.028891-3.0711-3.028891h-4.0291c-.155 0-.2677.12679-.2677.267669zm1.8455-5.09981v-2.80349h2.2963c.7467 0 1.3947.61987 1.3947 1.36653 0 .78892-.648 1.43696-1.3947 1.43696zm8.6359.45081c0 2.81757 2.2399 5.05758 5.0575 5.05758s5.0716-2.24001 5.0716-5.05758-2.254-5.08572-5.0716-5.08572-5.0575 2.26815-5.0575 5.08572zm1.8314 0c0-1.77507 1.451-3.2543 3.2261-3.2543s3.2402 1.47923 3.2402 3.2543-1.4651 3.22612-3.2402 3.22612-3.2261-1.45105-3.2261-3.22612zm11.2562 4.59265c-.0282.19723.0845.32403.2677.32403h1.2679c.1268 0 .2395-.11272.2535-.21133l.8171-5.3393h.0423l2.4936 5.53653c.0422.0845.1127.155.2395.155h.2535c.1268 0 .2114-.0705.2395-.155l2.4654-5.53653h.0423l.8311 5.3393c.0282.09861.1409.21133.2677.21133h1.282c.1832 0 .2959-.1268.2536-.32403l-1.6624-9.467052c-.0141-.1127031-.0986-.211318-.2536-.211318h-.2254c-.1267 0-.1972.0563513-.2395.140879l-3.0993 6.649471h-.0422l-3.0994-6.649471c-.0422-.0845277-.1268-.140879-.2395-.140879h-.2254c-.1549 0-.2395.0986149-.2536.211318zm13.7075.32403h1.2256c.2254 0 .3522-.14089.4086-.28177l.6903-1.52149h4.2122l.6904 1.52149c.0986.19723.1972.28177.4085.28177h1.2256c.2114 0 .3241-.18316.2395-.3663l-4.339-9.481134c-.0423-.084527-.0986-.154966-.2395-.154966h-.1409c-.1268 0-.1972.070439-.2395.154966l-4.3813 9.481134c-.0845.18314.0282.3663.2395.3663zm3.0148-3.36701 1.3806-3.09934h.0423l1.4087 3.09934zm9.0867 3.09933c0 .14088.1127.26768.2676.26768h1.2961c.1409 0 .2677-.1268.2677-.26768v-3.59241h1.5637l1.8737 3.73329c.0282.05635.0986.1268.2254.1268h1.4793c.2394 0 .3381-.22542.2395-.40856l-1.9301-3.57832c1.2257-.49308 2.085-1.54967 2.085-2.84575 0-1.67646-1.3806-3.028891-3.0711-3.028891h-4.0292c-.1549 0-.2676.12679-.2676.267669zm1.8455-5.09981v-2.80349h2.2963c.7467 0 1.3947.61987 1.3947 1.36653 0 .78892-.648 1.43696-1.3947 1.43696zm10.8054 5.09981c0 .14088.1268.26768.2676.26768h1.3102c.1409 0 .2677-.1268.2677-.26768v-7.9033h2.1554c.155 0 .2677-.12679.2677-.26767v-1.155202c0-.140879-.1127-.267669-.2677-.267669h-6.1564c-.1549 0-.2676.12679-.2676.267669v1.155202c0 .14088.1127.26767.2676.26767h2.1555z" fill="#fff" fill-rule="evenodd"/></svg>