<svg fill="none" height="66" viewBox="0 0 100 66" width="100" xmlns="http://www.w3.org/2000/svg"><path clip-rule="evenodd" d="m50.6785 0h-.9451c-1.2699.0984413-2.5168.550451-3.5291 1.32896-1.0484.78999-1.8581 1.89499-2.2797 3.13864-.4898 1.41755-.4808 3 .0287 4.41017.5734 1.63163 1.8211 3.00903 3.3831 3.75063 1.3388.6513 2.8999.8097 4.3486.4856 2.3503-.5061 4.3232-2.4003 4.9368-4.7227.4693-1.7219.224-3.63412-.7013-5.16406-1.0829-1.8466-3.1067-3.086961-5.242-3.22724zm-11.1636 8.07063c-1.0829-.4635-2.2871-.59803-3.452-.45775-2.2945.28137-4.3659 1.86628-5.2461 4.00242-.5956 1.4077-.6817 3.0222-.2445 4.4873.4331 1.475 1.402 2.7876 2.6883 3.6317 1.0516.7006 2.3076 1.1025 3.5734 1.1042 1.539.0426 3.0845-.4906 4.2781-1.4611 1.228-.9786 2.0828-2.4118 2.365-3.9565.2338-1.3043.0919-2.6809-.4479-3.8942-.671-1.54631-1.9581-2.81046-3.5143-3.45607zm23.1162-.46279c1.3027-.1534 2.6538.05004 3.8253.65054 1.4044.69401 2.5373 1.90892 3.1444 3.35112.5873 1.3773.6792 2.9549.2764 4.3954-.4356 1.5734-1.4823 2.9664-2.8687 3.8269-2.1567 1.3888-5.1272 1.3413-7.2404-.1132-1.201-.8105-2.137-2.0189-2.589-3.3979-.5496-1.6095-.4405-3.429.2888-4.9647.9401-2.01723 2.9508-3.48565 5.1632-3.74816zm-9.3566 8.26166c-1.2076-.639-2.6145-.8613-3.9648-.6842-1.4052.1813-2.7399.8376-3.7489 1.8319-.9787.9516-1.6497 2.2141-1.8893 3.5586-.2223 1.2182-.0984 2.4988.361 3.6489.607 1.5505 1.8285 2.8466 3.3355 3.5546 2.2699 1.0976 5.155.7424 7.0812-.8893 1.192-.9819 2.0238-2.3929 2.2978-3.9147.233-1.301.0861-2.6735-.4512-3.8835-.6013-1.3773-1.6858-2.5348-3.0213-3.2223zm-17.4579 6.9164c1.2272-.1968 2.5143-.0771 3.6653.4061 1.3519.5554 2.5086 1.5702 3.2313 2.8417.7096 1.2248.9902 2.6801.8294 4.0837-.146 1.2904-.6875 2.5332-1.5308 3.5209-1.0476 1.2461-2.5726 2.0763-4.187 2.2855-1.2724.1583-2.5981-.0246-3.7523-.594-1.4881-.6997-2.6874-1.9819-3.2969-3.5078-.5021-1.242-.6096-2.6357-.3192-3.9417.3159-1.4373 1.1313-2.7556 2.2716-3.6842.8827-.7293 1.959-1.2207 3.0886-1.4102zm30.3506.4693c-1.1558-.5193-2.4602-.6661-3.7096-.4865-2.5463.3593-4.7547 2.3454-5.3978 4.8318-.3495 1.3077-.2978 2.7211.1657 3.9943.5472 1.5406 1.6948 2.8556 3.1394 3.6169 1.3257.7121 2.8975.9286 4.3725.6505 2.3954-.4315 4.4495-2.3019 5.1157-4.6407.5225-1.7645.2797-3.7448-.6818-5.3166-.6964-1.1649-1.7621-2.1026-3.0041-2.6497zm-16.978 7.0812c1.192-.1698 2.434-.0492 3.5488.4192 1.6054.6522 2.9262 1.9614 3.5964 3.5595.4996 1.1755.6366 2.4971.4192 3.7547-.2535 1.4701-1.0295 2.8408-2.1501 3.8236-1.2396 1.1001-2.9057 1.7088-4.5636 1.6481-2.6604-.0148-5.1805-1.8335-6.0665-4.3363-.5438-1.4635-.5455-3.119-.0065-4.5841.7916-2.2363 2.8737-3.9475 5.2223-4.2847zm-37.6158 19.8573c-2.70219-.8885-5.80966-.4094-8.11811 1.2526-1.9434 1.3782-3.287119 3.6095-3.45529 6.0017v1.0951c.114848 1.3044.535685 2.5874 1.27235 3.6744.96473 1.4561 2.42576 2.557 4.06071 3.1575 2.64807.977 5.74654.6283 8.10744-.9205 1.3036-.8425 2.379-2.0426 3.0419-3.4487.7432-1.5308.9393-3.3142.5701-4.9737-.2699-1.2265-.8564-2.3782-1.6743-3.3298-1.0025-1.1682-2.3421-2.0369-3.8048-2.5086zm-7.01721 2.0262c.6694-.7088 1.59311-1.1468 2.55127-1.2953 1.36096-.2108 2.81707-.0016 3.99754.7317 1.2568.7736 2.1657 2.0337 2.6522 3.4143.5389 1.5127.5824 3.1534.4216 4.7359-.1681 1.4864-.68 3.0352-1.8531 4.032-.9139.8113-2.178 1.1378-3.38066 1.0311-1.35767-.0681-2.69812-.6087-3.67269-1.566-.98687-.9393-1.68088-2.1682-2.01722-3.4865-.33142-1.2887-.3708-2.6407-.23052-3.9598.15012-1.3191.57588-2.6759 1.53158-3.6374zm45.69271-1.7154c.0148-.0316.0299-.0662.0456-.1024.1076-.2472.2463-.5658.5598-.4727.1848.1286.275.3378.3632.542v.0001c.0265.0614.0528.1224.0814.1806.7523 1.8224 1.492 3.6497 2.2316 5.4771l.0007.0018.0002.0005.0002.0005.0002.0005c.9213 2.2763 1.8427 4.5526 2.7884 6.819.2945.6744.6112 1.37 1.1518 1.8852.389.3772.9433.4018 1.4587.4247.0596.0027.1188.0053.1771.0084.1517-.0082.1944.256.0508.3011-.1293.0524-.271.0608-.4099.0691-.0328.0019-.0655.0039-.0979.0064-1.3929.0123-2.785-.0082-4.1771-.0394-.224-.0025-.4455-.0271-.6637-.0722-.0238-.1797.0714-.2781.2436-.3002.2379-.0189.3134-.2921.2125-.4799-.2529-.6495-.505-1.2994-.7572-1.9495-.282-.727-.5641-1.4542-.8474-2.181-.0344-.1091-.1116-.2026-.2379-.1821-1.0552-.0053-2.1108-.0043-3.1663-.0033h-.0001-.0001c-.4223.0004-.8445.0008-1.2666.0008-.128-.0221-.2396.0419-.2658.1715-.1507.391-.3061.7804-.4614 1.1698-.2699.6767-.5398 1.3533-.7855 2.0386-.0135.0531-.0287.1076-.0441.1632l-.0001.0003c-.0968.3494-.2046.7381.0105 1.053.2266.2282.5347.2265.8412.2248.1563-.0009.3122-.0018.4566.0279-.0003.0102-.0004.021-.0004.0322l.0003.0274c.0013.1244.003.2828-.1582.2849-.4584.0252-.9174.0031-1.3766-.019h-.0001-.0001-.0001-.0001-.0001c-.4996-.024-.9994-.0481-1.4991-.0113-.2318.0029-.4639.013-.696.023h-.0002-.0001-.0002c-.479.0207-.9582.0414-1.4355 0-.1821-.005-.233-.3036-.0492-.3495.103-.0099.208-.016.3135-.0221.3936-.0227.7949-.046 1.1319-.2691.5499-.3593.8092-.9916 1.0498-1.5781l.0298-.0725c.5049-1.2469 1.0095-2.494 1.5141-3.7412l.0019-.0047.0019-.0048.002-.0047.0012-.003c1.2237-3.0244 2.4475-6.0491 3.6766-9.0717zm-1.0645 6.2519-.001.0027c-.2377.6328-.4755 1.2656-.7122 1.8988-.0186.0497-.0383.0993-.058.149-.0726.1827-.1456.3664-.1643.5638 1.3076.0411 2.6193.0279 3.9278.0074-.6251-1.7547-1.2715-3.5029-1.9188-5.2502-.1083.0886-.1739.2125-.2174.3446-.2838.7605-.5692 1.5204-.8547 2.2802l-.0004.001zm41.9244-6.4061v.0002c-.0167.036-.0326.0704-.0483.1014-.9316 2.2842-1.8563 4.571-2.7811 6.8578-.8628 2.1334-1.7255 4.2668-2.5938 6.3982-.2256.5176-.5078 1.0689-1.032 1.3396-.2845.1588-.6036.1785-.9222.198-.1619.01-.3236.0199-.4806.0481-.1173.1378-.0074.3626.1789.3413.5453.0283 1.091.0055 1.6368-.0173h.0001.0001c.5749-.024 1.1499-.048 1.7247-.0123.1826.0021.3656.012.5486.0219.3382.0183.6767.0366 1.0142.0052.1581.0046.1711-.1412.1822-.2662.0027-.03.0053-.0588.0097-.0841-.1354-.0178-.275-.018-.4147-.0181-.2654-.0004-.5312-.0007-.7698-.1221-.3331-.1969-.2634-.6366-.1945-.9541.131-.5277.3362-1.0307.5413-1.5335l.0001-.0004c.1006-.2466.2012-.4932.2929-.7426.0808-.1825.1502-.3704.2196-.5583l.0001-.0001v-.0001c.113-.3061.2261-.6122.3882-.8943.8401-.0282 1.6816-.0241 2.5233-.02h.0001.0001c.6024.003 1.2049.0059 1.8071-.003.0367.0031.078.0027.1208.0023.1605-.0017.343-.0035.387.179.1903.4929.3825.9851.5746 1.4773.354.9064.7078 1.8127 1.0497 2.7229.1394.3142-.21.4495-.4545.4807 0 .0747.0033.1501.009.2264.2679.0873.5506.0872.833.0871.1475-.0001.295-.0002.4402.0122.4258-.0008.852.0073 1.2783.0154.9415.0178 1.8834.0357 2.8218-.0417v-.3174c-.1013-.0081-.205-.0131-.3098-.0182h-.0004c-.4936-.0241-1.0095-.0491-1.3904-.3928-.5709-.5144-.8892-1.2371-1.1928-1.927-.9266-2.2176-1.828-4.4456-2.7295-6.6738-.7586-1.875-1.5173-3.75-2.291-5.6191-.0282-.0575-.0541-.1182-.0802-.1796-.0884-.2075-.1798-.4221-.3767-.5398-.2843-.0891-.4161.196-.5202.4209zm-.5145 4.7553.0001-.0003c.1212-.3372.2423-.6744.4038-.9946.1258.1839.1985.3939.2711.6036v.0001l.0001.0001c.031.0896.062.1791.0971.2666.196.5463.3974 1.091.5988 1.6358l.0004.001.0005.0013c.3402.9201.6804 1.8402.995 2.7688-1.1134.0084-2.2274.006-3.341.0036h-.0009l-.5572-.0012c-.0147-.1288.0099-.2551.0599-.3724.204-.5356.4049-1.0723.6058-1.609l.0002-.0006c.216-.5769.4319-1.1539.6516-1.7292.0765-.1891.1456-.3813.2146-.5735zm-67.5338-4.5306c-.2223.0139-.2452-.3585-.0123-.3552.61-.0338 1.2212-.0133 1.8322.0073.2649.0089.5298.0177.7946.0222.5255.0276 1.0518.0056 1.578-.0163.5704-.0238 1.1407-.0476 1.7099-.0083.1641.0123.1772.2231.0903.3273-.1332.0284-.2715.0389-.4099.0494-.2622.02-.5247.0399-.7534.1811-.2666.1764-.3478.5111-.3765.8114-.0588.6725-.0557 1.3473-.0526 2.022.0012.2576.0023.5153.0001.7729.0025.3372.0012.6745-.0002 1.0118-.0021.5482-.0042 1.0965.01 1.6444.1643-.1259.3042-.2771.4438-.4281h.0001c.0632-.0684.1264-.1367.1919-.2027.4004-.4198.8032-.8374 1.206-1.2549.7541-.7818 1.5083-1.5636 2.2468-2.3604l.0223-.0251.0001-.0002c.3519-.3968.7052-.7952 1.0112-1.229.1493-.2124.2904-.4807.1945-.7457-.0598-.1481-.212-.1871-.3573-.2242v-.0001c-.0502-.0128-.0995-.0254-.144-.0423.0025-.0245.0013-.0541 0-.0851-.0043-.1025-.0093-.2207.1173-.2258.3597-.0323.7203-.0143 1.0811.0038.216.0108.4322.0216.6482.0216.5421.0317 1.0842.0094 1.6263-.013.4973-.0205.9946-.041 1.4919-.0198.2182-.0361.2871.3183.0738.3577-.6038.0328-1.2182.1231-1.7556.4167-.8628.4244-1.5487 1.0984-2.2284 1.7664-.1429.1405-.2855.2807-.4295.4182-.4333.4348-.8677.8687-1.3021 1.3027-.7484.7475-1.4969 1.4952-2.2401 2.2478.3607.4959.7741.9497 1.1874 1.4033.1835.2015.3671.403.546.6082 1.1985 1.3109 2.4019 2.6193 3.6456 3.8884.1132.1069.2263.2152.3397.3238.8552.8192 1.7306 1.6576 2.8604 2.0683.4004.1649.8294.2322 1.2585.2699.2305.009.1296.3806-.0755.3478-.4499.0226-.9012.0188-1.3525.0151-.2885-.0024-.577-.0048-.8649-.0003l-.0758.0005c-.8616.006-1.776.0124-2.5395-.4427-.9163-.5594-1.6505-1.3576-2.3634-2.1484-1.5266-1.7031-3.0213-3.4373-4.4577-5.2142-.0231.5115-.0199 1.0236-.0166 1.5355v.0001c.0019.3059.0038.6117.0002.9173.0013.3081.0005.6164-.0002.9246v.0001c-.0026.9785-.0051 1.9573.0617 2.9342.0303.356.137.7727.4832.9483.2876.1143.5957.1282.903.1421.1624.0073.3245.0146.4834.0367.2321.0542.105.3848-.1042.3561-.5566.0256-1.1139.0074-1.671-.0108h-.0003c-.2639-.0087-.5277-.0173-.7914-.0212-.576-.0326-1.1525-.0095-1.7288.0136h-.0001c-.5719.0228-1.1437.0457-1.7149.0143-.1887-.0025-.2756-.2724-.0853-.3487.1202-.0217.2543-.0268.3912-.032h.0001c.3813-.0146.7836-.03.9647-.4061.1993-.4899.2229-1.0248.2461-1.5504.0043-.0975.0086-.1947.014-.2912.0353-1.4032.0308-2.8067.0263-4.2102-.0026-.8119-.0052-1.6237-.0001-2.4354-.005-.5354-.0025-1.071.0001-1.6066v-.0004c.0046-.9431.0092-1.8861-.028-2.8278l-.0018-.0294c-.0223-.3722-.0488-.8119-.3796-1.0461-.3318-.227-.7299-.2417-1.1203-.2561-.1174-.0043-.2342-.0087-.3482-.0187zm40.7412-.3784c-.2325-.0104-.4661-.0209-.6911.0438-.1238.0615-.1197.2871.0337.3101.1536.0232.3119.0307.4705.0383.3471.0167.6963.0334 1.0036.2135.2502.1403.3659.4307.4036.7031.0423.3248.0491.6524.056.9799.0035.1688.0071.3375.0154.5057.001 1.4242.0008 2.8483.0007 4.2723-.0001 1.0663-.0002 2.1325.0001 3.1986-.0002.0975-.0003.195-.0004.2925-.0015 1.0817-.0031 2.1648-.0964 3.2423-.0074.0483-.0142.0975-.021.1472-.045.3253-.0929.6717-.3284.9144-.2126.156-.4673.1683-.7212.1806-.1959.0094-.3914.0188-.5668.0942-.1222.2002.1362.3314.3068.3117.3768.0005.7539-.0143 1.1311-.029.3019-.0118.6039-.0236.9059-.0276.8567-.0245 1.7099.0452 2.5632.115.5161.0422 1.0322.0844 1.5491.1057 1.9508.1075 3.968-.1329 5.7384-1.0008 1.0246-.4931 1.9458-1.2158 2.6128-2.1419 1.2789-1.717 1.7842-3.9451 1.5151-6.0566-.2215-1.8475-1.1632-3.6235-2.6571-4.7523-1.1353-.8671-2.5398-1.3003-3.9393-1.4939-1.6983-.2207-3.4103-.1815-5.1191-.1424-.4249.0097-.8496.0194-1.2738.0251-.4834.0095-.9664-.0049-1.4492-.0194-.3922-.0117-.7844-.0235-1.1767-.0224-.088.0002-.1767-.0037-.2655-.0077zm4.3838 1.0572c.011-.002.0219-.004.0326-.006 1.2674-.1608 2.5702-.0591 3.8039.2723 1.3774.3766 2.653 1.1666 3.5464 2.288.7818 1.0131 1.2322 2.2584 1.3708 3.5258.0919.8712.0607 1.7531-.0459 2.6227-.1477 1.0787-.4783 2.1763-1.2035 3.0139-.9089 1.0221-2.2223 1.6259-3.5693 1.7875-1.0435.1173-2.1206.1682-3.146-.1-.4151-.1305-.8811-.3118-1.0935-.7187-.1326-.4148-.1495-.8532-.1662-1.2875-.004-.1033-.008-.2064-.0135-.3089-.0607-3.3634-.055-6.7284-.0238-10.0918.0013-.0658.0003-.1321-.0008-.1985-.0028-.1811-.0057-.3629.0394-.5382.0703-.1869.2911-.2277.4694-.2606z" fill="#fff" fill-rule="evenodd"/></svg>