<svg width="100" height="66" viewBox="0 0 100 66" fill="none" xmlns="http://www.w3.org/2000/svg">
<path fill-rule="evenodd" clip-rule="evenodd" d="M50.6785 0H49.7334C48.4635 0.0984413 47.2166 0.550451 46.2043 1.32896C45.1559 2.11895 44.3462 3.22395 43.9246 4.4676C43.4348 5.88515 43.4438 7.4676 43.9533 8.87777C44.5267 10.5094 45.7744 11.8868 47.3364 12.6284C48.6752 13.2797 50.2363 13.4381 51.685 13.114C54.0353 12.6079 56.0082 10.7137 56.6218 8.3913C57.0911 6.6694 56.8458 4.75718 55.9205 3.22724C54.8376 1.38064 52.8138 0.140279 50.6785 0ZM39.5149 8.07063C38.432 7.60713 37.2278 7.4726 36.0629 7.61288C33.7684 7.89425 31.697 9.47916 30.8168 11.6153C30.2212 13.023 30.1351 14.6375 30.5723 16.1026C31.0054 17.5776 31.9743 18.8902 33.2606 19.7343C34.3122 20.4349 35.5682 20.8368 36.834 20.8385C38.373 20.8811 39.9185 20.3479 41.1121 19.3774C42.3401 18.3988 43.1949 16.9656 43.4771 15.4209C43.7109 14.1166 43.569 12.74 43.0292 11.5267C42.3582 9.98039 41.0711 8.71624 39.5149 8.07063ZM62.6311 7.60784C63.9338 7.45444 65.2849 7.65788 66.4564 8.25838C67.8608 8.95239 68.9937 10.1673 69.6008 11.6095C70.1881 12.9868 70.28 14.5644 69.8772 16.0049C69.4416 17.5783 68.3949 18.9713 67.0085 19.8318C64.8518 21.2206 61.8813 21.1731 59.7681 19.7186C58.5671 18.9081 57.6311 17.6997 57.1791 16.3207C56.6295 14.7112 56.7386 12.8917 57.4679 11.356C58.408 9.33877 60.4187 7.87035 62.6311 7.60784ZM53.2745 15.8695C52.0669 15.2305 50.66 15.0082 49.3097 15.1853C47.9045 15.3666 46.5698 16.0229 45.5608 17.0172C44.5821 17.9688 43.9111 19.2313 43.6715 20.5758C43.4492 21.794 43.5731 23.0746 44.0325 24.2247C44.6395 25.7752 45.861 27.0713 47.368 27.7793C49.6379 28.8769 52.523 28.5217 54.4492 26.89C55.6412 25.9081 56.473 24.4971 56.747 22.9753C56.98 21.6743 56.8331 20.3018 56.2958 19.0918C55.6945 17.7145 54.61 16.557 53.2745 15.8695ZM35.8166 22.7859C37.0438 22.5891 38.3309 22.7088 39.4819 23.192C40.8338 23.7474 41.9905 24.7622 42.7132 26.0337C43.4228 27.2585 43.7034 28.7138 43.5426 30.1174C43.3966 31.4078 42.8551 32.6506 42.0118 33.6383C40.9642 34.8844 39.4392 35.7146 37.8248 35.9238C36.5524 36.0821 35.2267 35.8992 34.0725 35.3298C32.5844 34.6301 31.3851 33.3479 30.7756 31.822C30.2735 30.58 30.166 29.1863 30.4564 27.8803C30.7723 26.443 31.5877 25.1247 32.728 24.1961C33.6107 23.4668 34.687 22.9754 35.8166 22.7859ZM66.1672 23.2552C65.0114 22.7359 63.707 22.5891 62.4576 22.7687C59.9113 23.128 57.7029 25.1141 57.0598 27.6005C56.7103 28.9082 56.762 30.3216 57.2255 31.5948C57.7727 33.1354 58.9203 34.4504 60.3649 35.2117C61.6906 35.9238 63.2624 36.1403 64.7374 35.8622C67.1328 35.4307 69.1869 33.5603 69.8531 31.2215C70.3756 29.457 70.1328 27.4767 69.1713 25.9049C68.4749 24.74 67.4092 23.8023 66.1672 23.2552ZM49.1892 30.3364C50.3812 30.1666 51.6232 30.2872 52.738 30.7556C54.3434 31.4078 55.6642 32.717 56.3344 34.3151C56.834 35.4906 56.971 36.8122 56.7536 38.0698C56.5001 39.5399 55.7241 40.9106 54.6035 41.8934C53.3639 42.9935 51.6978 43.6022 50.0399 43.5415C47.3795 43.5267 44.8594 41.708 43.9734 39.2052C43.4296 37.7417 43.4279 36.0862 43.9669 34.6211C44.7585 32.3848 46.8406 30.6736 49.1892 30.3364ZM11.5734 50.1937C8.87121 49.3052 5.76374 49.7843 3.45529 51.4463C1.51189 52.8245 0.168171 55.0558 0 57.448V58.5431C0.114848 59.8475 0.535685 61.1305 1.27235 62.2175C2.23708 63.6736 3.69811 64.7745 5.33306 65.375C7.98113 66.352 11.0796 66.0033 13.4405 64.4545C14.7441 63.612 15.8195 62.4119 16.4824 61.0058C17.2256 59.475 17.4217 57.6916 17.0525 56.0321C16.7826 54.8056 16.1961 53.6539 15.3782 52.7023C14.3757 51.5341 13.0361 50.6654 11.5734 50.1937ZM4.55619 52.2199C5.22559 51.5111 6.1493 51.0731 7.10746 50.9246C8.46842 50.7138 9.92453 50.923 11.105 51.6563C12.3618 52.4299 13.2707 53.69 13.7572 55.0706C14.2961 56.5833 14.3396 58.224 14.1788 59.8065C14.0107 61.2929 13.4988 62.8417 12.3257 63.8385C11.4118 64.6498 10.1477 64.9763 8.94504 64.8696C7.58737 64.8015 6.24692 64.2609 5.27235 63.3036C4.28548 62.3643 3.59147 61.1354 3.25513 59.8171C2.92371 58.5284 2.88433 57.1764 3.02461 55.8573C3.17473 54.5382 3.60049 53.1814 4.55619 52.2199ZM50.2489 50.5045C50.2637 50.4729 50.2788 50.4383 50.2945 50.4021C50.4021 50.1549 50.5408 49.8363 50.8543 49.9294C51.0391 50.058 51.1293 50.2672 51.2175 50.4714L51.2175 50.4715C51.244 50.5329 51.2703 50.5939 51.2989 50.6521C52.0512 52.4745 52.7909 54.3018 53.5305 56.1292L53.5312 56.131L53.5314 56.1315L53.5316 56.132L53.5318 56.1325C54.4531 58.4088 55.3745 60.6851 56.3202 62.9515C56.6147 63.6259 56.9314 64.3215 57.472 64.8367C57.861 65.2139 58.4153 65.2385 58.9307 65.2614C58.9903 65.2641 59.0495 65.2667 59.1078 65.2698C59.2595 65.2616 59.3022 65.5258 59.1586 65.5709C59.0293 65.6233 58.8876 65.6317 58.7487 65.64C58.7159 65.6419 58.6832 65.6439 58.6508 65.6464C57.2579 65.6587 55.8658 65.6382 54.4737 65.607C54.2497 65.6045 54.0282 65.5799 53.81 65.5348C53.7862 65.3551 53.8814 65.2567 54.0536 65.2346C54.2915 65.2157 54.367 64.9425 54.2661 64.7547C54.0132 64.1052 53.7611 63.4553 53.5089 62.8052C53.2269 62.0782 52.9448 61.351 52.6615 60.6242C52.6271 60.5151 52.5499 60.4216 52.4236 60.4421C51.3684 60.4368 50.3128 60.4378 49.2573 60.4388H49.2572H49.2572H49.2571C48.8348 60.4392 48.4126 60.4396 47.9905 60.4396C47.8625 60.4175 47.7509 60.4815 47.7247 60.6111C47.574 61.0021 47.4186 61.3915 47.2633 61.7809C46.9934 62.4576 46.7235 63.1342 46.4778 63.8195C46.4643 63.8726 46.4491 63.9271 46.4337 63.9827L46.4336 63.983C46.3368 64.3324 46.229 64.7211 46.4441 65.036C46.6707 65.2642 46.9788 65.2625 47.2853 65.2608C47.4416 65.2599 47.5975 65.259 47.7419 65.2887C47.7416 65.2989 47.7415 65.3097 47.7415 65.3209L47.7418 65.3483C47.7431 65.4727 47.7448 65.6311 47.5836 65.6332C47.1252 65.6584 46.6662 65.6363 46.207 65.6142H46.207H46.2069H46.2068H46.2067H46.2066H46.2065C45.7069 65.5902 45.2071 65.5661 44.7074 65.6029C44.4756 65.6058 44.2435 65.6159 44.0114 65.6259H44.0112H44.0111H44.0109C43.5319 65.6466 43.0527 65.6673 42.5754 65.6259C42.3933 65.6209 42.3424 65.3223 42.5262 65.2764C42.6292 65.2665 42.7342 65.2604 42.8397 65.2543C43.2333 65.2316 43.6346 65.2083 43.9716 64.9852C44.5215 64.6259 44.7808 63.9936 45.0214 63.4071L45.0512 63.3346C45.5561 62.0877 46.0607 60.8406 46.5653 59.5934L46.5672 59.5887L46.5691 59.5839L46.5711 59.5792L46.5723 59.5762C47.796 56.5518 49.0198 53.5271 50.2489 50.5045ZM49.1844 56.7564L49.1834 56.7591C48.9457 57.3919 48.7079 58.0247 48.4712 58.6579C48.4526 58.7076 48.4329 58.7572 48.4132 58.8069C48.3406 58.9896 48.2676 59.1733 48.2489 59.3707C49.5565 59.4118 50.8682 59.3986 52.1767 59.3781C51.5516 57.6234 50.9052 55.8752 50.2579 54.1279C50.1496 54.2165 50.084 54.3404 50.0405 54.4725C49.7567 55.233 49.4713 55.9929 49.1858 56.7527L49.1854 56.7537L49.1844 56.7564ZM91.1088 50.3503L91.1088 50.3505C91.0921 50.3865 91.0762 50.4209 91.0605 50.4519C90.1289 52.7361 89.2042 55.0229 88.2794 57.3097C87.4166 59.4431 86.5539 61.5765 85.6856 63.7079C85.46 64.2255 85.1778 64.7768 84.6536 65.0475C84.3691 65.2063 84.05 65.226 83.7314 65.2455C83.5695 65.2555 83.4078 65.2654 83.2508 65.2936C83.1335 65.4314 83.2434 65.6562 83.4297 65.6349C83.975 65.6632 84.5207 65.6404 85.0665 65.6176H85.0666H85.0667C85.6416 65.5936 86.2166 65.5696 86.7914 65.6053C86.974 65.6074 87.157 65.6173 87.34 65.6272C87.6782 65.6455 88.0167 65.6638 88.3542 65.6324C88.5123 65.637 88.5253 65.4912 88.5364 65.3662C88.5391 65.3362 88.5417 65.3074 88.5461 65.2821C88.4107 65.2643 88.2711 65.2641 88.1314 65.264C87.866 65.2636 87.6002 65.2633 87.3616 65.1419C87.0285 64.945 87.0982 64.5053 87.1671 64.1878C87.2981 63.6601 87.5033 63.1571 87.7084 62.6543L87.7085 62.6539C87.8091 62.4073 87.9097 62.1607 88.0014 61.9113C88.0822 61.7288 88.1516 61.5409 88.221 61.353L88.2211 61.3529L88.2211 61.3528C88.3341 61.0467 88.4472 60.7406 88.6093 60.4585C89.4494 60.4303 90.2909 60.4344 91.1326 60.4385H91.1327H91.1328C91.7352 60.4415 92.3377 60.4444 92.9399 60.4355C92.9766 60.4386 93.0179 60.4382 93.0607 60.4378C93.2212 60.4361 93.4037 60.4343 93.4477 60.6168C93.638 61.1097 93.8302 61.6019 94.0223 62.0941C94.3763 63.0005 94.7301 63.9068 95.072 64.817C95.2114 65.1312 94.862 65.2665 94.6175 65.2977C94.6175 65.3724 94.6208 65.4478 94.6265 65.5241C94.8944 65.6114 95.1771 65.6113 95.4595 65.6112C95.607 65.6111 95.7545 65.611 95.8997 65.6234C96.3255 65.6226 96.7517 65.6307 97.178 65.6388C98.1195 65.6566 99.0614 65.6745 99.9998 65.5971V65.2797C99.8985 65.2716 99.7948 65.2666 99.69 65.2615L99.6896 65.2615C99.196 65.2374 98.6801 65.2124 98.2992 64.8687C97.7283 64.3543 97.41 63.6316 97.1064 62.9417C96.1798 60.7241 95.2784 58.4961 94.3769 56.2679C93.6183 54.3929 92.8596 52.5179 92.0859 50.6488C92.0577 50.5913 92.0318 50.5306 92.0057 50.4692C91.9173 50.2617 91.8259 50.0471 91.629 49.9294C91.3447 49.8403 91.2129 50.1254 91.1088 50.3503ZM90.5943 55.1056L90.5944 55.1053C90.7156 54.7681 90.8367 54.4309 90.9982 54.1107C91.124 54.2946 91.1967 54.5046 91.2693 54.7143L91.2693 54.7144L91.2694 54.7145C91.3004 54.8041 91.3314 54.8936 91.3665 54.9811C91.5625 55.5274 91.7639 56.0721 91.9653 56.6169L91.9657 56.6179L91.9662 56.6192C92.3064 57.5393 92.6466 58.4594 92.9612 59.388C91.8478 59.3964 90.7338 59.394 89.6202 59.3916H89.6193L89.0621 59.3904C89.0474 59.2616 89.072 59.1353 89.122 59.018C89.326 58.4824 89.5269 57.9457 89.7278 57.409L89.728 57.4084C89.944 56.8315 90.1599 56.2545 90.3796 55.6792C90.4561 55.4901 90.5252 55.2979 90.5942 55.1057L90.5943 55.1056ZM23.0605 50.575C22.8382 50.5889 22.8153 50.2165 23.0482 50.2198C23.6582 50.186 24.2694 50.2065 24.8804 50.2271C25.1453 50.236 25.4102 50.2448 25.675 50.2493C26.2005 50.2769 26.7268 50.2549 27.253 50.233H27.253C27.8234 50.2092 28.3937 50.1854 28.9629 50.2247C29.127 50.237 29.1401 50.4478 29.0532 50.552C28.92 50.5804 28.7817 50.5909 28.6433 50.6014H28.6433C28.3811 50.6214 28.1186 50.6413 27.8899 50.7825C27.6233 50.9589 27.5421 51.2936 27.5134 51.5939C27.4546 52.2664 27.4577 52.9412 27.4608 53.6159C27.462 53.8735 27.4631 54.1312 27.4609 54.3888C27.4634 54.726 27.4621 55.0633 27.4607 55.4006C27.4586 55.9488 27.4565 56.4971 27.4707 57.045C27.635 56.9191 27.7749 56.7679 27.9145 56.6169L27.9146 56.6169C27.9778 56.5485 28.041 56.4802 28.1065 56.4142C28.5069 55.9944 28.9097 55.5768 29.3125 55.1593C30.0666 54.3775 30.8208 53.5957 31.5593 52.7989L31.5816 52.7738L31.5817 52.7736C31.9336 52.3768 32.2869 51.9784 32.5929 51.5446C32.7422 51.3322 32.8833 51.0639 32.7874 50.7989C32.7276 50.6508 32.5754 50.6118 32.4301 50.5747L32.4301 50.5746C32.3799 50.5618 32.3306 50.5492 32.2861 50.5323C32.2886 50.5078 32.2874 50.4782 32.2861 50.4472C32.2818 50.3447 32.2768 50.2265 32.4034 50.2214C32.7631 50.1891 33.1237 50.2071 33.4845 50.2252C33.7005 50.236 33.9167 50.2468 34.1327 50.2468C34.6748 50.2785 35.2169 50.2562 35.759 50.2338C36.2563 50.2133 36.7536 50.1928 37.2509 50.214C37.4691 50.1779 37.538 50.5323 37.3247 50.5717C36.7209 50.6045 36.1065 50.6948 35.5691 50.9884C34.7063 51.4128 34.0204 52.0868 33.3407 52.7548C33.1978 52.8953 33.0552 53.0355 32.9112 53.173C32.4779 53.6078 32.0435 54.0417 31.6091 54.4757C30.8607 55.2232 30.1122 55.9709 29.369 56.7235C29.7297 57.2194 30.1431 57.6732 30.5564 58.1268C30.7399 58.3283 30.9235 58.5298 31.1024 58.735C32.3009 60.0459 33.5043 61.3543 34.748 62.6234C34.8612 62.7303 34.9743 62.8386 35.0877 62.9472L35.0877 62.9472C35.9429 63.7664 36.8183 64.6048 37.9481 65.0155C38.3485 65.1804 38.7775 65.2477 39.2066 65.2854C39.4371 65.2944 39.3362 65.666 39.1311 65.6332C38.6812 65.6558 38.2299 65.652 37.7786 65.6483H37.7786C37.4901 65.6459 37.2016 65.6435 36.9137 65.648L36.8379 65.6485C35.9763 65.6545 35.0619 65.6609 34.2984 65.2058C33.3821 64.6464 32.6479 63.8482 31.935 63.0574C30.4084 61.3543 28.9137 59.6201 27.4773 57.8432C27.4542 58.3547 27.4574 58.8668 27.4607 59.3787V59.3788V59.3788C27.4626 59.6847 27.4645 59.9905 27.4609 60.2961C27.4622 60.6042 27.4614 60.9125 27.4607 61.2207V61.2208C27.4581 62.1993 27.4556 63.1781 27.5224 64.155C27.5527 64.511 27.6594 64.9277 28.0056 65.1033C28.2932 65.2176 28.6013 65.2315 28.9086 65.2454C29.071 65.2527 29.2331 65.26 29.392 65.2821C29.6241 65.3363 29.497 65.6669 29.2878 65.6382C28.7312 65.6638 28.1739 65.6456 27.6168 65.6274H27.6165C27.3526 65.6187 27.0888 65.6101 26.8251 65.6062C26.2491 65.5736 25.6726 65.5967 25.0963 65.6198H25.0962C24.5243 65.6426 23.9525 65.6655 23.3813 65.6341C23.1926 65.6316 23.1057 65.3617 23.296 65.2854C23.4162 65.2637 23.5503 65.2586 23.6872 65.2534H23.6873C24.0686 65.2388 24.4709 65.2234 24.652 64.8473C24.8513 64.3574 24.8749 63.8225 24.8981 63.2969C24.9024 63.1994 24.9067 63.1022 24.9121 63.0057C24.9474 61.6025 24.9429 60.199 24.9384 58.7955V58.7955C24.9358 57.9836 24.9332 57.1718 24.9383 56.3601C24.9333 55.8247 24.9358 55.2891 24.9384 54.7535V54.7531C24.943 53.81 24.9476 52.867 24.9104 51.9253L24.9086 51.8959C24.8863 51.5237 24.8598 51.084 24.529 50.8498C24.1972 50.6228 23.7991 50.6081 23.4087 50.5937H23.4087C23.2913 50.5894 23.1745 50.585 23.0605 50.575ZM63.8017 50.1966C63.5692 50.1862 63.3356 50.1757 63.1106 50.2404C62.9868 50.3019 62.9909 50.5275 63.1443 50.5505C63.2979 50.5737 63.4562 50.5812 63.6148 50.5888C63.9619 50.6055 64.3111 50.6222 64.6184 50.8023C64.8686 50.9426 64.9843 51.233 65.022 51.5054C65.0643 51.8302 65.0711 52.1578 65.078 52.4853C65.0815 52.6541 65.0851 52.8228 65.0934 52.991C65.0944 54.4152 65.0942 55.8393 65.0941 57.2633C65.094 58.3296 65.0939 59.3958 65.0942 60.4619C65.094 60.5594 65.0939 60.6569 65.0938 60.7544C65.0923 61.8361 65.0907 62.9192 64.9974 63.9967C64.99 64.045 64.9832 64.0942 64.9764 64.1439C64.9314 64.4692 64.8835 64.8156 64.648 65.0583C64.4354 65.2143 64.1807 65.2266 63.9268 65.2389C63.7309 65.2483 63.5354 65.2577 63.36 65.3331C63.2378 65.5333 63.4962 65.6645 63.6668 65.6448C64.0436 65.6453 64.4207 65.6305 64.7979 65.6158C65.0998 65.604 65.4018 65.5922 65.7038 65.5882C66.5605 65.5637 67.4137 65.6334 68.267 65.7032C68.7831 65.7454 69.2992 65.7876 69.8161 65.8089C71.7669 65.9164 73.7841 65.676 75.5545 64.8081C76.5791 64.315 77.5003 63.5923 78.1673 62.6662C79.4462 60.9492 79.9515 58.7211 79.6824 56.6096C79.4609 54.7621 78.5192 52.9861 77.0253 51.8573C75.89 50.9902 74.4855 50.557 73.086 50.3634C71.3877 50.1427 69.6757 50.1819 67.9669 50.221C67.542 50.2307 67.1173 50.2404 66.6931 50.2461C66.2097 50.2556 65.7267 50.2412 65.2439 50.2267C64.8517 50.215 64.4595 50.2032 64.0672 50.2043C63.9792 50.2045 63.8905 50.2006 63.8017 50.1966ZM68.1855 51.2538C68.1965 51.2518 68.2074 51.2498 68.2181 51.2478C69.4855 51.087 70.7883 51.1887 72.022 51.5201C73.3994 51.8967 74.675 52.6867 75.5684 53.8081C76.3502 54.8212 76.8006 56.0665 76.9392 57.3339C77.0311 58.2051 76.9999 59.087 76.8933 59.9566C76.7456 61.0353 76.415 62.1329 75.6898 62.9705C74.7809 63.9926 73.4675 64.5964 72.1205 64.758C71.077 64.8753 69.9999 64.9262 68.9745 64.658C68.5594 64.5275 68.0934 64.3462 67.881 63.9393C67.7484 63.5245 67.7315 63.0861 67.7148 62.6518C67.7108 62.5485 67.7068 62.4454 67.7013 62.3429C67.6406 58.9795 67.6463 55.6145 67.6775 52.2511C67.6788 52.1853 67.6778 52.119 67.6767 52.0526C67.6739 51.8715 67.671 51.6897 67.7161 51.5144C67.7864 51.3275 68.0072 51.2867 68.1855 51.2538Z" fill="white"/>
</svg>
