<svg fill="none" height="18" viewBox="0 0 100 18" width="100" xmlns="http://www.w3.org/2000/svg"><g fill="#fff"><path d="m0 .717285h6.83552c3.99598 0 6.45498 2.020765 6.45498 5.359405 0 3.29472-2.4444 5.33011-6.45498 5.33011h-2.6054v5.3301h-4.23012zm6.87944 7.321595c1.28806 0 2.10774-.73216 2.10774-1.80111s-.81968-1.81576-2.10774-1.81576h-2.64932v3.61687z"/><path d="m15.9541.731934h7.2015c3.9959 0 6.4696 2.020756 6.4696 5.315476 0 2.24041-1.1417 3.86581-3.1177 4.68579l3.9959 6.0184h-4.8303l-3.6153-5.4033h-1.9028v5.4033h-4.2009zm7.3186 7.189806c1.2295 0 2.0638-.70287 2.0638-1.74254 0-1.01038-.8197-1.69861-2.0638-1.69861h-3.0885v3.44115z"/><path d="m51.5234.717285h7.1868l2.9714 10.748115 3.0006-10.748115h7.0843v16.019615h-4.1862v-12.60775l-3.4982 12.60775h-4.8888l-3.4837-12.60775v12.60775h-4.1862z"/><path d="m74.4297.717285h4.3033v11.875615h7.7577v4.144h-12.061z"/><path d="m89.1082 11.275-6.5574-10.557715h5.0351l3.8496 6.472295 3.7325-6.472295h4.8302l-6.5721 10.543115v5.4619h-4.3033v-5.4473z"/><path d="m46.6776 13.3837c-.1025.2636-.0878.3954.0439.3954.3659-.0439.6587-.0732.8636-.1025.1025-.0439.2195-.1904.3806-.454.3805-.7028.6733-1.4496.8635-2.255.0586-.3075.044-.4686-.0439-.4979-.2634.0293-.6294.0732-1.0685.1172-.1756.0439-.2927.2343-.3659.5418-.1464.82-.3806 1.5668-.6733 2.255z"/><path d="m44.702 16.1657c-.1464.1318-.2049.1904-.2196.2343 0 0 .0147.0147.0293.0147.2049-.0293.3659-.0439.483-.0586.0293-.0146.161-.0586.483-.2929.6441-.4539 1.2149-1.0103 1.6979-1.6253.1025-.1318.2196-.3076.205-.3808h-.0147c-.2049.0293-.483.0586-.8196.1025-.1464.044-.2928.1757-.4684.4247-.4099.6004-.8636 1.1422-1.3759 1.5814z"/><path d="m41.7302 17.5426c-.1024.0147-.1756.0293-.3073.044.1756-.0147.2195-.0293.3659-.044.8197-.1171 1.5954-.366 2.3126-.7028.0732-.044.3221-.1611.3952-.2197-.1024.0147-.2488.0293-.4244.0439-.0732.0147-.1903.0733-.4831.2343-.5708.3075-1.2002.5418-1.8589.6443z"/><path d="m37.2806.79026c-.2928.161075-.4099.21965-.4831.23429-.1756.01464-.3073.02929-.3952.04393.0293-.02929.161-.117145.3952-.23429.7173-.351437 1.493-.600371 2.3273-.73216.1171-.0146434.2782-.0439298.4977-.058573-.1903.0146432-.2927.0439296-.4098.058573-.688.117145-1.332.351437-1.9321.68823z"/><path d="m34.8186 3.20684c-.1756.24893-.322.38072-.4537.42465-.3367.04393-.5855.07322-.7758.08786h-.0146c-.0146-.07322.1024-.24893.2049-.39537.483-.62965 1.0539-1.1861 1.6833-1.66932.322-.23429.4391-.29286.4684-.29286.1024-.01465.2634-.02929.4537-.05858h.0146c-.0146.04393-.0146.07322-.2195.26358-.5123.46858-.9807 1.02502-1.3613 1.64004z"/><path d="m33.5184 6.76467c-.0585.32215-.1756.49787-.3513.5418-.4244.04393-.7611.08786-.9953.11714-.0878-.01464-.1024-.19036-.0439-.49786.161-.80538.4391-1.56683.805-2.28434.1464-.26358.2635-.42466.3513-.45394.1903-.02929.4684-.05857.8197-.08786.1171.01464.1317.14643.0293.41001-.2781.68823-.4977 1.44968-.6148 2.25505z"/><path d="m33.6955 10.9237c.0586.3222.0147.4979-.1463.5418-.4245.0439-.7612.0879-.9953.1172-.1025-.0147-.1903-.1758-.2928-.4979-.1171-.454-.2049-.9225-.2635-1.40576-.0439-.38073-.0585-.76145-.0439-1.14217.0147-.32215.0732-.51251.161-.55644.2342-.02929.5709-.07322 1.01-.11715.161.01464.2488.17572.2635.49787 0 .38072.0146.7468.0585 1.14217.0586.49788.1317.96648.2488 1.42038z"/><path d="m35.3065 14.4967c.161.2343.1756.366.0732.41-.3367.0439-.6002.0732-.7904.0878-.0879-.0146-.2489-.1318-.4538-.3661-.5269-.6003-.966-1.2886-1.3173-2.0207-.1318-.2929-.1464-.4539-.0732-.4979.2342-.0293.5562-.0732.9807-.1171.1756.0146.322.1611.4537.4539.3074.7468.688 1.435 1.1271 2.0501z"/><path d="m38.2794.688241c-.1025.087859-.2342.205005-.3806.234291-.2634.029286-.5123.058573-.7318.073216h-.0147v-.014643c.0293-.058573.1025-.117146.2489-.205005.5708-.336794 1.1856-.571085 1.8296-.6882303.0878-.0146432.2196-.0292864.3952-.0585728-.1171.0146432-.1756.0292864-.2342.0439296-.4098.1025025-.7904.3075075-1.1124.6150145z"/><path d="m36.916 2.9725c-.1025.23429-.2488.38072-.4538.42465-.5269.05858-.9953.1025-1.4051.14643-.1464-.01464-.161-.13178-.0293-.36608.3659-.61501.8197-1.17145 1.3027-1.62539.2342-.205.3952-.27822.4684-.29286.2488-.02929.5269-.05858.8343-.08786.0732 0 .1317.02928.0146.24893-.2781.42465-.5269.95181-.7318 1.55218z"/><path d="m36.2994 6.45756c-.0439.3075-.1902.49787-.4537.55644-.6733.07322-1.2734.13179-1.8004.19036-.2049-.01464-.2927-.16107-.2634-.48322.1171-.80538.322-1.56683.6001-2.25506.1171-.26357.2781-.42465.4537-.46858.4391-.04393.9368-.1025 1.4784-.16107.2049 0 .2927.13178.2634.39536-.1317.68823-.2342 1.43504-.2781 2.22577z"/><path d="m36.5925 10.6015c.0293.3221-.0732.4978-.3367.5564-.6733.0732-1.288.1318-1.815.1904-.2195-.0147-.3659-.1611-.4537-.4686-.1025-.454-.1903-.92255-.2342-1.40577-.0439-.38073-.0586-.76145-.0586-1.12753.0147-.32215.1318-.51251.3367-.57108.5269-.05858 1.1417-.13179 1.8296-.20501.2635 0 .4099.16108.4538.48323.0146.36608.0439.7468.0878 1.12752.0293.49787.1025.96644.1903 1.42044z"/><path d="m37.6903 14.233c.0878.2489.0439.3807-.161.4246-.5416.0586-1.0246.1172-1.4491.1611-.1756 0-.3659-.1171-.5416-.3514-.4244-.615-.805-1.3033-1.0978-2.0501-.0878-.2928-.0439-.4686.1464-.5125.527-.0586 1.1271-.1171 1.7857-.1903.2635 0 .4538.1464.5562.4393.2196.7468.4831 1.4496.7612 2.0793z"/><path d="m39.5784.541326c0 .043929-.0146.175718-.2049.205004-.3366.029287-.6587.073216-.9514.102503-.1317 0-.0732-.102503 0-.190362.2927-.307507.6294-.512512.9807-.5857276.0439-.0146432.1171-.0292864.2195-.0292864 0 0 0 0-.0146 0-.0293.058573-.0293.234291-.0293.497869z"/><path d="m39.713 2.67957c0 .23429-.1317.36608-.3805.41001-.6441.07321-1.2735.13179-1.8443.19036-.2196 0-.3074-.11715-.2488-.35144.1756-.60037.3952-1.11288.644-1.55218.1025-.16107.2342-.24893.3806-.27822.3366-.02928.7172-.07321 1.0977-.117143.1025 0 .2196.014643.2635.219643.0147.41001.0439.90788.0878 1.47897z"/><path d="m40.0189 6.07672c0 .30751-.161.49787-.483.55645-.8343.08785-1.6247.17571-2.3566.24893-.2927 0-.4391-.14643-.4537-.45394.0293-.79073.1024-1.53753.2195-2.22576.0732-.26358.2196-.41001.4684-.46859.6148-.05857 1.2588-.13179 1.9468-.205.2634 0 .4244.11714.4684.36608.0439.65894.117 1.3911.1902 2.18183z"/><path d="m40.4288 10.2064c0 .3222-.161.5126-.4684.5711-.8343.0879-1.6394.1757-2.3858.249-.2928 0-.4831-.1465-.5563-.4686-.0731-.454-.1463-.93719-.1902-1.40577-.044-.38072-.0732-.76145-.0879-1.12753.0147-.32215.161-.51251.4538-.58572.7465-.07322 1.5515-.16108 2.4005-.24894.3366 0 .5269.14643.5855.46858.0439.36608.0731.74681.117 1.12753.0293.48323.0879.95181.1318 1.42035z"/><path d="m40.8498 13.9112c0 .2489-.1171.3954-.3805.4539-.6733.0732-1.3027.1318-1.8882.205-.2342 0-.4245-.1171-.5416-.3514-.2635-.6297-.4976-1.3325-.7026-2.094-.0439-.3075.0586-.4832.3367-.5418.7318-.0732 1.5222-.1611 2.3419-.2489.322 0 .5123.1464.5855.4393.0878.7614.1756 1.4789.2488 2.1379z"/><path d="m40.8965.409537c.1902.146432.0585.175718.0292.190361-.2927.029287-.6147.058573-.9367.102503-.1903 0-.2342-.117146-.2489-.161075-.0439-.263578-.0878-.424653-.1171-.4685826 0-.0146432-.0146-.0146432-.0146-.0146432.1025-.0146432.161-.0146432.2196-.0146432.3512 0 .7172.131789 1.0685.36608z"/><path d="m42.5056 2.40128c.0879.21965.0293.35144-.1756.39537-.5708.05857-1.1856.11715-1.815.19036-.2488 0-.3952-.1025-.4537-.33679-.0732-.57109-.1464-1.06895-.205-1.46432-.0146-.14643.0586-.234292.205-.263579.3805-.043929.7318-.073216 1.0685-.117145.1463 0 .2927.073216.4244.205004.3367.36608.6587.83466.9514 1.3911z"/><path d="m43.7082 5.69589c.0439.3075-.0732.48322-.3513.54179-.7318.07322-1.5076.14644-2.3126.2343-.322 0-.5123-.14644-.5709-.45394-.0878-.77609-.1756-1.50825-.2634-2.1672 0-.24893.1171-.41001.3659-.45394.6587-.07321 1.3027-.13178 1.9028-.19036.2488 0 .4245.11715.5416.36608.2781.62966.5123 1.34718.6879 2.12327z"/><path d="m44.2785 9.81093c-.0147.32217-.1611.51247-.4538.57107-.7319.0732-1.5223.1611-2.3273.2343-.322 0-.5123-.1464-.5708-.4686-.044-.46856-.0879-.93714-.1464-1.42037-.0439-.38072-.0732-.76145-.1171-1.12753 0-.32215.1464-.51251.4684-.58572.8197-.08786 1.6101-.16108 2.3565-.23429.2928 0 .4684.16107.5563.46858.0585.36608.1024.7468.1463 1.12752.0293.48323.0586.96645.0879 1.43504z"/><path d="m44.0143 13.5889c-.0732.2636-.2195.41-.4537.4539-.5855.0586-1.2149.1172-1.859.1904-.2488 0-.3952-.1172-.4537-.3661-.0586-.6589-.1171-1.3764-.1903-2.1525 0-.3075.161-.4833.4684-.5565.805-.0878 1.5662-.1611 2.298-.2343.2781 0 .4245.1465.4391.454-.0292.7907-.1171 1.5375-.2488 2.2111z"/><path d="m41.9357.307424c.161.058573.2488.087859.2781.146432 0 0-.0146.014643-.0293.014643-.2195.014643-.4537.04393-.7318.073216-.1464 0-.3074-.073216-.4245-.146432-.3952-.234291-.7904-.3660798-1.1856-.3660798-.0586 0-.1317 0-.2342.0146432.1756-.0146432.2781-.0292864.3952-.0292864.6587-.01464321 1.3027.087859 1.9321.292864z"/><path d="m44.7158 2.18158c.1756.20501.1902.3368.0439.36608-.4099.04393-.8929.08786-1.4052.13179-.2196 0-.3952-.1025-.5416-.32215-.322-.5418-.6733-1.01038-1.0392-1.376458-.161-.175719-.1025-.219648-.0293-.234291.3074-.029287.5855-.058573.8343-.08786.0879 0 .2489.04393.527.190362.5855.351437 1.1124.805377 1.6101 1.332527z"/><path d="m46.6483 5.40293c.0879.29286.0293.46858-.161.52715-.5269.05858-1.1417.11715-1.8003.17572-.2635 0-.4391-.14643-.5562-.45394-.205-.76144-.4392-1.47896-.7173-2.12326-.0878-.24894-.0292-.39537.1757-.4393.5416-.05857 1.0392-.1025 1.4783-.14643.1903.01464.366.13179.5416.36608.4098.62966.7611 1.33253 1.0392 2.09398z"/><path d="m47.3079 9.5033c-.0293.32216-.1464.5125-.3513.5564-.5416.0586-1.1417.1172-1.815.1758-.2635 0-.4099-.1611-.4391-.48326-.0147-.46858-.0439-.93717-.0879-1.42039-.0439-.38072-.0878-.76145-.1463-1.12753-.0293-.32215.0878-.51251.3366-.57108.6733-.07322 1.2881-.13179 1.8297-.17572.2195.01464.3659.17572.4537.48323.0732.36608.1317.7468.1757 1.12752.0439.49787.0585.96645.0439 1.43503z"/><path d="m46.5172 13.3399c-.1317.2635-.2781.41-.4537.4539-.4245.0439-.9075.0879-1.4491.1464-.2049 0-.2781-.1318-.2488-.3807.1463-.6736.2634-1.4204.3073-2.1965.044-.3075.1903-.4832.4538-.5418.6587-.0732 1.2588-.1318 1.7857-.1757.2049.0147.2781.1611.2488.4832-.1317.7615-.3512 1.5229-.644 2.2112z"/><path d="m42.5212.248831c.0878.029286.3513.087859.4391.146432-.1025.014643-.2342.029286-.4098.04393-.0879 0-.205-.029287-.527-.131789-.644-.205005-1.3173-.30750733-2.0053-.2782209-.1024 0-.2195.0146432-.4098.0292864.2342-.0292864.3659-.0292864.4977-.0439296.8343-.0439296 1.6393.0439296 2.4151.2342911z"/><path d="m48.332 5.24228c.1171.29287.1317.45394.0585.49787-.2342.01465-.5855.04393-1.0099.08786-.1757-.01464-.3221-.16107-.4538-.46858-.2781-.76145-.644-1.46432-1.0831-2.09398-.1464-.24893-.1611-.38072-.044-.41001.3513-.02928.6294-.05857.8344-.07321.1024.01464.2488.14643.4391.38072.4976.62966.9367 1.33253 1.2588 2.07933z"/><path d="m49.0655 9.34217c-.0293.32215-.0878.49787-.1756.5418-.2342.01464-.5855.05857-1.01.08786-.161-.01464-.2488-.17572-.2635-.49787.0147-.46858 0-.93716-.0585-1.42039-.0439-.38072-.1025-.76145-.1757-1.12753-.0439-.32215 0-.49786.1611-.54179.4391-.04393.7757-.07322 1.0245-.08786.1025.02928.1903.19036.2782.51251.0878.36608.1463.73216.1902 1.12753.0439.46858.0586.93716.0293 1.40574z"/><path d="m37.9098 16.8251c.1756.1025.2488.1464.2781.1904l-.0146.0146c-.1903.0147-.3367.044-.4392.044-.0292 0-.161-.0293-.5269-.1758-.7318-.3221-1.4052-.7468-2.0199-1.2446-.1171-.1025-.2488-.2197-.2781-.3075 0-.0147 0-.0293.0146-.0293.1903-.0293.4391-.0586.7465-.0879.1464 0 .322.1025.5416.3222.5123.5125 1.0831.9371 1.6979 1.2739z"/><path d="m41.1169 17.6009c.1024 0 .1756-.0146.3073-.0292-.1756.0146-.2195.0146-.3805.0292-.8343.044-1.654-.0292-2.4298-.2196-.0878-.0293-.3513-.0879-.4391-.1318.0878-.0146.2196-.0293.3952-.0439.0732 0 .2049.0293.5269.1318.6441.1903 1.3174.2928 2.02.2635z"/><path d="m39.317 16.6786c.1756.1757.1171.2197.0439.2343-.2927.0293-.5708.0586-.805.0879-.0879 0-.2489-.0293-.527-.1904-.5855-.3368-1.1417-.7761-1.6393-1.2886-.1757-.205-.2049-.3222-.0586-.3661.4099-.0439.8636-.0878 1.3759-.1464.2049 0 .3806.1025.5416.3221.3366.5272.6879.9811 1.0685 1.3472z"/><path d="m41.2462 17.5867c.0586 0 .1025 0 .1903-.0146-.1317.0146-.1756.0146-.3074.0146-.6586.0293-1.3173-.0732-1.9467-.2782-.161-.0586-.2488-.0878-.2928-.1464l.0147-.0147c.2049-.0293.4391-.0439.7026-.0732.1463 0 .2927.0732.4098.1465.4098.2342.8197.366 1.2295.366z"/><path d="m41.1909 16.4735c.0146.1904-.1025.2489-.1903.2636-.3659.0439-.7172.0732-1.0539.1171-.1463 0-.2781-.0586-.4244-.1903-.3367-.3661-.6587-.8201-.9661-1.3619-.1024-.2196-.0439-.3514.161-.3953.5709-.0586 1.171-.1172 1.815-.1904.2489 0 .3952.1025.4538.3222.0732.5564.1464 1.0396.2049 1.435z"/><path d="m41.4075 17.5715c.0147 0 .0147 0 0 0-.0585.0147-.0878.0147-.1464.0147-.3659 0-.7318-.1318-1.0831-.3661-.2049-.1464-.0732-.1757-.0439-.1904.2927-.0292.6001-.0585.9221-.1025.1903 0 .2342.1172.2342.1611.0586.2782.1025.4393.1171.4832z"/><path d="m43.0787 16.2835c-.1024.1611-.2341.2489-.3659.2782-.322.0293-.6733.0732-1.0246.1025-.1463 0-.2195-.0732-.2342-.2196-.0146-.3954-.0439-.8933-.0878-1.4497.0146-.2343.1317-.3661.3659-.41.6148-.0586 1.2149-.1318 1.7711-.1757.2196 0 .2928.1171.2489.3514-.205.5857-.4245 1.0983-.6734 1.5229z"/><path d="m41.5858 17.5422c-.0439.0147-.0878.0147-.161.0293l.0146-.0146c.0147-.044.0293-.2197.0293-.4833 0-.0439.0147-.1757.2049-.205.3221-.0293.6294-.0586.9075-.0878.0732 0 .1318.0292 0 .1903-.3073.2929-.644.4979-.9953.5711z"/><path d="m44.5578 16.137c-.2342.205-.3952.2636-.4683.2929-.2342.0292-.5123.0439-.8051.0732-.0732 0-.1317-.0293 0-.2343.2928-.4247.5416-.9518.7465-1.5376.1025-.2342.2488-.3807.4537-.4246.5123-.0439.9807-.1025 1.3906-.1318.1463.0146.1463.1318.0146.3661-.3806.615-.8343 1.1422-1.332 1.5961z"/><path d="m41.7175 17.528c-.1024.0147-.1756.0293-.2927.0439.0732-.0146.1025-.0146.1757-.0292.3952-.0879.7611-.2929 1.0977-.6004.1025-.1025.2342-.1904.3806-.2197.2635-.0293.4977-.0439.7026-.0732h.0146v.0147c-.0293.0585-.1171.1171-.2488.1903-.5562.3368-1.171.5711-1.8297.6736z"/><path d="m41.8054 17.528c-.1171.0146-.2196.0293-.3806.0439.1464-.0146.1757-.0146.3074-.0439.6879-.1172 1.332-.3368 1.9174-.6736.2928-.1611.4099-.2197.4831-.2343.1756-.0146.3073-.0293.3952-.0293-.0147.0147-.0439.0586-.3952.2343-.7173.3368-1.5077.5711-2.3273.7029z"/><path clip-rule="evenodd" d="m46.2689 2.4012c0-.07321-.1463-.21964-.2781-.33679-.6001-.52715-1.2734-.95181-2.0053-1.288599-.3659-.161075-.4976-.190362-.5269-.190362-.1171.014643-.2635.029287-.4684.04393v.000031c-.0116.000488-.0134.010573-.0137.013705l-.0009.000907c.0439.058573.1024.102502.2781.205005.6001.351433 1.1563.790733 1.6686 1.317883.2196.20501.3952.30751.5416.32215.1637-.01423.31-.02847.4391-.04103.1364-.01327.2535-.02466.3513-.03218 0-.01465.0146-.01465.0146-.01465z" fill-rule="evenodd"/></g></svg>