<svg width="100" height="18" viewBox="0 0 100 18" fill="none" xmlns="http://www.w3.org/2000/svg">
<path d="M0 0.717285H6.83552C10.8315 0.717285 13.2905 2.73805 13.2905 6.07669C13.2905 9.37141 10.8461 11.4068 6.83552 11.4068H4.23012V16.7369H0V0.717285ZM6.87944 8.03888C8.1675 8.03888 8.98718 7.30672 8.98718 6.23777C8.98718 5.16882 8.1675 4.42201 6.87944 4.42201H4.23012V8.03888H6.87944Z" fill="white"/>
<path d="M15.9541 0.731934H23.1556C27.1515 0.731934 29.6252 2.75269 29.6252 6.04741C29.6252 8.28782 28.4835 9.91322 26.5075 10.7332L30.5034 16.7516H25.6731L22.0578 11.3483H20.155V16.7516H15.9541V0.731934ZM23.2727 7.92174C24.5022 7.92174 25.3365 7.21887 25.3365 6.1792C25.3365 5.16882 24.5168 4.48059 23.2727 4.48059H20.1842V7.92174H23.2727Z" fill="white"/>
<path d="M51.5234 0.717285H58.7102L61.6816 11.4654L64.6822 0.717285H71.7665V16.7369H67.5803V4.12915L64.0821 16.7369H59.1933L55.7096 4.12915V16.7369H51.5234V0.717285Z" fill="white"/>
<path d="M74.4297 0.717285H78.733V12.5929H86.4907V16.7369H74.4297V0.717285Z" fill="white"/>
<path d="M89.1082 11.275L82.5508 0.717285H87.5859L91.4355 7.18958L95.168 0.717285H99.9982L93.4261 11.2604V16.7223H89.1228V11.275H89.1082Z" fill="white"/>
<path d="M46.6776 13.3837C46.5751 13.6473 46.5898 13.7791 46.7215 13.7791C47.0874 13.7352 47.3802 13.7059 47.5851 13.6766C47.6876 13.6327 47.8046 13.4862 47.9657 13.2226C48.3462 12.5198 48.639 11.773 48.8292 10.9676C48.8878 10.6601 48.8732 10.499 48.7853 10.4697C48.5219 10.499 48.1559 10.5429 47.7168 10.5869C47.5412 10.6308 47.4241 10.8212 47.3509 11.1287C47.2045 11.9487 46.9703 12.6955 46.6776 13.3837Z" fill="white"/>
<path d="M44.702 16.1657C44.5556 16.2975 44.4971 16.3561 44.4824 16.4C44.4824 16.4 44.4971 16.4147 44.5117 16.4147C44.7166 16.3854 44.8776 16.3708 44.9947 16.3561C45.024 16.3415 45.1557 16.2975 45.4777 16.0632C46.1218 15.6093 46.6926 15.0529 47.1756 14.4379C47.2781 14.3061 47.3952 14.1303 47.3806 14.0571H47.3659C47.161 14.0864 46.8829 14.1157 46.5463 14.1596C46.3999 14.2036 46.2535 14.3353 46.0779 14.5843C45.668 15.1847 45.2143 15.7265 44.702 16.1657Z" fill="white"/>
<path d="M41.7302 17.5426C41.6278 17.5573 41.5546 17.5719 41.4229 17.5866C41.5985 17.5719 41.6424 17.5573 41.7888 17.5426C42.6085 17.4255 43.3842 17.1766 44.1014 16.8398C44.1746 16.7958 44.4235 16.6787 44.4966 16.6201C44.3942 16.6348 44.2478 16.6494 44.0722 16.664C43.999 16.6787 43.8819 16.7373 43.5891 16.8983C43.0183 17.2058 42.3889 17.4401 41.7302 17.5426Z" fill="white"/>
<path d="M37.2806 0.79026C36.9878 0.951335 36.8707 1.00991 36.7975 1.02455C36.6219 1.03919 36.4902 1.05384 36.4023 1.06848C36.4316 1.03919 36.5633 0.951335 36.7975 0.83419C37.5148 0.482753 38.2905 0.233819 39.1248 0.10203C39.2419 0.0873866 39.403 0.0581002 39.6225 0.043457C39.4322 0.0581002 39.3298 0.0873866 39.2127 0.10203C38.5247 0.219175 37.8807 0.453467 37.2806 0.79026Z" fill="white"/>
<path d="M34.8186 3.20684C34.643 3.45577 34.4966 3.58756 34.3649 3.63149C34.0282 3.67542 33.7794 3.70471 33.5891 3.71935H33.5745C33.5599 3.64613 33.6769 3.47042 33.7794 3.32398C34.2624 2.69433 34.8333 2.13788 35.4627 1.65466C35.7847 1.42037 35.9018 1.3618 35.9311 1.3618C36.0335 1.34715 36.1945 1.33251 36.3848 1.30322H36.3994C36.3848 1.34715 36.3848 1.37644 36.1799 1.5668C35.6676 2.03538 35.1992 2.59182 34.8186 3.20684Z" fill="white"/>
<path d="M33.5184 6.76467C33.4599 7.08682 33.3428 7.26254 33.1671 7.30647C32.7427 7.3504 32.406 7.39433 32.1718 7.42361C32.084 7.40897 32.0694 7.23325 32.1279 6.92575C32.2889 6.12037 32.567 5.35892 32.9329 4.64141C33.0793 4.37783 33.1964 4.21675 33.2842 4.18747C33.4745 4.15818 33.7526 4.1289 34.1039 4.09961C34.221 4.11425 34.2356 4.24604 34.1332 4.50962C33.8551 5.19785 33.6355 5.9593 33.5184 6.76467Z" fill="white"/>
<path d="M33.6955 10.9237C33.7541 11.2459 33.7102 11.4216 33.5492 11.4655C33.1247 11.5094 32.788 11.5534 32.5539 11.5827C32.4514 11.568 32.3636 11.4069 32.2611 11.0848C32.144 10.6308 32.0562 10.1623 31.9976 9.67904C31.9537 9.29831 31.9391 8.91759 31.9537 8.53687C31.9684 8.21472 32.0269 8.02436 32.1147 7.98043C32.3489 7.95114 32.6856 7.90721 33.1247 7.86328C33.2857 7.87792 33.3735 8.039 33.3882 8.36115C33.3882 8.74187 33.4028 9.10795 33.4467 9.50332C33.5053 10.0012 33.5784 10.4698 33.6955 10.9237Z" fill="white"/>
<path d="M35.3065 14.4967C35.4675 14.731 35.4821 14.8627 35.3797 14.9067C35.043 14.9506 34.7795 14.9799 34.5893 14.9945C34.5014 14.9799 34.3404 14.8627 34.1355 14.6284C33.6086 14.0281 33.1695 13.3398 32.8182 12.6077C32.6864 12.3148 32.6718 12.1538 32.745 12.1098C32.9792 12.0805 33.3012 12.0366 33.7257 11.9927C33.9013 12.0073 34.0477 12.1538 34.1794 12.4466C34.4868 13.1934 34.8674 13.8816 35.3065 14.4967Z" fill="white"/>
<path d="M38.2794 0.688241C38.1769 0.7761 38.0452 0.893246 37.8988 0.922532C37.6354 0.951818 37.3865 0.981105 37.167 0.995748H37.1523V0.981105C37.1816 0.922532 37.2548 0.863959 37.4012 0.7761C37.972 0.439306 38.5868 0.205015 39.2308 0.0878697C39.3186 0.0732265 39.4504 0.0585833 39.626 0.0292969C39.5089 0.0439401 39.4504 0.0585833 39.3918 0.0732265C38.982 0.175729 38.6014 0.380734 38.2794 0.688241Z" fill="white"/>
<path d="M36.916 2.9725C36.8135 3.20679 36.6672 3.35322 36.4622 3.39715C35.9353 3.45573 35.4669 3.49965 35.0571 3.54358C34.9107 3.52894 34.8961 3.4118 35.0278 3.1775C35.3937 2.56249 35.8475 2.00605 36.3305 1.55211C36.5647 1.34711 36.7257 1.27389 36.7989 1.25925C37.0477 1.22996 37.3258 1.20067 37.6332 1.17139C37.7064 1.17139 37.7649 1.20067 37.6478 1.42032C37.3697 1.84497 37.1209 2.37213 36.916 2.9725Z" fill="white"/>
<path d="M36.2994 6.45756C36.2555 6.76506 36.1092 6.95543 35.8457 7.014C35.1724 7.08722 34.5723 7.14579 34.0453 7.20436C33.8404 7.18972 33.7526 7.04329 33.7819 6.72114C33.899 5.91576 34.1039 5.15431 34.382 4.46608C34.4991 4.20251 34.6601 4.04143 34.8357 3.9975C35.2748 3.95357 35.7725 3.895 36.3141 3.83643C36.519 3.83643 36.6068 3.96821 36.5775 4.23179C36.4458 4.92002 36.3433 5.66683 36.2994 6.45756Z" fill="white"/>
<path d="M36.5925 10.6015C36.6218 10.9236 36.5193 11.0993 36.2558 11.1579C35.5825 11.2311 34.9678 11.2897 34.4408 11.3483C34.2213 11.3336 34.0749 11.1872 33.9871 10.8797C33.8846 10.4257 33.7968 9.95715 33.7529 9.47393C33.709 9.0932 33.6943 8.71248 33.6943 8.3464C33.709 8.02425 33.8261 7.83389 34.031 7.77532C34.5579 7.71674 35.1727 7.64353 35.8606 7.57031C36.1241 7.57031 36.2705 7.73139 36.3144 8.05354C36.329 8.41962 36.3583 8.80034 36.4022 9.18106C36.4315 9.67893 36.5047 10.1475 36.5925 10.6015Z" fill="white"/>
<path d="M37.6903 14.233C37.7781 14.4819 37.7342 14.6137 37.5293 14.6576C36.9877 14.7162 36.5047 14.7748 36.0802 14.8187C35.9046 14.8187 35.7143 14.7016 35.5386 14.4673C35.1142 13.8523 34.7336 13.164 34.4408 12.4172C34.353 12.1244 34.3969 11.9486 34.5872 11.9047C35.1142 11.8461 35.7143 11.7876 36.3729 11.7144C36.6364 11.7144 36.8267 11.8608 36.9291 12.1537C37.1487 12.9005 37.4122 13.6033 37.6903 14.233Z" fill="white"/>
<path d="M39.5784 0.541326C39.5784 0.585255 39.5638 0.717044 39.3735 0.74633C39.0369 0.775617 38.7148 0.819546 38.4221 0.848833C38.2904 0.848833 38.3489 0.74633 38.4221 0.658471C38.7148 0.350964 39.0515 0.145959 39.4028 0.0727434C39.4467 0.0581002 39.5199 0.043457 39.6223 0.043457C39.6223 0.043457 39.6223 0.043457 39.6077 0.043457C39.5784 0.10203 39.5784 0.277748 39.5784 0.541326Z" fill="white"/>
<path d="M39.713 2.67957C39.713 2.91386 39.5813 3.04565 39.3325 3.08958C38.6884 3.16279 38.059 3.22137 37.4882 3.27994C37.2686 3.27994 37.1808 3.16279 37.2394 2.9285C37.415 2.32813 37.6346 1.81562 37.8834 1.37632C37.9859 1.21525 38.1176 1.12739 38.264 1.0981C38.6006 1.06882 38.9812 1.02489 39.3617 0.980957C39.4642 0.980957 39.5813 0.9956 39.6252 1.2006C39.6399 1.61061 39.6691 2.10848 39.713 2.67957Z" fill="white"/>
<path d="M40.0189 6.07672C40.0189 6.38423 39.8579 6.57459 39.5359 6.63317C38.7016 6.72102 37.9112 6.80888 37.1793 6.8821C36.8866 6.8821 36.7402 6.73567 36.7256 6.42816C36.7549 5.63743 36.828 4.89063 36.9451 4.2024C37.0183 3.93882 37.1647 3.79239 37.4135 3.73381C38.0283 3.67524 38.6723 3.60202 39.3603 3.52881C39.6237 3.52881 39.7847 3.64595 39.8287 3.89489C39.8726 4.55383 39.9457 5.28599 40.0189 6.07672Z" fill="white"/>
<path d="M40.4288 10.2064C40.4288 10.5286 40.2678 10.719 39.9604 10.7775C39.1261 10.8654 38.321 10.9532 37.5746 11.0265C37.2818 11.0265 37.0915 10.88 37.0183 10.5579C36.9452 10.1039 36.872 9.62071 36.8281 9.15213C36.7841 8.77141 36.7549 8.39068 36.7402 8.0246C36.7549 7.70245 36.9012 7.51209 37.194 7.43888C37.9405 7.36566 38.7455 7.2778 39.5945 7.18994C39.9311 7.18994 40.1214 7.33637 40.18 7.65852C40.2239 8.0246 40.2531 8.40533 40.297 8.78605C40.3263 9.26928 40.3849 9.73786 40.4288 10.2064Z" fill="white"/>
<path d="M40.8498 13.9112C40.8498 14.1601 40.7327 14.3066 40.4693 14.3651C39.796 14.4383 39.1666 14.4969 38.5811 14.5701C38.3469 14.5701 38.1566 14.453 38.0395 14.2187C37.776 13.589 37.5419 12.8862 37.3369 12.1247C37.293 11.8172 37.3955 11.6415 37.6736 11.5829C38.4054 11.5097 39.1958 11.4218 40.0155 11.334C40.3375 11.334 40.5278 11.4804 40.601 11.7733C40.6888 12.5347 40.7766 13.2522 40.8498 13.9112Z" fill="white"/>
<path d="M40.8965 0.409537C41.0867 0.555969 40.955 0.585255 40.9257 0.599898C40.633 0.629185 40.311 0.658471 39.989 0.702401C39.7987 0.702401 39.7548 0.585255 39.7401 0.541326C39.6962 0.277748 39.6523 0.116673 39.623 0.0727434C39.623 0.0581002 39.6084 0.0581002 39.6084 0.0581002C39.7109 0.043457 39.7694 0.043457 39.828 0.043457C40.1792 0.043457 40.5452 0.175246 40.8965 0.409537Z" fill="white"/>
<path d="M42.5056 2.40128C42.5935 2.62093 42.5349 2.75272 42.33 2.79665C41.7592 2.85522 41.1444 2.9138 40.515 2.98701C40.2662 2.98701 40.1198 2.88451 40.0613 2.65022C39.9881 2.07913 39.9149 1.58127 39.8563 1.1859C39.8417 1.03947 39.9149 0.951608 40.0613 0.922321C40.4418 0.878392 40.7931 0.849105 41.1298 0.805176C41.2761 0.805176 41.4225 0.878392 41.5542 1.01018C41.8909 1.37626 42.2129 1.84484 42.5056 2.40128Z" fill="white"/>
<path d="M43.7082 5.69589C43.7521 6.00339 43.635 6.17911 43.3569 6.23768C42.6251 6.3109 41.8493 6.38412 41.0443 6.47198C40.7223 6.47198 40.532 6.32554 40.4734 6.01804C40.3856 5.24195 40.2978 4.50979 40.21 3.85084C40.21 3.60191 40.3271 3.44083 40.5759 3.3969C41.2346 3.32369 41.8786 3.26512 42.4787 3.20654C42.7275 3.20654 42.9032 3.32369 43.0203 3.57262C43.2984 4.20228 43.5326 4.9198 43.7082 5.69589Z" fill="white"/>
<path d="M44.2785 9.81093C44.2638 10.1331 44.1174 10.3234 43.8247 10.382C43.0928 10.4552 42.3024 10.5431 41.4974 10.6163C41.1754 10.6163 40.9851 10.4699 40.9266 10.1477C40.8826 9.67914 40.8387 9.21056 40.7802 8.72733C40.7363 8.34661 40.707 7.96588 40.6631 7.5998C40.6631 7.27765 40.8095 7.08729 41.1315 7.01408C41.9512 6.92622 42.7416 6.853 43.488 6.77979C43.7808 6.77979 43.9564 6.94086 44.0443 7.24837C44.1028 7.61445 44.1467 7.99517 44.1906 8.37589C44.2199 8.85912 44.2492 9.34234 44.2785 9.81093Z" fill="white"/>
<path d="M44.0143 13.5889C43.9411 13.8525 43.7948 13.9989 43.5606 14.0428C42.9751 14.1014 42.3457 14.16 41.7016 14.2332C41.4528 14.2332 41.3064 14.116 41.2479 13.8671C41.1893 13.2082 41.1308 12.4907 41.0576 11.7146C41.0576 11.4071 41.2186 11.2313 41.526 11.1581C42.331 11.0703 43.0922 10.997 43.824 10.9238C44.1021 10.9238 44.2485 11.0703 44.2631 11.3778C44.2339 12.1685 44.146 12.9153 44.0143 13.5889Z" fill="white"/>
<path d="M41.9357 0.307424C42.0967 0.365997 42.1845 0.395283 42.2138 0.453856C42.2138 0.453856 42.1992 0.468499 42.1845 0.468499C41.965 0.483142 41.7308 0.512429 41.4527 0.541715C41.3063 0.541715 41.1453 0.468499 41.0282 0.395283C40.633 0.160992 40.2378 0.0292032 39.8426 0.0292032C39.784 0.0292032 39.7109 0.0292032 39.6084 0.0438464C39.784 0.0292032 39.8865 0.01456 40.0036 0.01456C40.6623 -8.32099e-05 41.3063 0.102419 41.9357 0.307424Z" fill="white"/>
<path d="M44.7158 2.18158C44.8914 2.38659 44.906 2.51838 44.7597 2.54766C44.3498 2.59159 43.8668 2.63552 43.3545 2.67945C43.1349 2.67945 42.9593 2.57695 42.8129 2.3573C42.4909 1.8155 42.1396 1.34692 41.7737 0.980842C41.6127 0.805123 41.6712 0.761194 41.7444 0.746551C42.0518 0.717264 42.3299 0.687978 42.5787 0.658691C42.6666 0.658691 42.8276 0.702621 43.1057 0.849053C43.6912 1.20049 44.2181 1.65443 44.7158 2.18158Z" fill="white"/>
<path d="M46.6483 5.40293C46.7362 5.69579 46.6776 5.87151 46.4873 5.93008C45.9604 5.98866 45.3456 6.04723 44.687 6.1058C44.4235 6.1058 44.2479 5.95937 44.1308 5.65186C43.9258 4.89042 43.6916 4.1729 43.4135 3.5286C43.3257 3.27966 43.3843 3.13323 43.5892 3.0893C44.1308 3.03073 44.6284 2.9868 45.0675 2.94287C45.2578 2.95751 45.4335 3.07466 45.6091 3.30895C46.0189 3.93861 46.3702 4.64148 46.6483 5.40293Z" fill="white"/>
<path d="M47.3079 9.5033C47.2786 9.82546 47.1615 10.0158 46.9566 10.0597C46.415 10.1183 45.8149 10.1769 45.1416 10.2355C44.8781 10.2355 44.7317 10.0744 44.7025 9.75224C44.6878 9.28366 44.6586 8.81507 44.6146 8.33185C44.5707 7.95113 44.5268 7.5704 44.4683 7.20432C44.439 6.88217 44.5561 6.69181 44.8049 6.63324C45.4782 6.56002 46.093 6.50145 46.6346 6.45752C46.8541 6.47216 47.0005 6.63324 47.0883 6.94075C47.1615 7.30683 47.22 7.68755 47.264 8.06827C47.3079 8.56614 47.3225 9.03472 47.3079 9.5033Z" fill="white"/>
<path d="M46.5172 13.3399C46.3855 13.6034 46.2391 13.7499 46.0635 13.7938C45.639 13.8377 45.156 13.8817 44.6144 13.9402C44.4095 13.9402 44.3363 13.8084 44.3656 13.5595C44.5119 12.8859 44.629 12.1391 44.6729 11.363C44.7169 11.0555 44.8632 10.8798 45.1267 10.8212C45.7854 10.748 46.3855 10.6894 46.9124 10.6455C47.1173 10.6602 47.1905 10.8066 47.1612 11.1287C47.0295 11.8902 46.81 12.6516 46.5172 13.3399Z" fill="white"/>
<path d="M42.5212 0.248831C42.609 0.278117 42.8725 0.33669 42.9603 0.395263C42.8578 0.409906 42.7261 0.424549 42.5505 0.439193C42.4626 0.439193 42.3455 0.409906 42.0235 0.307404C41.3795 0.102399 40.7062 -0.000103334 40.0182 0.0291831C39.9158 0.0291831 39.7987 0.0438263 39.6084 0.0584695C39.8426 0.0291831 39.9743 0.0291831 40.1061 0.0145399C40.9404 -0.0293897 41.7454 0.0584695 42.5212 0.248831Z" fill="white"/>
<path d="M48.332 5.24228C48.4491 5.53515 48.4637 5.69622 48.3905 5.74015C48.1563 5.7548 47.805 5.78408 47.3806 5.82801C47.2049 5.81337 47.0585 5.66694 46.9268 5.35943C46.6487 4.59798 46.2828 3.89511 45.8437 3.26545C45.6973 3.01652 45.6826 2.88473 45.7997 2.85544C46.151 2.82616 46.4291 2.79687 46.6341 2.78223C46.7365 2.79687 46.8829 2.92866 47.0732 3.16295C47.5708 3.79261 48.0099 4.49548 48.332 5.24228Z" fill="white"/>
<path d="M49.0655 9.34217C49.0362 9.66432 48.9777 9.84004 48.8899 9.88397C48.6557 9.89861 48.3044 9.94254 47.8799 9.97183C47.7189 9.95719 47.6311 9.79611 47.6164 9.47396C47.6311 9.00538 47.6164 8.5368 47.5579 8.05357C47.514 7.67285 47.4554 7.29212 47.3822 6.92604C47.3383 6.60389 47.3822 6.42818 47.5433 6.38425C47.9824 6.34032 48.319 6.31103 48.5678 6.29639C48.6703 6.32567 48.7581 6.48675 48.846 6.8089C48.9338 7.17498 48.9923 7.54106 49.0362 7.93643C49.0801 8.40501 49.0948 8.87359 49.0655 9.34217Z" fill="white"/>
<path d="M37.9098 16.8251C38.0854 16.9276 38.1586 16.9715 38.1879 17.0155L38.1733 17.0301C37.983 17.0448 37.8366 17.0741 37.7341 17.0741C37.7049 17.0741 37.5731 17.0448 37.2072 16.8983C36.4754 16.5762 35.802 16.1515 35.1873 15.6537C35.0702 15.5512 34.9385 15.434 34.9092 15.3462C34.9092 15.3315 34.9092 15.3169 34.9238 15.3169C35.1141 15.2876 35.3629 15.2583 35.6703 15.229C35.8167 15.229 35.9923 15.3315 36.2119 15.5512C36.7242 16.0637 37.295 16.4883 37.9098 16.8251Z" fill="white"/>
<path d="M41.1169 17.6009C41.2193 17.6009 41.2925 17.5863 41.4242 17.5717C41.2486 17.5863 41.2047 17.5863 41.0437 17.6009C40.2094 17.6449 39.3897 17.5717 38.6139 17.3813C38.5261 17.352 38.2626 17.2934 38.1748 17.2495C38.2626 17.2349 38.3944 17.2202 38.57 17.2056C38.6432 17.2056 38.7749 17.2349 39.0969 17.3374C39.741 17.5277 40.4143 17.6302 41.1169 17.6009Z" fill="white"/>
<path d="M39.317 16.6786C39.4926 16.8543 39.4341 16.8983 39.3609 16.9129C39.0682 16.9422 38.7901 16.9715 38.5559 17.0008C38.468 17.0008 38.307 16.9715 38.0289 16.8104C37.4434 16.4736 36.8872 16.0343 36.3896 15.5218C36.2139 15.3168 36.1847 15.1996 36.331 15.1557C36.7409 15.1118 37.1946 15.0679 37.7069 15.0093C37.9118 15.0093 38.0875 15.1118 38.2485 15.3314C38.5851 15.8586 38.9364 16.3125 39.317 16.6786Z" fill="white"/>
<path d="M41.2462 17.5867C41.3048 17.5867 41.3487 17.5867 41.4365 17.5721C41.3048 17.5867 41.2609 17.5867 41.1291 17.5867C40.4705 17.616 39.8118 17.5135 39.1824 17.3085C39.0214 17.2499 38.9336 17.2207 38.8896 17.1621L38.9043 17.1474C39.1092 17.1181 39.3434 17.1035 39.6069 17.0742C39.7532 17.0742 39.8996 17.1474 40.0167 17.2207C40.4265 17.4549 40.8364 17.5867 41.2462 17.5867Z" fill="white"/>
<path d="M41.1909 16.4735C41.2055 16.6639 41.0884 16.7224 41.0006 16.7371C40.6347 16.781 40.2834 16.8103 39.9467 16.8542C39.8004 16.8542 39.6686 16.7956 39.5223 16.6639C39.1856 16.2978 38.8636 15.8438 38.5562 15.302C38.4538 15.0824 38.5123 14.9506 38.7172 14.9067C39.2881 14.8481 39.8882 14.7895 40.5322 14.7163C40.7811 14.7163 40.9274 14.8188 40.986 15.0385C41.0592 15.5949 41.1324 16.0781 41.1909 16.4735Z" fill="white"/>
<path d="M41.4075 17.5715C41.4222 17.5715 41.4222 17.5715 41.4075 17.5715C41.349 17.5862 41.3197 17.5862 41.2611 17.5862C40.8952 17.5862 40.5293 17.4544 40.178 17.2201C39.9731 17.0737 40.1048 17.0444 40.1341 17.0297C40.4268 17.0005 40.7342 16.9712 41.0562 16.9272C41.2465 16.9272 41.2904 17.0444 41.2904 17.0883C41.349 17.3665 41.3929 17.5276 41.4075 17.5715Z" fill="white"/>
<path d="M43.0787 16.2835C42.9763 16.4446 42.8446 16.5324 42.7128 16.5617C42.3908 16.591 42.0395 16.6349 41.6882 16.6642C41.5419 16.6642 41.4687 16.591 41.454 16.4446C41.4394 16.0492 41.4101 15.5513 41.3662 14.9949C41.3808 14.7606 41.4979 14.6288 41.7321 14.5849C42.3469 14.5263 42.947 14.4531 43.5032 14.4092C43.7228 14.4092 43.796 14.5263 43.7521 14.7606C43.5471 15.3463 43.3276 15.8589 43.0787 16.2835Z" fill="white"/>
<path d="M41.5858 17.5422C41.5419 17.5569 41.498 17.5569 41.4248 17.5715L41.4394 17.5569C41.4541 17.5129 41.4687 17.3372 41.4687 17.0736C41.4687 17.0297 41.4834 16.8979 41.6736 16.8686C41.9957 16.8393 42.303 16.81 42.5811 16.7808C42.6543 16.7808 42.7129 16.81 42.5811 16.9711C42.2738 17.264 41.9371 17.469 41.5858 17.5422Z" fill="white"/>
<path d="M44.5578 16.137C44.3236 16.342 44.1626 16.4006 44.0895 16.4299C43.8553 16.4591 43.5772 16.4738 43.2844 16.5031C43.2112 16.5031 43.1527 16.4738 43.2844 16.2688C43.5772 15.8441 43.826 15.317 44.0309 14.7312C44.1334 14.497 44.2797 14.3505 44.4846 14.3066C44.9969 14.2627 45.4653 14.2041 45.8752 14.1748C46.0215 14.1894 46.0215 14.3066 45.8898 14.5409C45.5092 15.1559 45.0555 15.6831 44.5578 16.137Z" fill="white"/>
<path d="M41.7175 17.528C41.6151 17.5427 41.5419 17.5573 41.4248 17.5719C41.498 17.5573 41.5273 17.5573 41.6005 17.5427C41.9957 17.4548 42.3616 17.2498 42.6982 16.9423C42.8007 16.8398 42.9324 16.7519 43.0788 16.7226C43.3423 16.6933 43.5765 16.6787 43.7814 16.6494H43.796V16.6641C43.7667 16.7226 43.6789 16.7812 43.5472 16.8544C42.991 17.1912 42.3762 17.4255 41.7175 17.528Z" fill="white"/>
<path d="M41.8054 17.528C41.6883 17.5426 41.5858 17.5573 41.4248 17.5719C41.5712 17.5573 41.6005 17.5573 41.7322 17.528C42.4201 17.4108 43.0642 17.1912 43.6496 16.8544C43.9424 16.6933 44.0595 16.6347 44.1327 16.6201C44.3083 16.6055 44.44 16.5908 44.5279 16.5908C44.5132 16.6055 44.484 16.6494 44.1327 16.8251C43.4154 17.1619 42.625 17.3962 41.8054 17.528Z" fill="white"/>
<path fill-rule="evenodd" clip-rule="evenodd" d="M46.2689 2.4012C46.2689 2.32799 46.1226 2.18156 45.9908 2.06441C45.3907 1.53726 44.7174 1.1126 43.9855 0.775811C43.6196 0.614736 43.4879 0.585449 43.4586 0.585449C43.3415 0.600092 43.1951 0.614736 42.9902 0.629379L42.9902 0.62941C42.9786 0.629898 42.9768 0.639983 42.9765 0.643115L42.9756 0.644022C43.0195 0.702595 43.078 0.746524 43.2537 0.849027C43.8538 1.20046 44.41 1.63976 44.9223 2.16691C45.1419 2.37192 45.3175 2.47442 45.4639 2.48906C45.6276 2.47483 45.7739 2.46059 45.903 2.44803C46.0394 2.43476 46.1565 2.42337 46.2543 2.41585C46.2543 2.4012 46.2689 2.4012 46.2689 2.4012Z" fill="white"/>
</svg>
