<svg width="101" height="88" viewBox="0 0 101 88" fill="none" xmlns="http://www.w3.org/2000/svg">
<path fill-rule="evenodd" clip-rule="evenodd" d="M82.7424 43.1643C82.7561 43.1351 82.7688 43.1014 82.7854 43.0669C83.958 40.5977 84.1785 38.9789 83.2496 38.3306C81.7772 37.3052 78.3792 37.7397 73.9695 39.2555C72.2694 39.8426 70.5087 40.4304 68.7279 40.9714C69.1565 41.6819 69.5259 42.438 69.8113 43.2262C69.9026 43.4804 69.988 43.7198 70.0624 43.9507L70.2302 43.8487C70.3912 43.7508 70.563 43.6463 70.7546 43.5296C70.9493 43.409 71.1321 43.2895 71.3028 43.1714C71.2968 43.1662 71.2898 43.1613 71.2828 43.1565C71.2713 43.1486 71.26 43.1408 71.2534 43.1316C70.4163 42.3533 70.7944 40.8628 71.7681 40.6719C72.9976 40.4304 73.3983 41.748 72.9841 42.3734C72.8071 42.6469 72.5513 42.9063 72.2493 43.1499C72.2648 43.1591 72.2802 43.1683 72.2956 43.1775C72.3638 43.2183 72.4313 43.2586 72.5079 43.2993C73.0822 43.6052 73.5246 43.8867 73.8714 44.1367C73.9274 44.0804 73.9864 44.0252 74.0456 43.9699C74.0688 43.9482 74.0921 43.9265 74.1152 43.9047C74.3481 43.6984 74.6242 43.4699 74.9104 43.233C75.1369 43.0455 75.3697 42.8529 75.5922 42.662C75.1551 42.3364 74.983 42.0728 74.983 41.5205C74.9802 40.8301 75.6385 40.14 76.192 40.1337C77.1127 40.1256 77.7692 40.944 77.1353 41.9512C77.0182 42.1364 76.7966 42.3667 76.5306 42.611C76.7189 42.7216 76.9301 42.8398 77.1514 42.9637C77.5537 43.1889 77.9894 43.4327 78.381 43.6835C78.5782 43.4737 78.8103 43.2434 79.0883 42.9833C79.1949 42.882 79.3914 42.7132 79.6239 42.5135C79.7513 42.4041 79.8894 42.2854 80.0295 42.1635C78.7602 41.1032 79.7286 39.6408 80.5378 39.587C81.3531 39.534 81.7288 40.1783 81.7701 40.7559C81.8011 41.202 81.4522 41.6341 80.9534 42.1058C81.3179 42.3491 81.7203 42.5778 82.1171 42.8034C82.3293 42.924 82.54 43.0438 82.7424 43.1643ZM82.7786 44.6928C82.7708 45.8434 83.7586 45.9601 83.8856 45.2064C83.941 44.883 83.6718 44.4868 82.9253 43.9416C82.8414 44.2123 82.7786 44.4717 82.7786 44.6928ZM80.006 41.2827C80.133 41.4479 80.2932 41.6061 80.4773 41.7587C80.8361 41.4276 81.1409 41.1161 81.2026 40.9442C81.3092 40.6668 81.2831 39.891 80.5655 39.8628C80.0561 39.8386 79.6663 40.8412 80.006 41.2827ZM78.0216 45.3313C78.0487 46.1634 79.2612 46.36 79.2799 45.4175C79.2827 45.0993 78.9345 44.7425 78.4717 44.4033C78.1655 44.7478 78.0106 45.0322 78.0216 45.3313ZM76.01 42.2742C76.0136 42.2767 76.017 42.2793 76.0204 42.2818C76.5108 41.8258 76.8681 41.4068 76.841 41.1322C76.7433 40.1177 75.8578 40.3262 75.5939 40.8879C75.4334 41.2342 75.3766 41.7699 75.971 42.2445C75.9828 42.2542 75.9967 42.2644 76.01 42.2742ZM73.4631 45.952C73.6801 46.8006 74.6044 46.5303 74.6566 45.9471C74.688 45.5783 74.4079 45.2092 73.9969 44.8562C73.6543 45.231 73.382 45.6377 73.4631 45.952ZM71.5055 41.1747C71.2159 41.5206 70.9527 42.1168 71.7715 42.8129C72.6217 42.1112 72.9064 41.49 72.4033 41.0889C72.2692 40.9796 71.8198 40.8066 71.5055 41.1747ZM68.7246 45.7252C68.5973 46.2001 68.8202 46.5018 69.0721 46.6069C69.4372 46.7566 70.2014 46.5302 69.747 44.775C69.2111 45.1199 68.8026 45.4324 68.7246 45.7252ZM56.5328 35.3138C56.6439 36.0376 58.2099 36.7389 61.8463 35.4125C60.5082 34.7798 59.3208 34.4518 58.6212 34.36C57.7209 34.2454 56.4185 34.5492 56.5328 35.3138ZM56.6757 30.321C57.6413 30.623 58.8764 30.0725 60.7126 28.5686C59.0986 28.1169 58.0953 28.2308 57.219 28.6319C56.5988 28.9117 55.779 30.038 56.6757 30.321ZM57.5502 24.3952C57.8966 23.9167 58.2875 23.1982 58.7027 22.3524C56.9512 22.6892 55.6501 23.3944 55.346 24.1607C54.752 25.6643 56.6848 25.5908 57.5502 24.3952ZM65.1118 41.4872L65.2042 41.4652C65.7827 41.3246 66.7091 41.0349 67.8341 40.6669C67.4531 40.0474 67.0333 39.4502 66.6008 38.9503C65.3746 37.5497 63.9349 36.5183 62.5872 35.7885C61.0036 36.4441 59.5431 36.8699 58.4619 36.8287C55.9335 36.7391 55.1486 34.9308 57.4321 33.899C58.4153 33.4575 60.4201 33.9373 62.5714 35.1385C63.1274 34.909 63.7271 34.6393 64.373 34.3156C65.5979 33.7081 66.731 33.0845 67.813 32.4594C66.3764 31.3029 64.7022 30.1906 63.363 29.581C62.5848 29.2267 61.9078 28.9574 61.3031 28.7538C60.8579 29.1303 60.4222 29.478 60.0137 29.7828C58.8383 30.6479 56.6369 31.7465 56.0549 30.5038C55.2611 28.8059 57.4483 27.8177 58.7963 27.8458C59.5812 27.863 60.3683 27.997 61.1465 28.2044C62.0048 27.4683 62.9841 26.5462 64.1232 25.4142C64.4436 25.0915 65.238 24.3135 66.2763 23.345C65.2578 22.855 64.0576 22.4458 62.6941 22.2577C61.5469 22.0971 60.4286 22.108 59.4225 22.2359C58.138 25.0043 57.3312 25.7317 56.2009 25.7949C54.8043 25.8747 54.2567 24.3972 55.4477 23.1812C56.0721 22.5407 57.3767 22.0753 58.9441 21.8622C59.439 20.8243 59.9656 19.6303 60.4991 18.4206C60.5801 18.2368 60.6613 18.0527 60.7426 17.8687C60.4131 17.8744 60.0751 17.8909 59.7089 17.9236C55.7204 18.2973 52.8873 19.6992 50.4753 22.2205C50.491 22.2382 50.5067 22.2558 50.5223 22.2734C50.5977 22.3581 50.6724 22.4421 50.7466 22.5309C50.7982 22.5927 50.8714 22.672 50.9602 22.768C51.6166 23.4784 53.1222 25.1078 52.9945 27.3983C52.9014 29.0569 51.7711 29.7044 50.5776 30.3031C51.758 30.8979 53.1638 31.8291 53.0118 34.0136C52.9014 35.5825 51.7146 36.4016 50.4862 37.168C50.772 37.3518 51.0599 37.5455 51.3562 37.7666C52.4703 38.6001 52.9395 39.549 53.0347 40.4746C55.3106 43.8249 61.8011 42.2769 65.1118 41.4872ZM50.3365 44.1878L50.3355 44.6856C51.3596 43.7509 52.527 42.3313 52.4586 40.4527C52.4074 39.0951 51.4457 38.3269 50.3489 37.6256C50.3444 40.0979 50.3399 42.4179 50.3365 44.1878ZM50.3513 36.702C51.5341 35.9427 52.414 35.2536 52.3748 33.5947C52.3374 32.017 51.4184 31.3027 50.3601 30.73C50.3583 32.3142 50.3556 33.995 50.3529 35.6558L50.3513 36.702ZM50.4076 23.0801L50.3748 23.0416C50.3734 23.6428 50.3721 24.5416 50.3704 25.6449C50.3686 26.8551 50.3664 28.3115 50.3635 29.8911C52.3701 28.8449 53.6119 27.2116 51.0394 23.8442C50.8303 23.576 50.6209 23.3304 50.4076 23.0801ZM54.8351 9.83293C54.8778 10.5634 55.5012 10.7255 56.2233 10.7076C56.2132 10.6081 56.2038 10.5128 56.1949 10.4225C56.1658 10.1267 56.1421 9.88582 56.115 9.73415C55.9669 8.92279 54.772 8.82085 54.8351 9.83293ZM57.2558 7.85225C57.4611 8.0558 57.9077 8.08884 58.4676 8.05263C58.3554 6.75756 58.1561 6.39898 57.4767 6.35364C57.1482 6.33254 56.5097 7.11085 57.2558 7.85225ZM60.2474 5.12984C60.2672 5.12786 60.287 5.12587 60.3067 5.12391C60.3042 5.09388 60.3018 5.06424 60.2994 5.03508C60.2854 4.86661 60.2728 4.714 60.2602 4.59203C60.1293 3.40664 58.9849 3.13349 58.7817 3.86962C58.6088 4.49079 58.9849 5.22867 59.9843 5.1545C60.0676 5.14787 60.1573 5.13887 60.2474 5.12984ZM60.5202 1.00993C59.0153 0.2267 55.1644 3.39619 53.1003 8.18699C50.8192 13.4773 50.3832 17.8044 50.3355 20.1946C50.9921 17.9046 52.412 14.8891 54.6934 13.4612C55.3298 13.0622 55.9366 12.8322 56.4866 12.7229C56.3931 12.2294 56.3239 11.7045 56.2735 11.2225C55.9782 11.2433 55.7295 11.2443 55.5627 11.2074C54.3607 10.9272 54.0288 9.04088 55.3037 8.86581C56.355 8.7259 56.6534 9.12525 56.8002 10.6657C57.003 10.6422 57.2038 10.6133 57.3931 10.586C57.5407 10.5647 57.6813 10.5445 57.8102 10.5286C58.1044 10.492 58.3884 10.4671 58.6565 10.4502C58.6085 10.1131 58.5729 9.72462 58.5503 9.27043C58.5437 9.13744 58.5358 9.011 58.5281 8.88993C58.5235 8.81674 58.519 8.74551 58.5151 8.67598C56.2894 8.8282 56.2823 6.56216 57.1893 6.18004C58.3824 5.67312 58.9102 6.67079 58.9857 7.56757C58.9884 7.61426 58.992 7.66885 58.996 7.72994C59.0013 7.81005 59.0074 7.90134 59.0132 8.00067C59.243 7.97486 59.4823 7.94327 59.7255 7.91117C60.0223 7.87201 60.3248 7.8321 60.6226 7.80099C60.4825 7.11619 60.4063 6.3421 60.3527 5.68015C57.9764 5.93256 58.0053 3.3301 59.1864 3.16277C60.2479 3.00774 60.631 3.5129 60.8804 5.05335C61.0261 5.03422 61.1746 5.01383 61.3245 4.99324C61.6347 4.95065 61.9507 4.90726 62.2587 4.87266C62.1217 4.48489 62.0028 4.07314 61.8855 3.6671C61.5478 2.49804 61.2238 1.37626 60.5202 1.00993ZM50.0544 52.8004C50.2121 51.5623 50.5024 50.7432 50.8428 50.1955C50.4128 49.7491 50.1662 49.2583 50.0544 48.976C49.9418 49.2583 49.6949 49.7491 49.2663 50.1927C49.6049 50.7432 49.8974 51.5623 50.0544 52.8004ZM53.6503 50.6503C54.6173 50.5375 54.9397 49.5387 53.6669 49.4087C52.9091 49.3306 52.1796 49.5345 51.6162 50.1188C52.3493 50.6015 53.2051 50.7045 53.6503 50.6503ZM46.4417 49.4087C45.1671 49.5387 45.491 50.5375 46.4555 50.6503C46.8982 50.7045 47.7576 50.6015 48.491 50.1188C47.928 49.5345 47.1956 49.3306 46.4417 49.4087ZM39.8471 4.59203C39.8305 4.73511 39.8153 4.92037 39.8002 5.12391L39.8422 5.12812C39.9378 5.13772 40.0348 5.14745 40.1212 5.1545C41.1231 5.22867 41.4967 4.49079 41.3263 3.86962C41.1231 3.13349 39.9797 3.40664 39.8471 4.59203ZM42.6302 6.35364C41.9518 6.39898 41.7507 6.75756 41.6364 8.05263C42.1973 8.08884 42.6464 8.0558 42.8535 7.85225C43.5975 7.11085 42.9594 6.33254 42.6302 6.35364ZM43.9944 9.73415C43.9598 9.93207 43.9266 10.2818 43.8868 10.7076C44.6086 10.7255 45.2302 10.5634 45.275 9.83293C45.3356 8.82085 44.1397 8.92279 43.9944 9.73415ZM43.62 12.7229C44.169 12.8322 44.7775 13.0622 45.4157 13.4612C47.6957 14.8891 49.117 17.9046 49.7704 20.1946C49.7273 17.8058 49.2892 13.4773 47.0088 8.18699C44.9429 3.39619 41.0927 0.2267 39.5867 1.00993C38.8828 1.37742 38.5575 2.50514 38.2191 3.67818C38.103 4.08063 37.9853 4.48841 37.8503 4.87266C38.153 4.90677 38.4631 4.94943 38.7684 4.99144C38.9225 5.01264 39.0753 5.03367 39.2255 5.05335C39.4735 3.5129 39.8569 3.00774 40.9213 3.16277C42.1031 3.3301 42.1306 5.93256 39.756 5.68015C39.7024 6.3421 39.6227 7.11619 39.4841 7.80099C39.7884 7.83264 40.0972 7.87341 40.3987 7.91323C40.6365 7.94461 40.8697 7.97541 41.0927 8.00067L41.095 7.96728C41.106 7.80651 41.1155 7.66857 41.1231 7.56757C41.1947 6.67079 41.7238 5.67312 42.9201 6.18004C43.8246 6.56216 43.8197 8.8282 41.5912 8.67598C41.5857 8.79639 41.5782 8.92188 41.5703 9.05383C41.5662 9.12413 41.5619 9.19626 41.5577 9.27043C41.5351 9.72462 41.4988 10.1131 41.455 10.4502C41.7171 10.4671 42.0022 10.492 42.2975 10.5286C42.4311 10.5449 42.5768 10.5659 42.7292 10.5879C42.9146 10.6146 43.1101 10.6427 43.3061 10.6657C43.4507 9.12525 43.7523 8.7259 44.8068 8.86581C46.0814 9.04088 45.748 10.9272 44.544 11.2074C44.3803 11.2443 44.1316 11.2433 43.8342 11.2225C43.7834 11.7045 43.7146 12.2294 43.62 12.7229ZM49.7588 37.6256C48.6617 38.3269 47.7017 39.0951 47.6495 40.4527C47.5811 42.3313 48.746 43.7509 49.7711 44.6856C49.769 42.8653 49.7644 40.337 49.7588 37.6256ZM47.7336 33.5947C47.693 35.2536 48.5725 35.9427 49.7579 36.702C49.7552 35.1745 49.7516 33.6087 49.7482 32.0975C49.7472 31.6357 49.7462 31.179 49.7452 30.73C48.6886 31.3027 47.7692 32.0135 47.7336 33.5947ZM49.5739 23.2313C49.4047 23.4304 49.235 23.6301 49.0692 23.8442C46.4974 27.2116 47.7403 28.8449 49.7451 29.8911C49.7414 28.1091 49.7393 26.4839 49.7377 25.1919C49.7366 24.2948 49.7357 23.5583 49.7345 23.0416C49.6811 23.1051 49.6276 23.1681 49.5739 23.2313ZM44.7625 24.1607C44.4592 23.3944 43.1556 22.6892 41.4006 22.3524C41.8218 23.1982 42.2123 23.9167 42.558 24.3952C43.4227 25.5908 45.3534 25.6643 44.7625 24.1607ZM42.8891 28.6319C42.01 28.2308 41.0081 28.1169 39.3931 28.5686C41.2286 30.0725 42.4682 30.623 43.432 30.321C44.327 30.038 43.5072 28.9117 42.8891 28.6319ZM41.486 34.36C40.7857 34.4518 39.6008 34.7798 38.2627 35.4125C41.897 36.7389 43.463 36.0376 43.5748 35.3138C43.6891 34.5492 42.387 34.2454 41.486 34.36ZM34.9936 41.4862C38.2991 42.2755 44.7944 43.8265 47.0717 40.4746C47.1663 39.549 47.6372 38.6001 48.7492 37.7666C49.0466 37.5455 49.3362 37.3518 49.6199 37.168C48.3911 36.4016 47.2026 35.5825 47.094 34.0136C46.9437 31.8291 48.3474 30.8979 49.5285 30.3031C48.3382 29.7044 47.2058 29.0569 47.112 27.3983C46.9857 25.1066 48.4903 23.4768 49.1456 22.767C49.2339 22.6714 49.3067 22.5925 49.3581 22.5309C49.4193 22.4587 49.4811 22.3898 49.5426 22.321C49.5725 22.2876 49.6024 22.2542 49.6322 22.2205C47.2206 19.6992 44.3874 18.2973 40.3965 17.9236C40.0338 17.8909 39.6906 17.8744 39.3632 17.8687C39.4471 18.0587 39.531 18.2489 39.6147 18.4386C40.1458 19.6422 40.6696 20.8295 41.1623 21.8622C42.7315 22.0753 44.0347 22.5407 44.6587 23.1812C45.8508 24.3972 45.3008 25.8747 43.9052 25.7949C42.7752 25.7317 41.9695 25.0043 40.684 22.2359C39.6772 22.108 38.5613 22.0971 37.412 22.2577C36.0481 22.4458 34.849 22.855 33.8313 23.345C34.8667 24.3135 35.6611 25.0915 35.9853 25.4142C37.1234 26.5462 38.1031 27.4683 38.9621 28.2044C39.7407 27.997 40.527 27.863 41.3109 27.8458C42.6592 27.8177 44.845 28.8059 44.0505 30.5038C43.4713 31.7465 41.2668 30.6479 40.0924 29.7828C39.6828 29.478 39.251 29.1303 38.8037 28.7538C38.1987 28.9574 37.5241 29.2267 36.7441 29.581C35.4039 30.1906 33.7314 31.3029 32.2946 32.4594C33.3769 33.0845 34.5104 33.7081 35.7299 34.3156C36.3797 34.6393 36.9773 34.909 37.5397 35.1385C39.6856 33.9373 41.6919 33.4575 42.6754 33.899C44.959 34.9308 44.173 36.7391 41.6439 36.8287C40.5633 36.8699 39.1028 36.4441 37.5192 35.7885C36.1705 36.5183 34.7344 37.5497 33.5074 38.9503C33.0721 39.4502 32.6544 40.0474 32.2752 40.6669C33.3988 41.0349 34.323 41.3246 34.9058 41.4652L34.9936 41.4862ZM30.0454 43.9427C30.1236 43.7142 30.2046 43.4774 30.2959 43.2262C30.5806 42.438 30.95 41.6819 31.3797 40.9714C29.5992 40.4304 27.8374 39.8426 26.1367 39.2555C21.728 37.7397 18.3311 37.3052 16.8583 38.3306C15.9259 38.9789 16.1495 40.5977 17.3225 43.0669C17.3281 43.0792 17.3331 43.0914 17.338 43.1034C17.3469 43.1249 17.3555 43.1455 17.3659 43.1643C17.5715 43.0415 17.7864 42.9195 18.003 42.7965C18.3962 42.5731 18.7952 42.3466 19.1549 42.1058C18.6525 41.6341 18.3075 41.202 18.3371 40.7559C18.3752 40.1783 18.7537 39.534 19.5701 39.587C20.3808 39.6408 21.3435 41.1046 20.0763 42.1635C20.2204 42.2889 20.3624 42.4108 20.4928 42.5228C20.7206 42.7184 20.9129 42.8836 21.0186 42.9833C21.2962 43.2434 21.5287 43.4737 21.7245 43.6835C22.1136 43.4351 22.5454 43.1935 22.9447 42.9701C23.1702 42.8439 23.3853 42.7235 23.5766 42.611C23.3123 42.3667 23.0883 42.1364 22.9719 41.9512C22.3387 40.944 22.9945 40.1256 23.9167 40.1337C24.4677 40.14 25.1281 40.8301 25.1256 41.5205C25.1232 42.0728 24.9521 42.3364 24.5139 42.662C24.7327 42.8498 24.9619 43.0393 25.1852 43.2239C25.4756 43.464 25.7559 43.6958 25.9903 43.9047C26.0169 43.9295 26.0436 43.9541 26.0704 43.9788C26.1271 44.0311 26.1838 44.0834 26.2386 44.1367C26.5844 43.8867 27.0239 43.6052 27.5997 43.2993C27.6921 43.2494 27.7761 43.2002 27.8561 43.1499C27.5577 42.9063 27.3016 42.6469 27.1234 42.3734C26.7078 41.748 27.1061 40.4304 28.338 40.6719C29.3117 40.8628 29.6902 42.3533 28.8545 43.1316C28.847 43.1399 28.8373 43.147 28.8277 43.1541C28.8201 43.1597 28.8125 43.1653 28.8062 43.1714C28.9755 43.2895 29.1568 43.409 29.3537 43.5296L30.0427 43.9507L30.0454 43.9427ZM31.0371 46.6069C31.2872 46.5018 31.5098 46.2001 31.3832 45.7252C31.3066 45.4324 30.8971 45.1199 30.3587 44.775C29.9082 46.5302 30.672 46.7566 31.0371 46.6069ZM27.7032 41.0889C27.2019 41.49 27.4827 42.1112 28.3329 42.8129C29.1531 42.1168 28.891 41.5206 28.6007 41.1747C28.285 40.8066 27.8376 40.9796 27.7032 41.0889ZM25.4516 45.9471C25.5014 46.5303 26.426 46.8006 26.644 45.952C26.7241 45.6377 26.4532 45.231 26.1127 44.8562C25.6982 45.2092 25.4188 45.5783 25.4516 45.9471ZM24.1283 42.251C24.1313 42.2488 24.1342 42.2467 24.1372 42.2445C24.7281 41.7699 24.6745 41.2342 24.5143 40.8879C24.2466 40.3262 23.3632 40.1177 23.2644 41.1322C23.2408 41.4068 23.5971 41.8258 24.0843 42.2818C24.0997 42.2719 24.1142 42.2613 24.1283 42.251ZM20.8314 45.4175C20.8455 46.36 22.0594 46.1634 22.0845 45.3313C22.0958 45.0322 21.9388 44.7478 21.6319 44.4033C21.1718 44.7425 20.8233 45.0993 20.8314 45.4175ZM18.9014 40.9442C18.9684 41.1161 19.2711 41.4276 19.626 41.7587C19.8119 41.6061 19.9749 41.4479 20.1022 41.2827C20.4388 40.8412 20.0511 39.8386 19.5427 39.8628C18.8227 39.891 18.7987 40.6668 18.9014 40.9442ZM17.1801 43.9416C16.4332 44.4868 16.1658 44.883 16.2226 45.2064C16.35 45.9601 17.3388 45.8434 17.3307 44.6928C17.3293 44.4717 17.2665 44.2123 17.1801 43.9416ZM29.2262 34.6892C29.4933 34.3475 29.8305 33.9738 30.268 33.5576C30.5739 33.2679 30.9393 32.941 31.3404 32.5993C29.6902 31.6212 28.2884 30.7161 27.482 30.1955C27.2254 30.0298 27.029 29.903 26.9043 29.8253C21.8708 26.6856 16.3544 25.4626 17.0928 29.2361C17.1401 29.4827 17.2119 29.7851 17.2916 30.1202C17.4359 30.7277 17.6058 31.4429 17.7013 32.1282C17.8125 32.081 17.9222 32.036 18.0274 31.9929C18.1533 31.9413 18.2728 31.8923 18.3808 31.8452C18.4253 31.8268 18.4852 31.8037 18.5566 31.7762C18.7294 31.7097 18.9694 31.6172 19.2214 31.5021C19.0486 31.2986 18.9209 31.1463 18.8725 31.0813C18.3102 30.2731 18.3335 29.3391 19.4536 29.1028C20.3263 28.9176 21.0016 29.8836 20.918 30.5607C20.8601 31.0047 20.5257 31.3446 20.0304 31.6515C20.0923 31.723 20.1553 31.7956 20.2189 31.8689C20.6294 32.3415 21.0664 32.8448 21.4027 33.3037C21.7105 33.1336 22.0399 32.9683 22.3513 32.8121C22.4356 32.7698 22.5187 32.7281 22.5996 32.6871C22.6438 32.663 22.718 32.6282 22.812 32.584C22.9259 32.5306 23.069 32.4634 23.2234 32.3848C22.6529 31.6297 22.5122 31.2676 22.7429 30.7055C23.1906 29.6228 24.7534 29.7511 24.9647 31.0377C25.1061 31.9247 24.7798 32.2667 24.1106 32.6045C24.1809 32.6889 24.2519 32.7731 24.3222 32.8566C24.5028 33.0708 24.6795 33.2805 24.832 33.4771C24.887 33.5494 24.947 33.6257 25.01 33.706C25.1816 33.9244 25.3759 34.1716 25.5531 34.4452C25.824 34.3053 26.0975 34.1732 26.3197 34.0657C26.489 33.9839 26.6286 33.9164 26.7148 33.8708C26.7726 33.8386 26.8613 33.799 26.9685 33.751C27.0994 33.6925 27.2578 33.6216 27.4211 33.5372C26.9995 33.0949 26.6806 32.7132 26.6284 32.4692C26.3112 30.9094 28.048 30.8373 28.6046 31.6515C29.33 32.7167 28.7313 33.3516 28.2413 33.7003C28.5634 34.0174 28.9052 34.3559 29.2262 34.6892ZM29.5823 37.3926C29.9305 37.3321 30.043 37.092 29.9619 36.5869C29.915 36.293 29.6638 35.9221 29.3241 35.5168L29.3198 35.5241C29.2979 35.5609 29.2736 35.6018 29.2578 35.6374C28.5593 37.1033 29.2535 37.4503 29.5823 37.3926ZM27.1496 32.3657C27.2149 32.5879 27.4823 32.9134 27.8386 33.2885C28.2746 32.9876 28.6171 32.5714 28.4277 32.0071C28.1275 31.1174 26.8607 31.341 27.1496 32.3657ZM24.8326 35.4708C23.9048 36.4839 25.051 36.9581 25.3801 36.6776C25.6511 36.4449 25.8716 36.0772 25.3184 35.1368C25.0986 35.2574 24.9247 35.3706 24.8326 35.4708ZM24.581 31.1094C24.5189 30.1894 23.5212 29.8362 23.2358 30.7632C23.1169 31.1463 23.3642 31.623 23.7198 32.1089C24.1855 31.8269 24.6039 31.4705 24.581 31.1094ZM21.255 34.0575C20.3833 34.6143 20.2037 34.9968 20.5484 35.4665C20.8066 35.8176 21.6579 35.6489 21.5566 34.7078C21.5432 34.5567 21.4254 34.3239 21.255 34.0575ZM20.3671 30.0115C19.9046 28.9436 18.8304 29.4649 19.0053 30.2158C19.0583 30.4478 19.3348 30.8222 19.6954 31.2546C20.1991 30.948 20.5935 30.5339 20.3671 30.0115ZM16.9177 33.1042C15.4811 33.8322 16.2791 35.1407 17.0933 34.2042C17.3611 33.8899 17.4122 33.4396 17.3611 32.8908C17.2083 32.9601 17.0637 33.0293 16.9177 33.1042ZM29.7556 24.063C30.0022 24.4525 30.264 24.7992 30.4873 25.0878C31.0694 24.5204 31.8963 23.857 32.9148 23.2612C31.7866 22.1777 30.6721 21.1315 29.6258 20.2319C26.5277 17.568 20.0814 14.1651 20.6123 19.0216C20.7125 19.9173 20.7488 20.6538 20.7372 21.2634C20.8685 21.2333 21.002 21.2038 21.1359 21.1742C21.4603 21.1024 21.7877 21.0301 22.095 20.947C21.8086 19.9918 21.7511 19.0325 22.5388 18.6289C23.8847 17.9483 24.3535 19.8431 23.8893 20.6218C23.7538 20.8499 23.3657 21.063 22.874 21.2493C22.9949 21.5772 23.1156 21.8873 23.2291 22.1793C23.3377 22.4587 23.4399 22.7215 23.5298 22.9673C23.8879 22.8429 24.2421 22.742 24.508 22.6663C24.5674 22.6493 24.6224 22.6336 24.6721 22.6193C24.799 22.5801 24.9271 22.5431 25.0552 22.5061C25.1845 22.4687 25.3139 22.4314 25.4419 22.3918C25.4339 22.373 25.4245 22.3543 25.4155 22.3365C25.4089 22.3233 25.4024 22.3106 25.397 22.2986C25.051 21.5337 24.6721 20.4077 25.9611 20.0034C26.9295 19.699 27.6365 21.0078 27.18 22.0392C27.0516 22.3331 26.6981 22.5637 26.2398 22.7553C26.2637 22.7993 26.2879 22.8436 26.3122 22.8883C26.585 23.3895 26.8815 23.9343 27.1147 24.4539C27.3096 24.3717 27.4973 24.3001 27.6551 24.2399C27.6975 24.2237 27.7378 24.2083 27.7755 24.1938C27.8842 24.1488 28.0314 24.0975 28.2004 24.0386C28.4261 23.96 28.6909 23.8677 28.9555 23.7586C28.8194 23.5139 28.6987 23.2728 28.6158 23.0516C28.354 22.357 28.4863 21.334 29.587 21.3147C30.7529 21.3017 31.0764 22.9943 30.5409 23.5276C30.312 23.7586 30.0407 23.9231 29.7556 24.063ZM30.1818 26.1699C29.7031 27.0171 29.9906 27.7391 30.5427 27.7008C31.2087 27.6569 31.0408 26.675 30.4993 25.9814C30.4718 25.9473 30.4351 25.9013 30.4058 25.8616C30.3039 25.9828 30.2273 26.0901 30.1818 26.1699ZM30.3402 22.386C30.1388 21.06 28.9055 21.7469 29.0349 22.4155C29.1104 22.7938 29.2625 23.1724 29.4502 23.5299C29.9857 23.2476 30.4132 22.876 30.3402 22.386ZM26.1639 25.7371C25.4979 26.4883 26.6381 27.1598 27.0074 26.3154C27.0992 26.1013 27.0025 25.6931 26.8176 25.2112C26.5852 25.3553 26.359 25.5174 26.1639 25.7371ZM26.9334 20.9133C26.7154 19.7061 25.2962 20.3062 25.5717 21.3608C25.6267 21.5725 25.7678 21.8716 25.9531 22.2182C26.5948 21.9662 27.0615 21.6122 26.9334 20.9133ZM22.8305 23.8313C21.7863 24.3951 22.3468 25.4062 22.9321 25.1292C23.3258 24.9446 23.4235 24.4373 23.1981 23.6706C23.0584 23.7237 22.9321 23.7733 22.8305 23.8313ZM23.7142 19.7724C23.8723 18.458 21.9239 18.3922 22.5377 20.3064C22.5531 20.35 22.5683 20.3929 22.5833 20.4354C22.6215 20.543 22.6586 20.6479 22.695 20.7553C23.2521 20.5412 23.6564 20.2494 23.7142 19.7724ZM20.0891 21.9949C18.3541 22.3728 18.7199 23.7969 19.7123 23.4404C20.058 23.3184 20.2111 22.7201 20.2651 21.958C20.2034 21.9682 20.1469 21.9812 20.0891 21.9949ZM29.9503 11.2208C29.9484 11.2538 29.9464 11.2869 29.9444 11.3201C30.0873 11.3254 30.2249 11.3289 30.3403 11.324C31.316 11.2663 31.6156 10.2817 31.3831 9.93575C31.0716 9.47629 30.1092 9.3311 29.9769 10.8311C29.9653 10.9605 29.9578 11.09 29.9503 11.2208ZM35.3155 17.57C35.356 17.7684 35.3966 17.9673 35.4351 18.1638C36.225 17.8453 37.3147 17.5897 38.5918 17.4924C36.8519 13.7421 34.1563 8.60857 31.7087 7.36306C29.068 6.02353 28.491 8.32523 28.0391 10.1282C28.0334 10.1507 28.0278 10.1731 28.0222 10.1954C27.9358 10.5304 27.8507 10.8296 27.7675 11.0961C28.0486 11.1228 28.336 11.1565 28.6174 11.1895C28.8623 11.2183 29.1026 11.2465 29.3303 11.269C29.428 9.76408 29.8521 9.43258 30.3403 9.33099C31.037 9.18404 31.5835 9.55808 31.7909 9.9947C32.0509 10.5396 31.8456 11.932 30.1389 11.9007C30.0862 11.9007 30.0418 11.8976 29.997 11.8944C29.9718 11.8926 29.9465 11.8908 29.9194 11.8895C29.9016 12.5141 29.9076 13.1034 29.9125 13.5857C29.9137 13.7053 29.9149 13.8182 29.9156 13.9235C30.346 13.9059 30.7919 13.9007 31.2158 13.8957C31.4276 13.8932 31.6339 13.8908 31.8301 13.887C31.7698 13.3811 31.7348 12.9628 31.7606 12.7954C31.8632 12.1732 32.3264 11.5826 33.1805 11.7415C34.1221 11.9166 34.2473 13.3853 33.618 14.0153C33.3795 14.2519 33.0126 14.3587 32.4633 14.4041C32.5423 15.0105 32.6228 15.6851 32.6439 16.2676C33.2816 16.2606 33.9639 16.3033 34.5434 16.3396L34.5669 16.3411C34.5631 16.3072 34.559 16.2735 34.555 16.2398C34.536 16.0803 34.5169 15.921 34.514 15.7427C34.4861 14.37 35.5565 13.9798 36.2095 14.4554C37.405 15.3307 36.5421 16.7534 35.5861 16.8691C35.4676 16.8828 35.33 16.8916 35.1801 16.8951C35.2228 17.1165 35.2691 17.3429 35.3155 17.57ZM36.1388 14.7298C35.7596 14.444 35.0374 14.8314 35.0209 15.5099C35.0142 15.7679 35.0445 16.0583 35.0911 16.368L35.1072 16.3691C35.1657 16.373 35.2306 16.3775 35.2816 16.3775C36.2087 16.4021 36.7752 15.2181 36.1388 14.7298ZM34.6022 19.1512C34.139 19.482 33.7887 20.3514 34.2967 20.5683C34.8731 20.8073 35.2093 20.203 35.0619 19.0503C35.0589 19.0089 35.0512 18.969 35.0436 18.9294C35.0395 18.9085 35.0355 18.8877 35.0322 18.8668C34.8594 18.9719 34.714 19.0703 34.6022 19.1512ZM33.2662 12.0595C32.8475 11.986 32.2618 12.2409 32.3253 13.1855C32.3384 13.3676 32.3648 13.6038 32.3977 13.8605C32.797 13.8337 33.1156 13.7849 33.2531 13.6762C33.9026 13.1732 33.6864 12.1302 33.2662 12.0595ZM31.6152 16.8403C30.7724 16.9844 30.614 17.4066 30.7012 17.7058C30.9559 18.5772 32.0975 17.9656 32.137 16.7977C31.9458 16.8037 31.7634 16.8132 31.6152 16.8403ZM28.4272 15.685C27.9979 15.6509 27.7036 14.7074 29.3631 14.4631C29.33 15.317 29.1328 15.7402 28.4272 15.685ZM25.9315 11.6992C25.4087 11.9221 25.2835 13.0681 26.1788 12.8526C26.5937 12.7549 26.8855 12.2532 27.1257 11.5681C26.6914 11.5178 26.3274 11.5287 25.9315 11.6992ZM41.5877 14.367C41.0186 13.9504 41.8812 13.0139 43.0097 13.0695C42.6386 14.4749 41.9711 14.6542 41.5877 14.367ZM39.6581 11.1063C38.9963 11.5285 39.3978 12.3057 40.2265 11.9735C40.466 11.8744 40.6385 11.4585 40.762 10.9133C40.2935 10.908 39.8941 10.9551 39.6581 11.1063ZM37.2679 8.89678C37.3176 8.39724 37.8468 8.24045 38.7672 8.28861C38.2652 9.97565 37.2033 9.50635 37.2679 8.89678ZM35.6021 5.65932C35.8328 5.30497 36.4699 5.25294 37.2569 5.31622C36.5542 7.04052 35.1981 6.27346 35.6021 5.65932ZM64.5064 5.65932C64.9089 6.27346 63.5528 7.04052 62.8522 5.31622C63.6392 5.25294 64.2732 5.30497 64.5064 5.65932ZM62.8388 8.89686C62.9041 9.50643 61.8398 9.97574 61.3374 8.2887C62.262 8.24053 62.788 8.39486 62.8388 8.89686ZM59.8819 11.9735C60.7074 12.3057 61.1092 11.5285 60.4506 11.1063C60.2128 10.9551 59.8159 10.908 59.3439 10.9133C59.4695 11.4585 59.6402 11.8744 59.8819 11.9735ZM58.5194 14.367C58.1342 14.6542 57.4674 14.4749 57.0988 13.0695C58.2234 13.0139 59.087 13.9504 58.5194 14.367ZM69.7691 11.324C69.8837 11.3289 70.0192 11.3254 70.1628 11.3201C70.1604 11.2823 70.1582 11.2447 70.156 11.2072C70.1486 11.081 70.1412 10.956 70.1293 10.8311C70.0005 9.3311 69.0371 9.47629 68.7266 9.93575C68.4924 10.2817 68.7922 11.2663 69.7691 11.324ZM72.0729 10.1404C71.6228 8.33567 71.0454 6.0205 68.399 7.36306C65.9521 8.60857 63.2548 13.7421 61.5174 17.4924C62.7919 17.5897 63.8848 17.8453 64.6719 18.1638C64.7086 17.9732 64.7482 17.7804 64.7877 17.588C64.8355 17.3549 64.8832 17.1223 64.9255 16.8951C64.7777 16.8916 64.6426 16.8828 64.5213 16.8691C63.5645 16.7534 62.702 15.3307 63.8986 14.4554C64.5527 13.9798 65.6219 14.37 65.5951 15.7427C65.5907 15.8931 65.5763 16.0299 65.5622 16.1649C65.556 16.2236 65.5499 16.2821 65.5447 16.3411L65.5591 16.3402C66.1379 16.3038 66.8246 16.2606 67.4627 16.2676C67.4871 15.6851 67.5657 15.0105 67.6437 14.4041C67.093 14.3587 66.729 14.2519 66.4929 14.0153C65.8615 13.3853 65.9849 11.9166 66.9269 11.7415C67.7816 11.5826 68.247 12.1732 68.3475 12.7954C68.3771 12.9628 68.338 13.3811 68.2766 13.887C68.4734 13.8908 68.68 13.8932 68.8918 13.8957C69.317 13.9007 69.7633 13.9059 70.1932 13.9235C70.194 13.8301 70.195 13.7307 70.1961 13.6259C70.2013 13.1364 70.2077 12.5315 70.1897 11.8895C70.1617 11.8908 70.1356 11.8927 70.1097 11.8945C70.0652 11.8977 70.0216 11.9007 69.9713 11.9007C68.2614 11.932 68.0593 10.5396 68.3196 9.9947C68.5249 9.55808 69.0725 9.18404 69.7692 9.33099C70.2553 9.43258 70.6804 9.76408 70.7757 11.269C71.0051 11.2464 71.2467 11.2181 71.4927 11.1892C71.7738 11.1563 72.0606 11.1227 72.3417 11.0961C72.258 10.8296 72.1723 10.5304 72.0866 10.1954L72.0729 10.1404ZM69.4044 17.7058C69.494 17.4066 69.332 16.9844 68.4917 16.8403C68.3436 16.8132 68.1612 16.8037 67.9696 16.7977C68.0091 17.9656 69.1511 18.5772 69.4044 17.7058ZM67.7105 13.8605C67.7423 13.6038 67.7677 13.3676 67.7811 13.1855C67.846 12.2409 67.2604 11.986 66.8423 12.0595C66.4187 12.1302 66.2017 13.1732 66.8526 13.6762C66.9909 13.7849 67.3087 13.8337 67.7105 13.8605ZM63.9704 14.7298C63.335 15.2181 63.8981 16.4021 64.8259 16.3775C64.8809 16.3775 64.9532 16.3722 65.0178 16.368C65.064 16.0583 65.0908 15.7679 65.0862 15.5099C65.0679 14.8314 64.3447 14.444 63.9704 14.7298ZM65.8101 20.5683C66.3192 20.3514 65.9699 19.482 65.5081 19.1512C65.391 19.0689 65.2485 18.9719 65.0756 18.8668C65.0715 18.8913 65.0663 18.9156 65.0611 18.9401C65.0534 18.9762 65.0457 19.0126 65.041 19.0503C64.8982 20.203 65.2333 20.8073 65.8101 20.5683ZM73.9269 12.8526C74.8248 13.0681 74.6974 11.9221 74.1742 11.6992C73.7763 11.5287 73.4165 11.5178 72.9822 11.5681C73.2232 12.2532 73.5131 12.7549 73.9269 12.8526ZM71.6821 15.685C70.9769 15.7402 70.7794 15.317 70.7441 14.4631C72.4036 14.7074 72.1076 15.6509 71.6821 15.685ZM79.4942 19.0216C80.0269 14.1651 73.5799 17.568 70.4839 20.2319C69.4379 21.1315 68.3245 22.1777 67.1921 23.2612C68.2138 23.857 69.0407 24.5204 69.6203 25.0892C69.8457 24.8013 70.1078 24.4525 70.3544 24.063C70.069 23.9231 69.7963 23.7586 69.5674 23.5276C69.0336 22.9943 69.3547 21.3017 70.5224 21.3147C71.6206 21.334 71.7532 22.357 71.4932 23.0516C71.4082 23.2728 71.2893 23.5139 71.1521 23.7586C71.4162 23.8673 71.6806 23.9592 71.9061 24.0377C72.0767 24.097 72.225 24.1485 72.3342 24.1938C72.3757 24.2099 72.4203 24.227 72.4676 24.2451C72.622 24.3042 72.8044 24.374 72.9943 24.4539C73.2231 23.9419 73.5146 23.4055 73.7836 22.9104C73.8119 22.8582 73.84 22.8065 73.8678 22.7553C73.412 22.5637 73.0595 22.3331 72.9308 22.0392C72.4725 21.0078 73.1791 19.699 74.1464 20.0034C75.4359 20.4077 75.0598 21.5337 74.7109 22.2986C74.6985 22.3268 74.6841 22.3591 74.6675 22.3918C74.7898 22.4299 74.9145 22.4659 75.039 22.5018C75.1721 22.5402 75.3049 22.5786 75.4341 22.6193C75.4813 22.6329 75.5332 22.6476 75.5891 22.6636C75.8563 22.7396 76.2142 22.8414 76.5792 22.9673C76.6768 22.6983 76.7896 22.409 76.9102 22.0998C77.015 21.8312 77.1256 21.5476 77.2371 21.2493C76.7397 21.063 76.3534 20.8499 76.219 20.6218C75.7541 19.8431 76.2222 17.9483 77.5656 18.6289C78.3565 19.0325 78.3008 19.9918 78.0129 20.947C78.3285 21.032 78.6618 21.1058 78.9932 21.1792C79.1193 21.2071 79.2452 21.235 79.3697 21.2634C79.3591 20.6538 79.3958 19.9173 79.4942 19.0216ZM77.4838 20.5478C77.512 20.4686 77.5403 20.3888 77.5652 20.3064C78.1818 18.3922 76.2334 18.458 76.3894 19.7724C76.4493 20.2494 76.8554 20.5412 77.4131 20.7553C77.435 20.6855 77.4593 20.6169 77.4838 20.5478ZM77.1751 25.1292C77.7618 25.4062 78.3203 24.3951 77.276 23.8313C77.1751 23.7733 77.0485 23.7237 76.9084 23.6706C76.683 24.4373 76.7804 24.9446 77.1751 25.1292ZM74.1585 22.2182C74.3387 21.8716 74.4802 21.5725 74.537 21.3608C74.815 20.3062 73.3904 19.7061 73.1738 20.9133C73.0486 21.6122 73.5146 21.9662 74.1585 22.2182ZM73.0984 26.3154C73.4731 27.1598 74.6087 26.4883 73.9423 25.7371C73.7468 25.5174 73.5235 25.3553 73.2861 25.2112C73.1051 25.6931 73.0085 26.1013 73.0984 26.3154ZM70.6577 23.5299C70.8443 23.1724 70.9988 22.7938 71.0722 22.4155C71.202 21.7469 69.9712 21.06 69.7691 22.386C69.6939 22.876 70.1208 23.2476 70.6577 23.5299ZM69.6092 25.9814C69.0659 26.6749 68.898 27.6568 69.5644 27.7007C70.1176 27.7391 70.404 27.017 69.9267 26.1698C69.8809 26.09 69.8047 25.9828 69.7041 25.8594C69.671 25.9012 69.635 25.9473 69.6092 25.9814ZM80.3926 23.4404C81.3913 23.7969 81.7529 22.3728 80.0151 21.9949C79.959 21.9812 79.9001 21.9682 79.8398 21.958C79.8945 22.7201 80.0483 23.3184 80.3926 23.4404ZM83.0161 29.2361C83.7492 25.4626 78.2331 26.6856 73.2053 29.8253C73.0823 29.902 72.8895 30.0264 72.6377 30.1888C71.8326 30.7083 70.4244 31.617 68.7663 32.5993C69.1681 32.941 69.5336 33.2679 69.8405 33.5576C70.278 33.9738 70.6177 34.3475 70.8802 34.6892C71.1385 34.4242 71.4086 34.156 71.6685 33.8978C71.7356 33.8312 71.8019 33.7653 71.8672 33.7003C71.3748 33.3516 70.7789 32.7167 71.5035 31.6515C72.0595 30.8373 73.7983 30.9094 73.477 32.4692C73.4276 32.7132 73.1073 33.0949 72.6871 33.5372C72.8481 33.6205 73.0042 33.6906 73.1335 33.7487C73.2426 33.7977 73.3326 33.8381 73.3905 33.8708C73.4789 33.9175 73.6238 33.9873 73.7997 34.0719C74.0207 34.1782 74.2905 34.308 74.5582 34.4452C74.7394 34.1631 74.9381 33.909 75.1127 33.6856C75.1696 33.6128 75.224 33.5432 75.2744 33.4771C75.4241 33.2848 75.5965 33.0799 75.7726 32.8705C75.8467 32.7824 75.9214 32.6936 75.9955 32.6045C75.3252 32.2667 75.0027 31.9247 75.1445 31.0377C75.3481 29.7511 76.9127 29.6228 77.3621 30.7055C77.6002 31.2676 77.4556 31.6297 76.8838 32.3848C77.0399 32.4644 77.1843 32.5322 77.2987 32.586C77.3906 32.6292 77.4633 32.6633 77.5071 32.6871C77.5961 32.7324 77.6878 32.7785 77.781 32.8254C78.0837 32.9777 78.4032 33.1385 78.7023 33.3037C79.0466 32.836 79.4932 32.3223 79.911 31.8419C79.9668 31.7778 80.022 31.7142 80.0764 31.6515C79.5807 31.3446 79.2452 31.0047 79.1884 30.5607C79.1048 29.8836 79.7804 28.9176 80.6532 29.1028C81.7715 29.3391 81.7976 30.2731 81.2346 31.0813C81.1866 31.1463 81.0592 31.2986 80.8864 31.5021C81.1354 31.6163 81.3736 31.7082 81.5456 31.7746C81.6187 31.8028 81.6799 31.8264 81.7249 31.8452C81.8231 31.8873 81.929 31.9308 82.0399 31.9764C82.1569 32.0246 82.2794 32.0749 82.404 32.1282C82.4995 31.4394 82.6717 30.7205 82.8177 30.111C82.8971 29.7795 82.9688 29.4804 83.0161 29.2361ZM83.0156 34.2042C83.8301 35.1407 84.6281 33.8322 83.1884 33.1042C83.0586 33.0365 82.925 32.9734 82.7924 32.9107L82.7503 32.8908C82.6935 33.4396 82.745 33.8899 83.0156 34.2042ZM79.7413 30.0115C79.5141 30.5339 79.9096 30.948 80.4123 31.2521C80.7735 30.8222 81.0476 30.4478 81.1044 30.2158C81.2773 29.4649 80.2031 28.9436 79.7413 30.0115ZM78.5461 34.7078C78.4476 35.6489 79.2989 35.8176 79.5568 35.4665C79.9004 34.9968 79.7229 34.6143 78.8523 34.0575C78.6819 34.3239 78.5616 34.5567 78.5461 34.7078ZM75.5254 31.1094C75.5007 31.4705 75.9222 31.8269 76.3854 32.1089C76.7417 31.623 76.9883 31.1463 76.8694 30.7632C76.584 29.8362 75.5836 30.1894 75.5254 31.1094ZM74.7273 36.6776C75.0589 36.9581 76.2015 36.4839 75.2741 35.4708C75.1848 35.3706 75.0067 35.2574 74.7904 35.1368C74.2362 36.0772 74.4553 36.4449 74.7273 36.6776ZM72.9596 32.3657C73.2471 31.341 71.9814 31.1174 71.6822 32.0071C71.491 32.5714 71.8357 32.9876 72.2696 33.2885C72.6259 32.9134 72.8936 32.5879 72.9596 32.3657ZM70.1443 36.5869C70.0617 37.092 70.1753 37.3321 70.5264 37.3926C70.8537 37.4503 71.5501 37.1033 70.8513 35.6374C70.8305 35.5994 70.8051 35.5555 70.7828 35.5168C70.441 35.9221 70.1891 36.293 70.1443 36.5869ZM69.2152 40.2075C73.3671 38.8314 79.1426 36.9172 81.6517 37.0894C84.5409 37.2891 84.8214 38.5923 84.5966 39.7921C84.4668 40.4826 84.0686 41.3251 83.6779 42.1518C83.475 42.581 83.2741 43.0059 83.1139 43.4031C83.7055 43.7933 84.1578 44.2053 84.2315 44.701C84.4192 45.924 83.0374 46.3814 82.4729 45.4487C82.2193 45.0321 82.3071 44.3456 82.5385 43.6713C82.0334 43.3349 81.3751 42.9503 80.5238 42.493C80.4526 42.5552 80.3802 42.618 80.307 42.6817C80.0827 42.8764 79.8498 43.0786 79.6137 43.2948L79.5565 43.3474C79.2836 43.5979 79.0515 43.8111 78.8495 44.0078C79.2171 44.2809 79.4994 44.5597 79.5904 44.8219C79.9276 45.7964 79.1713 46.3325 78.7254 46.3325C78.3292 46.3325 77.6515 46.0428 77.624 45.319C77.6074 44.8743 77.7422 44.5062 78.0339 44.1027C77.5387 43.7871 76.9989 43.5034 76.625 43.3069C76.4332 43.206 76.2851 43.1282 76.209 43.0807C76.1684 43.0519 76.1289 43.0266 76.0894 42.9985C75.9362 43.1297 75.7798 43.2604 75.63 43.3857C75.3848 43.5906 75.157 43.781 74.9884 43.9357C74.9633 43.9574 74.9343 43.9823 74.9021 44.0099C74.7582 44.1331 74.5503 44.3113 74.3382 44.5129C75.0279 45.1422 75.0543 45.5827 74.9884 45.9261C74.7827 46.9684 73.5942 47.0261 73.1437 46.1166C72.877 45.5739 73.1204 45.0107 73.5332 44.5076C73.1093 44.2139 72.6293 43.9471 72.2163 43.7176C72.0693 43.6359 71.9308 43.5589 71.8063 43.4871C71.3521 43.8078 70.8524 44.1053 70.3879 44.3817C70.335 44.4132 70.2826 44.4444 70.2308 44.4753C70.5324 45.5169 70.5659 46.2734 69.9426 46.7058C68.7837 47.5165 67.5948 45.9873 68.7389 44.9471C69.0575 44.6563 69.3259 44.4472 69.5933 44.2598C69.3577 43.5571 68.9643 42.6663 68.3389 41.5326C68.2697 41.4064 68.1981 41.2791 68.124 41.1554C65.8923 41.8173 63.6268 42.3956 61.3919 42.7798C57.7654 43.3978 54.487 43.2825 53.0011 41.4478C52.8293 42.493 52.2617 43.4404 51.6891 44.0626C51.0986 44.708 50.6096 45.1731 50.3348 45.4248C50.3309 46.7111 50.3309 47.5028 50.3309 47.5028C50.3274 48.5504 50.6795 49.27 51.1652 49.7547C51.6155 49.2499 52.0959 49.102 52.3998 49.0084C52.4207 49.002 52.4408 48.9958 52.4599 48.9898C53.2869 48.7332 54.91 48.7441 55.055 49.8989C55.2176 51.1971 53.3743 51.4003 51.9668 50.9247C51.7029 50.8354 51.4775 50.7043 51.2721 50.5587C51.1356 50.7749 51.009 51.014 50.9077 51.3001C50.5881 52.225 50.3482 53.9107 50.3158 54.9818L50.3153 54.9953C50.3059 55.3004 50.2934 55.7023 50.3062 63.1738C50.3087 63.5313 50.1665 63.6687 50.0536 63.699C49.9411 63.6687 49.8 63.5313 49.8011 63.1738C49.8129 55.7029 49.8004 55.3005 49.7909 54.9953L49.7905 54.9818C49.7577 53.9107 49.5157 52.225 49.1967 51.3001C49.0958 51.014 48.9706 50.7749 48.8337 50.5587C48.6291 50.7043 48.4058 50.8354 48.137 50.9247C46.7319 51.4003 44.8883 51.1971 45.0505 49.8989C45.1948 48.7441 46.818 48.7332 47.6449 48.9898C47.6626 48.9953 47.6811 49.001 47.7003 49.0069C48.0058 49.1003 48.4853 49.247 48.942 49.7547C49.4282 49.27 49.7778 48.5504 49.7778 47.5028C49.7778 47.5028 49.7742 46.7111 49.7725 45.4248C49.4973 45.1731 49.0069 44.708 48.4182 44.0626C47.8463 43.4404 47.2755 42.493 47.1062 41.4478C45.6213 43.2825 42.3398 43.3978 38.7196 42.7798C36.478 42.3956 34.216 41.8173 31.9826 41.1554L31.9583 41.1969C31.8936 41.3075 31.8276 41.4204 31.7645 41.5326C31.1408 42.6663 30.7489 43.5571 30.5118 44.2598C30.7796 44.4472 31.0484 44.6563 31.368 44.9471C32.5149 45.9873 31.325 47.5165 30.1654 46.7058C29.5399 46.2734 29.5784 45.5169 29.8765 44.4753C29.8394 44.4533 29.8021 44.4311 29.7645 44.4088C29.2861 44.1247 28.7702 43.8183 28.3034 43.4871C28.1899 43.5518 28.0656 43.6206 27.9342 43.6934C27.5099 43.9283 27.0127 44.2035 26.5741 44.5076C26.9851 45.0107 27.2313 45.5739 26.9636 46.1166C26.5134 47.0261 25.3246 46.9684 25.1214 45.9261C25.0554 45.5827 25.0783 45.1422 25.7691 44.5129C25.5697 44.3236 25.3746 44.155 25.2336 44.0331C25.1907 43.9961 25.1529 43.9634 25.1214 43.9357C24.958 43.7877 24.7415 43.6071 24.5081 43.4124C24.3483 43.279 24.1805 43.1391 24.0165 42.9985C23.9748 43.0266 23.9382 43.0519 23.8958 43.0807C23.82 43.1281 23.6723 43.2057 23.4811 43.3062C23.107 43.5027 22.5665 43.7868 22.0723 44.1027C22.3634 44.5062 22.4995 44.8743 22.4829 45.319C22.454 46.0428 21.7777 46.3325 21.3812 46.3325C20.9353 46.3325 20.1782 45.7964 20.5151 44.8219C20.6055 44.5597 20.8884 44.2809 21.2567 44.0078C21.0775 43.8339 20.8747 43.647 20.6423 43.4329C20.5937 43.3881 20.5438 43.3421 20.4926 43.2948C20.2571 43.0785 20.0236 42.8761 19.7988 42.6812C19.7255 42.6177 19.6532 42.5551 19.5821 42.493C18.7311 42.9503 18.0725 43.3349 17.5694 43.6713C17.7995 44.3456 17.8852 45.0321 17.6322 45.4487C17.066 46.3814 15.6863 45.924 15.8712 44.701C15.9474 44.2053 16.4007 43.7933 16.9916 43.4031C16.8314 43.006 16.6309 42.5811 16.4283 42.152C16.0381 41.3253 15.6404 40.4826 15.5092 39.7921C15.287 38.5923 15.566 37.2891 18.4532 37.0894C20.9664 36.9169 26.7599 38.8377 30.9119 40.2144C31.184 40.3046 31.449 40.3924 31.7056 40.4772C33.0998 38.3785 35.0112 36.6859 36.8936 35.5205C35.1971 34.7728 33.4046 33.8018 31.8012 32.8699C30.8618 33.6605 30.0712 34.4518 29.5992 35.0944C29.9343 35.4664 30.2067 35.8221 30.3309 36.1255C30.7806 37.2005 29.6747 38.3156 28.7014 37.2195C28.3821 36.8616 28.2431 36.1723 28.9427 35.0899C28.6598 34.787 28.3497 34.4765 28.0497 34.176C27.9782 34.1044 27.9073 34.0334 27.8374 33.9632C27.6887 34.0541 27.3398 34.2051 26.9278 34.3833C26.5707 34.5379 26.1662 34.7129 25.8036 34.887C25.9084 35.1025 25.9966 35.3222 26.0485 35.5557C26.2778 36.5881 25.5243 37.1872 24.8183 37.016C24.0126 36.8216 23.8722 35.775 24.4818 35.1398C24.6077 35.0062 24.8159 34.867 25.0498 34.7243C24.9806 34.623 24.9157 34.5299 24.8314 34.4174C24.4344 33.9038 24.0966 33.4833 23.8125 33.1296C23.7326 33.0301 23.6569 32.9359 23.5854 32.8463C23.5576 32.8587 23.5295 32.8711 23.5011 32.8837C23.2 33.0172 22.8594 33.1681 22.4829 33.3631C22.1912 33.5125 21.9425 33.6468 21.7146 33.7772C21.7834 33.8939 21.8465 34.0092 21.8892 34.1143C22.4801 35.5887 21.3417 35.9564 20.8736 35.9044C20.3515 35.8481 19.5972 35.0241 20.265 34.1425C20.41 33.9516 20.646 33.7649 20.9254 33.5835C20.5197 33.0295 19.992 32.4002 19.5686 31.9056C19.2098 32.0862 18.8041 32.2592 18.3793 32.4404C18.1772 32.5265 17.9709 32.6145 17.7631 32.7061C17.8132 33.4478 17.7282 34.0975 17.3627 34.4599C16.2476 35.5557 15.2623 33.9997 16.1915 33.0158C16.4564 32.7356 16.8558 32.5071 17.2696 32.319C17.2009 31.9592 17.1059 31.5703 17.0056 31.1597C16.7539 30.1287 16.4687 28.961 16.4818 27.7733C16.5058 25.4763 20.0509 25.1905 25.702 28.4823C26.6796 29.0521 27.6574 29.6542 28.6628 30.2733C29.6801 30.8997 30.7255 31.5434 31.8273 32.1886C33.5358 30.7881 35.8772 29.1977 38.3707 28.3846C37.0208 27.216 35.5495 25.7982 34.0744 24.3768C33.8132 24.1251 33.5518 23.8732 33.291 23.6226C32.1618 24.2378 31.3084 24.9254 30.7718 25.4573C31.5162 26.4367 31.8048 27.5595 30.859 27.8886C29.886 28.2274 28.9776 27.2684 29.6302 26.1133C29.7223 25.9495 29.886 25.7315 30.11 25.4805C29.8511 25.1371 29.5442 24.7156 29.2662 24.2789C29.0018 24.3776 28.729 24.463 28.4554 24.5486C28.0694 24.6693 27.6819 24.7905 27.3146 24.9504C27.4596 25.3473 27.5439 25.7097 27.5143 25.9966C27.3753 27.2656 25.4971 27.3852 25.5832 25.8521C25.6117 25.3392 26.0813 24.9711 26.6034 24.6941C26.3453 24.1222 26.0212 23.5083 25.7649 23.023C25.7515 22.9977 25.7383 22.9726 25.7253 22.948C25.3177 23.0812 24.8729 23.1981 24.4469 23.31C24.1891 23.3778 23.9381 23.4438 23.7064 23.5105C23.8722 24.0786 23.923 24.537 23.7293 24.8692C23.1211 25.9101 21.2948 25.4517 22.0328 23.9017C22.1764 23.6061 22.5658 23.3656 23.0146 23.1681C23.0025 23.1412 22.993 23.1156 22.9832 23.0895C22.9767 23.0722 22.9702 23.0546 22.9627 23.0362C22.923 22.9484 22.8744 22.8453 22.8201 22.73C22.6587 22.3873 22.4463 21.9365 22.2639 21.4568C21.7499 21.6122 21.1992 21.7503 20.7113 21.8593C20.5543 23.8395 19.7775 24.0276 19.0931 23.772C18.5202 23.5607 18.0023 22.3138 19.509 21.6347C19.7369 21.5338 20.0012 21.4501 20.2837 21.3759C20.2965 20.2725 20.1627 19.0106 20.0919 18.3429C20.0862 18.2899 20.081 18.2407 20.0763 18.1955C19.7006 14.5578 23.4616 15.7263 25.8167 16.9405C27.8621 17.9923 31.1246 20.8402 33.435 22.9768C33.4763 22.956 33.5163 22.9338 33.5567 22.9113C33.6035 22.8852 33.6509 22.8588 33.702 22.8338C35.6419 21.8702 38.2476 21.5833 40.4764 21.7798C40.3942 21.5963 40.3113 21.4083 40.2259 21.2082C40.1648 21.0675 40.0906 20.8943 40.0043 20.6929C39.7146 20.0165 39.2886 19.0223 38.7651 17.8721C37.2753 17.9273 36.2268 18.263 35.5121 18.6075C35.5626 18.9123 35.5971 19.2062 35.601 19.4699C35.6112 20.3695 35.0937 21.216 34.1211 20.7695C33.8227 20.6324 32.9224 19.8942 34.513 18.6582C34.6323 18.5678 34.7783 18.4757 34.9434 18.3878C34.911 18.2321 34.876 18.0744 34.8402 17.9137C34.7679 17.5883 34.6927 17.2502 34.6309 16.8899C34.3465 16.8805 34.0426 16.8633 33.7363 16.846C33.3645 16.825 32.9892 16.8038 32.6409 16.796C32.6398 16.8181 32.639 16.8406 32.6383 16.863C32.6366 16.915 32.6349 16.9667 32.6292 17.0119C32.498 18.1804 31.5839 18.8614 30.7718 18.2862C30.3432 17.9786 30.1516 16.9845 31.0484 16.5215C31.3056 16.3907 31.6859 16.3239 32.1159 16.2951C32.0799 15.8199 31.999 15.1969 31.9214 14.6002C31.9137 14.5415 31.9061 14.483 31.8986 14.4249C31.5424 14.4321 31.1359 14.4219 30.6566 14.4099C30.6004 14.4084 30.5432 14.407 30.485 14.4056C30.2758 14.4007 30.0885 14.4042 29.9132 14.4115C29.9111 14.4822 29.9086 14.5511 29.9047 14.6007C29.7883 15.8581 28.907 16.2424 28.1644 15.8581C27.4395 15.4834 27.5996 14.1254 29.2372 13.9676C29.2778 13.964 29.3254 13.9598 29.3674 13.9538C29.3639 13.6763 29.3515 13.3643 29.3378 13.0206C29.3326 12.888 29.3271 12.7507 29.3219 12.6088C29.3106 12.3361 29.3106 12.0917 29.3106 11.8611C28.6243 11.8105 28.1004 11.72 27.6615 11.6442C27.6341 11.6394 27.607 11.6348 27.5802 11.6302C27.013 13.1305 26.4584 13.2761 26.0199 13.2272C25.1108 13.1305 24.6003 11.5542 26.1081 11.1222C26.3977 11.0357 26.8193 11.0315 27.2878 11.0603C27.407 10.6471 27.5163 10.1929 27.6274 9.73127C28.0422 8.00777 28.482 6.18093 29.5516 5.99848C32.0866 5.56679 34.8711 9.52408 36.5574 12.1301C37.337 13.3372 38.262 15.3667 39.1874 17.4664C42.3031 17.3606 46.3057 18.2166 49.5587 21.2729C49.0154 19.0593 47.1326 14.0396 43.5272 13.1573C43.4323 13.5446 43.3138 13.8927 43.1678 14.1542C42.5028 15.3213 40.8458 14.7968 41.0666 13.6322C41.1753 13.0528 41.9694 12.5779 43.1046 12.6503C43.1706 12.2949 43.2256 11.8815 43.2545 11.3939C43.2591 11.3117 43.2634 11.2442 43.2697 11.1689C43.0876 11.1471 42.8968 11.1222 42.7017 11.0967C42.2637 11.0396 41.8038 10.9796 41.3711 10.9443C41.1425 12.0436 40.7484 12.3849 40.1649 12.4503C38.8956 12.5849 38.7474 10.8888 39.7751 10.5284C39.9638 10.4616 40.3526 10.4275 40.8578 10.4314C40.9576 9.83273 41.0169 9.16305 41.0564 8.60093C40.4104 8.48211 39.8439 8.39388 39.3535 8.33798C39.2653 8.64312 39.1641 8.92259 39.0364 9.12508C38.4102 10.101 36.949 10.0489 37.0202 8.83752C37.0767 7.91473 38.0553 7.75231 38.3171 7.74282C38.4991 7.7372 38.6966 7.74071 38.8949 7.75021C38.9291 7.57127 38.9556 7.37863 38.9785 7.16208C39.0364 6.5634 39.0896 6.04277 39.1482 5.59491C38.6465 5.50492 38.1364 5.41562 37.6627 5.35832C37.5222 5.68807 37.361 5.9911 37.1677 6.23893C36.3397 7.28336 35.062 6.64356 35.2094 5.71865C35.2892 5.18888 35.5696 4.98253 36.224 4.8507C36.5479 4.78601 36.9656 4.79445 37.4178 4.83066C37.4898 4.56355 37.5628 4.27946 37.6374 3.9887C37.982 2.6459 38.3632 1.16087 38.8614 0.548544C39.5207 -0.265273 41.4215 -0.534553 44.5436 3.01671C47.4844 6.36514 49.0394 11.4625 49.5862 14.355C49.8317 15.6525 49.9714 16.737 50.0536 17.7104C50.1323 16.737 50.2724 15.6525 50.5183 14.355C51.0647 11.4625 52.6212 6.36514 55.5619 3.01671C58.6861 -0.534553 60.5869 -0.265273 61.2448 0.548544C61.7423 1.16104 62.1248 2.6467 62.4706 3.98978C62.5454 4.28016 62.6184 4.56388 62.6905 4.83066C63.1424 4.79445 63.5601 4.78601 63.8811 4.8507C64.5352 4.98253 64.8153 5.18888 64.8979 5.71865C65.0407 6.64356 63.7668 7.28336 62.9399 6.23893C62.7466 5.9911 62.5864 5.68807 62.4443 5.35832C61.9691 5.41562 61.46 5.50492 60.9587 5.59491C61.0176 6.04277 61.0706 6.5634 61.1295 7.16208C61.1517 7.37863 61.1767 7.57127 61.2113 7.75021C61.4113 7.74071 61.6071 7.7372 61.7906 7.74282C62.053 7.75231 63.0278 7.91473 63.0846 8.83752C63.159 10.0489 61.695 10.101 61.0706 9.12508C60.9404 8.92259 60.8398 8.64312 60.7524 8.34009C60.2652 8.39388 59.6975 8.48211 59.0509 8.60093C59.0897 9.16305 59.149 9.83273 59.2488 10.4314C59.7561 10.4275 60.1427 10.4616 60.3304 10.5284C61.3598 10.8888 61.2113 12.5849 59.942 12.4503C59.3585 12.3849 58.9609 12.0436 58.738 10.9443C58.3027 10.9796 57.8418 11.0397 57.4031 11.0969C57.2082 11.1223 57.0177 11.1471 56.8358 11.1689C56.8422 11.2442 56.8475 11.3117 56.8531 11.3939C56.8834 11.8815 56.9363 12.2949 57.0013 12.6503C58.1379 12.5779 58.9299 13.0528 59.0407 13.6322C59.2619 14.7968 57.6042 15.3213 56.9385 14.1542C56.7917 13.8927 56.6746 13.5446 56.5825 13.1573C52.9753 14.0396 51.0898 19.0593 50.5493 21.2729C53.7994 18.2166 57.8035 17.3606 60.9199 17.4664C61.8467 15.3667 62.7699 13.3372 63.5485 12.1301C65.2358 9.52408 68.0182 5.56679 70.5585 5.99848C71.6189 6.18015 72.0575 7.99227 72.4731 9.70929C72.5867 10.1785 72.6986 10.6405 72.8209 11.0603C73.2848 11.0315 73.7067 11.0357 74.0006 11.1222C75.5077 11.5542 74.9961 13.1305 74.0867 13.2272C73.6478 13.2761 73.095 13.1305 72.5249 11.6302C72.4985 11.6347 72.4717 11.6394 72.4446 11.644C72.0065 11.7199 71.4834 11.8105 70.797 11.8611C70.7977 12.0917 70.797 12.3361 70.7857 12.6088C70.7803 12.7606 70.7745 12.9072 70.769 13.0483C70.7559 13.3811 70.7441 13.6838 70.7399 13.9538C70.7797 13.9598 70.8288 13.964 70.8683 13.9676C72.5069 14.1254 72.666 15.4834 71.9443 15.8581C71.2009 16.2424 70.3179 15.8581 70.2026 14.6007C70.1979 14.5617 70.1969 14.5107 70.1958 14.4563C70.1955 14.4416 70.1952 14.4266 70.1948 14.4115C70.0184 14.4042 69.8318 14.4007 69.623 14.4056C69.5637 14.407 69.5054 14.4085 69.4483 14.4099C68.9689 14.422 68.5634 14.4321 68.2066 14.4249C68.1963 14.5055 68.1859 14.587 68.1754 14.6688C68.1015 15.2443 68.0253 15.838 67.9914 16.2951C68.4172 16.3239 68.7989 16.3907 69.0575 16.5215C69.9563 16.9845 69.7648 17.9786 69.3319 18.2862C68.5198 18.8614 67.6086 18.1804 67.4781 17.0119C67.4717 16.9634 67.4701 16.9074 67.4686 16.8516C67.468 16.833 67.4675 16.8144 67.4668 16.796C67.1183 16.8038 66.7424 16.825 66.3701 16.846C66.0637 16.8634 65.7597 16.8805 65.4757 16.8899C65.4109 17.2672 65.3314 17.6201 65.2549 17.9598C65.2222 18.1046 65.1901 18.247 65.16 18.3878C65.3282 18.4757 65.4729 18.5678 65.5942 18.6582C67.186 19.8942 66.2839 20.6324 65.9841 20.7695C65.0143 21.216 64.496 20.3695 64.5066 19.4699C64.5094 19.2062 64.5454 18.9123 64.5952 18.6075C63.8811 18.263 62.8313 17.9273 61.3422 17.8721C60.8133 19.034 60.3838 20.0367 60.094 20.7134C60.0115 20.9061 59.9403 21.0723 59.8813 21.2082C59.7987 21.4059 59.7155 21.5918 59.6342 21.7732L59.6312 21.7798C61.8573 21.5833 64.465 21.8702 66.4032 22.8338C66.4557 22.8598 66.5054 22.8873 66.5544 22.9143C66.5932 22.9358 66.6315 22.9569 66.6702 22.9768C68.9844 20.8402 72.2459 17.9923 74.2909 16.9405C76.644 15.7263 80.4042 14.5578 80.0324 18.1955L80.0256 18.257C79.9548 18.8974 79.8081 20.2231 79.8214 21.3759C80.104 21.4501 80.3686 21.5338 80.594 21.6347C82.1018 22.3138 81.5864 23.5607 81.0138 23.772C80.3294 24.0276 79.554 23.8395 79.3946 21.8593C78.9077 21.7503 78.3542 21.6122 77.8402 21.4568C77.6629 21.9293 77.4544 22.3737 77.2946 22.7144C77.2375 22.8361 77.1866 22.9445 77.1456 23.0362C77.1322 23.0644 77.1219 23.0908 77.1115 23.1173C77.1049 23.134 77.0983 23.1508 77.0909 23.1681C77.5393 23.3656 77.9316 23.6061 78.0731 23.9017C78.8111 25.4517 76.9872 25.9101 76.378 24.8692C76.1832 24.537 76.2326 24.0786 76.3995 23.5105C76.168 23.4439 75.9174 23.378 75.6599 23.3102C75.2339 23.1982 74.7891 23.0812 74.3812 22.948L74.342 23.0222C74.0852 23.5085 73.7612 24.1218 73.5035 24.6941C74.0249 24.9711 74.4917 25.3392 74.522 25.8521C74.6088 27.3852 72.7317 27.2656 72.5927 25.9966C72.5634 25.7097 72.6435 25.3473 72.7909 24.9504C72.4238 24.7904 72.0362 24.6692 71.6499 24.5484C71.3765 24.4629 71.1039 24.3776 70.8397 24.2789C70.5621 24.7156 70.2559 25.1371 69.9962 25.4805C70.2234 25.7315 70.3846 25.9495 70.4767 26.1133C71.1311 27.2684 70.2192 28.2274 69.2458 27.8886C68.3032 27.5595 68.5893 26.4367 69.3319 25.4591C68.7989 24.9254 67.9466 24.2378 66.8156 23.6226C66.544 23.8833 66.2718 24.1453 65.9999 24.4072C64.5343 25.8184 63.0741 27.2243 61.7345 28.3846C64.2304 29.1956 66.5683 30.7881 68.2792 32.1886C69.3699 31.5502 70.4042 30.9132 71.4112 30.293C72.4275 29.667 73.4161 29.0582 74.4066 28.4823C80.0567 25.1905 83.5993 25.4763 83.6258 27.7733C83.6371 28.96 83.3514 30.1268 83.0991 31.1572C82.9983 31.5687 82.9029 31.9585 82.8338 32.319C83.2494 32.5071 83.6494 32.7335 83.9165 33.0158C84.8415 33.9997 83.8562 35.5557 82.7432 34.4599C82.3809 34.0975 82.2941 33.4478 82.3413 32.7061C82.1318 32.6135 81.9231 32.5245 81.7188 32.4373C81.2965 32.2573 80.893 32.0852 80.539 31.9056C80.116 32.4002 79.5861 33.0295 79.178 33.5835C79.4602 33.7649 79.6969 33.9516 79.8401 34.1425C80.5104 35.0241 79.7541 35.8481 79.2344 35.9044C78.7638 35.9564 77.6247 35.5887 78.2177 34.1143C78.2583 34.0092 78.3214 33.8939 78.3902 33.7772C78.163 33.6468 77.9157 33.5125 77.624 33.3631C77.2386 33.1645 76.892 33.0116 76.5853 32.8764L76.5173 32.8463C76.4259 32.9615 76.3276 33.0845 76.222 33.2165C75.9539 33.5517 75.6393 33.9452 75.2738 34.4174C75.1909 34.5299 75.126 34.623 75.0543 34.7243C75.2918 34.867 75.496 35.0062 75.6237 35.1398C76.2326 35.775 76.0926 36.8216 75.2893 37.016C74.5841 37.1872 73.8302 36.5881 74.0581 35.5557C74.1107 35.3222 74.1967 35.1025 74.3033 34.887C73.9393 34.7119 73.5322 34.5359 73.1733 34.3808C72.7635 34.2037 72.4166 34.0537 72.2685 33.9632C72.2148 34.017 72.1606 34.0712 72.1059 34.1258C71.79 34.4418 71.4616 34.7703 71.1632 35.0913C71.8606 36.1723 71.7238 36.8616 71.4042 37.2195C70.4305 38.3156 69.3259 37.2005 69.7736 36.1255C69.901 35.8221 70.1733 35.4664 70.5067 35.0944C70.0361 34.4518 69.2458 33.6605 68.3046 32.8699C66.7023 33.8018 64.9091 34.7728 63.2137 35.5205C65.0936 36.6859 67.0061 38.3785 68.4006 40.4772C68.6638 40.3903 68.9358 40.3001 69.2152 40.2075ZM90.8162 74.0492C90.8162 72.4494 92.4266 71.5877 94.0032 71.5877C96.9461 71.5877 97.997 73.305 98.595 75.9683H99.189V71.1058H98.6376C98.5696 71.7698 98.3082 71.9614 97.9769 71.9614C97.7045 71.9614 97.4194 71.8295 97.0537 71.6602C96.3997 71.3576 95.4879 70.9356 93.9302 70.9356C91.3937 70.9356 88.8985 72.6378 88.8985 75.3524C88.8985 78.0853 91.3847 79.0229 93.7583 79.9181C95.9264 80.7358 98.0005 81.518 98.0005 83.6006C98.0005 85.5499 96.2253 86.5683 94.5154 86.5683C91.2215 86.5683 89.675 83.9961 89.2774 81.6165H88.708V86.9662H89.2622C89.3755 86.382 89.7201 86.3046 89.9561 86.3046C90.3735 86.3046 90.811 86.4522 91.3375 86.6297C92.1331 86.898 93.132 87.2348 94.5719 87.2348C97.6601 87.2348 100.012 85.0904 100.012 82.386C100.012 79.4011 97.5231 78.5864 95.1352 77.8047C92.9329 77.0837 90.8162 76.3908 90.8162 74.0492ZM4.0232 78.4238H5.67667C7.50194 78.4238 9.01536 77.7928 9.01536 74.9109C9.01536 72.0251 7.4843 71.7664 5.69713 71.7664H4.0232V78.4238ZM7.93018 78.6785C9.66338 78.8427 11.0315 79.5869 11.4403 82.2544C11.4908 82.5851 11.521 82.958 11.5519 83.3407C11.6814 84.9424 11.8249 86.7173 13.5316 86.2999V86.9665C10.2116 87.7191 9.37481 86.1337 9.10846 84.3707C9.02211 83.8078 8.97429 83.4287 8.92932 83.0723C8.88372 82.7108 8.84106 82.3727 8.76415 81.8899C8.48264 80.0949 8.26285 79.1992 5.87878 79.1992H4.02281V86.2999H5.70627V86.9665H0.0117188V86.2999H1.62462V71.7666H0.0117188V71.1025H5.69674C8.30977 71.1025 11.8284 71.5915 11.8284 74.9367C11.8284 77.1167 10.0634 78.2476 7.93018 78.6785ZM65.2952 86.2999C69.0064 86.2999 70.2729 85.2056 70.5181 81.6695H71.0713V86.9665H59.6021V86.2999H61.2146V71.7701L59.6021 71.7666V71.1025H65.2878V71.7701H63.6135V86.2999H65.2952ZM79.0352 86.2999C82.7479 86.2999 84.0101 85.2056 84.2574 81.6695H84.8088L84.8109 86.9665H73.3417V86.2999H74.9553V71.7701H73.3417V71.1025H84.3213V75.5263H83.767C83.4792 72.9041 82.5186 71.7701 80.6294 71.7701H77.3542V78.4848H79.0769C80.0473 78.4848 80.7642 78.0567 80.7642 76.2206H81.3946V81.3988L80.7642 81.3956C80.7642 79.5602 80.0473 79.1317 79.0769 79.1317H77.3542V86.2999H79.0352ZM45.4239 71.7666H47.0375V86.2999H45.4239V86.9665H51.0701V86.2999H49.4381V79.131H51.1604C52.133 79.131 52.8449 79.5602 52.8449 81.3956H53.4817V76.2206H52.8449C52.8449 78.0567 52.133 78.4831 51.1604 78.4831H49.4381V71.7666H52.4632C54.3495 71.7666 55.3137 72.9041 55.6019 75.5263H56.1543V71.1025H45.4239V71.7666ZM32.8519 71.7666H31.2387V71.1025H41.9656V75.5263H41.4135C41.1257 72.9041 40.1605 71.7666 38.2777 71.7666H35.2508V78.4831H36.9724C37.9457 78.4831 38.6576 78.0567 38.6576 76.2206H39.2919V81.3956H38.6576C38.6576 79.5602 37.9457 79.131 36.9724 79.131H35.2508V86.2999H36.8828V86.9665H31.2387V86.2999H32.8519V71.7666ZM18.7382 81.291L21.0532 74.655L23.6232 81.2945L18.7382 81.291ZM22.2865 71.1016H21.6106L16.8089 84.7618C16.454 85.7767 15.9337 86.2991 15.2387 86.2991H14.6704V86.9656H19.0568V86.2991H18.3774C17.2785 86.2991 17.2421 85.5672 17.5113 84.8064L18.485 82.0113H23.8987L25.5617 86.2991H23.8384V86.9656H29.8469V86.2991H28.0971L22.2865 71.1016Z" fill="white"/>
</svg>
