<svg fill="none" height="88" viewBox="0 0 101 88" width="101" xmlns="http://www.w3.org/2000/svg"><path clip-rule="evenodd" d="m82.7424 43.1643c.0137-.0292.0264-.0629.043-.0974 1.1726-2.4692 1.3931-4.088.4642-4.7363-1.4724-1.0254-4.8704-.5909-9.2801.9249-1.7001.5871-3.4608 1.1749-5.2416 1.7159.4286.7105.798 1.4666 1.0834 2.2548.0913.2542.1767.4936.2511.7245l.1678-.102c.161-.0979.3328-.2024.5244-.3191.1947-.1206.3775-.2401.5482-.3582-.006-.0052-.013-.0101-.02-.0149-.0115-.0079-.0228-.0157-.0294-.0249-.8371-.7783-.459-2.2688.5147-2.4597 1.2295-.2415 1.6302 1.0761 1.216 1.7015-.177.2735-.4328.5329-.7348.7765.0155.0092.0309.0184.0463.0276.0682.0408.1357.0811.2123.1218.5743.3059 1.0167.5874 1.3635.8374.056-.0563.115-.1115.1742-.1668.0232-.0217.0465-.0434.0696-.0652.2329-.2063.509-.4348.7952-.6717.2265-.1875.4593-.3801.6818-.571-.4371-.3256-.6092-.5892-.6092-1.1415-.0028-.6904.6555-1.3805 1.209-1.3868.9207-.0081 1.5772.8103.9433 1.8175-.1171.1852-.3387.4155-.6047.6598.1883.1106.3995.2288.6208.3527.4023.2252.838.469 1.2296.7198.1972-.2098.4293-.4401.7073-.7002.1066-.1013.3031-.2701.5356-.4698.1274-.1094.2655-.2281.4056-.35-1.2693-1.0603-.3009-2.5227.5083-2.5765.8153-.053 1.191.5913 1.2323 1.1689.031.4461-.3179.8782-.8167 1.3499.3645.2433.7669.472 1.1637.6976.2122.1206.4229.2404.6253.3609zm.0362 1.5285c-.0078 1.1506.98 1.2673 1.107.5136.0554-.3234-.2138-.7196-.9603-1.2648-.0839.2707-.1467.5301-.1467.7512zm-2.7726-3.4101c.127.1652.2872.3234.4713.476.3588-.3311.6636-.6426.7253-.8145.1066-.2774.0805-1.0532-.6371-1.0814-.5094-.0242-.8992.9784-.5595 1.4199zm-1.9844 4.0486c.0271.8321 1.2396 1.0287 1.2583.0862.0028-.3182-.3454-.675-.8082-1.0142-.3062.3445-.4611.6289-.4501.928zm-2.0116-3.0571c.0036.0025.007.0051.0104.0076.4904-.456.8477-.875.8206-1.1496-.0977-1.0145-.9832-.806-1.2471-.2443-.1605.3463-.2173.882.3771 1.3566.0118.0097.0257.0199.039.0297zm-2.5469 3.6778c.217.8486 1.1413.5783 1.1935-.0049.0314-.3688-.2487-.7379-.6597-1.0909-.3426.3748-.6149.7815-.5338 1.0958zm-1.9576-4.7773c-.2896.3459-.5528.9421.266 1.6382.8502-.7017 1.1349-1.3229.6318-1.724-.1341-.1093-.5835-.2823-.8978.0858zm-2.7809 4.5505c-.1273.4749.0956.7766.3475.8817.3651.1497 1.1293-.0767.6749-1.8319-.5359.3449-.9444.6574-1.0224.9502zm-12.1918-10.4114c.1111.7238 1.6771 1.4251 5.3135.0987-1.3381-.6327-2.5255-.9607-3.2251-1.0525-.9003-.1146-2.2027.1892-2.0884.9538zm.1429-4.9928c.9656.302 2.2007-.2485 4.0369-1.7524-1.614-.4517-2.6173-.3378-3.4936.0633-.6202.2798-1.44 1.4061-.5433 1.6891zm.8745-5.9258c.3464-.4785.7373-1.197 1.1525-2.0428-1.7515.3368-3.0526 1.042-3.3567 1.8083-.594 1.5036 1.3388 1.4301 2.2042.2345zm7.5616 17.092.0924-.022c.5785-.1406 1.5049-.4303 2.6299-.7983-.381-.6195-.8008-1.2167-1.2333-1.7166-1.2262-1.4006-2.6659-2.432-4.0136-3.1618-1.5836.6556-3.0441 1.0814-4.1253 1.0402-2.5284-.0896-3.3133-1.8979-1.0298-2.9297.9832-.4415 2.988.0383 5.1393 1.2395.556-.2295 1.1557-.4992 1.8016-.8229 1.2249-.6075 2.358-1.2311 3.44-1.8562-1.4366-1.1565-3.1108-2.2688-4.45-2.8784-.7782-.3543-1.4552-.6236-2.0599-.8272-.4452.3765-.8809.7242-1.2894 1.029-1.1754.8651-3.3768 1.9637-3.9588.721-.7938-1.6979 1.3934-2.6861 2.7414-2.658.7849.0172 1.572.1512 2.3502.3586.8583-.7361 1.8376-1.6582 2.9767-2.7902.3204-.3227 1.1148-1.1007 2.1531-2.0692-1.0185-.49-2.2187-.8992-3.5822-1.0873-1.1472-.1606-2.2655-.1497-3.2716-.0218-1.2845 2.7684-2.0913 3.4958-3.2216 3.559-1.3966.0798-1.9442-1.3977-.7532-2.6137.6244-.6405 1.929-1.1059 3.4964-1.319.4949-1.0379 1.0215-2.2319 1.555-3.4416.081-.1838.1622-.3679.2435-.5519-.3295.0057-.6675.0222-1.0337.0549-3.9885.3737-6.8216 1.7756-9.2336 4.2969.0157.0177.0314.0353.047.0529.0754.0847.1501.1687.2243.2575.0516.0618.1248.1411.2136.2371.6564.7104 2.162 2.3398 2.0343 4.6303-.0931 1.6586-1.2234 2.3061-2.4169 2.9048 1.1804.5948 2.5862 1.526 2.4342 3.7105-.1104 1.5689-1.2972 2.388-2.5256 3.1544.2858.1838.5737.3775.87.5986 1.1141.8335 1.5833 1.7824 1.6785 2.708 2.2759 3.3503 8.7664 1.8023 12.0771 1.0126zm-14.7753 2.7006-.001.4978c1.0241-.9347 2.1915-2.3543 2.1231-4.2329-.0512-1.3576-1.0129-2.1258-2.1097-2.8271-.0045 2.4723-.009 4.7923-.0124 6.5622zm.0148-7.4858c1.1828-.7593 2.0627-1.4484 2.0235-3.1073-.0374-1.5777-.9564-2.292-2.0147-2.8647-.0018 1.5842-.0045 3.265-.0072 4.9258zm.0563-13.6219-.0328-.0385c-.0014.6012-.0027 1.5-.0044 2.6033-.0018 1.2102-.004 2.6666-.0069 4.2462 2.0066-1.0462 3.2484-2.6795.6759-6.0469-.2091-.2682-.4185-.5138-.6318-.7641zm4.4275-13.24717c.0427.73047.6661.89257 1.3882.87467-.0101-.0995-.0195-.1948-.0284-.2851-.0291-.2958-.0528-.53668-.0799-.68835-.1481-.81136-1.343-.9133-1.2799.09878zm2.4207-1.98068c.2053.20355.6519.23659 1.2118.20038-.1122-1.29507-.3115-1.65365-.9909-1.69899-.3285-.0211-.967.75721-.2209 1.49861zm2.9916-2.72241c.0198-.00198.0396-.00397.0593-.00593-.0025-.03003-.0049-.05967-.0073-.08883-.014-.16847-.0266-.32108-.0392-.44305-.1309-1.18539-1.2753-1.45854-1.4785-.72241-.1729.62117.2032 1.35905 1.2026 1.28488.0833-.00663.173-.01563.2631-.02466zm.2728-4.11991c-1.5049-.78323-5.3558 2.38626-7.4199 7.17706-2.2811 5.29031-2.7171 9.61741-2.7648 12.00761.6566-2.29 2.0765-5.3055 4.3579-6.7334.6364-.399 1.2432-.629 1.7932-.7383-.0935-.4935-.1627-1.0184-.2131-1.5004-.2953.0208-.544.0218-.7108-.0151-1.202-.2802-1.5339-2.16652-.259-2.34159 1.0513-.13991 1.3497.25944 1.4965 1.79989.2028-.0235.4036-.0524.5929-.0797.1476-.0213.2882-.0415.4171-.0574.2942-.0366.5782-.0615.8463-.0784-.048-.3371-.0836-.72558-.1062-1.17977-.0066-.13299-.0145-.25943-.0222-.3805-.0046-.07319-.0091-.14442-.013-.21395-2.2257.15222-2.2328-2.11382-1.3258-2.49594 1.1931-.50692 1.7209.49075 1.7964 1.38753.0027.04669.0063.10128.0103.16237.0053.08011.0114.1714.0172.27073.2298-.02581.4691-.0574.7123-.0895.2968-.03916.5993-.07907.8971-.11018-.1401-.6848-.2163-1.45889-.2699-2.12084-2.3763.25241-2.3474-2.35005-1.1663-2.51738 1.0615-.15503 1.4446.35013 1.694 1.89058.1457-.01913.2942-.03952.4441-.06011.3102-.04259.6262-.08598.9342-.12058-.137-.38777-.2559-.79952-.3732-1.20556-.3377-1.16906-.6617-2.29084-1.3653-2.65717zm-10.4658 51.79047c.1577-1.2381.448-2.0572.7884-2.6049-.43-.4464-.6766-.9372-.7884-1.2195-.1126.2823-.3595.7731-.7881 1.2167.3386.5505.6311 1.3696.7881 2.6077zm3.5959-2.1501c.967-.1128 1.2894-1.1116.0166-1.2416-.7578-.0781-1.4873.1258-2.0507.7101.7331.4827 1.5889.5857 2.0341.5315zm-7.2086-1.2416c-1.2746.13-.9507 1.1288.0138 1.2416.4427.0542 1.3021-.0488 2.0355-.5315-.563-.5843-1.2954-.7882-2.0493-.7101zm-6.5946-44.81667c-.0166.14308-.0318.32834-.0469.53188l.042.00421c.0956.0096.1926.01933.279.02638 1.0019.07417 1.3755-.66371 1.2051-1.28488-.2032-.73613-1.3466-.46298-1.4792.72241zm2.7831 1.76161c-.6784.04534-.8795.40392-.9938 1.69899.5609.03621 1.01.00317 1.2171-.20038.744-.7414.1059-1.51971-.2233-1.49861zm1.3642 3.38051c-.0346.19792-.0678.54765-.1076.97345.7218.0179 1.3434-.1442 1.3882-.87467.0606-1.01208-1.1353-.91014-1.2806-.09878zm-.3744 2.98875c.549.1093 1.1575.3393 1.7957.7383 2.28 1.4279 3.7013 4.4434 4.3547 6.7334-.0431-2.3888-.4812-6.7173-2.7616-12.00761-2.0659-4.7908-5.9161-7.96029-7.4221-7.17706-.7039.36749-1.0292 1.49521-1.3676 2.66825-.1161.40245-.2338.81023-.3688 1.19448.3027.03411.6128.07677.9181.11878.1541.0212.3069.04223.4571.06191.248-1.54045.6314-2.04561 1.6958-1.89058 1.1818.16733 1.2093 2.76979-1.1653 2.51738-.0536.66195-.1333 1.43604-.2719 2.12084.3043.03165.6131.07242.9146.11224.2378.03138.471.06218.694.08744l.0023-.03339c.011-.16077.0205-.29871.0281-.39971.0716-.89678.6007-1.89445 1.797-1.38753.9045.38212.8996 2.64816-1.3289 2.49594-.0055.12041-.013.2459-.0209.37785-.0041.0703-.0084.14243-.0126.2166-.0226.45419-.0589.84267-.1027 1.17977.2621.0169.5472.0418.8425.0784.1336.0163.2793.0373.4317.0593.1854.0267.3809.0548.5769.0778.1446-1.54045.4462-1.9398 1.5007-1.79989 1.2746.17507.9412 2.06139-.2628 2.34159-.1637.0369-.4124.0359-.7098.0151-.0508.482-.1196 1.0069-.2142 1.5004zm6.1388 24.9027c-1.0971.7013-2.0571 1.4695-2.1093 2.8271-.0684 1.8786 1.0965 3.2982 2.1216 4.2329-.0021-1.8203-.0067-4.3486-.0123-7.06zm-2.0252-4.0309c-.0406 1.6589.8389 2.348 2.0243 3.1073-.0027-1.5275-.0063-3.0933-.0097-4.6045-.001-.4618-.002-.9185-.003-1.3675-1.0566.5727-1.976 1.2835-2.0116 2.8647zm1.8403-10.3634c-.1692.1991-.3389.3988-.5047.6129-2.5718 3.3674-1.3289 5.0007.6759 6.0469-.0037-1.782-.0058-3.4072-.0074-4.6992-.0011-.8971-.002-1.6336-.0032-2.1503-.0534.0635-.1069.1265-.1606.1897zm-4.8114.9294c-.3033-.7663-1.6069-1.4715-3.3619-1.8083.4212.8458.8117 1.5643 1.1574 2.0428.8647 1.1956 2.7954 1.2691 2.2045-.2345zm-1.8734 4.4712c-.8791-.4011-1.881-.515-3.496-.0633 1.8355 1.5039 3.0751 2.0544 4.0389 1.7524.895-.283.0752-1.4093-.5429-1.6891zm-1.4031 5.7281c-.7003.0918-1.8852.4198-3.2233 1.0525 3.6343 1.3264 5.2003.6251 5.3121-.0987.1143-.7646-1.1878-1.0684-2.0888-.9538zm-6.4924 7.1262c3.3055.7893 9.8008 2.3403 12.0781-1.0116.0946-.9256.5655-1.8745 1.6775-2.708.2974-.2211.587-.4148.8707-.5986-1.2288-.7664-2.4173-1.5855-2.5259-3.1544-.1503-2.1845 1.2534-3.1157 2.4345-3.7105-1.1903-.5987-2.3227-1.2462-2.4165-2.9048-.1263-2.2917 1.3783-3.9215 2.0336-4.6313.0883-.0956.1611-.1745.2125-.2361.0612-.0722.123-.1411.1845-.2099.0299-.0334.0598-.0668.0896-.1005-2.4116-2.5213-5.2448-3.9232-9.2357-4.2969-.3627-.0327-.7059-.0492-1.0333-.0549.0839.19.1678.3802.2515.5699.5311 1.2036 1.0549 2.3909 1.5476 3.4236 1.5692.2131 2.8724.6785 3.4964 1.319 1.1921 1.216.6421 2.6935-.7535 2.6137-1.13-.0632-1.9357-.7906-3.2212-3.559-1.0068-.1279-2.1227-.1388-3.272.0218-1.3639.1881-2.563.5973-3.5807 1.0873 1.0354.9685 1.8298 1.7465 2.154 2.0692 1.1381 1.132 2.1178 2.0541 2.9768 2.7902.7786-.2074 1.5649-.3414 2.3488-.3586 1.3483-.0281 3.5341.9601 2.7396 2.658-.5792 1.2427-2.7837.1441-3.9581-.721-.4096-.3048-.8414-.6525-1.2887-1.029-.605.2036-1.2796.4729-2.0596.8272-1.3402.6096-3.0127 1.7219-4.4495 2.8784 1.0823.6251 2.2158 1.2487 3.4353 1.8562.6498.3237 1.2474.5934 1.8098.8229 2.1459-1.2012 4.1522-1.681 5.1357-1.2395 2.2836 1.0318 1.4976 2.8401-1.0315 2.9297-1.0806.0412-2.5411-.3846-4.1247-1.0402-1.3487.7298-2.7848 1.7612-4.0118 3.1618-.4353.4999-.853 1.0971-1.2322 1.7166 1.1236.368 2.0478.6577 2.6306.7983zm-4.9482 2.4565c.0782-.2285.1592-.4653.2505-.7165.2847-.7882.6541-1.5443 1.0838-2.2548-1.7805-.541-3.5423-1.1288-5.243-1.7159-4.4087-1.5158-7.8056-1.9503-9.2784-.9249-.9324.6483-.7088 2.2671.4642 4.7363.0056.0123.0106.0245.0155.0365.0089.0215.0175.0421.0279.0609.2056-.1228.4205-.2448.6371-.3678.3932-.2234.7922-.4499 1.1519-.6907-.5024-.4717-.8474-.9038-.8178-1.3499.0381-.5776.4166-1.2219 1.233-1.1689.8107.0538 1.7734 1.5176.5062 2.5765.1441.1254.2861.2473.4165.3593.2278.1956.4201.3608.5258.4605.2776.2601.5101.4904.7059.7002.3891-.2484.8209-.49 1.2202-.7134.2255-.1262.4406-.2466.6319-.3591-.2643-.2443-.4883-.4746-.6047-.6598-.6332-1.0072.0226-1.8256.9448-1.8175.551.0063 1.2114.6964 1.2089 1.3868-.0024.5523-.1735.8159-.6117 1.1415.2188.1878.448.3773.6713.5619.2904.2401.5707.4719.8051.6808.0266.0248.0533.0494.0801.0741.0567.0523.1134.1046.1682.1579.3458-.25.7853-.5315 1.3611-.8374.0924-.0499.1764-.0991.2564-.1494-.2984-.2436-.5545-.503-.7327-.7765-.4156-.6254-.0173-1.943 1.2146-1.7015.9737.1909 1.3522 1.6814.5165 2.4597-.0075.0083-.0172.0154-.0268.0225-.0076.0056-.0152.0112-.0215.0173.1693.1181.3506.2376.5475.3582l.689.4211zm.9917 2.6642c.2501-.1051.4727-.4068.3461-.8817-.0766-.2928-.4861-.6053-1.0245-.9502-.4505 1.7552.3133 1.9816.6784 1.8319zm-3.3339-5.518c-.5013.4011-.2205 1.0223.6297 1.724.8202-.6961.5581-1.2923.2678-1.6382-.3157-.3681-.7631-.1951-.8975-.0858zm-2.2516 4.8582c.0498.5832.9744.8535 1.1924.0049.0801-.3143-.1908-.721-.5313-1.0958-.4145.353-.6939.7221-.6611 1.0909zm-1.3233-3.6961c.003-.0022.0059-.0043.0089-.0065.5909-.4746.5373-1.0103.3771-1.3566-.2677-.5617-1.1511-.7702-1.2499.2443-.0236.2746.3327.6936.8199 1.1496.0154-.0099.0299-.0205.044-.0308zm-3.2969 3.1665c.0141.9425 1.228.7459 1.2531-.0862.0113-.2991-.1457-.5835-.4526-.928-.4601.3392-.8086.696-.8005 1.0142zm-1.93-4.4733c.067.1719.3697.4834.7246.8145.1859-.1526.3489-.3108.4762-.476.3366-.4415-.0511-1.4441-.5595-1.4199-.72.0282-.744.804-.6413 1.0814zm-1.7213 2.9974c-.7469.5452-1.0143.9414-.9575 1.2648.1274.7537 1.1162.637 1.1081-.5136-.0014-.2211-.0642-.4805-.1506-.7512zm12.0461-9.2524c.2671-.3417.6043-.7154 1.0418-1.1316.3059-.2897.6713-.6166 1.0724-.9583-1.6502-.9781-3.052-1.8832-3.8584-2.4038-.2566-.1657-.453-.2925-.5777-.3702-5.0335-3.1397-10.5499-4.3627-9.8115-.5892.0473.2466.1191.549.1988.8841.1443.6075.3142 1.3227.4097 2.008.1112-.0472.2209-.0922.3261-.1353.1259-.0516.2454-.1006.3534-.1477.0445-.0184.1044-.0415.1758-.069.1728-.0665.4128-.159.6648-.2741-.1728-.2035-.3005-.3558-.3489-.4208-.5623-.8082-.539-1.7422.5811-1.9785.8727-.1852 1.548.7808 1.4644 1.4579-.0579.444-.3923.7839-.8876 1.0908.0619.0715.1249.1441.1885.2174.4105.4726.8475.9759 1.1838 1.4348.3078-.1701.6372-.3354.9486-.4916.0843-.0423.1674-.084.2483-.125.0442-.0241.1184-.0589.2124-.1031.1139-.0534.257-.1206.4114-.1992-.5705-.7551-.7112-1.1172-.4805-1.6793.4477-1.0827 2.0105-.9544 2.2218.3322.1414.887-.1849 1.229-.8541 1.5668.0703.0844.1413.1686.2116.2521.1806.2142.3573.4239.5098.6205.055.0723.115.1486.178.2289.1716.2184.3659.4656.5431.7392.2709-.1399.5444-.272.7666-.3795.1693-.0818.3089-.1493.3951-.1949.0578-.0322.1465-.0718.2537-.1198.1309-.0585.2893-.1294.4526-.2138-.4216-.4423-.7405-.824-.7927-1.068-.3172-1.5598 1.4196-1.6319 1.9762-.8177.7254 1.0652.1267 1.7001-.3633 2.0488.3221.3171.6639.6556.9849.9889zm.3561 2.7034c.3482-.0605.4607-.3006.3796-.8057-.0469-.2939-.2981-.6648-.6378-1.0701l-.0043.0073c-.0219.0368-.0462.0777-.062.1133-.6985 1.4659-.0043 1.8129.3245 1.7552zm-2.4327-5.0269c.0653.2222.3327.5477.689.9228.436-.3009.7785-.7171.5891-1.2814-.3002-.8897-1.567-.6661-1.2781.3586zm-2.317 3.1051c-.9278 1.0131.2184 1.4873.5475 1.2068.271-.2327.4915-.6004-.0617-1.5408-.2198.1206-.3937.2338-.4858.334zm-.2516-4.3614c-.0621-.92-1.0598-1.2732-1.3452-.3462-.1189.3831.1284.8598.484 1.3457.4657-.282.8841-.6384.8612-.9995zm-3.326 2.9481c-.8717.5568-1.0513.9393-.7066 1.409.2582.3511 1.1095.1824 1.0082-.7587-.0134-.1511-.1312-.3839-.3016-.6503zm-.8879-4.046c-.4625-1.0679-1.5367-.5466-1.3618.2043.053.232.3295.6064.6901 1.0388.5037-.3066.8981-.7207.6717-1.2431zm-3.4494 3.0927c-1.4366.728-.6386 2.0365.1756 1.1.2678-.3143.3189-.7646.2678-1.3134-.1528.0693-.2974.1385-.4434.2134zm12.8379-9.0412c.2466.3895.5084.7362.7317 1.0248.5821-.5674 1.409-1.2308 2.4275-1.8266-1.1282-1.0835-2.2427-2.1297-3.289-3.0293-3.0981-2.6639-9.5444-6.0668-9.0135-1.2103.1002.8957.1365 1.6322.1249 2.2418.1313-.0301.2648-.0596.3987-.0892.3244-.0718.6518-.1441.9591-.2272-.2864-.9552-.3439-1.9145.4438-2.3181 1.3459-.6806 1.8147 1.2142 1.3505 1.9929-.1355.2281-.5236.4412-1.0153.6275.1209.3279.2416.638.3551.93.1086.2794.2108.5422.3007.788.3581-.1244.7123-.2253.9782-.301.0594-.017.1144-.0327.1641-.047.1269-.0392.255-.0762.3831-.1132.1293-.0374.2587-.0747.3867-.1143-.008-.0188-.0174-.0375-.0264-.0553-.0066-.0132-.0131-.0259-.0185-.0379-.346-.7649-.7249-1.8909.5641-2.2952.9684-.3044 1.6754 1.0044 1.2189 2.0358-.1284.2939-.4819.5245-.9402.7161.0239.044.0481.0883.0724.133.2728.5012.5693 1.046.8025 1.5656.1949-.0822.3826-.1538.5404-.214.0424-.0162.0827-.0316.1204-.0461.1087-.045.2559-.0963.4249-.1552.2257-.0786.4905-.1709.7551-.28-.1361-.2447-.2568-.4858-.3397-.707-.2618-.6946-.1295-1.7176.9712-1.7369 1.1659-.013 1.4894 1.6796.9539 2.2129-.2289.231-.5002.3955-.7853.5354zm.4262 2.1069c-.4787.8472-.1912 1.5692.3609 1.5309.666-.0439.4981-1.0258-.0434-1.7194-.0275-.0341-.0642-.0801-.0935-.1198-.1019.1212-.1785.2285-.224.3083zm.1584-3.7839c-.2014-1.326-1.4347-.6391-1.3053.0295.0755.3783.2276.7569.4153 1.1144.5355-.2823.963-.6539.89-1.1439zm-4.1763 3.3511c-.666.7512.4742 1.4227.8435.5783.0918-.2141-.0049-.6223-.1898-1.1042-.2324.1441-.4586.3062-.6537.5259zm.7695-4.8238c-.218-1.2072-1.6372-.6071-1.3617.4475.055.2117.1961.5108.3814.8574.6417-.252 1.1084-.606.9803-1.3049zm-4.1029 2.918c-1.0442.5638-.4837 1.5749.1016 1.2979.3937-.1846.4914-.6919.266-1.4586-.1397.0531-.266.1027-.3676.1607zm.8837-4.0589c.1581-1.3144-1.7903-1.3802-1.1765.534.0154.0436.0306.0865.0456.129.0382.1076.0753.2125.1117.3199.5571-.2141.9614-.5059 1.0192-.9829zm-3.6251 2.2225c-1.735.3779-1.3692 1.802-.3768 1.4455.3457-.122.4988-.7203.5528-1.4824-.0617.0102-.1182.0232-.176.0369zm9.8612-10.7741c-.0019.033-.0039.0661-.0059.0993.1429.0053.2805.0088.3959.0039.9757-.0577 1.2753-1.0423 1.0428-1.38825-.3115-.45946-1.2739-.60465-1.4062.89535-.0116.1294-.0191.2589-.0266.3897zm5.3652 6.3492c.0405.1984.0811.3973.1196.5938.7899-.3185 1.8796-.5741 3.1567-.6714-1.7399-3.7503-4.4355-8.88383-6.8831-10.12934-2.6407-1.33953-3.2177.96217-3.6696 2.76514-.0057.0225-.0113.0449-.0169.0672-.0864.335-.1715.6342-.2547.9007.2811.0267.5685.0604.8499.0934.2449.0288.4852.057.7129.0795.0977-1.50492.5218-1.83642 1.01-1.93801.6967-.14695 1.2432.22709 1.4506.66371.26.5449.0547 1.9373-1.652 1.906-.0527 0-.0971-.0031-.1419-.0063-.0252-.0018-.0505-.0036-.0776-.0049-.0178.6246-.0118 1.2139-.0069 1.6962.0012.1196.0024.2325.0031.3378.4304-.0176.8763-.0228 1.3002-.0278.2118-.0025.4181-.0049.6143-.0087-.0603-.5059-.0953-.9242-.0695-1.0916.1026-.6222.5658-1.2128 1.4199-1.0539.9416.1751 1.0668 1.6438.4375 2.2738-.2385.2366-.6054.3434-1.1547.3888.079.6064.1595 1.281.1806 1.8635.6377-.007 1.32.0357 1.8995.072l.0235.0015c-.0038-.0339-.0079-.0676-.0119-.1013-.019-.1595-.0381-.3188-.041-.4971-.0279-1.3727 1.0425-1.7629 1.6955-1.2873 1.1955.8753.3326 2.298-.6234 2.4137-.1185.0137-.2561.0225-.406.026.0427.2214.089.4478.1354.6749zm.8233-2.8402c-.3792-.2858-1.1014.1016-1.1179.7801-.0067.258.0236.5484.0702.8581l.0161.0011c.0585.0039.1234.0084.1744.0084.9271.0246 1.4936-1.1594.8572-1.6477zm-1.5366 4.4214c-.4632.3308-.8135 1.2002-.3055 1.4171.5764.239.9126-.3653.7652-1.518-.003-.0414-.0107-.0813-.0183-.1209-.0041-.0209-.0081-.0417-.0114-.0626-.1728.1051-.3182.2035-.43.2844zm-1.336-7.0917c-.4187-.0735-1.0044.1814-.9409 1.126.0131.1821.0395.4183.0724.675.3993-.0268.7179-.0756.8554-.1843.6495-.503.4333-1.546.0131-1.6167zm-1.651 4.7808c-.8428.1441-1.0012.5663-.914.8655.2547.8714 1.3963.2598 1.4358-.9081-.1912.006-.3736.0155-.5218.0426zm-3.188-1.1553c-.4293-.0341-.7236-.9776.9359-1.2219-.0331.8539-.2303 1.2771-.9359 1.2219zm-2.4957-3.9858c-.5228.2229-.648 1.3689.2473 1.1534.4149-.0977.7067-.5994.9469-1.2845-.4343-.0503-.7983-.0394-1.1942.1311zm15.6562 2.6678c-.5691-.4166.2935-1.3531 1.422-1.2975-.3711 1.4054-1.0386 1.5847-1.422 1.2975zm-1.9296-3.2607c-.6618.4222-.2603 1.1994.5684.8672.2395-.0991.412-.515.5355-1.0602-.4685-.0053-.8679.0418-1.1039.193zm-2.3902-2.20952c.0497-.49954.5789-.65633 1.4993-.60817-.502 1.68704-1.5639 1.21774-1.4993.60817zm-1.6658-3.23746c.2307-.35435.8678-.40638 1.6548-.3431-.7027 1.7243-2.0588.95724-1.6548.3431zm28.9043 0c.4025.61414-.9536 1.3812-1.6542-.3431.787-.06328 1.421-.01125 1.6542.3431zm-1.6676 3.23754c.0653.60957-.999 1.07888-1.5014-.60816.9246-.04817 1.4506.10616 1.5014.60816zm-2.9569 3.07664c.8255.3322 1.2273-.445.5687-.8672-.2378-.1512-.6347-.1983-1.1067-.193.1256.5452.2963.9611.538 1.0602zm-1.3625 2.3935c-.3852.2872-1.052.1079-1.4206-1.2975 1.1246-.0556 1.9882.8809 1.4206 1.2975zm11.2497-3.043c.1146.0049.2501.0014.3937-.0039-.0024-.0378-.0046-.0754-.0068-.1129-.0074-.1262-.0148-.2512-.0267-.3761-.1288-1.5-1.0922-1.35481-1.4027-.89535-.2342.34595.0656 1.33055 1.0425 1.38825zm2.3038-1.1836c-.4501-1.80473-1.0275-4.1199-3.6739-2.77734-2.4469 1.24551-5.1442 6.37904-6.8816 10.12934 1.2745.0973 2.3674.3529 3.1545.6714.0367-.1906.0763-.3834.1158-.5758.0478-.2331.0955-.4657.1378-.6929-.1478-.0035-.2829-.0123-.4042-.026-.9568-.1157-1.8193-1.5384-.6227-2.4137.6541-.4756 1.7233-.0854 1.6965 1.2873-.0044.1504-.0188.2872-.0329.4222-.0062.0587-.0123.1172-.0175.1762l.0144-.0009c.5788-.0364 1.2655-.0796 1.9036-.0726.0244-.5825.103-1.2571.181-1.8635-.5507-.0454-.9147-.1522-1.1508-.3888-.6314-.63-.508-2.0987.434-2.2738.8547-.1589 1.3201.4317 1.4206 1.0539.0296.1674-.0095.5857-.0709 1.0916.1968.0038.4034.0062.6152.0087.4252.005.8715.0102 1.3014.0278.0008-.0934.0018-.1928.0029-.2976.0052-.4895.0116-1.0944-.0064-1.7364-.028.0013-.0541.0032-.08.005-.0445.0032-.0881.0062-.1384.0062-1.7099.0313-1.912-1.3611-1.6517-1.906.2053-.43662.7529-.81066 1.4496-.66371.4861.10159.9112.43309 1.0065 1.93801.2294-.0226.471-.0509.717-.0798.2811-.0329.5679-.0665.849-.0931-.0837-.2665-.1694-.5657-.2551-.9007zm-2.6685 7.5654c.0896-.2992-.0724-.7214-.9127-.8655-.1481-.0271-.3305-.0366-.5221-.0426.0395 1.1679 1.1815 1.7795 1.4348.9081zm-1.6939-3.8453c.0318-.2567.0572-.4929.0706-.675.0649-.9446-.5207-1.1995-.9388-1.126-.4236.0707-.6406 1.1137.0103 1.6167.1383.1087.4561.1575.8579.1843zm-3.7401.8693c-.6354.4883-.0723 1.6723.8555 1.6477.055 0 .1273-.0053.1919-.0095.0462-.3097.073-.6001.0684-.8581-.0183-.6785-.7415-1.0659-1.1158-.7801zm1.8397 5.8385c.5091-.2169.1598-1.0863-.302-1.4171-.1171-.0823-.2596-.1793-.4325-.2844-.0041.0245-.0093.0488-.0145.0733-.0077.0361-.0154.0725-.0201.1102-.1428 1.1527.1923 1.757.7691 1.518zm8.1168-7.7157c.8979.2155.7705-.9305.2473-1.1534-.3979-.1705-.7577-.1814-1.192-.1311.241.6851.5309 1.1868.9447 1.2845zm-2.2448 2.8324c-.7052.0552-.9027-.368-.938-1.2219 1.6595.2443 1.3635 1.1878.938 1.2219zm7.8121 3.3366c.5327-4.8565-5.9143-1.4536-9.0103 1.2103-1.046.8996-2.1594 1.9458-3.2918 3.0293 1.0217.5958 1.8486 1.2592 2.4282 1.828.2254-.2879.4875-.6367.7341-1.0262-.2854-.1399-.5581-.3044-.787-.5354-.5338-.5333-.2127-2.2259.955-2.2129 1.0982.0193 1.2308 1.0423.9708 1.7369-.085.2212-.2039.4623-.3411.707.2641.1087.5285.2006.754.2791.1706.0593.3189.1108.4281.1561.0415.0161.0861.0332.1334.0513.1544.0591.3368.1289.5267.2088.2288-.512.5203-1.0484.7893-1.5435.0283-.0522.0564-.1039.0842-.1551-.4558-.1916-.8083-.4222-.937-.7161-.4583-1.0314.2483-2.3402 1.2156-2.0358 1.2895.4043.9134 1.5303.5645 2.2952-.0124.0282-.0268.0605-.0434.0932.1223.0381.247.0741.3715.11.1331.0384.2659.0768.3951.1175.0472.0136.0991.0283.155.0443.2672.076.6251.1778.9901.3037.0976-.269.2104-.5583.331-.8675.1048-.2686.2154-.5522.3269-.8505-.4974-.1863-.8837-.3994-1.0181-.6275-.4649-.7787.0032-2.6735 1.3466-1.9929.7909.4036.7352 1.3629.4473 2.3181.3156.085.6489.1588.9803.2322.1261.0279.252.0558.3765.0842-.0106-.6096.0261-1.3461.1245-2.2418zm-2.0104 1.5262c.0282-.0792.0565-.159.0814-.2414.6166-1.9142-1.3318-1.8484-1.1758-.534.0599.477.466.7688 1.0237.9829.0219-.0698.0462-.1384.0707-.2075zm-.3087 4.5814c.5867.277 1.1452-.7341.1009-1.2979-.1009-.058-.2275-.1076-.3676-.1607-.2254.7667-.128 1.274.2667 1.4586zm-3.0166-2.911c.1802-.3466.3217-.6457.3785-.8574.278-1.0546-1.1466-1.6547-1.3632-.4475-.1252.6989.3408 1.0529.9847 1.3049zm-1.0601 4.0972c.3747.8444 1.5103.1729.8439-.5783-.1955-.2197-.4188-.3818-.6562-.5259-.181.4819-.2776.8901-.1877 1.1042zm-2.4407-2.7855c.1866-.3575.3411-.7361.4145-1.1144.1298-.6686-1.101-1.3555-1.3031-.0295-.0752.49.3517.8616.8886 1.1439zm-1.0485 2.4515c-.5433.6935-.7112 1.6754-.0448 1.7193.5532.0384.8396-.6837.3623-1.5309-.0458-.0798-.122-.187-.2226-.3104-.0331.0418-.0691.0879-.0949.122zm10.7834-2.541c.9987.3565 1.3603-1.0676-.3775-1.4455-.0561-.0137-.115-.0267-.1753-.0369.0547.7621.2085 1.3604.5528 1.4824zm2.6235 5.7957c.7331-3.7735-4.783-2.5505-9.8108.5892-.123.0767-.3158.2011-.5676.3635-.8051.5195-2.2133 1.4282-3.8714 2.4105.4018.3417.7673.6686 1.0742.9583.4375.4162.7772.7899 1.0397 1.1316.2583-.265.5284-.5332.7883-.7914.0671-.0666.1334-.1325.1987-.1975-.4924-.3487-1.0883-.9836-.3637-2.0488.556-.8142 2.2948-.7421 1.9735.8177-.0494.244-.3697.6257-.7899 1.068.161.0833.3171.1534.4464.2115.1091.049.1991.0894.257.1221.0884.0467.2333.1165.4092.2011.221.1063.4908.2361.7585.3733.1812-.2821.3799-.5362.5545-.7596.0569-.0728.1113-.1424.1617-.2085.1497-.1923.3221-.3972.4982-.6066.0741-.0881.1488-.1769.2229-.266-.6703-.3378-.9928-.6798-.851-1.5668.2036-1.2866 1.7682-1.4149 2.2176-.3322.2381.5621.0935.9242-.4783 1.6793.1561.0796.3005.1474.4149.2012.0919.0432.1646.0773.2084.1011.089.0453.1807.0914.2739.1383.3027.1523.6222.3131.9213.4783.3443-.4677.7909-.9814 1.2087-1.4618.0558-.0641.111-.1277.1654-.1904-.4957-.3069-.8312-.6468-.888-1.0908-.0836-.6771.592-1.6431 1.4648-1.4579 1.1183.2363 1.1444 1.1703.5814 1.9785-.048.065-.1754.2173-.3482.4208.249.1142.4872.2061.6592.2725.0731.0282.1343.0518.1793.0706.0982.0421.2041.0856.315.1312.117.0482.2395.0985.3641.1518.0955-.6888.2677-1.4077.4137-2.0172.0794-.3315.1511-.6306.1984-.8749zm-.0005 4.9681c.8145.9365 1.6125-.372.1728-1.1-.1298-.0677-.2634-.1308-.396-.1935l-.0421-.0199c-.0568.5488-.0053.9991.2653 1.3134zm-3.2743-4.1927c-.2272.5224.1683.9365.671 1.2406.3612-.4299.6353-.8043.6921-1.0363.1729-.7509-.9013-1.2722-1.3631-.2043zm-1.1952 4.6963c-.0985.9411.7528 1.1098 1.0107.7587.3436-.4697.1661-.8522-.7045-1.409-.1704.2664-.2907.4992-.3062.6503zm-3.0207-3.5984c-.0247.3611.3968.7175.86.9995.3563-.4859.6029-.9626.484-1.3457-.2854-.927-1.2858-.5738-1.344.3462zm-.7981 5.5682c.3316.2805 1.4742-.1937.5468-1.2068-.0893-.1002-.2674-.2134-.4837-.334-.5542.9404-.3351 1.3081-.0631 1.5408zm-1.7677-4.3119c.2875-1.0247-.9782-1.2483-1.2774-.3586-.1912.5643.1535.9805.5874 1.2814.3563-.3751.624-.7006.69-.9228zm-2.8153 4.2212c-.0826.5051.031.7452.3821.8057.3273.0577 1.0237-.2893.3249-1.7552-.0208-.038-.0462-.0819-.0685-.1206-.3418.4053-.5937.7762-.6385 1.0701zm-.9291 3.6206c4.1519-1.3761 9.9274-3.2903 12.4365-3.1181 2.8892.1997 3.1697 1.5029 2.9449 2.7027-.1298.6905-.528 1.533-.9187 2.3597-.2029.4292-.4038.8541-.564 1.2513.5916.3902 1.0439.8022 1.1176 1.2979.1877 1.223-1.1941 1.6804-1.7586.7477-.2536-.4166-.1658-1.1031.0656-1.7774-.5051-.3364-1.1634-.721-2.0147-1.1783-.0712.0622-.1436.125-.2168.1887-.2243.1947-.4572.3969-.6933.6131l-.0572.0526c-.2729.2505-.505.4637-.707.6604.3676.2731.6499.5519.7409.8141.3372.9745-.4191 1.5106-.865 1.5106-.3962 0-1.0739-.2897-1.1014-1.0135-.0166-.4447.1182-.8128.4099-1.2163-.4952-.3156-1.035-.5993-1.4089-.7958-.1918-.1009-.3399-.1787-.416-.2262-.0406-.0288-.0801-.0541-.1196-.0822-.1532.1312-.3096.2619-.4594.3872-.2452.2049-.473.3953-.6416.55-.0251.0217-.0541.0466-.0863.0742-.1439.1232-.3518.3014-.5639.503.6897.6293.7161 1.0698.6502 1.4132-.2057 1.0423-1.3942 1.1-1.8447.1905-.2667-.5427-.0233-1.1059.3895-1.609-.4239-.2937-.9039-.5605-1.3169-.79-.147-.0817-.2855-.1587-.41-.2305-.4542.3207-.9539.6182-1.4184.8946-.0529.0315-.1053.0627-.1571.0936.3016 1.0416.3351 1.7981-.2882 2.2305-1.1589.8107-2.3478-.7185-1.2037-1.7587.3186-.2908.587-.4999.8544-.6873-.2356-.7027-.629-1.5935-1.2544-2.7272-.0692-.1262-.1408-.2535-.2149-.3772-2.2317.6619-4.4972 1.2402-6.7321 1.6244-3.6265.618-6.9049.5027-8.3908-1.332-.1718 1.0452-.7394 1.9926-1.312 2.6148-.5905.6454-1.0795 1.1105-1.3543 1.3622-.0039 1.2863-.0039 2.078-.0039 2.078-.0035 1.0476.3486 1.7672.8343 2.2519.4503-.5048.9307-.6527 1.2346-.7463.0209-.0064.041-.0126.0601-.0186.827-.2566 2.4501-.2457 2.5951.9091.1626 1.2982-1.6807 1.5014-3.0882 1.0258-.2639-.0893-.4893-.2204-.6947-.366-.1365.2162-.2631.4553-.3644.7414-.3196.9249-.5595 2.6106-.5919 3.6817l-.0005.0135c-.0094.3051-.0219.707-.0091 8.1785.0025.3575-.1397.4949-.2526.5252-.1125-.0303-.2536-.1677-.2525-.5252.0118-7.4709-.0007-7.8733-.0102-8.1785l-.0004-.0135c-.0328-1.0711-.2748-2.7568-.5938-3.6817-.1009-.2861-.2261-.5252-.363-.7414-.2046.1456-.4279.2767-.6967.366-1.4051.4756-3.2487.2724-3.0865-1.0258.1443-1.1548 1.7675-1.1657 2.5944-.9091.0177.0055.0362.0112.0554.0171.3055.0934.785.2401 1.2417.7478.4862-.4847.8358-1.2043.8358-2.2519 0 0-.0036-.7917-.0053-2.078-.2752-.2517-.7656-.7168-1.3543-1.3622-.5719-.6222-1.1427-1.5696-1.312-2.6148-1.4849 1.8347-4.7664 1.95-8.3866 1.332-2.2416-.3842-4.5036-.9625-6.737-1.6244l-.0243.0415c-.0647.1106-.1307.2235-.1938.3357-.6237 1.1337-1.0156 2.0245-1.2527 2.7272.2678.1874.5366.3965.8562.6873 1.1469 1.0402-.043 2.5694-1.2026 1.7587-.6255-.4324-.587-1.1889-.2889-2.2305-.0371-.022-.0744-.0442-.112-.0665-.4784-.2841-.9943-.5905-1.4611-.9217-.1135.0647-.2378.1335-.3692.2063-.4243.2349-.9215.5101-1.3601.8142.411.5031.6572 1.0663.3895 1.609-.4502.9095-1.639.8518-1.8422-.1905-.066-.3434-.0431-.7839.6477-1.4132-.1994-.1893-.3945-.3579-.5355-.4798-.0429-.037-.0807-.0697-.1122-.0974-.1634-.148-.3799-.3286-.6133-.5233-.1598-.1334-.3276-.2733-.4916-.4139-.0417.0281-.0783.0534-.1207.0822-.0758.0474-.2235.125-.4147.2255-.3741.1965-.9146.4806-1.4088.7965.2911.4035.4272.7716.4106 1.2163-.0289.7238-.7052 1.0135-1.1017 1.0135-.4459 0-1.203-.5361-.8661-1.5106.0904-.2622.3733-.541.7416-.8141-.1792-.1739-.382-.3608-.6144-.5749-.0486-.0448-.0985-.0908-.1497-.1381-.2355-.2163-.469-.4187-.6938-.6136-.0733-.0635-.1456-.1261-.2167-.1882-.851.4573-1.5096.8419-2.0127 1.1783.2301.6743.3158 1.3608.0628 1.7774-.5662.9327-1.9459.4753-1.761-.7477.0762-.4957.5295-.9077 1.1204-1.2979-.1602-.3971-.3607-.822-.5633-1.2511-.3902-.8267-.7879-1.6694-.9191-2.3599-.2222-1.1998.0568-2.503 2.944-2.7027 2.5132-.1725 8.3067 1.7483 12.4587 3.125.2721.0902.5371.178.7937.2628 1.3942-2.0987 3.3056-3.7913 5.188-4.9567-1.6965-.7477-3.489-1.7187-5.0924-2.6506-.9394.7906-1.73 1.5819-2.202 2.2245.3351.372.6075.7277.7317 1.0311.4497 1.075-.6562 2.1901-1.6295 1.094-.3193-.3579-.4583-1.0472.2413-2.1296-.2829-.3029-.593-.6134-.893-.9139-.0715-.0716-.1424-.1426-.2123-.2128-.1487.0909-.4976.2419-.9096.4201-.3571.1546-.7616.3296-1.1242.5037.1048.2155.193.4352.2449.6687.2293 1.0324-.5242 1.6315-1.2302 1.4603-.8057-.1944-.9461-1.241-.3365-1.8762.1259-.1336.3341-.2728.568-.4155-.0692-.1013-.1341-.1944-.2184-.3069-.397-.5136-.7348-.9341-1.0189-1.2878-.0799-.0995-.1556-.1937-.2271-.2833-.0278.0124-.0559.0248-.0843.0374-.3011.1335-.6417.2844-1.0182.4794-.2917.1494-.5404.2837-.7683.4141.0688.1167.1319.232.1746.3371.5909 1.4744-.5475 1.8421-1.0156 1.7901-.5221-.0563-1.2764-.8803-.6086-1.7619.145-.1909.381-.3776.6604-.559-.4057-.554-.9334-1.1833-1.3568-1.6779-.3588.1806-.7645.3536-1.1893.5348-.2021.0861-.4084.1741-.6162.2657.0501.7417-.0349 1.3914-.4004 1.7538-1.1151 1.0958-2.1004-.4602-1.1712-1.4441.2649-.2802.6643-.5087 1.0781-.6968-.0687-.3598-.1637-.7487-.264-1.1593-.2517-1.031-.5369-2.1987-.5238-3.3864.024-2.297 3.5691-2.5828 9.2202.709.9776.5698 1.9554 1.1719 2.9608 1.791 1.0173.6264 2.0627 1.2701 3.1645 1.9153 1.7085-1.4005 4.0499-2.9909 6.5434-3.804-1.3499-1.1686-2.8212-2.5864-4.2963-4.0078-.2612-.2517-.5226-.5036-.7834-.7542-1.1292.6152-1.9826 1.3028-2.5192 1.8347.7444.9794 1.033 2.1022.0872 2.4313-.973.3388-1.8814-.6202-1.2288-1.7753.0921-.1638.2558-.3818.4798-.6328-.2589-.3434-.5658-.7649-.8438-1.2016-.2644.0987-.5372.1841-.8108.2697-.386.1207-.7735.2419-1.1408.4018.145.3969.2293.7593.1997 1.0462-.139 1.269-2.0172 1.3886-1.9311-.1445.0285-.5129.4981-.881 1.0202-1.158-.2581-.5719-.5822-1.1858-.8385-1.6711-.0134-.0253-.0266-.0504-.0396-.075-.4076.1332-.8524.2501-1.2784.362-.2578.0678-.5088.1338-.7405.2005.1658.5681.2166 1.0265.0229 1.3587-.6082 1.0409-2.4345.5825-1.6965-.9675.1436-.2956.533-.5361.9818-.7336-.0121-.0269-.0216-.0525-.0314-.0786-.0065-.0173-.013-.0349-.0205-.0533-.0397-.0878-.0883-.1909-.1426-.3062-.1614-.3427-.3738-.7935-.5562-1.2732-.514.1554-1.0647.2935-1.5526.4025-.157 1.9802-.9338 2.1683-1.6182 1.9127-.5729-.2113-1.0908-1.4582.4159-2.1373.2279-.1009.4922-.1846.7747-.2588.0128-1.1034-.121-2.3653-.1918-3.033-.0057-.053-.0109-.1022-.0156-.1474-.3757-3.6377 3.3853-2.4692 5.7404-1.255 2.0454 1.0518 5.3079 3.8997 7.6183 6.0363.0413-.0208.0813-.043.1217-.0655.0468-.0261.0942-.0525.1453-.0775 1.9399-.9636 4.5456-1.2505 6.7744-1.054-.0822-.1835-.1651-.3715-.2505-.5716-.0611-.1407-.1353-.3139-.2216-.5153-.2897-.6764-.7157-1.6706-1.2392-2.8208-1.4898.0552-2.5383.3909-3.253.7354.0505.3048.085.5987.0889.8624.0102.8996-.5073 1.7461-1.4799 1.2996-.2984-.1371-1.1987-.8753.3919-2.1113.1193-.0904.2653-.1825.4304-.2704-.0324-.1557-.0674-.3134-.1032-.4741-.0723-.3254-.1475-.6635-.2093-1.0238-.2844-.0094-.5883-.0266-.8946-.0439-.3718-.021-.7471-.0422-1.0954-.05-.0011.0221-.0019.0446-.0026.067-.0017.052-.0034.1037-.0091.1489-.1312 1.1685-1.0453 1.8495-1.8574 1.2743-.4286-.3076-.6202-1.3017.2766-1.7647.2572-.1308.6375-.1976 1.0675-.2264-.036-.4752-.1169-1.0982-.1945-1.6949-.0077-.0587-.0153-.1172-.0228-.1753-.3562.0072-.7627-.003-1.242-.015-.0562-.0015-.1134-.0029-.1716-.0043-.2092-.0049-.3965-.0014-.5718.0059-.0021.0707-.0046.1396-.0085.1892-.1164 1.2574-.9977 1.6417-1.7403 1.2574-.7249-.3747-.5648-1.7327 1.0728-1.8905.0406-.0036.0882-.0078.1302-.0138-.0035-.2775-.0159-.5895-.0296-.9332-.0052-.1326-.0107-.2699-.0159-.4118-.0113-.2727-.0113-.5171-.0113-.7477-.6863-.0506-1.2102-.1411-1.6491-.2169-.0274-.0048-.0545-.0094-.0813-.014-.5672 1.5003-1.1218 1.6459-1.5603 1.597-.9091-.0967-1.4196-1.673.0882-2.105.2896-.0865.7112-.0907 1.1797-.0619.1192-.4132.2285-.8674.3396-1.32903.4148-1.7235.8546-3.55034 1.9242-3.73279 2.535-.43169 5.3195 3.5256 7.0058 6.13162.7796 1.2071 1.7046 3.2366 2.63 5.3363 3.1157-.1058 7.1183.7502 10.3713 3.8065-.5433-2.2136-2.4261-7.2333-6.0315-8.1156-.0949.3873-.2134.7354-.3594.9969-.665 1.1671-2.322.6426-2.1012-.522.1087-.5794.9028-1.0543 2.038-.9819.066-.3554.121-.7688.1499-1.2564.0046-.0822.0089-.1497.0152-.225-.1821-.0218-.3729-.0467-.568-.0722-.438-.0571-.8979-.1171-1.3306-.1524-.2286 1.0993-.6227 1.4406-1.2062 1.506-1.2693.1346-1.4175-1.5615-.3898-1.9219.1887-.0668.5775-.1009 1.0827-.097.0998-.59867.1591-1.26835.1986-1.83047-.646-.11882-1.2125-.20705-1.7029-.26295-.0882.30514-.1894.58461-.3171.7871-.6262.97592-2.0874.92382-2.0162-.28756.0565-.92279 1.0351-1.08521 1.2969-1.0947.182-.00562.3795-.00211.5778.00739.0342-.17894.0607-.37158.0836-.58813.0579-.59868.1111-1.11931.1697-1.56717-.5017-.08999-1.0118-.17929-1.4855-.23659-.1405.32975-.3017.63278-.495.88061-.828 1.04443-2.1057.40463-1.9583-.52028.0798-.52977.3602-.73612 1.0146-.86795.3239-.06469.7416-.05625 1.1938-.02004.072-.26711.145-.5512.2196-.84196.3446-1.3428.7258-2.82783 1.224-3.440156.6593-.813817 2.5601-1.083097 5.6822 2.468166 2.9408 3.34843 4.4958 8.44579 5.0426 11.33829.2455 1.2975.3852 2.382.4674 3.3554.0787-.9734.2188-2.0579.4647-3.3554.5464-2.8925 2.1029-7.98986 5.0436-11.33829 3.1242-3.551263 5.025-3.281983 5.6829-2.468166.4975.612496.88 2.098156 1.2258 3.441236.0748.29038.1478.5741.2199.84088.4519-.03621.8696-.04465 1.1906.02004.6541.13183.9342.33818 1.0168.86795.1428.92491-1.1311 1.56471-1.958.52028-.1933-.24783-.3535-.55086-.4956-.88061-.4752.0573-.9843.1466-1.4856.23659.0589.44786.1119.96849.1708 1.56717.0222.21655.0472.40919.0818.58813.2-.0095.3958-.01301.5793-.00739.2624.00949 1.2372.17191 1.294 1.0947.0744 1.21138-1.3896 1.26348-2.014.28756-.1302-.20249-.2308-.48196-.3182-.78499-.4872.05379-1.0549.14202-1.7015.26084.0388.56212.0981 1.2318.1979 1.83047.5073-.0039.8939.0302 1.0816.097 1.0294.3604.8809 2.0565-.3884 1.9219-.5835-.0654-.9811-.4067-1.204-1.506-.4353.0353-.8962.0954-1.3349.1526-.1949.0254-.3854.0502-.5673.072.0064.0753.0117.1428.0173.225.0303.4876.0832.901.1482 1.2564 1.1366-.0724 1.9286.4025 2.0394.9819.2212 1.1646-1.4365 1.6891-2.1022.522-.1468-.2615-.2639-.6096-.356-.9969-3.6072.8823-5.4927 5.902-6.0332 8.1156 3.2501-3.0563 7.2542-3.9123 10.3706-3.8065.9268-2.0997 1.85-4.1292 2.6286-5.3363 1.6873-2.60602 4.4697-6.56331 7.01-6.13162 1.0604.18167 1.499 1.99379 1.9146 3.71081.1136.46921.2255.93121.3478 1.35101.4639-.0288.8858-.0246 1.1797.0619 1.5071.432.9955 2.0083.0861 2.105-.4389.0489-.9917-.0967-1.5618-1.597-.0264.0045-.0532.0092-.0803.0138-.4381.0759-.9612.1665-1.6476.2171.0007.2306 0 .475-.0113.7477-.0054.1518-.0112.2984-.0167.4395-.0131.3328-.0249.6355-.0291.9055.0398.006.0889.0102.1284.0138 1.6386.1578 1.7977 1.5158 1.076 1.8905-.7434.3843-1.6264 0-1.7417-1.2574-.0047-.039-.0057-.09-.0068-.1444-.0003-.0147-.0006-.0297-.001-.0448-.1764-.0073-.363-.0108-.5718-.0059-.0593.0014-.1176.0029-.1747.0043-.4794.0121-.8849.0222-1.2417.015-.0103.0806-.0207.1621-.0312.2439-.0739.5755-.1501 1.1692-.184 1.6263.4258.0288.8075.0956 1.0661.2264.8988.463.7073 1.4571.2744 1.7647-.8121.5752-1.7233-.1058-1.8538-1.2743-.0064-.0485-.008-.1045-.0095-.1603-.0006-.0186-.0011-.0372-.0018-.0556-.3485.0078-.7244.029-1.0967.05-.3064.0174-.6104.0345-.8944.0439-.0648.3773-.1443.7302-.2208 1.0699-.0327.1448-.0648.2872-.0949.428.1682.0879.3129.18.4342.2704 1.5918 1.236.6897 1.9742.3899 2.1113-.9698.4465-1.4881-.4-1.4775-1.2996.0028-.2637.0388-.5576.0886-.8624-.7141-.3445-1.7639-.6802-3.253-.7354-.5289 1.1619-.9584 2.1646-1.2482 2.8413-.0825.1927-.1537.3589-.2127.4948-.0826.1977-.1658.3836-.2471.565l-.003.0066c2.2261-.1965 4.8338.0904 6.772 1.054.0525.026.1022.0535.1512.0805.0388.0215.0771.0426.1158.0625 2.3142-2.1366 5.5757-4.9845 7.6207-6.0363 2.3531-1.2142 6.1133-2.3827 5.7415 1.255l-.0068.0615c-.0708.6404-.2175 1.9661-.2042 3.1189.2826.0742.5472.1579.7726.2588 1.5078.6791.9924 1.926.4198 2.1373-.6844.2556-1.4598.0675-1.6192-1.9127-.4869-.109-1.0404-.2471-1.5544-.4025-.1773.4725-.3858.9169-.5456 1.2576-.0571.1217-.108.2301-.149.3218-.0134.0282-.0237.0546-.0341.0811-.0066.0167-.0132.0335-.0206.0508.4484.1975.8407.438.9822.7336.738 1.55-1.0859 2.0084-1.6951.9675-.1948-.3322-.1454-.7906.0215-1.3587-.2315-.0666-.4821-.1325-.7396-.2003-.426-.112-.8708-.229-1.2787-.3622l-.0392.0742c-.2568.4863-.5808 1.0996-.8385 1.6719.5214.277.9882.6451 1.0185 1.158.0868 1.5331-1.7903 1.4135-1.9293.1445-.0293-.2869.0508-.6493.1982-1.0462-.3671-.16-.7547-.2812-1.141-.402-.2734-.0855-.546-.1708-.8102-.2695-.2776.4367-.5838.8582-.8435 1.2016.2272.251.3884.469.4805.6328.6544 1.1551-.2575 2.1141-1.2309 1.7753-.9426-.3291-.6565-1.4519.0861-2.4295-.533-.5337-1.3853-1.2213-2.5163-1.8365-.2716.2607-.5438.5227-.8157.7846-1.4656 1.4112-2.9258 2.8171-4.2654 3.9774 2.4959.811 4.8338 2.4035 6.5447 3.804 1.0907-.6384 2.125-1.2754 3.132-1.8956 1.0163-.626 2.0049-1.2348 2.9954-1.8107 5.6501-3.2918 9.1927-3.006 9.2192-.709.0113 1.1867-.2744 2.3535-.5267 3.3839-.1008.4115-.1962.8013-.2653 1.1618.4156.1881.8156.4145 1.0827.6968.925.9839-.0603 2.5399-1.1733 1.4441-.3623-.3624-.4491-1.0121-.4019-1.7538-.2095-.0926-.4182-.1816-.6225-.2688-.4223-.18-.8258-.3521-1.1798-.5317-.423.4946-.9529 1.1239-1.361 1.6779.2822.1814.5189.3681.6621.559.6703.8816-.086 1.7056-.6057 1.7619-.4706.052-1.6097-.3157-1.0167-1.7901.0406-.1051.1037-.2204.1725-.3371-.2272-.1304-.4745-.2647-.7662-.4141-.3854-.1986-.732-.3515-1.0387-.4867l-.068-.0301c-.0914.1152-.1897.2382-.2953.3702-.2681.3352-.5827.7287-.9482 1.2009-.0829.1125-.1478.2056-.2195.3069.2375.1427.4417.2819.5694.4155.6089.6352.4689 1.6818-.3344 1.8762-.7052.1712-1.4591-.4279-1.2312-1.4603.0526-.2335.1386-.4532.2452-.6687-.364-.1751-.7711-.3511-1.13-.5062-.4098-.1771-.7567-.3271-.9048-.4176-.0537.0538-.1079.108-.1626.1626-.3159.316-.6443.6445-.9427.9655.6974 1.081.5606 1.7703.241 2.1282-.9737 1.0961-2.0783-.019-1.6306-1.094.1274-.3034.3997-.6591.7331-1.0311-.4706-.6426-1.2609-1.4339-2.2021-2.2245-1.6023.9319-3.3955 1.9029-5.0909 2.6506 1.8799 1.1654 3.7924 2.858 5.1869 4.9567.2632-.0869.5352-.1771.8146-.2697zm21.601 33.8417c0-1.5998 1.6104-2.4615 3.187-2.4615 2.9429 0 3.9938 1.7173 4.5918 4.3806h.594v-4.8625h-.5514c-.068.664-.3294.8556-.6607.8556-.2724 0-.5575-.1319-.9232-.3012-.654-.3026-1.5658-.7246-3.1235-.7246-2.5365 0-5.0317 1.7022-5.0317 4.4168 0 2.7329 2.4862 3.6705 4.8598 4.5657 2.1681.8177 4.2422 1.5999 4.2422 3.6825 0 1.9493-1.7752 2.9677-3.4851 2.9677-3.2939 0-4.8404-2.5722-5.238-4.9518h-.5694v5.3497h.5542c.1133-.5842.4579-.6616.6939-.6616.4174 0 .8549.1476 1.3814.3251.7956.2683 1.7945.6051 3.2344.6051 3.0882 0 5.4401-2.1444 5.4401-4.8488 0-2.9849-2.4889-3.7996-4.8768-4.5813-2.2023-.721-4.319-1.4139-4.319-3.7555zm-86.793 4.3746h1.65347c1.82527 0 3.33869-.631 3.33869-3.5129 0-2.8858-1.53106-3.1445-3.31823-3.1445h-1.67393zm3.90698.2547c1.7332.1642 3.10132.9084 3.51012 3.5759.0505.3307.0807.7036.1116 1.0863.1295 1.6017.273 3.3766 1.9797 2.9592v.6666c-3.32.7526-4.15679-.8328-4.42314-2.5958-.08635-.5629-.13417-.942-.17914-1.2984-.0456-.3615-.08826-.6996-.16517-1.1824-.28151-1.795-.5013-2.6907-2.88537-2.6907h-1.85597v7.1007h1.68346v.6666h-5.6945512v-.6666h1.6129012v-14.5333h-1.6129012v-.6641h5.6850212c2.61303 0 6.13166.489 6.13166 3.8342 0 2.18-1.765 3.3109-3.89822 3.7418zm57.36502 7.6214c3.7112 0 4.9777-1.0943 5.2229-4.6304h.5532v5.297h-11.4692v-.6666h1.6125v-14.5298l-1.6125-.0035v-.6641h5.6857v.6676h-1.6743v14.5298zm13.74 0c3.7127 0 4.9749-1.0943 5.2222-4.6304h.5514l.0021 5.297h-11.4692v-.6666h1.6136v-14.5298h-1.6136v-.6676h10.9796v4.4238h-.5543c-.2878-2.6222-1.2484-3.7562-3.1376-3.7562h-3.2752v6.7147h1.7227c.9704 0 1.6873-.4281 1.6873-2.2642h.6304v5.1782l-.6304-.0032c0-1.8354-.7169-2.2639-1.6873-2.2639h-1.7227v7.1682zm-33.6113-14.5333h1.6136v14.5333h-1.6136v.6666h5.6462v-.6666h-1.632v-7.1689h1.7223c.9726 0 1.6845.4292 1.6845 2.2646h.6368v-5.175h-.6368c0 1.8361-.7119 2.2625-1.6845 2.2625h-1.7223v-6.7165h3.0251c1.8863 0 2.8505 1.1375 3.1387 3.7597h.5524v-4.4238h-10.7304zm-12.572 0h-1.6132v-.6641h10.7269v4.4238h-.5521c-.2878-2.6222-1.253-3.7597-3.1358-3.7597h-3.0269v6.7165h1.7216c.9733 0 1.6852-.4264 1.6852-2.2625h.6343v5.175h-.6343c0-1.8354-.7119-2.2646-1.6852-2.2646h-1.7216v7.1689h1.632v.6666h-5.6441v-.6666h1.6132zm-14.1137 9.5244 2.315-6.636 2.57 6.6395zm3.5483-10.1894h-.6759l-4.8017 13.6602c-.3549 1.0149-.8752 1.5373-1.5702 1.5373h-.5683v.6665h4.3864v-.6665h-.6794c-1.0989 0-1.1353-.7319-.8661-1.4927l.9737-2.7951h5.4137l1.663 4.2878h-1.7233v.6665h6.0085v-.6665h-1.7498z" fill="#fff" fill-rule="evenodd"/></svg>