<?xml version="1.0" encoding="UTF-8"?>
<svg width="94px" height="80px" viewBox="0 0 94 80" version="1.1" xmlns="http://www.w3.org/2000/svg" xmlns:xlink="http://www.w3.org/1999/xlink">
    <!-- Generator: Sketch 45.2 (43514) - http://www.bohemiancoding.com/sketch -->
    <title>reco</title>
    <desc>Created with Sketch.</desc>
    <defs></defs>
    <g id="Website" stroke="none" stroke-width="1" fill="none" fill-rule="evenodd" stroke-linecap="round" stroke-linejoin="round">
        <g id="reco" stroke="#FFFFFF" stroke-width="3">
            <g id="award" transform="translate(1.616162, 2.424242)">
                <path d="M67.8787879,8.08080808 C70.2464646,1.93131313 59.7979798,0 59.7979798,0 C59.7979798,0 61.6888889,10.4080808 67.8787879,8.08080808 Z" id="Shape"></path>
                <path d="M75.8868687,16.1212121 C81.9070707,13.4464646 75.8868687,4.75151515 75.8868687,4.75151515 C75.8868687,4.75151515 69.8666667,13.4464646 75.8868687,16.1212121 Z" id="Shape"></path>
                <path d="M80.4929293,27.9353535 C87.0787879,27.8060606 84.9050505,17.430303 84.9050505,17.430303 C84.9050505,17.430303 75.959596,23.1353535 80.4929293,27.9353535 Z" id="Shape"></path>
                <path d="M80.3313131,38.9414141 C85.8181818,42.5939394 89.9313131,32.8484848 89.9313131,32.8484848 C89.9313131,32.8484848 79.3616162,32.420202 80.3313131,38.9414141 Z" id="Shape"></path>
                <path d="M76.5575758,49.3656566 C80.5979798,54.5616162 87.5959596,46.6262626 87.5959596,46.6262626 C87.5959596,46.6262626 77.7050505,42.8767677 76.5575758,49.3656566 Z" id="Shape"></path>
                <path d="M69.1959596,58.989899 C71.9515152,64.969697 80.5656566,58.8363636 80.5656566,58.8363636 C80.5656566,58.8363636 71.789899,52.9292929 69.1959596,58.989899 Z" id="Shape"></path>
                <path d="M22.6262626,8.08080808 C20.2585859,1.93131313 30.7070707,0 30.7070707,0 C30.7070707,0 28.8161616,10.4080808 22.6262626,8.08080808 Z" id="Shape"></path>
                <path d="M14.6181818,16.1212121 C8.5979798,13.4464646 14.6181818,4.75151515 14.6181818,4.75151515 C14.6181818,4.75151515 20.6383838,13.4464646 14.6181818,16.1212121 Z" id="Shape"></path>
                <path d="M10.0121212,27.9353535 C3.42626263,27.8060606 5.6,17.430303 5.6,17.430303 C5.6,17.430303 14.5454545,23.1353535 10.0121212,27.9353535 Z" id="Shape"></path>
                <path d="M10.1737374,38.9414141 C4.69494949,42.5858586 0.573737374,32.8484848 0.573737374,32.8484848 C0.573737374,32.8484848 11.1434343,32.420202 10.1737374,38.9414141 Z" id="Shape"></path>
                <path d="M13.9474747,49.3656566 C9.90707071,54.5616162 2.90909091,46.6262626 2.90909091,46.6262626 C2.90909091,46.6262626 12.8,42.8767677 13.9474747,49.3656566 Z" id="Shape"></path>
                <path d="M21.3090909,58.989899 C18.5858586,64.969697 9.93939394,58.8282828 9.93939394,58.8282828 C9.93939394,58.8282828 18.7151515,52.9292929 21.3090909,58.989899 Z" id="Shape"></path>
                <path d="M67.8787879,8.08080808 C75.2323232,14.0929293 79.8949495,23.9434343 79.8949495,34.1818182 C79.9960234,48.6531587 70.4659462,61.4281497 56.5656566,65.4545455 C50.9090909,67.0707071 42.8282828,68.6868687 40.4040404,75.1515152" id="Shape"></path>
                <path d="M22.6262626,8.08080808 C15.2727273,14.0929293 10.610101,23.9434343 10.610101,34.1818182 C10.5090271,48.6531587 20.0391043,61.4281497 33.9393939,65.4545455 C39.5959596,67.0707071 47.6767677,68.6868687 50.1010101,75.1515152" id="Shape"></path>
            </g>
        </g>
    </g>
</svg>