<svg fill="none" height="18" viewBox="0 0 100 18" width="100" xmlns="http://www.w3.org/2000/svg"><path clip-rule="evenodd" d="m12.9102 5.25909c0 1.22294-.3106 2.26241-.9311 3.11844s-1.5271 1.3983-2.7206 1.62687l4.1493 7.314h-4.1734l-3.93595-6.9236h-1.57585v6.9236h-3.7226v-10.41284h5.91796c.33456 0 .68786-.01286 1.06175-.03712.37331-.02384 1.32894-.18086 1.68817-.66939l.02089-.02835c.17331-.23487.35524-.48141.35524-.93617 0-.44043-.19448-.87293-.42152-1.08816-.47931-.45386-.97538-.51458-1.32505-.55737h-.00001c-.04029-.00494-.07864-.00964-.11479-.01466-.3502-.04984-.69181-.07382-1.02609-.07382h-6.15655v-3.50052h6.53846c.85895 0 1.67365.0860939 2.44607.256837.77144.171321 1.44737.457048 2.02827.856023.5803.39942 1.0418.93808 1.3842 1.61383.3417.67705.5132 1.52137.5132 2.5324zm19.7713-5.25909c-.5391 0-1.0001.190956-1.3823.57368-.3822.382182-.5729.84275-.5729 1.38223 0 .53895.1907.99951.5729 1.38197.3822.38273.8432.57273 1.3823.57273.5395 0 .9999-.19 1.3823-.57273.3822-.38246.5731-.84302.5731-1.38197 0-.53948-.1909-1.000048-.5731-1.38223-.3824-.382724-.8428-.57368-1.3823-.57368zm4.7486 5.58659h5.682c2.72 0 4.9326 2.22806 4.9326 4.96711v6.7647h-3.2692v-6.7647c0-.83875-.8309-1.67547-1.6634-1.67547h-2.4899v8.44017h-3.1921zm40.2235 0h5.6818c2.7199 0 4.9328 2.22806 4.9328 4.96711v6.7647h-3.2691v-6.7647c0-.83875-.831-1.67547-1.6637-1.67547h-2.4896v8.44017h-3.1922zm-43.5754 11.73181h-3.3519v-11.73181h3.3519zm22.138-4.8484-2.8105-6.88341h-3.641l-.044.01866 4.7828 11.71315h3.4902l4.5761-11.73181h-3.669zm-36.8794-2.1879v3.4587h6.5415l2.0547 3.5776h-12.2906v-10.6142-.00029l10.2359.00029v3.5779zm-3.6944-6.93015h10.2359l2.0547-3.35195h-12.2906zm51.4765 6.88065c.1372-.98715 1.1692-1.9347 2.2379-1.9347.5169 0 1.1761.22246 1.5469.61052.3306.34641.5241.87192.5408 1.32418zm2.2569-4.64601c-2.2302 0-3.9348 1.02615-4.9086 2.81548-.9983 1.83283-1.0419 4.14253-.1108 5.88413.7786 1.4568 2.0891 2.5072 3.8267 2.8823.4658.1008.9364.1499 1.4025.1499 1.3879 0 2.7345-.4353 3.7769-1.2498l.0792-.0621-1.4227-2.4147s-.7131.4668-1.2575.7312c-.4549.2206-1.1136.3112-1.5734.2605-1.0139-.1121-1.7888-.7936-2.0511-1.7929h7.7233v-.1138c0-1.4696 0-2.99001-.6914-4.37338-.8764-1.7518-2.5784-2.71683-4.7931-2.71683zm27.8579 8.36851c.4652-.242 1.2055-.8121 1.2055-.8121l1.5608 2.6287-.9635.7026c-.7875.5592-1.7124.8441-2.643.8441-.6999 0-1.4029-.1609-2.0541-.4869-1.5177-.7601-2.46-2.2702-2.46-3.942v-4.02783h-1.9352v-3.22455h1.9352v-3.40248h3.4405v3.40248h4.0632l-.1113 3.22455h-3.9519v4.20253c0 .5808.4442.8515.6199.9397.1751.088.6738.2735 1.2939-.0488z" fill="#fff" fill-rule="evenodd"/></svg>