<svg fill="none" height="71" viewBox="0 0 100 71" width="100" xmlns="http://www.w3.org/2000/svg"><path d="m38.8887 33.3814h-4.1172c.1078-.8062.5188-2.2062 2.1313-2.2062 1.0547 0 1.8703.5968 1.9859 2.2062zm21.3533-2.1687c-.0735 0-2.2047-.2766-2.2047 3.125s2.1297 3.125 2.2047 3.125c2.0312 0 2.2047-2.1156 2.2047-3.125 0-3.4-2.1344-3.125-2.2047-3.125zm-38.0033 3.7125c-.1713.1343-.3075.308-.397.5064-.0895.1983-.1297.4154-.1171.6327 0 .7468.325.9453.5141 1.1015.7343.5781 2.3547.3313 3.2703.1485v-2.6469c-.8313-.1672-2.6141-.3063-3.2703.2578zm77.7613-3.675c0 13.6844-12.5001 24.1235-25.8376 21.3173-2.8704 5.1562-11.0517 11.0547-20.6564 6.5047-6.4313 15.0079-27.7954 14.4032-33.408-.8078-18.70633 3.7328-27.94075-21.6205-11.76098-31.1377-5.42971-12.411 3.53748-27.1267 17.86108-27.1267 2.9786.00184997 5.917.68914 8.5874 2.00867 2.6705 1.31952 5.0015 3.23589 6.8126 5.60074 3.2344-3.34376 7.7188-5.43909 12.6798-5.43909 6.6157 0 12.3438 3.67502 15.4376 9.15158 14.5032-6.35625 30.2845 4.411 30.2845 19.9283zm-81.1801 4.9687c0-1.8375-1.8266-2.3703-2.7922-2.6828-.8235-.3297-2.0953-.5484-2.0953-1.3969 0-1.4781 2.6562-1.0406 3.9328-.3312 0 0 .1828.1109.2562-.0735.0375-.1093.3688-1.0281.4047-1.139.014-.0438.0104-.0912-.01-.1324-.0204-.0411-.056-.0727-.0993-.0879-1.9266-1.1922-6.3594-1.3297-6.3594 1.9843 0 1.9469 1.7953 2.4126 2.7937 2.6829.7375.2468 2.0578.4687 2.0578 1.3594 0 .625-.5515 1.1031-1.4328 1.1031-1.0707-.0018-2.1121-.3499-2.9687-.9922-.0735-.0359-.2219-.1109-.2579.1109l-.375 1.1672c-.0734.1469.036.1844.036.2203.2734.2188 1.6094 1.0297 3.5656 1.0297 2.0578 0 3.3438-1.1031 3.3438-2.8297zm5-6.6531c-1.5828 0-2.9156.4953-3.3438.8094-.0171.0118-.0317.027-.0428.0445-.0112.0176-.0188.0372-.0223.0577s-.0028.0416.0019.0618c.0048.0203.0135.0394.0257.0563l.4047 1.1031c.011.0383.0362.071.0705.0913s.075.0268.1139.0181c.1016 0 1.0625-.625 2.6453-.625.625 0 1.1032.1109 1.4344.3687.5625.4375.4782 1.2953.4782 1.6532-.7485-.0469-2.986-.5375-4.5954.5875-.3669.2516-.6643.5917-.8648.9888-.2005.3972-.2975.8385-.2821 1.2831 0 .9218.236 1.625 1.0297 2.2421 1.9125 1.2751 5.6688.3126 5.9532.2204.2469-.05.5515-.1032.5515-.2938v-5.2938c.0063-.7203.05-3.3812-3.5593-3.3812zm7.2735-3.2782c.0016-.0246-.0021-.0493-.0108-.0724s-.0222-.0441-.0396-.0615c-.0175-.0175-.0385-.031-.0616-.0397s-.0478-.0123-.0724-.0107h-1.5344c-.0245-.0014-.049.0024-.0719.0112s-.0437.0224-.061.0398c-.0172.0174-.0306.0383-.0392.0613s-.0123.0475-.0107.072v12.3439c-.0016.0244.0021.049.0107.072s.022.0439.0392.0613c.0173.0174.0381.031.061.0398s.0474.0126.0719.0112h1.5438c.0246.0016.0493-.002.0724-.0107s.0441-.0222.0615-.0397c.0175-.0175.031-.0384.0397-.0615s.0124-.0478.0108-.0724zm8.711 4.5204c-.3282-.361-1.061-1.1766-2.7579-1.1766-.5484 0-2.2125.0359-3.2343 1.3969-.9922 1.1922-1.0282 2.8297-1.0282 3.3453 0 .4875.0235 2.2282 1.1032 3.3078.4125.4547 1.4156 1.286 3.564 1.286 1.6907 0 2.5735-.3672 2.9032-.5875.0734-.0375.1109-.1109.0375-.2938l-.3672-1.0672c-.0189-.0405-.0509-.0734-.091-.0933-.04-.0199-.0856-.0255-.1293-.016-.4047.1468-.9922.4406-2.3891.4406-2.7219 0-2.6328-2.3031-2.6469-2.6094h5.8079c.0424-.0009.0833-.0158.1164-.0423.033-.0266.0564-.0633.0664-.1046-.0453 0 .3234-2.2969-.9516-3.7859zm5.7328 8.2328c2.0578 0 3.3453-1.1031 3.3453-2.8297 0-1.8375-1.8281-2.3703-2.7937-2.6828-.6469-.2594-2.0953-.5281-2.0953-1.3969 0-.5875.514-.9922 1.3234-.9922.9088.0183 1.8015.2444 2.6094.661 0 0 .1844.1109.2578-.0735.0359-.1093.3672-1.0281.4031-1.139.014-.0438.0104-.0912-.01-.1324-.0204-.0411-.056-.0727-.0993-.088-1.236-.7656-2.6157-.7718-3.161-.7718-1.875 0-3.1969 1.139-3.1969 2.7562 0 1.9469 1.7938 2.4125 2.7922 2.6829.9547.3125 2.0578.5093 2.0578 1.3593 0 .625-.55 1.1032-1.4328 1.1032-1.0706-.0023-2.1119-.3503-2.9687-.9922-.0222-.0191-.0493-.0315-.0782-.0359s-.0585-.0006-.0854.0109c-.0268.0116-.0499.0304-.0666.0545-.0166.024-.0262.0522-.0277.0814l-.3671 1.175c-.0735.1469.0359.1844.0359.2203.2687.2188 1.6141 1.0297 3.5609 1.0297zm10.2579-9.0406c0-.111-.0375-.1844-.1844-.1844h-1.8375c0-.0219.1469-1.3969.6984-1.9485.65-.6484 1.8376-.2562 1.875-.2562.1829.0734.2204 0 .2563-.0735l.4422-1.214c.1094-.1469 0-.1828-.0375-.2203-.7953-.3125-2.711-.4485-3.8219.6625-.8563.8562-1.0938 2.175-1.25 3.05h-1.3235c-.0474.0039-.0918.0247-.1253.0585-.0336.0338-.0539.0784-.0575.1259l-.2218 1.2125c0 .1093.0375.1828.1843.1828h1.286c-1.3297 7.4844-1.3672 7.8453-1.6172 8.675-.1688.5657-.5141 1.0782-.9188 1.2125-.014 0-.6062.2625-1.5062-.0375 0 0-.1469-.0734-.2203.111-.0375.1109-.4047 1.0656-.4422 1.1765-.0375.111 0 .2203.0734.2203.7984.3125 2.0313.2766 2.7938 0 .9812-.3562 1.5187-1.2328 1.8015-2.0218.4297-1.2047.4391-1.5297 1.8375-9.3345h1.911c.0476-.0039.0922-.0246.126-.0583.0338-.0338.0545-.0784.0584-.126zm8.3422 2.5c-.0875-.2625-.7969-2.8297-3.9328-2.8297-2.3828 0-3.5938 1.5625-3.9313 2.8297-.1562.4687-.4969 2.1875 0 3.675.0141.0469.6891 2.8313 3.9313 2.8313 2.3359 0 3.5781-1.5016 3.9328-2.8313.5016-1.5016.1578-3.2063 0-3.675zm7.0938-2.6094c-.7812-.2578-2.5969-.2969-3.4547.8453v-.6984c.0014-.0245-.0025-.0491-.0113-.072s-.0223-.0437-.0398-.0609c-.0174-.0173-.0383-.0307-.0613-.0393-.0229-.0086-.0475-.0122-.072-.0107h-1.4687c-.0245-.0015-.0491.0021-.0721.0107-.0229.0086-.0438.022-.0613.0393-.0174.0172-.031.038-.0398.0609s-.0126.0475-.0112.072v8.6375c-.0014.0246.0025.0491.0113.0721.0087.023.0223.0439.0397.0613s.0383.0309.0612.0397c.023.0088.0476.0126.0722.0113h1.5062c.0246.0013.0492-.0025.0722-.0113.0229-.0088.0438-.0223.0612-.0397s.0309-.0383.0397-.0613.0127-.0475.0113-.0721v-4.3391c0-.4547.0078-1.7766.6969-2.3516.7656-.7656 1.875-.525 2.0953-.4781.0469-.0008.0926-.0151.1317-.0411.039-.0261.0698-.0628.0886-.1058.1834-.407.343-.8244.4781-1.25.0155-.0395.0167-.0832.0032-.1234-.0134-.0403-.0405-.0746-.0766-.0969zm7.3141 8.4531-.3312-1.139c-.0735-.1844-.2204-.111-.2204-.111-.6609.2844-1.5859.2954-1.764.2954-.725 0-2.6829-.1766-2.6829-3.0876 0-.9734.2891-3.0875 2.5735-3.0875.6102-.0155 1.2187.0716 1.8.2578 0 0 .1469.0735.1844-.1109.1468-.4047.2562-.6984.4047-1.1766.0359-.1468-.0735-.1828-.111-.1828-1.8109-.6047-3.4906-.3953-4.3375 0-.2484.1156-2.5359 1.0141-2.5359 4.3 0 .4532-.0907 4.7048 4.5219 4.7048.8282-.0017 1.6495-.1514 2.425-.4422.0336-.025.0586-.0596.0718-.0994.0131-.0397.0137-.0825.0016-.1225zm8.4172-6.175c-.125-.4687-.839-2.5359-3.4922-2.5359-2.5 0-3.675 1.5797-4.0062 2.9047-.1803.5955-.2673 1.2153-.2579 1.8375 0 4.0422 2.9438 4.5938 4.6688 4.5938 1.6906 0 2.5719-.3672 2.9032-.5875.0734-.0375.1109-.111.0375-.2938l-.3688-1.0672c-.0188-.0405-.0509-.0734-.091-.0933-.04-.0199-.0856-.0256-.1293-.0161-.4047.1469-.9922.4407-2.3891.4407-2.7219 0-2.6328-2.3032-2.6453-2.6094h5.8063c.0425-.0011.0835-.016.1168-.0425s.057-.0632.0675-.1044c-.0375-.0016.1469-1.1047-.2203-2.4281zm-3.639-.9922c-1.6141 0-2.0313 1.4063-2.1313 2.2063h4.1203c-.1375-1.8625-1.1906-2.2078-1.989-2.2078z" fill="#fff"/></svg>