<svg fill="none" height="29" viewBox="0 0 100 29" width="100" xmlns="http://www.w3.org/2000/svg"><path clip-rule="evenodd" d="m67.1896 3.61311c.3709-1.93544 1.6371-2.917895 3.7661-2.917895.9113 0 1.7822.303911 2.2863.714315l.0766.05907.0282.19923-.9314 1.29395-.2258.00158-.0484-.11654c-.3589-.79588-.875-1.10653-1.5807-1.10653-.2943 0-.6975.08706-.9475.3371-.4073.4054-.4758 1.00883-.4758 2.20528v1.8137h2.0927v1.16291h-2.0927v5.20202c0 1.2379.0443 1.8415.2056 2.0838.2621.3952 1.0605.425 1.2943.425h.1976v.4996l-.2056-.0121c-1.0363-.0536-1.8024-.0778-2.3589-.0778-.6935 0-1.4879.0004-2.3266.0778l-.2137.0222v-.4552l.1814-.0141c.1613-.0121.5565-.0738.8347-.3867.2903-.3238.3065-1.1166.3065-2.7153v-4.64922h-1.2258v-.52662l.125-.05121c.5282-.21814.8548-.39314 1.1008-.58145 0-.83064.0242-1.90318.1371-2.48689zm31.3749-2.853299.0928-.034637.1613.096855-.0081.090565c-.0605.773986-.0686 2.426286-.0686 3.664426v7.64878c0 1.1423.0162 1.8492.1815 2.0774.1935.279.6008.3254.8226.3436.0282 0 .0564.0024.0766.0052l.1774.0073v.504h-.1936c-.2137 0-1.0322.0573-1.8225.1935-.4557.0738-.7944.1396-.9597.2154l-.0847.0367-.25-.0835v-.7899c-.4637.3447-1.3871.8798-2.6209.8798-2.5766 0-4.242-1.7859-4.242-4.552 0-.9173.1815-1.79072.5162-2.5258.7822-1.70201 2.4193-2.67822 4.4758-2.67822.754 0 1.4274.09355 1.8306.18024v-1.99407c0-1.16943-.0161-1.79246-.1815-2.04447-.1925-.27154-.6006-.30327-.8192-.32026l-.0033-.00026c-.0187-.00059-.0346-.00135-.0486-.00247-.0103-.00081-.0195-.00181-.028-.00306l-.1775-.0173.0403-.42137h.1976c.0444 0 1.1291-.08971 2.0121-.263022.367-.060764.7339-.143709.9234-.213427zm-69.6132 4.645029c0-.80887.3057-3.44955 4.2383-3.44955 1.5437 0 2.7493.19448 2.8974.21836.0067.00109.0112.00182.0135.00217l.1694.02992-.0065.16617c0 .00043-.0001.00472-.0003.01253-.0018.08208-.0122.55417-.0122 1.0617 0 .1137-.0005.22357-.001.33079-.0014.30605-.0028.59063.0083.88195l.0157.29395h-.4774l-.0109-.18347c-.0351-.50016-.1815-.85927-.4552-1.13419-.3787-.37956-1.2146-.55681-2.1012-.55681-2.0827 0-2.3271 1.07149-2.3271 1.87447 0 1.10463.5663 1.47914 1.8023 2.29653l.0034.00225 1.4213.94194c1.2105.80766 2.3517 1.56975 2.3517 3.57785 0 3.3987-3.1702 3.7661-4.5331 3.7661-1.2161 0-2.1435-.1339-3.0948-.4436l-.137-.0447v-.6823c0-.9072-.0198-1.2641-.0396-1.5528l-.0266-.4718.5528.0008.0117.1968c.023.4234.1654.8399.4246 1.1319.3984.4512 1.3182.7246 2.1718.7246 1.7883 0 2.6198-.6779 2.6198-2.1315 0-1.2427-.7668-1.7608-1.8258-2.47624l-.0053-.00358-.1701-.11654-1.1226-.74717c-1.5609-1.03508-2.3553-1.8629-2.3553-3.51653zm-28.621967 7.83906c-.890522-5.34922.251572-10.01026.761567-11.19962l.00013-.00008 9.99477.00008v11.19962zm11.020867 14.9479v-26.14752-.00008l9.9963.00008c.9504 2.22016 4.1117 16.55522-7.9165 24.85562-.6492.4496-1.3387.8814-2.0798 1.2919zm-5.51576-24.85199c-.02701-.24702-.11854-.42883-.38387-.44182-.26572.01299-.35846.1948-.38346.44182-.00304.03095-.00641.06035-.00966.08865-.02517.21948-.04281.37326.16006.67764l.00565.30399c-.23557-.21123-.45073-.25329-.63625-.28956-.03582-.007-.07053-.01379-.10408-.02153.15242.59455.43508.71552.73871.77036v.50565c-.31774-.28387-.62177-.43065-.96613-.51049.19799.76815.57178 1.01048.96613 1.05524v.48831c-.39838-.28387-.79677-.50928-1.22621-.58992.25.77984.7242 1.06008 1.22621 1.09475v.43871c-.39838-.28306-.79677-.46814-1.22621-.54879.23992.75807.74033 1.17258 1.22621 1.2254v.38952c-.39838-.28387-.79677-.47661-1.22621-.55726.21734.68307.70726 1.16452 1.22621 1.20242v.31048c-.475-.31088-.97258-.55564-1.48749-.64516.29475.84073.89395 1.26291 1.48749 1.31048v.3552c-.23578-.209-.55087-.282-.81401-.3429-.02262-.0052-.04486-.0104-.06663-.0155.14476.5669.58669.7363.88064.8121l.00928.6685c-.0246 0-.07379-.0174-.12094-.0341-.03866-.0137-.07595-.0269-.09721-.0296.0121-.2322-.0625-.4516-.36129-.6427-.01411.1794.06411.4617.14476.6262-.16935-.0399-.33387-.1069-.50242-.1835.09194-.3456-.03105-.802-.42822-1.2064-.07299.2649-.03629.7262.04314 1.004-.13751-.0879-.26923-.1985-.40891-.3159-.00777-.0065-.01557-.013-.02339-.0196.16053-.3266.11335-.82378-.23939-1.30886-.10762.25-.1423.69556-.09847.99076-.15637-.1577-.28697-.3029-.44338-.4964.20919-.32258.27866-.7746-.09686-1.29839-.1096.24798-.22956.59678-.16383 1.01814-.09464-.13064-.20012-.27661-.29375-.42298.00091-.00315.00182-.00629.00273-.00942.02885-.09952.05362-.18495-.02555-.32687-.08666-.15927-.35266-.30403-.46625-.20564-.18524.09677-.07883.40403.03072.54435.09944.12547.18315.12704.27983.12886.00305.00005.00612.00011.00921.00017.0342.05481.06667.1094.09856.16302.05632.09472.11084.1864.16998.27085-.3008-.00363-.54036.22178-.75052.43511.46815.1972.81323.1326 1.04036-.0686.01269.0161.02536.0322.03801.0483.13925.1768.27659.3512.42268.4965-.31774.0597-.52657.2302-.73476.4435.51.2121.8852.1283 1.10335-.1165.15141.1464.29318.2411.44641.3379-.29968.1024-.52234.3242-.69762.5702.59963.1375.93753-.0101 1.08592-.3658.02782.0129.0554.0259.08283.0389.14079.0664.27771.1309.42282.1684-.17497.0897-.22657.208-.29735.3703-.00622.0143-.01258.0289-.01919.0438.37541-.0077.54637-.0948.61492-.3218.02164.0032.05768.0133.09501.0237.04336.0121.08845.0247.11467.0275v.5589l.48024.2145v-.7633c.04279.0007.08546-.0148.12815-.0303.03574-.0129.0715-.0259.10733-.0294.05807.24.28065.3315.67097.3416-.08145-.1831-.19274-.2899-.35524-.4283.17056-.0338.32863-.0907.49798-.1584.16613.3189.54153.481 1.11048.3504-.17822-.246-.39354-.4065-.68911-.5569.15141-.089.29445-.2134.43985-.34.02654-.0231.05315-.0462.07991-.0692.22298.2358.59234.3008 1.09234.0935-.24597-.25-.44395-.3343-.74597-.4266.02856-.0301.05926-.0619.09127-.0952.14106-.1464.30754-.3193.42849-.479.22741.1903.50282.2347.96088.0456-.20806-.21415-.42984-.28632-.73951-.38511.13467-.17016.28911-.38508.39838-.58105.15968.00484.25121-.07782.30404-.1996l.0028-.00642c.07476-.17156.17521-.40203-.03426-.49761-.15443-.09355-.325.02944-.43871.17258-.08266.10363-.11411.2246-.04556.38266-.11452.20847-.21048.35202-.34435.52541-.00363-.29073-.10162-.66452-.21008-.91331-.30968.61532-.30081.91976-.04113 1.23548-.14234.19317-.30323.37257-.45282.53067-.00283-.2895-.00767-.77059-.11734-1.01978-.36654.50726-.40162 1.01328-.2125 1.33868-.16815.1476-.34315.2625-.51653.3682.00395-.0328.00834-.0674.01292-.1034.03555-.2801.08203-.6463.01772-.8821-.39355.3984-.50927.8693-.42056 1.2121-.16331.0685-.32621.1149-.49073.1528.00824-.0248.01734-.0513.02685-.0791.05843-.1703.13258-.3865.12114-.5415-.30565.1944-.44275.4359-.42218.671-.02335.0026-.04649.0056-.06951.0087-.04933.0065-.09808.0129-.14702.0143l.00161-.6774c.30605-.0758.76613-.2726.89476-.8444-.24113.048-.68145.2286-.89153.3972v-.3625c.61854-.05766 1.22499-.51411 1.48306-1.35363-.41379.06113-.98958.40609-1.38312.64187-.03482.02086-.06822.04086-.09994.05974v-.31733c.52016-.04476 1.01814-.46694 1.21532-1.25-.36664.05915-.85503.37171-1.18205.581l-.02844.01819v-.38709c.49879-.06896 1.00323-.52218 1.21049-1.26815-.37742.05887-.8867.38831-1.21129.59839l-.00242-.45645c.51895-.04799.99838-.35524 1.21371-1.12702-.32548.05216-.75111.33343-1.07106.54485-.05106.03374-.09942.0657-.14426.09467v-.49718c.40725-.05685.77459-.33468.94596-1.09758-.30201.0617-.69596.34476-.95685.55484l.01089-.50443c.32177-.05404.61612-.20686.74959-.80665-.24193.04883-.54435.18366-.75282.35221l-.00524-.31205c.20611-.30816.18783-.46196.16121-.68585-.00307-.02577-.00624-.05247-.0092-.08044zm34.18016 1.00576.2097-.35919h.4113v2.10999h3.1935v1.16291h-3.1935v4.92622c0 1.4701.2742 2.3109 1.6653 2.3109.6492 0 1.1452-.2504 1.1492-.2545l.1935-.0992.1654.3819-.0807.0907c-.001.0012-.0028.0033-.0053.0063-.0746.0902-.8076.9756-2.4584.9756-1.4508 0-2.254-.5194-2.6109-1.6766-.1484-.4613-.1488-1.3682-.1488-1.9121 0-1.3998.0124-2.54197.0261-3.82063l.003-.27456.008-.65403h-1.2379v-.36936l.1202-.04879c.577-.23911.7972-.40121 1.0524-.59758.9012-.69919 1.5299-1.88104 1.5379-1.89798zm-23.0665 1.34355-1.2867-.76089.0017.65605c-.1375-.13831-.2662-.24677-.3162-.28347-.1451-.10766-.2742-.15685-.4048-.15685-.0766 0-.144.01653-.2044.03145l-.0083.00221c-.0965.02593-.1668.04483-.3099-.01713-.6488-.13145-1.1492.01371-1.427.40403-.2593.36855-.302.93468-.1097 1.48064.1585.44315.4541.89436.6742 1.19395.1274.17621 1.2561 1.36492 1.5161 1.63185.1871.19034.3891.37824.5944.56534l.0008.5048-.3242-.2197-.3222.7427.0678.0436c.2859.177.5689.6375.7621 3.0491-.698.2561-1.6359 1.092-1.6609 1.9549-.0117.4004.1786.9568 1.1617 1.3395.2113.0827.4419.1734.6701.2669.0121.4395.0234.9085.0323 1.4105-.1762.0649-.5827.2782-.6544.6048-.0569.2609.1012.5121.4717.7492.0649.0416.1355.0674.2041.0871.0015.0938.0023.1921.0031.2893.0003.034.0006.0679.0009.1015-.2153.1016-.2944.1524-.4278.3008-.0658.0778-.1274.1572-.0904.2338.0069.0202.0367.067.1134.067.0516 0 .1246-.021.2621-.0779.0798-.033.1282-.0467.1637-.0536.06.1416.1883.2331.335.2331.1573 0 .2875-.1085.3242-.2859l-.0002-.0134c-.0007-.0496-.0014-.0955-.0014-.1447.1754-.0859.2875-.2431.2956-.4371.008-.2221-.1089-.4367-.3032-.5822l-.0004-.0567c-.0011-.1681-.0021-.3311-.0029-.4961.6537-.1303 1.3488-.5529 1.4105-1.1206.0387-.3375-.1435-.8359-1.2262-1.275-.0364-.0143-.0719-.029-.1073-.0436-.0284-.0118-.0567-.0235-.0854-.035-.0012-.8887.0008-1.6912.0068-2.4234 1.1617-.5819 1.9524-1.123 2.054-1.85.1025-.7553-.5254-1.6496-1.8979-3.002.1592-1.90082.4496-2.42663.927-2.82502l.0399-.03306-.1778-1.16814-.0932.01572c-.254.04194-.4907.2871-.6479.50323zm-1.1.10322v-.5379l.915.54113.0008.77016-.467-.12298-.2105-.10847c.0283-.15444-.0858-.35565-.2383-.54194zm-.9169-.39233c.0153-.01936.0456-.02863.0786-.02581.0335.00242.0694.01693.098.04314.0327.02783.0512.06734.0532.10404.0012.02782-.0064.05443-.0242.07338-.0181.01895-.0443.02984-.0733.02984-.0367 0-.0754-.01855-.1061-.04718-.0318-.02903-.052-.06935-.0528-.10725-.0012-.02702.0089-.05323.0266-.07016zm30.652 2.39515c.2298-.73024 1.1492-1.97136 3.1653-1.97136 1.3064 0 2.1572.37136 2.6895 1.17338.3911.63669.4234 1.51491.4234 2.43427 0 .79965-.0198 1.68865-.0358 2.41085l-.0005.0226c-.0021.0862-.0042.1704-.0062.252-.0097.3903-.018.7229-.018.9403 0 .6638.1048 1.1759.6572 1.1759.1371 0 .2299-.0283.3105-.092l.1492-.1286.3105.3516-.1048.1323c-.5081.6125-.992 1.0451-1.8508 1.0451-.746 0-1.2662-.3536-1.4396-.9492-.4153.4323-1.1693.9702-2.3467.9702-2.5444 0-2.7419-1.9315-2.7419-2.5242 0-.696.1895-1.9266 1.8064-2.523 1.2402-.4557 1.7584-.61268 2.413-.81097.2286-.06926.4739-.14356.7725-.2374v-.29677c0-.55807-.0041-.69435-.1129-1.03871-.2218-.66371-.8589-1.07984-1.7218-1.07984-1.2702 0-1.7903.96815-1.7943.97823l-.1009.18871-.4677-.27944zm-32.0214-1.625c.1025-.26572.4101-.3379.5755-.3379.0451 0 .0782.00645.0963.01049.0561.01273.0584.02193.0755.08997l.0007.00277.0003.00103c.0278.11251.0697.28197.4054.39211.4145.1375.725.21049.9484.22137l.0028 2.58145c-.046-.04217-.0908-.08339-.1356-.12461-.0819-.07544-.1638-.15089-.2535-.23224-1.7541-1.58952-1.8274-2.31331-1.7158-2.60444zm58.3818 4.69634c0-2.31892 1.25-5.02698 4.7701-5.02698 2.867 0 4.5767 1.78387 4.5767 4.76938 0 2.3197-1.25 5.0286-4.7742 5.0286-2.8629 0-4.5726-1.7847-4.5726-4.771zm-14.5443-4.1048c.4758-.35162 1.4234-.90242 2.7177-.90242 1.6935 0 2.7984.79113 3.1129 2.2254.0887.35564.121 1.21814.121 1.67822v2.7375c0 1.5492.0605 1.9839.3508 2.2548.1451.1347.4556.2452.7258.2633l.1855.0133v.4379l-.4678-.0246-.1189-.006c-.6198-.0315-1.1674-.0593-1.7399-.0593-.6936 0-1.2944.0004-2.1291.0778l-.2177.0222v-.4347l.1693-.0229c.3629-.0565.617-.1601.7783-.3206.291-.2922.3169-.9711.34-1.5774.0009-.0237.0018-.0472.0027-.0706.004-.1036.0081-.2129.0121-.3254.0174-.3021.0168-.8903.0163-1.3919-.0001-.0809-.0002-.1595-.0002-.2343v-.0001c0-.7024 0-1.42815-.0725-2.14465-.1412-1.2133-.7742-1.77822-1.992-1.77822-.8387 0-1.3629.19234-1.758.39557v4.9258c0 1.5492.0645 1.9839.3548 2.2548.1452.1347.4516.2452.7258.2633l.1815.0133v.4379l-.496-.0262-.0472-.0024c-.6331-.0329-1.1808-.0613-1.7593-.0613-.6774 0-1.3145.0004-2.1532.0778l-.2137.0222v-.4463l.1815-.0129c.1572-.0138.5524-.0771.8306-.3896.2903-.3229.3105-1.1238.3105-2.7225v-2.68028c0-1.15322-.0202-1.64757-.1855-1.89878-.1935-.27581-.6169-.30605-.8427-.32218-.0283-.00081-.0525-.00444-.0767-.00524l-.1814-.01895v-.5371l.2137.01734c.0363.00484.0847.00484.1452.00484.2903 0 .9717-.03911 1.6935-.17984.491-.07777.8004-.23646.9425-.30929.0177-.00911.0329-.01687.0454-.02297l.1089-.04959.1855.11008zm-42.7508-.81371c.0142-.02621.0408-.04315.0734-.04879.0323-.00524.0698.00121.1045.01895.0689.03589.1008.10645.075.16331-.0198.03467-.0549.05241-.0976.05241-.027 0-.0545-.00645-.0803-.02016-.0399-.02097-.0705-.05484-.0814-.09072-.0077-.02702-.0057-.05282.0064-.075zm70.6418.03024.1089-.04798.1653.08629v.81532c.4517-.4242 1.1613-.8742 2.1694-.8742.6572 0 1.1855.17541 1.5685.52218l.0646.05968v.29637l-.7863 1.44758h-.3831l-.0565-.09234c-.2177-.34476-.6612-.75524-1.512-.75524-.3871 0-.7259.09839-1.0242.29838v4.72703c0 1.2379.0403 1.823.2056 2.0649.2621.3923 1.0565.4238 1.2903.4238h.1976v.5197l-.2056-.0121c-1.0323-.0536-1.8025-.0778-2.3549-.0778-.6975 0-1.4879.0004-2.3266.0778l-.2177.0222v-.4758l.1814-.0157c.1613-.0089.5605-.0718.8347-.3867.2944-.3234.3065-1.0944.3065-2.6931v-2.68028c0-1.15322-.0162-1.64757-.1815-1.89878-.1935-.27581-.6169-.30605-.8427-.32218-.0283-.00081-.0565-.00444-.0766-.00524l-.1815-.01895v-.56774l.2016.00362c.0363.00323.0968.00404.1532.00404.2944 0 .9758-.03589 1.6976-.17702.4557-.07581.8468-.19234 1.004-.26774zm-69.4393.56371c.0608-.01089.1044-.03629.1411-.06532l.2113.10403.2754.43951.0859-.02621-.0182-.28024.219-.04476v.44476l.1766.04032c.0943-.19153.3516-.54637.5976-.65604l.1322.86693.0008.00081c-.4842.41653-.7782.95403-.9427 2.76527-.2649-.25802-.5589-.53504-.8758-.82778zm63.2095 4.16616c0-.6315-.1169-3.78511-2.4234-3.78511-.5524 0-1 .14274-1.3266.4254-.758.63145-1.1371 1.78225-1.1371 3.41811 0 .6323.117 3.7863 2.4234 3.7863.5524 0 1-.1452 1.3307-.4258.754-.6318 1.133-1.7823 1.133-3.4189zm17.5887-3.09721c-.1532-.15162-.7218-.62782-1.875-.62782-1.8266 0-2.7177 1.2504-2.7177 3.82333 0 1.0432.2943 3.4678 3.0201 3.4678h.0847c.3306 0 .9476-.0476 1.4879-.3811zm-80.7942 3.68221v-.6883c.0456.041.0911.0823.1364.1234.034.0308.0678.0615.1015.092.1911.1701.377.3383.5552.504-.0697 1.4214-.0975 3.3911-.0935 6.1734-.1056-.0437-.2067-.0875-.3039-.1297-.0223-.0097-.0444-.0193-.0663-.0288-.1786-5.1548-.5762-5.7105-.9278-5.9476l.1677-.3903zm33.8814 2.5133v-3.1794c-1.25.3754-1.6774.5843-2.0645.7807-.5363.2717-.8186.825-.8186 1.4733 0 .5081.1815 1.3585 1.3992 1.3585.4032 0 .9798-.0734 1.4839-.4331zm-32.9802.3686c.0137-1.0641.0367-1.9436.0714-2.6819.6266.6021 1.0903 1.1694 1.0064 1.6787-.0605.3721-.4226.7012-1.0778 1.0032zm-7.75039 12.725c-5.48281-3.7823-7.8118-8.8149-8.628614-13.3891h10.708404v14.681c-.7411-.4105-1.42939-.8423-2.07979-1.2919zm-.58766-11.4351h-4.23064v4.2314h1.30564v2.3863h4.23145v-4.233h-1.30484zm6.66165 1.0718c-.0266-.2299.2283-.5315.8387-.9867.0291.5.0545 1.0673.0775 1.7028-.5311-.248-.8871-.4798-.9162-.7161zm-10.25922.1601v-.694h1.77056v.694zm2.34596 1.0774v-1.7714h.69314v1.7714zm-1.13306.0754v-.5395h.53629v.5395zm-1.23266 1.3072v-1.7693h.69233v1.7693zm11.45118 1.0452c-.0113-.729-.025-1.3936-.0419-2.0044.1205.0508.2351.102.3455.1536.0011.1775.0018.3581.0025.5417.0007.1709.0014.3442.0024.52l-.0049.0016v.6702l.0089-.0009c0 .1304.0011.2596.0023.3932l.0001.0133c-.0935-.0387-.2701-.1468-.3149-.2883zm.4919-.8444c-.0008-.3125-.002-.6185-.0032-.9165.3718.1891.6391.3746.6311.5298-.0033.0759-.0988.2226-.6279.3867zm-8.32575.8585v-1.7685h.69314v1.7685zm-2.32822-1.0577v-.6935h1.76975v.6935zm.01976 2.3077v-1.7698h.69233v1.7698zm1.23024-1.2294v-.5404h.5387v.5404zm-.01976 1.2096v-.6923h1.76975v.6923zm8.94953.2892c-.0016-.2452-.004-.4843-.0068-.7182.1943.0448.3064.0855.3024.3424v.3387l.0101-.0033c0 .0218.0008.0417.0016.0619v.001c-.025.1109-.1141.1182-.1407.1182-.0561 0-.1287-.0307-.1657-.1165zm51.0974 1.76c0-2.556 1.6008-4.0734 3.6089-4.0734.9435 0 1.7298.4642 2.2217.9912l-.7742.8605c-.3951-.3952-.8387-.6464-1.4354-.6464-1.2904 0-2.1976 1.0758-2.1976 2.8318 0 1.7791.8347 2.8549 2.1492 2.8549.6935 0 1.1935-.2867 1.6371-.7758l.7782.8483c-.6331.7283-1.4597 1.1339-2.4395 1.1339-1.996 0-3.5484-1.433-3.5484-4.025zm-37.7257 3.8827v-7.8133h1.5286l1.4105 3.8464.5141 1.4814h.0464l.5024-1.4814 1.3855-3.8464h1.5294v7.8133h-1.3012v-3.5722c0-.7058.0997-1.7008.1711-2.4144l.0071-.0707h-.048l-.6326 1.7803-1.3504 3.5475h-.6444l-1.3508-3.5475-.6214-1.7803h-.0479l.0012.0118c.0729.7169.1778 1.7479.1778 2.4733v3.5722zm11.8935 0v-7.8133h4.7056v1.1701h-3.3185v1.9968h2.8064v1.1702h-2.8064v2.306h3.4395v1.1702zm9.4193 0v-7.8133h2.0887c2.3912 0 3.7984 1.2907 3.7984 3.8709 0 2.5916-1.4072 3.9424-3.7258 3.9424zm10.4557 0v-7.8133h1.3871v7.8133zm16.2338 0v-7.8133h1.3871v7.8133zm6.3589 0v-7.8133h.004 1.4193l2.4355 4.3951.8024 1.6621h.0484c-.017-.2259-.0389-.4668-.0615-.716-.0576-.6344-.1199-1.3219-.1199-1.9485v-3.3927h1.3266v7.8133h-1.4194l-2.4395-4.396-.7984-1.6613h-.0484c.0178.2421.0404.4943.0635.7518.0556.6203.114 1.2716.114 1.8873v3.4182zm10.8306 0v-7.8133h4.7096v1.1701h-3.3225v1.9968h2.8064v1.1702h-2.8064v2.306h3.4395v1.1702zm-41.887-6.6903h-.6089v5.5665h.6089c1.5766 0 2.4758-.8952 2.4758-2.8186 0-1.9116-.8992-2.7479-2.4758-2.7479z" fill="#fff" fill-rule="evenodd"/></svg>