<svg width="100" height="29" viewBox="0 0 100 29" fill="none" xmlns="http://www.w3.org/2000/svg">
<path fill-rule="evenodd" clip-rule="evenodd" d="M67.1896 3.61311C67.5605 1.67767 68.8267 0.695215 70.9557 0.695215C71.867 0.695215 72.7379 0.999126 73.242 1.40953L73.3186 1.4686L73.3468 1.66783L72.4154 2.96178L72.1896 2.96336L72.1412 2.84682C71.7823 2.05094 71.2662 1.74029 70.5605 1.74029C70.2662 1.74029 69.863 1.82735 69.613 2.07739C69.2057 2.48279 69.1372 3.08622 69.1372 4.28267V6.09637H71.2299V7.25928H69.1372V12.4613C69.1372 13.6992 69.1815 14.3028 69.3428 14.5451C69.6049 14.9403 70.4033 14.9701 70.6371 14.9701H70.8347V15.4697L70.6291 15.4576C69.5928 15.404 68.8267 15.3798 68.2702 15.3798C67.5767 15.3798 66.7823 15.3802 65.9436 15.4576L65.7299 15.4798V15.0246L65.9113 15.0105C66.0726 14.9984 66.4678 14.9367 66.746 14.6238C67.0363 14.3 67.0525 13.5072 67.0525 11.9085V7.25928H65.8267V6.73266L65.9517 6.68145C66.4799 6.46331 66.8065 6.28831 67.0525 6.1C67.0525 5.26936 67.0767 4.19682 67.1896 3.61311ZM98.5645 0.759811L98.6573 0.725174L98.8186 0.822029L98.8105 0.912594C98.75 1.68658 98.7419 3.33888 98.7419 4.57702V12.2258C98.7419 13.3681 98.7581 14.075 98.9234 14.3032C99.1169 14.5822 99.5242 14.6286 99.746 14.6468C99.7742 14.6468 99.8024 14.6492 99.8226 14.652L100 14.6593V15.1633H99.8064C99.5927 15.1633 98.7742 15.2206 97.9839 15.3568C97.5282 15.4306 97.1895 15.4964 97.0242 15.5722L96.9395 15.6089L96.6895 15.5254V14.7355C96.2258 15.0802 95.3024 15.6153 94.0686 15.6153C91.492 15.6153 89.8266 13.8294 89.8266 11.0633C89.8266 10.146 90.0081 9.27258 90.3428 8.5375C91.125 6.83549 92.7621 5.85928 94.8186 5.85928C95.5726 5.85928 96.246 5.95283 96.6492 6.03952V4.04545C96.6492 2.87602 96.6331 2.25299 96.4677 2.00098C96.2752 1.72944 95.8671 1.69771 95.6485 1.68072L95.6452 1.68046C95.6265 1.67987 95.6106 1.67911 95.5966 1.67799C95.5863 1.67718 95.5771 1.67618 95.5686 1.67493L95.3911 1.65763L95.4314 1.23626H95.629C95.6734 1.23626 96.7581 1.14655 97.6411 0.973238C98.0081 0.912474 98.375 0.829529 98.5645 0.759811ZM28.9513 5.40484C28.9513 4.59597 29.257 1.95529 33.1896 1.95529C34.7333 1.95529 35.9389 2.14977 36.087 2.17365C36.0937 2.17474 36.0982 2.17547 36.1005 2.17582L36.2699 2.20574L36.2634 2.37191C36.2634 2.37234 36.2633 2.37663 36.2631 2.38444C36.2613 2.46652 36.2509 2.93861 36.2509 3.44614C36.2509 3.55984 36.2504 3.66971 36.2499 3.77693C36.2485 4.08298 36.2471 4.36756 36.2582 4.65888L36.2739 4.95283H35.7965L35.7856 4.76936C35.7505 4.2692 35.6041 3.91009 35.3304 3.63517C34.9517 3.25561 34.1158 3.07836 33.2292 3.07836C31.1465 3.07836 30.9021 4.14985 30.9021 4.95283C30.9021 6.05746 31.4684 6.43197 32.7044 7.24936L32.7078 7.25161L34.1291 8.19355C35.3396 9.00121 36.4808 9.7633 36.4808 11.7714C36.4808 15.1701 33.3106 15.5375 31.9477 15.5375C30.7316 15.5375 29.8042 15.4036 28.8529 15.0939L28.7159 15.0492V14.3669C28.7159 13.4597 28.6961 13.1028 28.6763 12.8141L28.6497 12.3423L29.2025 12.3431L29.2142 12.5399C29.2372 12.9633 29.3796 13.3798 29.6388 13.6718C30.0372 14.123 30.957 14.3964 31.8106 14.3964C33.5989 14.3964 34.4304 13.7185 34.4304 12.2649C34.4304 11.0222 33.6636 10.5041 32.6046 9.78866L32.5993 9.78508L32.4292 9.66854L31.3066 8.92137C29.7457 7.88629 28.9513 7.05847 28.9513 5.40484ZM0.329333 13.2439C-0.561189 7.89468 0.580905 3.23364 1.0909 2.04428L1.09103 2.0442L11.0858 2.04428V13.2439H0.329333ZM11.3502 28.1918V2.04428V2.0442L21.3465 2.04428C22.2969 4.26444 25.4582 18.5995 13.43 26.8999C12.7808 27.3495 12.0913 27.7813 11.3502 28.1918ZM5.83444 3.33981C5.80743 3.09279 5.7159 2.91098 5.45057 2.89799C5.18485 2.91098 5.09211 3.09279 5.06711 3.33981C5.06407 3.37076 5.0607 3.40016 5.05745 3.42846C5.03228 3.64794 5.01464 3.80172 5.21751 4.1061L5.22316 4.41009C4.98759 4.19886 4.77243 4.1568 4.58691 4.12053C4.55109 4.11353 4.51638 4.10674 4.48283 4.099C4.63525 4.69355 4.91791 4.81452 5.22154 4.86936V5.37501C4.9038 5.09114 4.59977 4.94436 4.25541 4.86452C4.4534 5.63267 4.82719 5.875 5.22154 5.91976V6.40807C4.82316 6.1242 4.42477 5.89879 3.99533 5.81815C4.24533 6.59799 4.71953 6.87823 5.22154 6.9129V7.35161C4.82316 7.06855 4.42477 6.88347 3.99533 6.80282C4.23525 7.56089 4.73566 7.9754 5.22154 8.02822V8.41774C4.82316 8.13387 4.42477 7.94113 3.99533 7.86048C4.21267 8.54355 4.70259 9.025 5.22154 9.0629V9.37338C4.74654 9.0625 4.24896 8.81774 3.73405 8.72822C4.0288 9.56895 4.628 9.99113 5.22154 10.0387V10.3939C4.98576 10.1849 4.67067 10.1119 4.40753 10.051C4.38491 10.0458 4.36267 10.0406 4.3409 10.0355C4.48566 10.6024 4.92759 10.7718 5.22154 10.8476L5.23082 11.5161C5.20622 11.5161 5.15703 11.4987 5.10988 11.482C5.07122 11.4683 5.03393 11.4551 5.01267 11.4524C5.02477 11.2202 4.95017 11.0008 4.65138 10.8097C4.63727 10.9891 4.71549 11.2714 4.79614 11.4359C4.62679 11.396 4.46227 11.329 4.29372 11.2524C4.38566 10.9068 4.26267 10.4504 3.8655 10.046C3.79251 10.3109 3.82921 10.7722 3.90864 11.05C3.77113 10.9621 3.63941 10.8515 3.49973 10.7341C3.49196 10.7276 3.48416 10.7211 3.47634 10.7145C3.63687 10.3879 3.58969 9.89072 3.23695 9.40564C3.12933 9.65564 3.09465 10.1012 3.13848 10.3964C2.98211 10.2387 2.85151 10.0935 2.6951 9.9C2.90429 9.57742 2.97376 9.1254 2.59824 8.60161C2.48864 8.84959 2.36868 9.19839 2.43441 9.61975C2.33977 9.48911 2.23429 9.34314 2.14066 9.19677C2.14157 9.19362 2.14248 9.19048 2.14339 9.18735C2.17224 9.08783 2.19701 9.0024 2.11784 8.86048C2.03118 8.70121 1.76518 8.55645 1.65159 8.65484C1.46635 8.75161 1.57276 9.05887 1.68231 9.19919C1.78175 9.32466 1.86546 9.32623 1.96214 9.32805C1.96519 9.3281 1.96826 9.32816 1.97135 9.32822C2.00555 9.38303 2.03802 9.43762 2.06991 9.49124C2.12623 9.58596 2.18075 9.67764 2.23989 9.76209C1.93909 9.75846 1.69953 9.98387 1.48937 10.1972C1.95752 10.3944 2.3026 10.3298 2.52973 10.1286C2.54242 10.1447 2.55509 10.1608 2.56774 10.1769C2.70699 10.3537 2.84433 10.5281 2.99042 10.6734C2.67268 10.7331 2.46385 10.9036 2.25566 11.1169C2.76566 11.329 3.14086 11.2452 3.35901 11.0004C3.51042 11.1468 3.65219 11.2415 3.80542 11.3383C3.50574 11.4407 3.28308 11.6625 3.1078 11.9085C3.70743 12.046 4.04533 11.8984 4.19372 11.5427C4.22154 11.5556 4.24912 11.5686 4.27655 11.5816C4.41734 11.648 4.55426 11.7125 4.69937 11.75C4.5244 11.8397 4.4728 11.958 4.40202 12.1203C4.3958 12.1346 4.38944 12.1492 4.38283 12.1641C4.75824 12.1564 4.9292 12.0693 4.99775 11.8423C5.01939 11.8455 5.05543 11.8556 5.09276 11.866C5.13612 11.8781 5.18121 11.8907 5.20743 11.8935V12.4524L5.68767 12.6669V11.9036C5.73046 11.9043 5.77313 11.8888 5.81582 11.8733C5.85156 11.8604 5.88732 11.8474 5.92315 11.8439C5.98122 12.0839 6.2038 12.1754 6.59412 12.1855C6.51267 12.0024 6.40138 11.8956 6.23888 11.7572C6.40944 11.7234 6.56751 11.6665 6.73686 11.5988C6.90299 11.9177 7.27839 12.0798 7.84734 11.9492C7.66912 11.7032 7.4538 11.5427 7.15823 11.3923C7.30964 11.3033 7.45268 11.1789 7.59808 11.0523C7.62462 11.0292 7.65123 11.0061 7.67799 10.9831C7.90097 11.2189 8.27033 11.2839 8.77033 11.0766C8.52436 10.8266 8.32638 10.7423 8.02436 10.65C8.05292 10.6199 8.08362 10.5881 8.11563 10.5548C8.25669 10.4084 8.42317 10.2355 8.54412 10.0758C8.77153 10.2661 9.04694 10.3105 9.505 10.1214C9.29694 9.90725 9.07516 9.83508 8.76549 9.73629C8.90016 9.56613 9.0546 9.35121 9.16387 9.15524C9.32355 9.16008 9.41508 9.07742 9.46791 8.95564L9.47071 8.94922C9.54547 8.77766 9.64592 8.54719 9.43645 8.45161C9.28202 8.35806 9.11145 8.48105 8.99774 8.62419C8.91508 8.72782 8.88363 8.84879 8.95218 9.00685C8.83766 9.21532 8.7417 9.35887 8.60783 9.53226C8.6042 9.24153 8.50621 8.86774 8.39775 8.61895C8.08807 9.23427 8.09694 9.53871 8.35662 9.85443C8.21428 10.0476 8.05339 10.227 7.9038 10.3851C7.90097 10.0956 7.89613 9.61451 7.78646 9.36532C7.41992 9.87258 7.38484 10.3786 7.57396 10.704C7.40581 10.8516 7.23081 10.9665 7.05743 11.0722C7.06138 11.0394 7.06577 11.0048 7.07035 10.9688C7.1059 10.6887 7.15238 10.3225 7.08807 10.0867C6.69452 10.4851 6.5788 10.956 6.66751 11.2988C6.5042 11.3673 6.3413 11.4137 6.17678 11.4516C6.18502 11.4268 6.19412 11.4003 6.20363 11.3725C6.26206 11.2022 6.33621 10.986 6.32477 10.831C6.01912 11.0254 5.88202 11.2669 5.90259 11.502C5.87924 11.5046 5.8561 11.5076 5.83308 11.5107C5.78375 11.5172 5.735 11.5236 5.68606 11.525L5.68767 10.8476C5.99372 10.7718 6.4538 10.575 6.58243 10.0032C6.3413 10.0512 5.90098 10.2318 5.6909 10.4004V10.0379C6.30944 9.98024 6.91589 9.52379 7.17396 8.68427C6.76017 8.7454 6.18438 9.09036 5.79084 9.32614C5.75602 9.347 5.72262 9.367 5.6909 9.38588V9.06855C6.21106 9.02379 6.70904 8.60161 6.90622 7.81855C6.53958 7.8777 6.05119 8.19026 5.72417 8.39955L5.69573 8.41774V8.03065C6.19452 7.96169 6.69896 7.50847 6.90622 6.7625C6.5288 6.82137 6.01952 7.15081 5.69493 7.36089L5.69251 6.90444C6.21146 6.85645 6.69089 6.5492 6.90622 5.77742C6.58074 5.82958 6.15511 6.11085 5.83516 6.32227C5.7841 6.35601 5.73574 6.38797 5.6909 6.41694V5.91976C6.09815 5.86291 6.46549 5.58508 6.63686 4.82218C6.33485 4.88388 5.9409 5.16694 5.68001 5.37702L5.6909 4.87259C6.01267 4.81855 6.30702 4.66573 6.44049 4.06594C6.19856 4.11477 5.89614 4.2496 5.68767 4.41815L5.68243 4.1061C5.88854 3.79794 5.87026 3.64414 5.84364 3.42025C5.84057 3.39448 5.8374 3.36778 5.83444 3.33981ZM40.0146 4.34557L40.2243 3.98638H40.6356V6.09637H43.8291V7.25928H40.6356V12.1855C40.6356 13.6556 40.9098 14.4964 42.3009 14.4964C42.9501 14.4964 43.4461 14.246 43.4501 14.2419L43.6436 14.1427L43.809 14.5246L43.7283 14.6153C43.7273 14.6165 43.7255 14.6186 43.723 14.6216C43.6484 14.7118 42.9154 15.5972 41.2646 15.5972C39.8138 15.5972 39.0106 15.0778 38.6537 13.9206C38.5053 13.4593 38.5049 12.5524 38.5049 12.0085C38.5049 10.6087 38.5173 9.46653 38.531 8.18787L38.534 7.91331L38.542 7.25928H37.3041V6.88992L37.4243 6.84113C38.0013 6.60202 38.2215 6.43992 38.4767 6.24355C39.3779 5.54436 40.0066 4.36251 40.0146 4.34557ZM16.9481 5.68912L15.6614 4.92823L15.6631 5.58428C15.5256 5.44597 15.3969 5.33751 15.3469 5.30081C15.2018 5.19315 15.0727 5.14396 14.9421 5.14396C14.8655 5.14396 14.7981 5.16049 14.7377 5.17541L14.7294 5.17762C14.6329 5.20355 14.5626 5.22245 14.4195 5.16049C13.7707 5.02904 13.2703 5.1742 12.9925 5.56452C12.7332 5.93307 12.6905 6.4992 12.8828 7.04516C13.0413 7.48831 13.3369 7.93952 13.557 8.23911C13.6844 8.41532 14.8131 9.60403 15.0731 9.87096C15.2602 10.0613 15.4622 10.2492 15.6675 10.4363L15.6683 10.9411L15.3441 10.7214L15.0219 11.4641L15.0897 11.5077C15.3756 11.6847 15.6586 12.1452 15.8518 14.5568C15.1538 14.8129 14.2159 15.6488 14.1909 16.5117C14.1792 16.9121 14.3695 17.4685 15.3526 17.8512C15.5639 17.9339 15.7945 18.0246 16.0227 18.1181C16.0348 18.5576 16.0461 19.0266 16.055 19.5286C15.8788 19.5935 15.4723 19.8068 15.4006 20.1334C15.3437 20.3943 15.5018 20.6455 15.8723 20.8826C15.9372 20.9242 16.0078 20.95 16.0764 20.9697C16.0779 21.0635 16.0787 21.1618 16.0795 21.259C16.0798 21.293 16.0801 21.3269 16.0804 21.3605C15.8651 21.4621 15.786 21.5129 15.6526 21.6613C15.5868 21.7391 15.5252 21.8185 15.5622 21.8951C15.5691 21.9153 15.5989 21.9621 15.6756 21.9621C15.7272 21.9621 15.8002 21.9411 15.9377 21.8842C16.0175 21.8512 16.0659 21.8375 16.1014 21.8306C16.1614 21.9722 16.2897 22.0637 16.4364 22.0637C16.5937 22.0637 16.7239 21.9552 16.7606 21.7778L16.7604 21.7644C16.7597 21.7148 16.759 21.6689 16.759 21.6197C16.9344 21.5338 17.0465 21.3766 17.0546 21.1826C17.0626 20.9605 16.9457 20.7459 16.7514 20.6004L16.751 20.5437C16.7499 20.3756 16.7489 20.2126 16.7481 20.0476C17.4018 19.9173 18.0969 19.4947 18.1586 18.927C18.1973 18.5895 18.0151 18.0911 16.9324 17.652C16.896 17.6377 16.8605 17.623 16.8251 17.6084C16.7967 17.5966 16.7684 17.5849 16.7397 17.5734C16.7385 16.6847 16.7405 15.8822 16.7465 15.15C17.9082 14.5681 18.6989 14.027 18.8005 13.3C18.903 12.5447 18.2751 11.6504 16.9026 10.298C17.0618 8.39718 17.3522 7.87137 17.8296 7.47298L17.8695 7.43992L17.6917 6.27178L17.5985 6.2875C17.3445 6.32944 17.1078 6.5746 16.9506 6.79073L16.9481 5.68912ZM15.8481 5.79234V5.25444L16.7631 5.79557L16.7639 6.56573L16.2969 6.44275L16.0864 6.33428C16.1147 6.17984 16.0006 5.97863 15.8481 5.79234ZM14.9312 5.40001C14.9465 5.38065 14.9768 5.37138 15.0098 5.3742C15.0433 5.37662 15.0792 5.39113 15.1078 5.41734C15.1405 5.44517 15.159 5.48468 15.161 5.52138C15.1622 5.5492 15.1546 5.57581 15.1368 5.59476C15.1187 5.61371 15.0925 5.6246 15.0635 5.6246C15.0268 5.6246 14.9881 5.60605 14.9574 5.57742C14.9256 5.54839 14.9054 5.50807 14.9046 5.47017C14.9034 5.44315 14.9135 5.41694 14.9312 5.40001ZM45.5832 7.79516C45.813 7.06492 46.7324 5.8238 48.7485 5.8238C50.0549 5.8238 50.9057 6.19516 51.438 6.99718C51.8291 7.63387 51.8614 8.51209 51.8614 9.43145C51.8614 10.2311 51.8416 11.1201 51.8256 11.8423L51.8251 11.8649C51.823 11.9511 51.8209 12.0353 51.8189 12.1169C51.8092 12.5072 51.8009 12.8398 51.8009 13.0572C51.8009 13.721 51.9057 14.2331 52.4581 14.2331C52.5952 14.2331 52.688 14.2048 52.7686 14.1411L52.9178 14.0125L53.2283 14.3641L53.1235 14.4964C52.6154 15.1089 52.1315 15.5415 51.2727 15.5415C50.5267 15.5415 50.0065 15.1879 49.8331 14.5923C49.4178 15.0246 48.6638 15.5625 47.4864 15.5625C44.942 15.5625 44.7445 13.631 44.7445 13.0383C44.7445 12.3423 44.934 11.1117 46.5509 10.5153C47.7911 10.0596 48.3093 9.90262 48.9639 9.70433C49.1925 9.63507 49.4378 9.56077 49.7364 9.46693V9.17016C49.7364 8.61209 49.7323 8.47581 49.6235 8.13145C49.4017 7.46774 48.7646 7.05161 47.9017 7.05161C46.6315 7.05161 46.1114 8.01976 46.1074 8.02984L46.0065 8.21855L45.5388 7.93911L45.5832 7.79516ZM13.5618 6.17016C13.6643 5.90444 13.9719 5.83226 14.1373 5.83226C14.1824 5.83226 14.2155 5.83871 14.2336 5.84275C14.2897 5.85548 14.292 5.86468 14.3091 5.93272L14.3098 5.93549L14.3101 5.93652C14.3379 6.04903 14.3798 6.21849 14.7155 6.32863C15.13 6.46613 15.4405 6.53912 15.6639 6.55L15.6667 9.13145C15.6207 9.08928 15.5759 9.04806 15.5311 9.00684C15.4492 8.9314 15.3673 8.85595 15.2776 8.7746C13.5235 7.18508 13.4502 6.46129 13.5618 6.17016ZM71.9436 10.8665C71.9436 8.54758 73.1936 5.83952 76.7137 5.83952C79.5807 5.83952 81.2904 7.62339 81.2904 10.6089C81.2904 12.9286 80.0404 15.6375 76.5162 15.6375C73.6533 15.6375 71.9436 13.8528 71.9436 10.8665ZM57.3993 6.7617C57.8751 6.41008 58.8227 5.85928 60.117 5.85928C61.8105 5.85928 62.9154 6.65041 63.2299 8.08468C63.3186 8.44032 63.3509 9.30282 63.3509 9.7629V12.5004C63.3509 14.0496 63.4114 14.4843 63.7017 14.7552C63.8468 14.8899 64.1573 15.0004 64.4275 15.0185L64.613 15.0318V15.4697L64.1452 15.4451L64.0263 15.4391C63.4065 15.4076 62.8589 15.3798 62.2864 15.3798C61.5928 15.3798 60.992 15.3802 60.1573 15.4576L59.9396 15.4798V15.0451L60.1089 15.0222C60.4718 14.9657 60.7259 14.8621 60.8872 14.7016C61.1782 14.4094 61.2041 13.7305 61.2272 13.1242C61.2281 13.1005 61.229 13.077 61.2299 13.0536C61.2339 12.95 61.238 12.8407 61.242 12.7282C61.2594 12.4261 61.2588 11.8379 61.2583 11.3363C61.2582 11.2554 61.2581 11.1768 61.2581 11.102V11.1019C61.2581 10.3995 61.2581 9.67375 61.1856 8.95725C61.0444 7.74395 60.4114 7.17903 59.1936 7.17903C58.3549 7.17903 57.8307 7.37137 57.4356 7.5746V12.5004C57.4356 14.0496 57.5001 14.4843 57.7904 14.7552C57.9356 14.8899 58.242 15.0004 58.5162 15.0185L58.6977 15.0318V15.4697L58.2017 15.4435L58.1545 15.4411C57.5214 15.4082 56.9737 15.3798 56.3952 15.3798C55.7178 15.3798 55.0807 15.3802 54.242 15.4576L54.0283 15.4798V15.0335L54.2098 15.0206C54.367 15.0068 54.7622 14.9435 55.0404 14.631C55.3307 14.3081 55.3509 13.5072 55.3509 11.9085V9.22822C55.3509 8.075 55.3307 7.58065 55.1654 7.32944C54.9719 7.05363 54.5485 7.02339 54.3227 7.00726C54.2944 7.00645 54.2702 7.00282 54.246 7.00202L54.0646 6.98307V6.44597L54.2783 6.46331C54.3146 6.46815 54.363 6.46815 54.4235 6.46815C54.7138 6.46815 55.3952 6.42904 56.117 6.28831C56.608 6.21054 56.9174 6.05185 57.0595 5.97902C57.0772 5.96991 57.0924 5.96215 57.1049 5.95605L57.2138 5.90646L57.3993 6.01654V6.7617ZM14.6485 5.94799C14.6627 5.92178 14.6893 5.90484 14.7219 5.8992C14.7542 5.89396 14.7917 5.90041 14.8264 5.91815C14.8953 5.95404 14.9272 6.0246 14.9014 6.08146C14.8816 6.11613 14.8465 6.13387 14.8038 6.13387C14.7768 6.13387 14.7493 6.12742 14.7235 6.11371C14.6836 6.09274 14.653 6.05887 14.6421 6.02299C14.6344 5.99597 14.6364 5.97017 14.6485 5.94799ZM85.2903 5.97823L85.3992 5.93025L85.5645 6.01654V6.83186C86.0162 6.40766 86.7258 5.95766 87.7339 5.95766C88.3911 5.95766 88.9194 6.13307 89.3024 6.47984L89.367 6.53952V6.83589L88.5807 8.28347H88.1976L88.1411 8.19113C87.9234 7.84637 87.4799 7.43589 86.6291 7.43589C86.242 7.43589 85.9032 7.53428 85.6049 7.73427V12.4613C85.6049 13.6992 85.6452 14.2843 85.8105 14.5262C86.0726 14.9185 86.867 14.95 87.1008 14.95H87.2984V15.4697L87.0928 15.4576C86.0605 15.404 85.2903 15.3798 84.7379 15.3798C84.0404 15.3798 83.25 15.3802 82.4113 15.4576L82.1936 15.4798V15.004L82.375 14.9883C82.5363 14.9794 82.9355 14.9165 83.2097 14.6016C83.5041 14.2782 83.5162 13.5072 83.5162 11.9085V9.22822C83.5162 8.075 83.5 7.58065 83.3347 7.32944C83.1412 7.05363 82.7178 7.02339 82.492 7.00726C82.4637 7.00645 82.4355 7.00282 82.4154 7.00202L82.2339 6.98307V6.41533L82.4355 6.41895C82.4718 6.42218 82.5323 6.42299 82.5887 6.42299C82.8831 6.42299 83.5645 6.3871 84.2863 6.24597C84.742 6.17016 85.1331 6.05363 85.2903 5.97823ZM15.851 6.54194C15.9118 6.53105 15.9554 6.50565 15.9921 6.47662L16.2034 6.58065L16.4788 7.02016L16.5647 6.99395L16.5465 6.71371L16.7655 6.66895V7.11371L16.9421 7.15403C17.0364 6.9625 17.2937 6.60766 17.5397 6.49799L17.6719 7.36492L17.6727 7.36573C17.1885 7.78226 16.8945 8.31976 16.73 10.131C16.4651 9.87298 16.1711 9.59596 15.8542 9.30322L15.851 6.54194ZM79.0605 10.7081C79.0605 10.0766 78.9436 6.92299 76.6371 6.92299C76.0847 6.92299 75.6371 7.06573 75.3105 7.34839C74.5525 7.97984 74.1734 9.13064 74.1734 10.7665C74.1734 11.3988 74.2904 14.5528 76.5968 14.5528C77.1492 14.5528 77.5968 14.4076 77.9275 14.127C78.6815 13.4952 79.0605 12.3447 79.0605 10.7081ZM96.6492 7.61089C96.496 7.45927 95.9274 6.98307 94.7742 6.98307C92.9476 6.98307 92.0565 8.23347 92.0565 10.8064C92.0565 11.8496 92.3508 14.2742 95.0766 14.2742H95.1613C95.4919 14.2742 96.1089 14.2266 96.6492 13.8931V7.61089ZM15.855 11.2931V10.6048C15.9006 10.6458 15.9461 10.6871 15.9914 10.7282C16.0254 10.759 16.0592 10.7897 16.0929 10.8202C16.284 10.9903 16.4699 11.1585 16.6481 11.3242C16.5784 12.7456 16.5506 14.7153 16.5546 17.4976C16.449 17.4539 16.3479 17.4101 16.2507 17.3679C16.2284 17.3582 16.2063 17.3486 16.1844 17.3391C16.0058 12.1843 15.6082 11.6286 15.2566 11.3915L15.4243 11.0012L15.855 11.2931ZM49.7364 13.8064V10.627C48.4864 11.0024 48.059 11.2113 47.6719 11.4077C47.1356 11.6794 46.8533 12.2327 46.8533 12.881C46.8533 13.3891 47.0348 14.2395 48.2525 14.2395C48.6557 14.2395 49.2323 14.1661 49.7364 13.8064ZM16.7562 14.175C16.7699 13.1109 16.7929 12.2314 16.8276 11.4931C17.4542 12.0952 17.9179 12.6625 17.834 13.1718C17.7735 13.5439 17.4114 13.873 16.7562 14.175ZM9.00581 26.9C3.523 23.1177 1.19401 18.0851 0.377196 13.5109H11.0856V28.1919C10.3445 27.7814 9.65621 27.3496 9.00581 26.9ZM8.41815 15.4649H4.18751V19.6963H5.49315V22.0826H9.7246V17.8496H8.41976L8.41815 15.4649ZM15.0798 16.5367C15.0532 16.3068 15.3081 16.0052 15.9185 15.55C15.9476 16.05 15.973 16.6173 15.996 17.2528C15.4649 17.0048 15.1089 16.773 15.0798 16.5367ZM4.82058 16.6968V16.0028H6.59114V16.6968H4.82058ZM7.16654 17.7742V16.0028H7.85968V17.7742H7.16654ZM6.03348 17.8496V17.3101H6.56977V17.8496H6.03348ZM4.80082 19.1568V17.3875H5.49315V19.1568H4.80082ZM16.252 20.202C16.2407 19.473 16.227 18.8084 16.2101 18.1976C16.3306 18.2484 16.4452 18.2996 16.5556 18.3512C16.5567 18.5287 16.5574 18.7093 16.5581 18.8929C16.5588 19.0638 16.5595 19.2371 16.5605 19.4129L16.5556 19.4145V20.0847L16.5645 20.0838C16.5645 20.2142 16.5656 20.3434 16.5668 20.477L16.5669 20.4903C16.4734 20.4516 16.2968 20.3435 16.252 20.202ZM16.7439 19.3576C16.7431 19.0451 16.7419 18.7391 16.7407 18.4411C17.1125 18.6302 17.3798 18.8157 17.3718 18.9709C17.3685 19.0468 17.273 19.1935 16.7439 19.3576ZM8.41815 20.2161V18.4476H9.11129V20.2161H8.41815ZM6.08993 19.1584V18.4649H7.85968V19.1584H6.08993ZM6.10969 21.4661V19.6963H6.80202V21.4661H6.10969ZM7.33993 20.2367V19.6963H7.87863V20.2367H7.33993ZM7.32017 21.4463V20.754H9.08992V21.4463H7.32017ZM16.2697 21.7355C16.2681 21.4903 16.2657 21.2512 16.2629 21.0173C16.4572 21.0621 16.5693 21.1028 16.5653 21.3597V21.6984L16.5754 21.6951C16.5754 21.7169 16.5762 21.7368 16.577 21.757L16.577 21.758C16.552 21.8689 16.4629 21.8762 16.4363 21.8762C16.3802 21.8762 16.3076 21.8455 16.2706 21.7597L16.2697 21.7355ZM67.3671 23.4955C67.3671 20.9395 68.9679 19.4221 70.976 19.4221C71.9195 19.4221 72.7058 19.8863 73.1977 20.4133L72.4235 21.2738C72.0284 20.8786 71.5848 20.6274 70.9881 20.6274C69.6977 20.6274 68.7905 21.7032 68.7905 23.4592C68.7905 25.2383 69.6252 26.3141 70.9397 26.3141C71.6332 26.3141 72.1332 26.0274 72.5768 25.5383L73.355 26.3866C72.7219 27.1149 71.8953 27.5205 70.9155 27.5205C68.9195 27.5205 67.3671 26.0875 67.3671 23.4955ZM29.6414 27.3782V19.5649H31.17L32.5805 23.4113L33.0946 24.8927H33.141L33.6434 23.4113L35.0289 19.5649H36.5583V27.3782H35.2571V23.806C35.2571 23.1002 35.3568 22.1052 35.4282 21.3916L35.4353 21.3209H35.3873L34.7547 23.1012L33.4043 26.6487H32.7599L31.4091 23.1012L30.7877 21.3209H30.7398L30.741 21.3327C30.8139 22.0496 30.9188 23.0806 30.9188 23.806V27.3782H29.6414ZM41.5349 27.3782V19.5649H46.2405V20.735H42.922V22.7318H45.7284V23.902H42.922V26.208H46.3615V27.3782H41.5349ZM50.9542 27.3782V19.5649H53.0429C55.4341 19.5649 56.8413 20.8556 56.8413 23.4358C56.8413 26.0274 55.4341 27.3782 53.1155 27.3782H50.9542ZM61.4099 27.3782V19.5649H62.797V27.3782H61.4099ZM77.6437 27.3782V19.5649H79.0308V27.3782H77.6437ZM84.0026 27.3782V19.5649H84.0066H85.4259L87.8614 23.96L88.6638 25.6221H88.7122C88.6952 25.3962 88.6733 25.1553 88.6507 24.9061C88.5931 24.2717 88.5308 23.5842 88.5308 22.9576V19.5649H89.8574V27.3782H88.438L85.9985 22.9822L85.2001 21.3209H85.1517C85.1695 21.563 85.1921 21.8152 85.2152 22.0727C85.2708 22.693 85.3292 23.3443 85.3292 23.96V27.3782H84.0026ZM94.8332 27.3782V19.5649H99.5428V20.735H96.2203V22.7318H99.0267V23.902H96.2203V26.208H99.6598V27.3782H94.8332ZM52.9462 20.6879H52.3373V26.2544H52.9462C54.5228 26.2544 55.422 25.3592 55.422 23.4358C55.422 21.5242 54.5228 20.6879 52.9462 20.6879Z" fill="white"/>
</svg>
