<svg fill="none" height="27" viewBox="0 0 100 27" width="100" xmlns="http://www.w3.org/2000/svg"><g fill="#fff"><path d="m23.0346 12.4138h2.9793v-9.40142h3.4262v-2.4331h-9.8483v2.4331h3.4428z"/><path d="m35.3501 9.94756.7614 2.46624h2.9793l-4.2704-11.83452h-2.9793l-4.2869 11.83452h2.9793l.7614-2.46624zm-3.3766-2.26759 1.3407-4.36965h.0331l1.3407 4.36965z"/><path d="m39.2607 12.4138h2.9793v-4.28693h2.7641c2.4662 0 4.0055-1.29104 4.0055-3.7738s-1.5393-3.77379-4.0055-3.77379h-5.7434zm2.9793-9.40142h2.1352c1.0262 0 1.6551.34759 1.6551 1.34069 0 .99311-.6289 1.34069-1.6551 1.34069h-2.1352z"/><path d="m49.396 12.4138h2.9793v-4.28693h2.7642c2.4662 0 4.0055-1.29104 4.0055-3.7738s-1.5393-3.77379-4.0055-3.77379h-5.7435zm2.9793-9.40142h2.1352c1.0262 0 1.6552.34759 1.6552 1.34069 0 .99311-.629 1.34069-1.6552 1.34069h-2.1352z"/><path d="m65.0723 12.6786c3.7242 0 5.8593-2.6152 5.8593-6.19035 0-3.55862-2.1351-6.173797-5.8593-6.173797-3.7572 0-5.8593 2.615177-5.8593 6.173797 0 3.57515 2.1021 6.19035 5.8593 6.19035zm0-2.4331c-2.1683 0-2.88-1.68829-2.88-3.75725 0-2.05242.7117-3.74069 2.88-3.74069 2.1517 0 2.88 1.68827 2.88 3.74069 0 2.06896-.7283 3.75725-2.88 3.75725z"/><path d="m71.4124.57928v11.83452h8.2428v-2.43314h-5.2635v-9.40138z"/><path d="m80.1092.57928v11.83452h8.2427v-2.43314h-5.2634v-9.40138z"/><path d="m93.765 12.6786c3.7241 0 5.8593-2.6152 5.8593-6.19035 0-3.55862-2.1352-6.173797-5.8593-6.173797-3.7573 0-5.8593 2.615177-5.8593 6.173797 0 3.57515 2.102 6.19035 5.8593 6.19035zm0-2.4331c-2.1683 0-2.88-1.68829-2.88-3.75725 0-2.05242.7117-3.74069 2.88-3.74069 2.1517 0 2.88 1.68827 2.88 3.74069 0 2.06896-.7283 3.75725-2.88 3.75725z"/><path d="m20.1215 26.2069h2.8137v-7.3655h.0331l2.2014 7.3655h2.0855l2.2014-7.3655h.0331v7.3655h2.8138v-11.8345h-3.6414l-2.4331 7.5476h-.0331l-2.4331-7.5476h-3.6413z"/><path d="m36.2426 18.9076v-2.1021h5.9917v-2.4331h-8.971v11.8345h9.0703v-2.4331h-6.091v-2.4331h5.1641v-2.4331z"/><path d="m42.9945 26.2069h5.4124c3.2938 0 5.1145-2.1021 5.1145-5.909s-1.9862-5.9255-5.28-5.9255h-5.2469zm2.9793-9.4014h1.9697c1.8538 0 2.5986 1.3407 2.5986 3.4924s-.7448 3.4759-2.5986 3.4759h-1.9697z"/><path d="m54.0192 14.3724v11.8345h2.9794v-11.8345z"/><path d="m64.7701 23.7407.7614 2.4662h2.9793l-4.2703-11.8345h-2.9794l-4.2868 11.8345h2.9793l.7613-2.4662zm-3.3765-2.2676 1.3406-4.3697h.0332l1.3406 4.3697z"/><path clip-rule="evenodd" d="m10.2346 13.7467c-.48703 0-.88288-.3985-.88288-.8893 0-.4914.39585-.8892.88288-.8892.4882 0 .884.3978.884.8892 0 .4908-.3958.8893-.884.8893zm-5.88125.5423c.0329.0255 1.10106.8537 2.74502.8288 1.64402.0249 2.71275-.8033 2.74565-.8288-.00582.0255-.43701 1.6666-2.74565 1.6571-2.30864.0095-2.73921-1.6316-2.74502-1.6571zm-1.27463-1.4316c0-.4914.39585-.8892.8829-.8892.48755 0 .88346.3978.88346.8892 0 .4908-.39591.8893-.88346.8893-.48705 0-.8829-.3985-.8829-.8893zm11.11848-5.84167c-.0488.02721-2.3239 1.32148-2.4086 3.46347 0 0-.0229-3.03421-1.291-5.02293-.85354-1.33799-2.40925-4.07087-.68823-5.45627 0 0-2.13514.738857-2.31158 4.97967-.08588 2.07928-1.90397 2.21132-2.2369.9532-.34469-1.29896-1.47515-3.33439-2.93798-3.42083 0 0 2.31271 2.11418 1.48873 3.92708-.15283.3361-.36712.69813-.5928 1.07941l-.00001.00001c-.50656.85583-1.07056 1.80868-1.1259 2.78306-1.08755-.55711-.80234-3.19943-.80234-3.19943s-.946948 1.3854-1.2457302 5.91453c-.3329328 3.6807 1.2133902 5.6374 3.7373202 6.4101.02186.0066.0438.0132.06581.0198-1.27447 1.0056-3.7930984 3.1488-3.672216 4.2916.161369 1.5266 1.226096 1.4291 1.484536 1.2669.12878-.0818.23298-.3481.23298-.3481.00094-.0038.07487-.3728-.01345-.5736-.03734-.0846-.12578-.0984-.1902-.0836-.0825.018-.17813.0932-.17582.2454l-.12872.0018c-.00331-.2159.13654-.3428.27689-.3743.14505-.0319.28021.0315.33594.1584.10702.2436.01301.6216.00801.6402.1356.0071.35914-.0186.46065-.2512.09319-.2126.05705-.4396.02172-.6614-.03105-.195-.06146-.3859-.00302-.5599.10631-.3162 1.15942-2.6582 2.18582-3.5553.01849.0034.03704.0067.0557.01l.0004.0001c-.26446 1.0673-.8512 3.5635-1.11345 5.6877 0 0-.77488.4595-.64566.7348s2.66759.0304 2.66759.0304.64566-2.4492 1.46264-2.9694c.81785.5202 1.46301 2.9694 1.46301 2.9694s2.53816.2449 2.66756-.0304c.1288-.2753-.6458-.7348-.6458-.7348-.2727-2.211-.89766-4.8252-1.14381-5.8109h.00012c.00938-.0018.0182-.0042.02702-.0071l.00009-.0001c1.07118.7847 2.22388 3.344 2.33528 3.6756.0585.174.0281.3649-.003.5599-.0353.2218-.0715.4488.0217.6614.1016.2326.3251.2583.4607.2512-.005-.0186-.099-.3966.008-.6402.0557-.1269.1909-.1903.3359-.1584.1404.0315.2802.1584.2769.3743l-.1287-.0018c.0023-.1522-.0933-.2274-.1758-.2454-.0644-.0148-.1529-.001-.1902.0836-.0883.2008-.0144.5698-.0135.5736 0 0 .1042.2663.233.3481.2585.1622 1.3232.2597 1.4846-1.2669.1278-1.2088-2.6975-3.5369-3.8799-4.4541h.0002c2.2739-.8567 3.632-2.7951 3.3185-6.2674-.5505-4.64284.617-5.96782.647-6.00097zm-2.5876-1.14036c-.8999-1.9273.8885-3.31551.8885-3.31551-.6065 1.06122-.5675 2.18961-.0815 3.39901.4856 1.20964-.3936 2.3755-.3936 2.3755s.1124-1.33211-.4134-2.459z" fill-rule="evenodd"/></g></svg>