<svg fill="none" height="55" viewBox="0 0 90 55" width="90" xmlns="http://www.w3.org/2000/svg"><path d="m89.0586 19.9667c-1.0935-.9718-2.7345-.7898-3.7067.3033l-5.4887 6.56c-1.3362 1.5191-2.4297 2.7335-3.5247 3.7053l.5475-1.7617c.7295-2.6122 1.0328-3.6446 1.5197-5.5882.546-2.0043.7295-3.8872.5459-5.6489-.2426-2.0043-.9115-3.7053-2.005-5.1623-1.3361-1.701-3.9493-3.76591-8.751-3.76591-1.6411 0-3.8887.36538-6.2577 1.70101-.3034-.54727-.8509-.97177-1.4591-1.1537-1.3983-.4245-2.8558.36537-3.282 1.7617-.546 1.7617-2.3083 4.9803-4.6182 7.7744l-1.2163 1.4479c-.038.0379-.0759.0743-.1123.1152l-11.3627 13.4855c-1.0329 1.1537-1.8837 1.8223-2.7952 1.8223-.546 0-.9722-.2425-1.277-.6079-.364-.4867-.4869-1.2144-.2427-2.0043l5.5449-20.1062c.182-.7292.2427-1.0931.2427-1.3372 0-1.3356-1.1542-2.49088-2.6739-2.49088-.7295 0-1.5197.30321-2.005.91116l-13.3086 15.79302c-.0501.0591-.0941.1212-.138.1834l-6.602 7.8336c-1.0329 1.1537-1.8837 1.8223-2.7952 1.8223-.546 0-.9722-.2426-1.2755-.6079-.364-.4867-.4869-1.2144-.2427-2.0043l5.2264-19.1344h5.9559c1.459 0 2.6132-1.1537 2.6132-2.6122 0-1.39784-1.1542-2.61221-2.6132-2.61221h-4.4969l1.4575-5.28505c.4262-1.39782-.4246-2.79413-1.823-3.2186318-1.3983-.3653742-2.7952.4866618-3.2198 1.8223218l-1.7624 6.37814c-1.0935 3.22013-2.3083 4.73773-6.13636 9.29353l-6.885588 8.1429c-.911507 1.0931-.85084 2.7335.242665 3.7053.486843.426 1.093503.6079 1.701683.6079.72951 0 1.4575-.3032 2.00501-.9111l4.93973-5.8339-2.24919 8.2611c-.66885 2.3681-.24267 4.7377 1.0935 6.5601 1.2755 1.701 3.28205 2.6728 5.46905 2.6728 3.4034 0 5.469-2.2468 6.9265-3.8872l6.4155-7.632c.0273-.0272.0546-.053.0819-.0833l5.7117-6.8027c-.0501.1835-.088.3427-.1138.4821l-2.3311 8.6902c-.6688 2.3681-.2426 4.7377 1.0935 6.5601 1.2755 1.701 3.2821 2.6728 5.4691 2.6728 3.4033 0 5.469-2.2468 6.9265-3.8872l5.6238-6.6905c.1183-.1061.2275-.2198.323-.3381l2.9165-3.4627c-6.0742 21.9877-6.9857 25.0259-6.9857 25.0866-.3655 1.3978.4247 2.7941 1.823 3.2186.2427.0606.4869.0606.7296.0606 1.1541 0 2.187-.7292 2.4918-1.8829 0-.0607.7295-2.7942 4.3756-15.6717 2.1278 2.6122 5.7723 3.5233 8.8724 3.5233 6.2592 0 12.3045-2.2301 19.6815-10.6322 1.4469-1.6465 5.5434-6.5116 5.5434-6.5116.9115-1.0931.7401-2.7183-.3534-3.6295zm-15.6973 1.8224c-.4869 2.0042-.7902 2.976-1.4575 5.3457-1.0935 3.9478-2.9772 8.443-7.9003 8.443-4.9822 0-7.1692-3.9479-5.5297-9.5968.3034-1.0324.6082-2.3696 1.0935-3.8266.8509-3.0367 2.187-5.285 4.0101-6.6813 1.7623-1.3372 3.464-1.6404 4.6182-1.6404 2.1278 0 3.7066.6079 4.6182 1.7617 1.0328 1.3963 1.277 3.6431.5475 6.1947z" fill="#fff"/></svg>