<svg fill="none" height="27" viewBox="0 0 100 27" width="100" xmlns="http://www.w3.org/2000/svg"><path clip-rule="evenodd" d="m19.5032 13.8791c0 11.7284 1.3683 12.1439 3.5041 12.1439 2.9797 0 12.7651-5.0545 12.7651-9.17 0-4.6081-10.8147-16.85280909-13.5163-16.85280909-.9171 0-2.7529 2.14958909-2.7529 13.87890909zm-19.5032 2.9738c0 4.1154 9.78537 9.1699 12.765 9.1699 2.1358 0 3.5041-.4155 3.5041-12.1439 0-11.72931-1.8358-13.8789-2.7528-13.8789-2.7017 0-13.5163 12.2447-13.5163 16.8529zm89.4312-.9958c0 2.9187 2.3658 5.2845 5.2845 5.2845s5.2843-2.3658 5.2843-5.2845-2.3656-5.2846-5.2843-5.2846-5.2845 2.3659-5.2845 5.2846zm1.6258 0c0-2.0204 1.6382-3.6586 3.6585-3.6586s3.6586 1.6382 3.6586 3.6586c0 2.0203-1.6383 3.6585-3.6586 3.6585s-3.6585-1.6382-3.6585-3.6585zm-16.2604 0c0 2.9187 2.3658 5.2845 5.2845 5.2845s5.2846-2.3658 5.2846-5.2845-2.3659-5.2846-5.2846-5.2846-5.2845 2.3659-5.2845 5.2846zm1.6265 0c0-2.0204 1.6383-3.6586 3.6586-3.6586s3.6585 1.6382 3.6585 3.6586c0 2.0203-1.6382 3.6585-3.6585 3.6585s-3.6586-1.6382-3.6586-3.6585zm-17.0734-2.0326h9.7561v7.3171h1.626v-16.26017h-1.626v7.31707h-9.7561v-7.31707h-1.6261v16.26017h1.6261zm-9.0789 7.3171c.6464 0 1.248-.1796 1.7618-.4853v.4853h1.626v-3.3032-7.2659h-1.626v7.1643c0 .9829-.9097 1.7788-2.0325 1.7788h-.4065c-1.3472 0-2.439-.9553-2.439-2.1341v-6.809h-1.6261v6.6057c0 2.1886 1.8204 3.9634 4.0651 3.9634z" fill="#fff" fill-rule="evenodd"/></svg>