<svg fill="none" height="84" viewBox="0 0 67 84" width="67" xmlns="http://www.w3.org/2000/svg"><path clip-rule="evenodd" d="m61.9197 28.2095c0-15.5795-12.63-28.2095-28.2095-28.2095-15.5794 0-28.20942 12.63-28.20942 28.2095 0 15.5794 12.63002 28.2089 28.20942 28.2089 15.5795 0 28.2095-12.6295 28.2095-28.2089zm-31.0472-11.4415.14-.0001c.0608.0001.1068.0006.1338.0009l.0277.0004 2.0625-.0017.7472.0006 2.0625.0011h.0065l.0909.0004c.3562.0025 1.5886.0192 1.9964.1322.4339.0552 1.4217 1.0123 1.6951 1.2847l.0527.0529.0186.0188 5.7399 6.0019s1.0389.9151.936 2.3937c-.0261.3734-.0612 2.3281-.0914 4.325l-.0059.3995c-.0305 2.0621-.0547 4.0597-.0576 4.2942l-.0002.0229.0024.013c.0153.0856.0876.591-.1681 1.3528-.2806.8376-.8485 1.6564-.8485 1.6564l-6.3001 9.8824s-.2493.602-.7556.8034c-.4649.1849-2.4162.213-2.4162.213h-4.662s-1.2975-.0138-1.6096-.0545c-1.3256-.1739-1.6084-1.0995-1.6084-1.0995l-6.2539-9.7448s-.5547-.8238-.8486-1.6564c-.2613-.7417-.1656-1.3658-.1656-1.3658l-.12-8.0093s-.1507-1.5969.12-2.3612c.2707-.7638 1.3476-1.6569 1.3476-1.6569l5.1732-5.4098s.056-.0512.1484-.1339l.1039-.0924c.1528-.1352.359-.3146.5722-.4912l.1605-.1313c.2139-.1723.4234-.3302.5822-.4267.3029-.1841 1.4413-.2121 1.9915-.2147zm3.7061 20.9574c0-.4039-.3307-.7341-.7346-.7341s-.7341.3302-.7341.7341c0 0-.0682 3.1338-.0682 3.235 0 1.0654-.8667 1.9326-1.932 1.9326-.7787 0-1.4775-.4633-1.7813-1.1803-.1364-.323-.509-.4744-.8325-.3379-.3231.137-.4744.5096-.3374.8326.5024 1.188 1.6613 1.9562 2.9512 1.9562 1.1605 0 2.1758-.6234 2.7376-1.5507.5618.9273 1.5771 1.5502 2.7382 1.5502 1.2898 0 2.4482-.7677 2.9506-1.9557.137-.323-.0143-.6961-.3373-.8326-.3236-.137-.6961.0143-.8326.3373-.3032.717-1.0021 1.1804-1.7807 1.1804-1.0659 0-1.9326-.8667-1.9326-1.9321 0-.1062-.0743-3.235-.0743-3.235zm8.3679-13.809c0-.4364-.3571-.7935-.7935-.7935h-5.9165c-.2972 0-.5547.1678-.6906.4122-.0886.1221-.1294.2784-.1007.438l.0082.044c.0044.0325.0094.0644.0176.0958l1.4764 8.0835-6.2286-.0022-.0957.0199 1.1484-8.0831c.005-.033.005-.0649.0038-.0974 0-.0029.0006-.0058.0011-.0087.0006-.003.0012-.0061.0012-.0094 0-.4364-.3577-.7935-.7941-.7935h-5.916c-.4364 0-.7935.3571-.7935.7935 0 .4363.3571.7935.7935.7935h5.4422l-1.0686 7.5212c-.0116.0814-.0044.1606.0165.2349-.0092.0827-.0198.2098-.0216.3684l.0002.1102c.0168 1.1268.5057 3.4823 4.3135 3.429l.0879-.0002c.6537-.0104 4.7214-.2464 4.2698-4.5187l-.0303.0066-1.3245-7.2505h5.4004c.4364 0 .7935-.3571.7935-.7935zm-10.35 41.2359c-.8034-.9195-1.7741-1.3757-2.9143-1.3691-1.1214.0066-2.0811.4711-2.8774 1.3939-.7979.9234-1.1924 2.041-1.1847 3.3528l.0616 10.7701c.0077 1.3008.4105 2.4118 1.209 3.3308.7984.9195 1.7675 1.3752 2.9076 1.3692 1.1303-.0067 2.0944-.4717 2.8917-1.3945.7968-.9234 1.1914-2.0404 1.1842-3.3529l-.0616-10.7694c-.0077-1.3015-.4133-2.4119-1.2161-3.3309zm30.7196-1.3248c-.3412-.2625-.7665-.4149-1.2288-.4149-.4617 0-.887.1524-1.2282.4149-.3835.2944-.6614.7192-.7616 1.2128-.0159.0683-.0264.1316-.0313.1998l-2.5418 17.008v.0154c-.0104.0473-.0209.0946-.0264.1475v.0258c-.0049.0369-.0049.0738-.0049.1106 0 .5355.3098.9922.756 1.2128.1783.0892.3836.142.5987.142.2152 0 .4199-.0528.6037-.142.3676-.1837.6411-.5249.7247-.9398.0105-.0473.016-.0892.0215-.142l.493-3.497h2.7569l.4623 3.4238.0258.2311c0 .005 0 .0105.0055.0154.0947.4045.3731.7352.7352.9085.1838.0947.3835.142.5987.142.2151 0 .4149-.0473.5987-.142.4567-.2206.7715-.6878.7715-1.2287 0-.021 0-.0422-.0006-.0633-.0007-.021-.0019-.0419-.0044-.0627-.0055-.0523-.0104-.1051-.0209-.1574 0-.0055 0-.0055-.0055-.0105l-2.4993-16.9975c-.0055-.0737-.016-.142-.0314-.2152-.1051-.4831-.3781-.9085-.7671-1.1974zm-15.9522.709c-.2625-.4303-.7401-.7143-1.281-.7143h-5.6767c-.5404 0-1.0186.284-1.281.7143-.147.2311-.2312.5041-.2312.7979 0 .2944.0842.5673.2312.7985.2624.4303.7406.7142 1.281.7142h1.5232v15.7319c0 .5145.2938.9663.7241 1.1815.1789.0891.3781.1414.5938.1414.2151 0 .4144-.0468.5932-.1414.4358-.2152.7297-.662.7297-1.1815v-15.7319h1.3547c.0529.005.1051.005.158.005.0523 0 .1051 0 .1574-.005.4726-.0528.8876-.3257 1.1236-.7142.1469-.2312.2311-.5096.2311-.7985 0-.2938-.0842-.5668-.2311-.7979zm-44.51842.1917c-.14307-.6922-.82046-1.1374-1.51326-.9943-.568988.1177-.970141.597-1.015814 1.1484l.09795 18.984 7.043564.0331c.74617-.0584 1.33332-.6813 1.33277-1.4423 0-.766-.59595-1.3911-1.34928-1.4423l-4.45836-.0083-.00003-.0049-.00031-.0389c-.00729-.925-.12762-16.1891-.13723-16.2345zm14.49022.1341c0-.7159-.5806-1.2954-1.2959-1.2948-.7154 0-1.2948.5805-1.2948 1.2959l.0002.0488.0371 7.7511.0025.5293.0051 1.0622.0025.5296c.0181 3.7853.035 7.3167.0371 7.796l.0002.0547c.0006.7237.585 1.2354 1.3086 1.2354.7236-.0005 1.3096-.5871 1.3091-1.3107l-.0002-.0299c-.0032-.4949-.0487-6.9454-.0519-7.4055l-.0002-.0259 3.1184-.0181.0479 7.5438h.0011c.0336.6834.5971 1.2276 1.2888 1.2271.6961 0 1.2618-.552 1.2882-1.242l-.0003-.0465-.0455-8.2173-.0029-.5275c-.0229-4.1347-.0458-8.2745-.0485-8.7758l-.0002-.0506c-.0006-.7181-.5828-1.3003-1.3009-1.2998-.7181.0006-1.3003.5828-1.2997 1.3009l.0002.0304c.0034.4866.0511 6.5963.0546 7.04l.0002.0254-3.1184.0182-.0002-.026c-.0027-.4538-.0394-6.7025-.0421-7.1886zm-4.767 5.5588c-.0005-.717-.5822-1.2976-1.2986-1.2976-.6928.0006-1.2569.5437-1.29483 1.2266v.0203c-.00023.0076-.00078.015-.00132.0224-.00072.0097-.00143.0194-.00143.0294 0 .0143.00098.0286.00196.0429.00049.0072.00098.0143.00134.0214l.07648 11.9218c-.07373.6361.3307 1.2448.9685 1.4076.6956.1778 1.4038-.2421 1.5815-.9382.0182-.0693.0281-.1387.0358-.208v-.016c.0055-.0709.0049-.1414-.0011-.2112l-.076-11.8833c.0044-.0457.0077-.0914.0077-.1381zm42.5565-6.6092c-.0424-.0055-.0842-.0055-.1316-.0055-.0418 0-.0842 0-.126.0055h-.0264l-6.2225-.0055v19.9536h6.3749c.4518 0 .8612-.1992 1.1397-.5145.2305-.2674.3725-.6141.3725-.9976 0-.383-.142-.7297-.3725-.9977-.2785-.3148-.6879-.5145-1.1397-.5145h-3.7336v-5.44h2.4207c.4518 0 .8612-.1998 1.1396-.5146.2311-.2679.3725-.6146.3725-.9976 0-.3836-.1414-.7297-.3725-.9977-.2784-.3153-.6878-.5145-1.1396-.5145h-2.4207v-5.44h3.7336c.4518 0 .8612-.1998 1.1397-.5145.2305-.268.3725-.6147.3725-.9977 0-.3835-.142-.7302-.3725-.9982-.2471-.2779-.5938-.4672-.9878-.509zm-26.5446 3.4337c.29-.3324.6399-.4997 1.0504-.5019.41-.0027.7594.1607 1.0489.4898.2894.329.4352.7296.4374 1.2018l.0622 10.8014c.0028.4727-.1386.8744-.4237 1.2068-.2856.3323-.6334.4996-1.0433.5018-.4105.0028-.7627-.1607-1.0565-.4897-.2933-.3291-.4414-.7297-.4441-1.2019l-.0622-10.8014c-.0028-.4721.1409-.8744.4309-1.2067zm32.5201 9.0056.9762-7.8608.9767 7.8608zm-48.1643-10.8843c-.0056-.9943-.7408-1.7966-1.6416-1.7912-.9013.005-1.62713.8156-1.62166 1.8099.00608.9949.74126 1.7972 1.64206 1.7923.9008-.0055 1.6266-.8161 1.6212-1.811z" fill="#fff" fill-rule="evenodd"/></svg>