<svg fill="none" height="71" viewBox="0 0 90 71" width="90" xmlns="http://www.w3.org/2000/svg"><g fill="#fff"><path d="m55.1195 57.4154v-1.9514c0-1.2939-.2281-2.121-1.1166-2.4827l-2.664.3028.055.5566 2.0402-.1865c.5519.2215.6392.7486.6519 1.4103l-2.9076.485c-.4083.8327.0141 2.4785 1.4024 2.4785h.3591l1.1813-.5285.1506.5285h1.7572v-.4486zm-2.2388-.0617c-.8307 0-.9912-1.071-.78-1.4636l1.9867-.3518v1.4958c-.2239.1275-.6519.3196-1.2067.3196z"/><path d="m30.3808 57.4154v-1.9514c0-1.2939-.2281-2.121-1.1166-2.4827l-2.664.3028.055.5566 2.0402-.1865c.5519.2215.6392.7486.6519 1.4103l-2.9076.485c-.4083.8327.0141 2.4785 1.4024 2.4785h.3591l1.1813-.5285.1506.5285h1.7572v-.4486zm-2.2374-.0617c-.8307 0-.9912-1.071-.78-1.4636l1.9867-.3518v1.4958c-.2253.1275-.6533.3196-1.2067.3196z"/><path d="m43.1232 53.6808-.1267-.5495-1.7952.2453v.4024h.9405v3.6322l-.9405.1682v.45h2.9258v-.45l-.9405-.1682v-3.3126"/><path d="m46.5602 57.4112v-1.9556c0-1.3766-.5294-2.1897-1.5376-2.4813l-2.3866.757.1099.457 2.0092-.6294c.4998.2804.7603.9434.7603 2.0172v2.4533h1.9628v-.4542z"/><path d="m49.9633 57.4112v-1.9556c0-1.3766-.5294-2.1897-1.5375-2.4813l-2.3866.757.1098.457 2.0092-.6294c.4999.2804.7618.9434.7618 2.0172v2.4533h1.9627v-.4542z"/><path d="m40.4311 57.1392c-.245.1612-.8772.5215-1.5981.5243-.8166.0028-1.3587-.572-1.4615-1.6907l3.2497-.3532.1492-.2159c-.0352-1.493-.5744-2.4308-2.0022-2.4308-1.6347 0-2.5048.893-2.5048 2.6046 0 1.7117.9321 2.6691 2.5865 2.6046.88-.0336 1.5784-.4485 1.8445-.6308zm-1.6629-3.7345c.5928.0406.9899.764.9603 1.8098l-2.3753.2593c.0239-1.4046.4886-2.1336 1.415-2.0691z"/><path d="m66.3427 57.1392c-.245.1612-.8772.5215-1.5981.5243-.8167.0028-1.3587-.572-1.4615-1.6907l3.2496-.3532.1493-.2159c-.0352-1.493-.5745-2.4308-2.0022-2.4308-1.6347 0-2.5048.893-2.5048 2.6046 0 1.7117.9321 2.6691 2.5865 2.6046.88-.0336 1.5784-.4485 1.8445-.6308zm-1.6629-3.7345c.5928.0406.9898.764.9603 1.8098l-2.3753.2593c.0239-1.4046.4885-2.1336 1.415-2.0691z"/><path d="m33.8487 56.9514-1.2996-3.1808.9419-.1683v-.45h-2.6132v.45l.6279.1683 1.6826 4.2588h.7758l2.1374-4.8771h-.5801z"/><path d="m20.8049 56.9514-1.1841-3.1808.9419-.1683v-.45h-2.6147v.45l.6294.1683 1.5671 4.2588h.7758l1.7868-4.8771h-.5787z"/><path d="m23.9616 56.9514-1.2742-3.7948h-.3858l-.2028.6392-.145.3771 1.3475 3.8565h.7758l2.0486-4.8771h-.5801z"/><path d="m58.4705 57.428v-5.7238l-.1887-.8158-1.7966.2453v.4037h.942v5.8906l-.942.1696v.45h2.9258v-.45z"/><path d="m59.6898 55.1262 2.2641-1.6865-.0957-.2874h-.9856l-2.2543 2.1351 1.7812 2.7602h1.7769v-.4542l-.9195-.1654z"/><path d="m70.9271 52.9729-1.9219.6098-.1042-.4528-1.7966.2453v.4038h.9419v3.6322l-.9419.1696v.45h2.9258v-.45l-.9419-.1696v-3.3603l1.5713-.492c.1943.1093.3534.2762.4745.5033l.9166-.2916c-.2563-.3911-.6336-.6561-1.1236-.7977z"/><path d="m21.1048 62.0975v7.905h-1.8163v-7.905z"/><path d="m32.511 62.0975v7.905h-1.8163v-4.9233l-2.3049 3.0491h-.1591l-2.3035-3.0491v4.9233h-1.8163v-7.905h1.5319l2.6668 3.5341 2.6667-3.5341z"/><path d="m42.6684 64.8073c0 1.5813-1.2024 2.7098-2.7808 2.7098h-2.5541v2.484h-1.8163v-7.905h4.3704c1.5784.0014 2.7808 1.1299 2.7808 2.7112zm-1.8163.0112c0-.6547-.5111-1.106-1.1799-1.106h-2.3387v2.2135h2.3387c.6702-.0014 1.1799-.4528 1.1799-1.1075z"/><path d="m52.2922 69.9002v.1009h-1.9529l-.5675-1.378h-3.7115l-.5561 1.378h-1.9529v-.1009l3.4172-7.8027h1.8952zm-3.1554-2.8345-1.2137-2.9691-1.2264 2.9691z"/><path d="m53.71 66.0493c0-2.2696 1.5784-4.099 4.1199-4.099 1.691 0 2.9962.8243 3.5636 2.0327l-1.5206.8691c-.3182-.7345-1.056-1.2083-2.0205-1.2083-1.4756 0-2.3035 1.0612-2.3035 2.4055 0 1.3444.8617 2.4056 2.3387 2.4056.9757 0 1.7248-.4738 2.043-1.2084l1.5207.8579c-.5675 1.2084-1.884 2.0439-3.5862 2.0439-2.5429 0-4.1551-1.8406-4.1551-4.099z"/><path d="m70.2696 63.7685h-2.7245v6.2326h-1.8163v-6.2326h-2.7245v-1.671h7.2639v1.671z"/><path d="m44.8635 15.2647c-8.4142 7.8896-13.1282 2.913-21.5622 10.783-5.6644 5.2863-7.4751 15.5815-7.4751 15.5815-.2084-.3379-.597-1.2701-.2774-3.0364.3266-1.8 1.2799-8.5555 6.0713-13.6428 7.9046-8.3942 12.9509-3.6644 20.8808-12.0362.8434-.8902 1.539-1.7397 2.1219-2.5556.4407.5215.9321 1.0556 1.484 1.6051.3323.3309.6604.6407.9828.9294-.6209.7641-1.3517 1.5519-2.2261 2.372z"/><path d="m10.2744 13.0862c5.2702-4.98354 10.798-5.30877 14.2166-6.11623-.4604-.67569-.9996-1.37241-1.6389-2.09296-4.4338 1.52802-8.9127 2.00885-13.99275 7.37789-2.53301 2.6775-3.6932 5.5471-3.9917 6.7331-.20557.8145-.4928 1.6668-.06618 2.1126.00141.0014.00282.0042.00563.0056.84199-2.5023 2.25-4.978 5.4673-8.02zm-1.48264 11.1335c-.18726.764-.45056 1.8883-.02393 2.334-.00282-.0056.00141.0057 0 0 .85748-2.9018 2.03317-5.6382 5.81507-9.1834 4.7675-4.4691 8.4663-4.6892 12.2088-5.5738-.2238-.7177-.4871-1.4453-.8222-2.19106-4.1325 1.42426-7.9159 1.65556-12.903 6.91946-2.6865 2.8346-4.08888 6.9308-4.27474 7.6948zm-2.84839-15.44275c5.38563-5.16861 11.21903-5.3186 14.59263-6.20317-.8251-.72475-1.6178-1.32194-2.3838-1.819593-3.0681 1.007923-8.35653 1.591093-13.62811 7.188663-2.59777 2.75745-3.831184 5.29335-4.400019 7.83215-.1605131.7177-.2154254 1.3051.147841 1.692.001408.0014.002816.0014.004224.0028.843394-2.9144 2.230284-5.3929 5.667234-8.69285zm5.92353 22.75895c-.7815 3.3322.0366 4.3878.0366 4.3878.3294-2.3467 1.2024-8.5555 7.0935-14.1587 3.513-3.2929 6.3839-4.3415 9.1478-5.0186-.2168-.6883-.397-1.3682-.5702-2.0453-3.1779.9-6.3684 1.8589-10.2602 5.9663-4.0283 4.3794-4.8477 8.3157-5.4475 10.8685z"/><path d="m30.2259 33.5111c7.9299-8.3718 12.9508-3.6644 20.8807-12.0362 1.508-1.5925 2.5471-3.0519 3.2962-4.4299 1.1841.3575 2.3429.6183 3.5143.9295-.8729 1.8154-2.1838 3.7289-4.4478 5.8499-8.4143 7.8895-13.1466 2.8934-21.5623 10.7829-5.3983 5.3481-6.4022 10.6386-6.8542 12.6573 0 0-.5364-.9883-.3083-2.5542.1971-1.3583 1.0673-6.6699 5.4814-11.1993z"/><path d="m66.3793 36.6695c-5.618 5.2667-9.5942 4.7915-14.1223 6.241-.4267-.5566-.9096-1.1285-1.4616-1.7159 4.2339-1.5168 8.1271-1.4985 13.2198-6.8746 7.9299-8.3718 2.909-13.0792 10.8389-21.4525 3.9114-4.1298 7.116-5.07744 10.3108-5.98163 1.2968 1.37521 2.2232 2.6579 2.916 3.88173-2.9061.6771-5.8982 1.6528-9.6054 5.1279-8.4129 7.8896-3.682 12.8844-12.0962 20.774z"/><path d="m34.5287 37.7923c7.9299-8.3718 12.9509-3.6644 20.8808-12.0362s2.9089-13.0792 10.8388-21.45243c2.036-2.15044 3.8805-3.435928 5.632-4.30367 2.4077.702325 4.7225 1.04297 7.2667 2.2822-2.8047.6771-5.7094 1.70605-9.2759 5.04945-8.4156 7.88955-3.6833 12.88575-12.099 20.77535-8.4142 7.8896-13.1466 2.8934-21.5622 10.783-3.2103 3.2999-4.6971 6.1779-6.0178 9.7975 0 0-.4421-.8972-.069-2.5121.452-1.9542 1.4925-5.0845 4.4056-8.3831z"/><path d="m70.6821 40.9507c-6.2853 5.892-10.5164 4.5981-15.7612 6.8522-.2253-.635-.49-1.2799-.8167-1.9415 4.631-1.9374 8.7269-1.4664 14.2153-7.2602 7.9299-8.3718 2.9089-13.0792 10.8388-21.4524 3.4975-3.6925 6.4304-4.8406 9.2957-5.6887.7462 1.4733 1.1799 2.8682 1.546 4.2476-2.1895.7289-4.5141 1.9331-7.2203 4.4691-8.4142 7.8895-3.6833 12.8843-12.0976 20.7739z"/><path d="m84.5975 6.30131c-3.1695.70092-6.3684 1.51119-10.4235 5.31299-8.4157 7.8896-3.6834 12.8858-12.099 20.7753-5.5968 5.2472-9.5646 4.7958-14.0702 6.2242h-.0014c-.735-.5789-1.4461-1.0598-2.136-1.4649 4.4803-1.7663 8.503-1.4705 13.845-7.1101 7.9299-8.3719 2.9089-13.0793 10.8388-21.45248 3.6186-3.82003 6.6303-4.91627 9.5899-5.77561 1.3785.78924 2.8808 1.92334 4.4564 3.4906z"/><path d="m25.923 29.2299c7.9299-8.3718 12.9509-3.6644 20.8808-12.0363.9039-.9546 1.6375-1.8602 2.2429-2.7294 1.0701.7584 2.0881 1.315 3.0751 1.7496-.7547 1.0597-1.7107 2.163-2.9554 3.3307-8.4143 7.8896-13.1466 2.8934-21.5622 10.783-5.8489 5.5443-6.8711 13.6582-7.1781 15.0993 0 0-.6955-1.242-.4646-2.8948.1535-1.099 1.0729-8.1475 5.9615-13.3021z"/></g></svg>